<?xml version='1.0' encoding='utf-8'?>
<svg width="513.4999999999mm" height="447.9670574003mm" viewBox="-113.1983208834 -105.465922811 231.3260694009 201.8042037186" version="1.1" xmlns="http://www.w3.org/2000/svg">
  <g transform="scale(1,-1)" stroke-linecap="round">
    <g fill="none" stroke="rgb(64,192,64)" stroke-width="0.6757334062344543" id="Visible">
      <line x1="-8.5162126478" y1="-12.8885127863" x2="-8.5626502363" y2="-12.8085726917" />
      <line x1="-8.5626502363" y1="-17.9736565987" x2="-8.5626502363" y2="-12.8085726917" />
      <line x1="-4.8476431566" y1="-24.36886417" x2="-8.5626502363" y2="-17.9736565987" />
      <line x1="-8.5162126478" y1="-12.8885127863" x2="-6.9812463335" y2="-11.2266475263" />
      <line x1="-6.9812463335" y1="-11.2266475263" x2="-6.7051466965" y2="-11.7019398881" />
      <line x1="-6.7051466965" y1="-11.7019398881" x2="-6.7051466965" y2="-10.9277221422" />
      <line x1="-6.7051466965" y1="-10.9277221422" x2="-4.8476431566" y2="-8.9166548148" />
      <line x1="-2.0543729162" y1="-29.1773457171" x2="-4.8476431566" y2="-24.36886417" />
      <line x1="-1.132636077" y1="-27.3206824699" x2="-1.132636077" y2="-25.5989878342" />
      <line x1="-27.1376856345" y1="14.0023812576" x2="-20.0525799614" y2="17.3556468967" />
      <line x1="-30.8526927141" y1="20.3975888288" x2="-27.1376856345" y2="14.0023812576" />
      <line x1="-30.8526927141" y1="20.3975888288" x2="-93.536136186" y2="-9.2694686345" />
      <path d="M -69.139719566,-45.6246188092 A 1.625,1.466768850438905 0.0 0,1 -70.6552354938,-44.8406020849" />
      <path d="M -70.6552354938,-47.7708996994 A 1.625,1.466768850438905 0.0 0,1 -68.9538816558,-46.3057508922" />
      <path d="M -68.9538816558,-46.3057508922 A 1.625,1.466768850438905 0.0 0,1 -69.139719566,-45.6246188092" />
      <path d="M -55.855146429,-39.3372457359 A 1.625,1.466768850438905 0.0 0,1 -58.9193085189,-40.0183778188" />
      <path d="M -58.9193085189,-40.0183778188 A 1.625,1.466768850438905 0.0 0,1 -55.6693085189,-40.0183778188" />
      <path d="M -55.6693085189,-40.0183778188 A 1.625,1.466768850438905 0.0 0,1 -55.855146429,-39.3372457359" />
      <path d="M -42.5705732921,-33.0498726625 A 1.625,1.466768850438905 0.0 0,1 -45.6347353819,-33.7310047455" />
      <path d="M -45.6347353819,-33.7310047455 A 1.625,1.466768850438905 0.0 0,1 -42.3847353819,-33.7310047455" />
      <path d="M -42.3847353819,-33.7310047455 A 1.625,1.466768850438905 0.0 0,1 -42.5705732921,-33.0498726625" />
      <path d="M -29.2860001551,-26.7624995892 A 1.625,1.466768850438905 0.0 0,1 -32.3501622449,-27.4436316721" />
      <path d="M -32.3501622449,-27.4436316721 A 1.625,1.466768850438905 0.0 0,1 -29.1001622449,-27.4436316721" />
      <path d="M -29.1001622449,-27.4436316721 A 1.625,1.466768850438905 0.0 0,1 -29.2860001551,-26.7624995892" />
      <path d="M -16.0014270181,-20.4751265158 A 1.625,1.466768850438905 0.0 0,1 -19.065589108,-21.1562585988" />
      <path d="M -19.065589108,-21.1562585988 A 1.6250000000000007,1.4667688504389056 0.0 0,1 -15.815589108,-21.1562585988" />
      <path d="M -15.815589108,-21.1562585988 A 1.625,1.466768850438905 0.0 0,1 -16.0014270181,-20.4751265158" />
      <path d="M -76.1053578403,-33.6336046131 A 1.625,1.466768850438905 0.0 0,1 -79.1423571282,-34.0476730459" />
      <path d="M -76.0630077203,-33.7121045159 A 1.625,1.466768850438905 0.0 0,1 -76.1053578403,-33.6336046131" />
      <path d="M -62.8207847034,-27.3462315398 A 1.625,1.466768850438905 0.0 0,1 -65.8849467932,-28.0273636227" />
      <path d="M -65.8849467932,-28.0273636227 A 1.625,1.466768850438905 0.0 0,1 -62.6349467932,-28.0273636227" />
      <path d="M -62.6349467932,-28.0273636227 A 1.625,1.466768850438905 0.0 0,1 -62.8207847034,-27.3462315398" />
      <path d="M -49.5362115664,-21.0588584664 A 1.625,1.466768850438905 0.0 0,1 -52.6003736562,-21.7399905494" />
      <path d="M -52.6003736562,-21.7399905494 A 1.625,1.466768850438905 0.0 0,1 -49.3503736562,-21.7399905494" />
      <path d="M -49.3503736562,-21.7399905494 A 1.625,1.466768850438905 0.0 0,1 -49.5362115664,-21.0588584664" />
      <path d="M -83.0709961146,-21.642590417 A 1.625,1.466768850438905 0.0 0,1 -86.1079954025,-22.0566588498" />
      <path d="M -85.175496881,-23.661910597 A 1.625,1.466768850438905 0.0 0,1 -82.8851582045,-22.3237224999" />
      <path d="M -82.8851582045,-22.3237224999 A 1.625,1.466768850438905 0.0 0,1 -83.0709961146,-21.642590417" />
      <path d="M -69.7864229777,-15.3552173436 A 1.625,1.466768850438905 0.0 0,1 -72.8505850675,-16.0363494266" />
      <path d="M -72.8505850675,-16.0363494266 A 1.625,1.466768850438905 0.0 0,1 -69.6005850675,-16.0363494266" />
      <path d="M -69.6005850675,-16.0363494266 A 1.625,1.466768850438905 0.0 0,1 -69.7864229777,-15.3552173436" />
      <path d="M -56.5018498407,-9.0678442703 A 1.625,1.466768850438905 0.0 0,1 -59.5660119305,-9.7489763532" />
      <path d="M -59.5660119305,-9.7489763532 A 1.625,1.466768850438905 0.0 0,1 -56.3160119305,-9.7489763532" />
      <path d="M -56.3160119305,-9.7489763532 A 1.625,1.466768850438905 0.0 0,1 -56.5018498407,-9.0678442703" />
      <path d="M -36.2516384294,-14.7714853931 A 1.625,1.466768850438905 0.0 0,1 -39.3158005193,-15.452617476" />
      <path d="M -39.3158005193,-15.452617476 A 1.625,1.466768850438905 0.0 0,1 -36.0658005193,-15.452617476" />
      <path d="M -36.0658005193,-15.452617476 A 1.625,1.466768850438905 0.0 0,1 -36.2516384294,-14.7714853931" />
      <path d="M -22.9670652925,-8.4841123197 A 1.625,1.466768850438905 0.0 0,1 -26.0312273823,-9.1652444027" />
      <path d="M -26.0312273823,-9.1652444027 A 1.625,1.466768850438905 0.0 0,1 -22.7812273823,-9.1652444027" />
      <path d="M -22.7812273823,-9.1652444027 A 1.625,1.466768850438905 0.0 0,1 -22.9670652925,-8.4841123197" />
      <path d="M -43.2172767037,-2.7804711969 A 1.625,1.466768850438905 0.0 0,1 -46.2814387936,-3.4616032799" />
      <path d="M -46.2814387936,-3.4616032799 A 1.625,1.466768850438905 0.0 0,1 -43.0314387936,-3.4616032799" />
      <path d="M -43.0314387936,-3.4616032799 A 1.625,1.466768850438905 0.0 0,1 -43.2172767037,-2.7804711969" />
      <path d="M -29.9327035668,3.5069018764 A 1.625,1.466768850438905 0.0 0,1 -32.9968656566,2.8257697935" />
      <path d="M -32.9968656566,2.8257697935 A 1.625,1.466768850438905 0.0 0,1 -29.7468656566,2.8257697935" />
      <path d="M -29.7468656566,2.8257697935 A 1.625,1.466768850438905 0.0 0,1 -29.9327035668,3.5069018764" />
      <line x1="-8.5626502363" y1="-12.8085726917" x2="-8.3489658466" y2="-12.7074393347" />
      <line x1="-1.132636077" y1="-25.5989878342" x2="-1.132636077" y2="-15.2688200202" />
      <line x1="-4.8476431566" y1="-8.9166548148" x2="-4.8476431566" y2="-8.8736124489" />
      <line x1="-6.9812463335" y1="-11.2266475263" x2="-6.7051466965" y2="-11.0959740447" />
      <line x1="5.952469596" y1="-23.9674168308" x2="5.952469596" y2="-22.2457221951" />
      <path d="M -0.9592108913,-28.6590232874 A 8.0,1.599026940123871 -64.67256516342717 0,0 -1.132636077,-27.3206824699" />
      <line x1="97.9941730045" y1="19.208587353" x2="98.4655638201" y2="18.3971105379" />
      <line x1="55.0407198616" y1="-1.1205855842" x2="47.9556141886" y2="-4.4738512233" />
      <line x1="17.2403252272" y1="9.5262111783" x2="20.9553323069" y2="3.1310036071" />
      <line x1="-20.0525799614" y1="25.5091070847" x2="1.9159210237" y2="35.9064424098" />
      <line x1="-70.6552354938" y1="-48.6578483083" x2="-70.6552354938" y2="-39.1338422668" />
      <line x1="-70.6552354938" y1="-39.1338422668" x2="-72.5127390336" y2="-35.9362384811" />
      <line x1="-77.91279541" y1="-34.4152675151" x2="-78.709719195" y2="-34.7924386214" />
      <line x1="-66.5953199279" y1="-55.6467993948" x2="-107.4603978039" y2="14.700483889" />
      <line x1="-96.6602850512" y1="-3.8913953095" x2="-96.6602850512" y2="1.3283741429" />
      <line x1="-96.6602850513" y1="1.3283741429" x2="-99.0385980647" y2="0.2027571549" />
      <line x1="-100.2028378878" y1="3.9559779125" x2="-100.9997616729" y2="3.5788068061" />
      <line x1="-27.1376856345" y1="14.0023812576" x2="-27.1376856345" y2="34.2322932267" />
      <line x1="-27.1376856345" y1="34.2322932267" x2="-20.0525799614" y2="37.5855588658" />
      <line x1="-20.0525799614" y1="17.3556468967" x2="-20.0525799614" y2="37.5855588659" />
      <line x1="-100.3752921309" y1="12.0278183033" x2="-98.5177885911" y2="8.8302145177" />
      <line x1="-98.5177885911" y1="8.8302145177" x2="-98.5177885911" y2="4.9427302011" />
      <line x1="-98.4315614695" y1="4.3775420497" x2="-96.6602850513" y2="1.3283741429" />
      <line x1="-30.8526927141" y1="20.3975888288" x2="-30.8526927141" y2="44.9317373872" />
      <line x1="-30.8526927141" y1="44.9317373872" x2="-28.9951891743" y2="41.7341336015" />
      <line x1="-28.9951891743" y1="41.7341336015" x2="-28.9951891743" y2="37.4298970123" />
      <line x1="-28.9951891743" y1="37.4298970123" x2="-27.1376856345" y2="34.2322932267" />
      <line x1="-104.7147687525" y1="9.9740143774" x2="-100.3752921309" y2="12.0278183033" />
      <line x1="-107.4603978039" y1="14.700483889" x2="-89.7476336213" y2="23.0836479868" />
      <line x1="-27.7529589821" y1="52.4247223291" x2="-10.0401947995" y2="60.8078864269" />
      <line x1="51.9544798397" y1="90.1489607692" x2="69.6672440223" y2="98.532124867" />
      <line x1="69.6672440223" y1="67.9720450838" x2="69.6672440223" y2="98.532124867" />
      <line x1="28.5712944192" y1="48.521998455" x2="69.6672440223" y2="67.9720450838" />
      <line x1="19.6286852064" y1="48.5938430967" x2="26.7137908794" y2="51.9471087359" />
      <line x1="19.6286852064" y1="46.0113011432" x2="19.6286852064" y2="48.5938430967" />
      <line x1="19.6286852064" y1="44.2896065076" x2="19.6286852064" y2="46.0113011432" />
      <line x1="19.6286852064" y1="44.2896065076" x2="1.9159210237" y2="35.9064424098" />
      <line x1="-23.767587041" y1="48.2850030263" x2="-30.8526927141" y2="44.9317373872" />
      <path d="M 32.5811440149,73.8778846651 A 1.625,0.6194494124844088 30.152511652932496 0,0 29.7368583642,72.3805094942" />
      <path d="M 29.7368583642,72.3805094942 A 1.625,0.6194494124844088 30.152511652932496 0,0 32.5471054859,74.0129956702" />
      <path d="M 32.5471054859,74.0129956702 A 1.625,0.6194494124844088 30.152511652932496 0,0 32.5811440149,73.8778846651" />
      <path d="M 50.2939081975,82.2610487629 A 1.625,0.6194494124844088 30.152511652932496 0,0 47.4496225468,80.763673592" />
      <path d="M 47.4496225468,80.763673592 A 1.6250000000320204,0.619449412496615 30.152511652932496 0,0 50.2598696686,82.396159768" />
      <path d="M 50.2598696686,82.396159768 A 1.625,0.6194494124844088 30.152511652932496 0,0 50.2939081975,82.2610487629" />
      <path d="M 67.4531484994,88.8757561765 A 5.5,2.096598011485691 30.152511652932496 0,0 57.8263355278,83.8077171363" />
      <path d="M 57.8263355278,83.8077171363 A 5.500000000024926,2.0965980114951925 30.152511652932496 0,0 67.3379411706,89.3330549628" />
      <path d="M 67.3379411706,89.3330549628 A 5.5,2.096598011485691 30.152511652932496 0,0 67.4531484994,88.8757561765" />
      <line x1="34.241715657" y1="73.1573234931" x2="45.7550123757" y2="78.6063801566" />
      <line x1="34.241715657" y1="69.7139342217" x2="34.241715657" y2="73.1573234931" />
      <line x1="45.7550123757" y1="75.1629908853" x2="34.241715657" y2="69.7139342217" />
      <line x1="45.7550123757" y1="78.6063801566" x2="45.7550123757" y2="75.1629908853" />
      <line x1="-82.6625279483" y1="7.9286962925" x2="-80.89125153" y2="8.7670127023" />
      <line x1="-82.6625279483" y1="-2.4014715216" x2="-82.6625279483" y2="7.9286962925" />
      <line x1="-80.89125153" y1="-1.5631551118" x2="-82.6625279483" y2="-2.4014715216" />
      <line x1="-80.89125153" y1="8.7670127023" x2="-80.89125153" y2="-1.5631551118" />
      <line x1="-79.1199751117" y1="9.605329112" x2="-77.3486986935" y2="10.4436455218" />
      <line x1="-79.1199751117" y1="-0.724838702" x2="-79.1199751117" y2="9.605329112" />
      <line x1="-77.3486986935" y1="0.1134777078" x2="-79.1199751117" y2="-0.724838702" />
      <line x1="-77.3486986935" y1="10.4436455218" x2="-77.3486986935" y2="0.1134777078" />
      <line x1="-75.5774222752" y1="11.2819619316" x2="-73.806145857" y2="12.1202783414" />
      <line x1="-75.5774222752" y1="0.9517941176" x2="-75.5774222752" y2="11.2819619316" />
      <line x1="-73.806145857" y1="1.7901105273" x2="-75.5774222752" y2="0.9517941176" />
      <line x1="-73.806145857" y1="12.1202783414" x2="-73.806145857" y2="1.7901105273" />
      <line x1="-72.0348694387" y1="12.9585947512" x2="-70.2635930204" y2="13.7969111609" />
      <line x1="-72.0348694387" y1="2.6284269371" x2="-72.0348694387" y2="12.9585947512" />
      <line x1="-70.2635930204" y1="3.4667433469" x2="-72.0348694387" y2="2.6284269371" />
      <line x1="-70.2635930204" y1="13.7969111609" x2="-70.2635930204" y2="3.4667433469" />
      <line x1="-68.4923166022" y1="14.6352275707" x2="-66.7210401839" y2="15.4735439805" />
      <line x1="-68.4923166022" y1="4.3050597567" x2="-68.4923166022" y2="14.6352275707" />
      <line x1="-66.7210401839" y1="5.1433761665" x2="-68.4923166022" y2="4.3050597567" />
      <line x1="-66.7210401839" y1="15.4735439805" x2="-66.7210401839" y2="5.1433761665" />
      <line x1="-64.9497637656" y1="16.3118603903" x2="-63.1784873474" y2="17.1501768001" />
      <line x1="-64.9497637656" y1="5.9816925762" x2="-64.9497637656" y2="16.3118603903" />
      <line x1="-63.1784873474" y1="6.820008986" x2="-64.9497637656" y2="5.9816925762" />
      <line x1="-63.1784873474" y1="17.1501768001" x2="-63.1784873474" y2="6.820008986" />
      <line x1="-61.4072109291" y1="17.9884932098" x2="-59.6359345109" y2="18.8268096196" />
      <line x1="-61.4072109291" y1="7.6583253958" x2="-61.4072109291" y2="17.9884932098" />
      <line x1="-59.6359345109" y1="8.4966418056" x2="-61.4072109291" y2="7.6583253958" />
      <line x1="-59.6359345109" y1="18.8268096196" x2="-59.6359345109" y2="8.4966418056" />
      <line x1="-57.8646580926" y1="19.6651260294" x2="-56.0933816743" y2="20.5034424392" />
      <line x1="-57.8646580926" y1="9.3349582154" x2="-57.8646580926" y2="19.6651260294" />
      <line x1="-56.0933816743" y1="10.1732746251" x2="-57.8646580926" y2="9.3349582154" />
      <line x1="-56.0933816743" y1="20.5034424392" x2="-56.0933816743" y2="10.1732746251" />
      <line x1="-20.0525799614" y1="37.5609695344" x2="-18.8965768908" y2="38.1080870446" />
      <line x1="-18.8965768908" y1="27.7779192305" x2="-20.0525799614" y2="27.2308017203" />
      <line x1="-18.8965768908" y1="38.1080870446" x2="-18.8965768908" y2="27.7779192305" />
      <line x1="-17.1253004726" y1="38.9464034543" x2="-15.3540240543" y2="39.7847198641" />
      <line x1="-17.1253004726" y1="28.6162356403" x2="-17.1253004726" y2="38.9464034543" />
      <line x1="-15.3540240543" y1="29.4545520501" x2="-17.1253004726" y2="28.6162356403" />
      <line x1="-15.3540240543" y1="39.7847198641" x2="-15.3540240543" y2="29.4545520501" />
      <line x1="-13.582747636" y1="40.6230362739" x2="-11.8114712178" y2="41.4613526837" />
      <line x1="-13.582747636" y1="30.2928684599" x2="-13.582747636" y2="40.6230362739" />
      <line x1="-13.582747636" y1="30.2928684599" x2="-11.8114712178" y2="31.1311848696" />
      <line x1="-11.8114712178" y1="41.4613526837" x2="-11.8114712178" y2="31.1311848696" />
      <line x1="41.3268213301" y1="66.6108449771" x2="41.3268213301" y2="56.280677163" />
      <line x1="41.3268213301" y1="66.6108449771" x2="39.5555449118" y2="65.7725285673" />
      <line x1="39.5555449118" y1="55.4423607533" x2="39.5555449118" y2="65.7725285673" />
      <line x1="41.3268213301" y1="56.280677163" x2="39.5555449118" y2="55.4423607533" />
      <line x1="43.0980977483" y1="57.1189935728" x2="43.0980977483" y2="67.4491613869" />
      <line x1="43.0980977483" y1="57.1189935728" x2="44.8693741666" y2="57.9573099826" />
      <line x1="44.8693741666" y1="68.2874777966" x2="44.8693741666" y2="57.9573099826" />
      <line x1="43.0980977483" y1="67.4491613869" x2="44.8693741666" y2="68.2874777966" />
      <line x1="46.6406505849" y1="69.1257942064" x2="48.4119270031" y2="69.9641106162" />
      <line x1="46.6406505849" y1="58.7956263924" x2="46.6406505849" y2="69.1257942064" />
      <line x1="48.4119270031" y1="59.6339428022" x2="46.6406505849" y2="58.7956263924" />
      <line x1="48.4119270031" y1="69.9641106162" x2="48.4119270031" y2="59.6339428022" />
      <line x1="50.1832034214" y1="70.802427026" x2="51.9544798397" y2="71.6407434358" />
      <line x1="50.1832034214" y1="60.4722592119" x2="50.1832034214" y2="70.802427026" />
      <line x1="51.9544798397" y1="61.3105756217" x2="50.1832034214" y2="60.4722592119" />
      <line x1="51.9544798397" y1="71.6407434358" x2="51.9544798397" y2="61.3105756217" />
      <path d="M -69.139719566,-46.915889786 A 1.625,1.466768850438905 180.0 0,0 -69.1197749239,-46.9513863805" />
      <path d="M -70.6552354938,-46.1318730617 A 1.625,1.466768850438905 180.0 0,0 -69.139719566,-46.915889786" />
      <path d="M -55.855146429,-40.6285167126 A 1.625,1.466768850438905 180.0 0,0 -55.8352017869,-40.6640133072" />
      <path d="M -58.7534152508,-40.6640133072 A 1.625,1.466768850438905 180.0 0,0 -55.855146429,-40.6285167126" />
      <path d="M -42.5705732921,-34.3411436393 A 1.625,1.466768850438905 180.0 0,0 -42.55062865,-34.3766402338" />
      <path d="M -45.4688421138,-34.3766402338 A 1.625,1.466768850438905 180.0 0,0 -42.5705732921,-34.3411436393" />
      <path d="M -29.2860001551,-28.0537705659 A 1.625,1.466768850438905 180.0 0,0 -29.266055513,-28.0892671605" />
      <path d="M -32.1842689769,-28.0892671605 A 1.625,1.466768850438905 180.0 0,0 -29.2860001551,-28.0537705659" />
      <path d="M -16.0014270181,-21.7663974926 A 1.625,1.466768850438905 180.0 0,0 -15.9814823761,-21.8018940871" />
      <path d="M -18.8996958399,-21.8018940871 A 1.625,1.466768850438905 180.0 0,0 -16.0014270181,-21.7663974926" />
      <path d="M -78.7865452132,-34.6601862939 A 1.625,1.466768850438905 180.0 0,0 -77.3515127905,-34.1496215518" />
      <path d="M -62.8207847034,-28.6375025165 A 1.625,1.466768850438905 180.0 0,0 -62.8008400613,-28.6729991111" />
      <path d="M -65.7190535251,-28.6729991111 A 1.625,1.466768850438905 180.0 0,0 -62.8207847034,-28.6375025165" />
      <path d="M -49.5362115664,-22.3501294432 A 1.625,1.466768850438905 180.0 0,0 -49.5162669243,-22.3856260377" />
      <path d="M -52.4344803882,-22.3856260377 A 1.625,1.466768850438905 180.0 0,0 -49.5362115664,-22.3501294432" />
      <path d="M -83.0709961146,-22.9338613938 A 1.625,1.466768850438905 180.0 0,0 -83.0510514725,-22.9693579883" />
      <path d="M -85.7521834875,-22.6691720978 A 1.625,1.466768850438905 180.0 0,0 -83.0709961146,-22.9338613938" />
      <path d="M -69.7864229777,-16.6464883204 A 1.625,1.466768850438905 180.0 0,0 -69.7664783356,-16.681984915" />
      <path d="M -72.6846917994,-16.681984915 A 1.625,1.466768850438905 180.0 0,0 -69.7864229777,-16.6464883204" />
      <path d="M -56.5018498407,-10.3591152471 A 1.625,1.466768850438905 180.0 0,0 -56.4819051986,-10.3946118416" />
      <path d="M -59.4001186625,-10.3946118416 A 1.625,1.466768850438905 180.0 0,0 -56.5018498407,-10.3591152471" />
      <path d="M -36.2516384294,-16.0627563698 A 1.625,1.466768850438905 180.0 0,0 -36.2316937873,-16.0982529644" />
      <path d="M -39.1499072512,-16.0982529644 A 1.625,1.466768850438905 180.0 0,0 -36.2516384294,-16.0627563698" />
      <path d="M -22.9670652925,-9.7753832965 A 1.625,1.466768850438905 180.0 0,0 -22.9471206504,-9.810879891" />
      <path d="M -25.8653341142,-9.810879891 A 1.625,1.466768850438905 180.0 0,0 -22.9670652925,-9.7753832965" />
      <path d="M -43.2172767037,-4.0717421737 A 1.625,1.466768850438905 180.0 0,0 -43.1973320617,-4.1072387683" />
      <path d="M -46.1155455255,-4.1072387683 A 1.625,1.466768850438905 180.0 0,0 -43.2172767037,-4.0717421737" />
      <path d="M -29.9327035668,2.2156308996 A 1.625,1.466768850438905 180.0 0,0 -29.9127589247,2.1801343051" />
      <path d="M -32.8309723885,2.1801343051 A 1.625,1.466768850438905 180.0 0,0 -29.9327035668,2.2156308996" />
      <path d="M 6.4566440214,-25.1492193958 Q 6.3117932912,-24.9625119069 6.2079098647,-24.7838357838" />
      <path d="M 6.2079098647,-24.7838357838 Q 5.953427319,-24.3443438865 5.952469596,-23.9674168308" />
      <line x1="-1.132636077" y1="-15.2688200202" x2="-1.132636077" y2="-6.2299231829" />
      <line x1="-1.132636077" y1="-6.2299231829" x2="-2.9901396168" y2="-3.0323193972" />
      <line x1="-2.9901396169" y1="-3.0323193973" x2="-2.9901396169" y2="-7.3365559865" />
      <line x1="-2.9901396169" y1="-7.3365559865" x2="-4.8476431567" y2="-4.1389522008" />
      <line x1="-4.8476431566" y1="-8.8736124489" x2="-4.8476431566" y2="-4.1389522008" />
      <line x1="5.952469596" y1="-22.2457221951" x2="5.952469596" y2="-11.9155543811" />
      <line x1="108.8472726016" y1="23.310604978" x2="-61.1952635516" y2="-57.1677703609" />
      <line x1="103.9762624513" y1="-4.820184684" x2="103.9762624513" y2="-3.5166190415" />
      <line x1="55.3523880707" y1="-27.8330760544" x2="103.9762624513" y2="-4.820184684" />
      <line x1="-6.72851369" y1="-55.9113946527" x2="-6.72851369" y2="-57.2149602952" />
      <line x1="-41.6249958292" y1="-73.7308994898" x2="-6.72851369" y2="-57.2149602952" />
      <line x1="-61.1952635516" y1="-57.1677703609" x2="-66.5953199279" y2="-55.6467993948" />
      <line x1="-74.9947121154" y1="-41.1876461927" x2="-70.6552354938" y2="-39.1338422668" />
      <line x1="-20.0525799614" y1="37.5855588658" x2="-21.9100835013" y2="40.7831626515" />
      <line x1="-21.9100835013" y1="45.0873992407" x2="-21.9100835013" y2="40.7831626515" />
      <line x1="-21.9100835012" y1="45.0873992407" x2="-23.767587041" y2="48.2850030263" />
      <line x1="97.9941730045" y1="19.208587353" x2="92.421662385" y2="28.8013987099" />
      <line x1="92.421662385" y1="28.8013987099" x2="85.336556712" y2="25.4481330708" />
      <line x1="85.336556712" y1="25.4481330708" x2="81.6215496324" y2="31.843340642" />
      <line x1="86.7454916972" y1="38.5726559323" x2="80.8122652612" y2="48.78642237" />
      <line x1="73.7271595882" y1="45.4331567309" x2="80.8122652612" y2="48.78642237" />
      <line x1="70.0121525085" y1="51.8283643022" x2="73.7271595882" y2="45.4331567309" />
      <line x1="69.6672440223" y1="67.9720450838" x2="75.1360945734" y2="58.5576795925" />
      <line x1="30.4287979591" y1="41.2476645754" x2="23.343692286" y2="37.8943989363" />
      <line x1="23.343692286" y1="37.8943989363" x2="19.6286852064" y2="44.2896065076" />
      <line x1="20.9553323069" y1="3.1310036071" x2="28.0404379799" y2="6.4842692462" />
      <line x1="47.9556141886" y1="-4.4738512233" x2="44.240607109" y2="1.921356348" />
      <path d="M 47.883991438,25.0485440715 A 1.625,1.466768850438905 0.0 0,1 44.8198293482,24.3674119885" />
      <path d="M 44.8198293482,24.3674119885 A 1.625,1.466768850438905 0.0 0,1 48.0698293482,24.3674119885" />
      <path d="M 48.0698293482,24.3674119885 A 1.625,1.466768850438905 0.0 0,1 47.883991438,25.0485440715" />
      <path d="M 65.5967556206,33.4317081693 A 1.625,1.466768850438905 0.0 0,1 62.5325935308,32.7505760863" />
      <path d="M 62.5325935308,32.7505760863 A 1.625,1.466768850438905 0.0 0,1 65.7825935308,32.7505760863" />
      <path d="M 65.7825935308,32.7505760863 A 1.625,1.466768850438905 0.0 0,1 65.5967556206,33.4317081693" />
      <line x1="17.2403252272" y1="9.5262111783" x2="17.2403252272" y2="11.247905814" />
      <line x1="20.9553323069" y1="3.1310036071" x2="20.9553323069" y2="4.8526982427" />
      <line x1="55.0407198616" y1="-1.1205855842" x2="55.0407198616" y2="0.6011090515" />
      <line x1="47.9556141886" y1="-4.4738512233" x2="47.9556141886" y2="-2.7521565876" />
      <line x1="69.6672440223" y1="98.532124867" x2="110.5323218983" y2="28.1848415832" />
      <line x1="92.421662385" y1="28.8013987099" x2="92.421662385" y2="30.5230933456" />
      <line x1="92.421662385" y1="30.5230933456" x2="92.421662385" y2="33.1056352991" />
      <line x1="92.421662385" y1="33.1056352991" x2="88.7066553054" y2="39.5008428703" />
      <line x1="80.8122652612" y1="48.78642237" x2="80.8122652612" y2="50.5081170057" />
      <line x1="80.8122652612" y1="50.5081170057" x2="80.8122652612" y2="53.0906589593" />
      <line x1="80.8122652612" y1="53.0906589593" x2="77.0972581815" y2="59.4858665305" />
      <line x1="108.8472726016" y1="23.310604978" x2="110.5323218983" y2="28.1848415832" />
      <line x1="-74.2840154519" y1="-36.7745548909" x2="-72.5127390336" y2="-35.9362384811" />
      <line x1="-77.91279541" y1="-34.4152675151" x2="-76.1415189917" y2="-33.5769511053" />
      <line x1="-111.0029506405" y1="13.0238510695" x2="-107.4603978039" y2="14.700483889" />
      <line x1="-66.4228656848" y1="-63.7186397856" x2="-111.0029506405" y2="13.0238510695" />
      <line x1="117.7898818144" y1="23.4662668315" x2="-66.4228656848" y2="-63.7186397856" />
      <line x1="73.2097968588" y1="100.2087576866" x2="117.7898818144" y2="23.4662668315" />
      <line x1="69.6672440223" y1="98.532124867" x2="73.2097968588" y2="100.2087576866" />
      <path d="M -63.7199166225,-59.3818302488 A 1.625,1.466768850438905 0.0 0,1 -66.7840787123,-60.0629623317" />
      <path d="M -66.7840787123,-60.0629623317 A 1.625,1.466768850438905 0.0 0,1 -63.5340787123,-60.0629623317" />
      <path d="M -63.5340787123,-60.0629623317 A 1.625,1.466768850438905 0.0 0,1 -63.7199166225,-59.3818302488" />
      <path d="M 115.179001622,25.288127139 A 1.625,1.466768850438905 0.0 0,1 112.1148395322,24.6069950561" />
      <path d="M 112.1148395322,24.6069950561 A 1.625,1.466768850438905 0.0 0,1 115.3648395322,24.6069950561" />
      <path d="M 115.3648395322,24.6069950561 A 1.625,1.466768850438905 0.0 0,1 115.179001622,25.288127139" />
      <line x1="-100.2890650093" y1="7.9918981079" x2="-98.5177885911" y2="8.8302145177" />
      <path d="M -76.0586652976,-51.0048830779 A 5.75,1.149300613214027 115.32743483657283 0,1 -70.9287073501,-60.7987359561" />
      <path d="M -70.9287073501,-60.7987359561 A 5.75,1.149300613214027 115.32743483657283 0,1 -75.8483005682,-50.4041410834" />
      <path d="M -75.8483005682,-50.4041410834 A 5.75,1.149300613214027 115.32743483657283 0,1 -76.0586652976,-51.0048830779" />
      <line x1="-91.4991634724" y1="-48.5285265093" x2="-91.4991634724" y2="-38.1983586953" />
      <line x1="-91.4991634724" y1="-38.1983586953" x2="-92.4279152423" y2="-36.5995568025" />
      <line x1="-92.4279152423" y1="-36.5995568025" x2="-92.4279152423" y2="-46.9297246165" />
      <line x1="-92.4279152423" y1="-46.9297246165" x2="-91.4991634724" y2="-46.4901614623" />
      <line x1="-92.4279152423" y1="-46.9297246165" x2="-91.4991634724" y2="-48.5285265093" />
      <line x1="-93.3566670122" y1="-45.3309227237" x2="-93.3566670122" y2="-35.0007549096" />
      <line x1="-93.3566670122" y1="-35.0007549096" x2="-94.2854187821" y2="-33.4019530168" />
      <line x1="-94.2854187821" y1="-33.4019530168" x2="-94.2854187821" y2="-43.7321208309" />
      <line x1="-94.2854187821" y1="-43.7321208309" x2="-93.3566670122" y2="-43.2925576767" />
      <line x1="-94.2854187821" y1="-43.7321208309" x2="-93.3566670122" y2="-45.3309227237" />
      <line x1="-95.214170552" y1="-42.1333189381" x2="-95.214170552" y2="-31.803151124" />
      <line x1="-95.214170552" y1="-31.803151124" x2="-96.1429223219" y2="-30.2043492312" />
      <line x1="-96.1429223219" y1="-30.2043492312" x2="-96.1429223219" y2="-40.5345170453" />
      <line x1="-96.1429223219" y1="-40.5345170453" x2="-95.214170552" y2="-40.0949538911" />
      <line x1="-96.1429223219" y1="-40.5345170453" x2="-95.214170552" y2="-42.1333189381" />
      <line x1="-97.0716740918" y1="-38.9357151525" x2="-97.0716740918" y2="-28.6055473384" />
      <line x1="-97.0716740918" y1="-28.6055473384" x2="-98.0004258617" y2="-27.0067454456" />
      <line x1="-98.0004258617" y1="-27.0067454456" x2="-98.0004258617" y2="-37.3369132597" />
      <line x1="-98.0004258617" y1="-37.3369132597" x2="-97.0716740918" y2="-36.8973501055" />
      <line x1="-98.0004258617" y1="-37.3369132597" x2="-97.0716740918" y2="-38.9357151525" />
      <line x1="-98.9291776316" y1="-35.7381113669" x2="-98.9291776316" y2="-25.4079435528" />
      <line x1="-98.9291776316" y1="-25.4079435528" x2="-99.8579294015" y2="-23.8091416601" />
      <line x1="-99.8579294015" y1="-23.8091416601" x2="-99.8579294015" y2="-34.1393094741" />
      <line x1="-99.8579294015" y1="-34.1393094741" x2="-98.9291776316" y2="-33.6997463199" />
      <line x1="-99.8579294015" y1="-34.1393094741" x2="-98.9291776316" y2="-35.7381113669" />
      <line x1="-100.7866811714" y1="-32.5405075813" x2="-100.7866811714" y2="-22.2103397672" />
      <line x1="-100.7866811714" y1="-22.2103397672" x2="-101.7154329413" y2="-20.6115378745" />
      <line x1="-101.7154329413" y1="-20.6115378745" x2="-101.7154329413" y2="-30.9417056885" />
      <line x1="-101.7154329413" y1="-30.9417056885" x2="-100.7866811714" y2="-30.5021425344" />
      <line x1="-101.7154329413" y1="-30.9417056885" x2="-100.7866811714" y2="-32.5405075813" />
      <line x1="-102.6441847112" y1="-29.3429037957" x2="-102.6441847112" y2="-19.0127359817" />
      <line x1="-102.6441847112" y1="-19.0127359817" x2="-103.572936481" y2="-17.4139340889" />
      <line x1="-103.572936481" y1="-17.4139340889" x2="-103.572936481" y2="-27.744101903" />
      <line x1="-103.572936481" y1="-27.744101903" x2="-102.6441847112" y2="-27.3045387488" />
      <line x1="-103.572936481" y1="-27.744101903" x2="-102.6441847112" y2="-29.3429037957" />
      <line x1="-104.5016882509" y1="-26.1453000102" x2="-104.5016882509" y2="-15.8151321961" />
      <line x1="-104.5016882509" y1="-15.8151321961" x2="-105.4304400208" y2="-14.2163303034" />
      <line x1="-105.4304400208" y1="-14.2163303034" x2="-105.4304400208" y2="-24.5464981174" />
      <line x1="-105.4304400208" y1="-24.5464981174" x2="-104.5016882509" y2="-24.1069349633" />
      <line x1="-105.4304400208" y1="-24.5464981174" x2="-104.5016882509" y2="-26.1453000102" />
      <line x1="-99.4308307863" y1="0.8779670851" x2="-98.4315614695" y2="1.3509050509" />
      <line x1="-98.4315614695" y1="1.3509050509" x2="-98.4315614695" y2="4.7942943223" />
      <line x1="-100.2028378878" y1="3.9559779125" x2="-98.4315614695" y2="4.7942943223" />
      <line x1="-21.9100835013" y1="40.7831626515" x2="-28.9951891743" y2="37.4298970123" />
      <line x1="-21.9100835013" y1="45.0873992407" x2="-28.9951891743" y2="41.7341336015" />
      <line x1="-89.7476336213" y1="23.0836479868" x2="-90.2180675346" y2="23.8934775401" />
      <line x1="-107.4603978039" y1="15.5613312069" x2="-107.4603978039" y2="15.7765430363" />
      <line x1="-107.4603978039" y1="14.700483889" x2="-107.4603978039" y2="15.5613312069" />
      <line x1="-111.0029506405" y1="13.0238510695" x2="-111.0029506405" y2="14.7455457052" />
      <line x1="-111.0029506405" y1="14.7455457052" x2="73.2097968588" y2="101.9304523223" />
      <line x1="73.2097968588" y1="100.2087576866" x2="73.2097968588" y2="101.9304523223" />
      <line x1="69.6672440223" y1="99.3929721849" x2="69.6672440223" y2="98.532124867" />
      <line x1="69.6672440223" y1="99.3929721849" x2="69.6672440223" y2="99.6081840143" />
      <line x1="51.9544798397" y1="91.0098080871" x2="51.9544798397" y2="91.2250199165" />
      <line x1="51.9544798397" y1="90.1489607692" x2="51.9544798397" y2="91.0098080871" />
      <line x1="-10.0401947995" y1="61.6687337448" x2="-10.0401947995" y2="60.8078864269" />
      <line x1="-10.0401947995" y1="61.6687337448" x2="-10.0401947995" y2="61.8839455742" />
      <line x1="-27.7529589821" y1="53.285569647" x2="-27.7529589821" y2="53.5007814764" />
      <line x1="-27.7529589821" y1="52.4247223291" x2="-27.7529589821" y2="53.285569647" />
      <line x1="-89.7476336213" y1="23.9444953047" x2="-89.7476336213" y2="23.0836479868" />
      <line x1="-89.7476336213" y1="23.9444953047" x2="-89.7476336213" y2="24.1597071341" />
      <line x1="-10.0401947995" y1="60.8078864269" x2="-10.5106287128" y2="61.6177159802" />
      <line x1="69.6672440223" y1="98.532124867" x2="69.196810109" y2="99.3419544203" />
      <line x1="23.343692286" y1="37.8943989363" x2="23.343692286" y2="39.616093572" />
      <line x1="23.343692286" y1="39.616093572" x2="21.4861887462" y2="42.8136973576" />
      <line x1="28.5712944192" y1="46.1669629967" x2="30.4287979591" y2="42.9693592111" />
      <line x1="30.4287979591" y1="41.2476645754" x2="30.4287979591" y2="42.9693592111" />
      <line x1="21.4861887462" y1="42.8136973576" x2="21.4861887462" y2="45.3962393111" />
      <line x1="21.4861887462" y1="45.3962393111" x2="19.6286852064" y2="48.5938430967" />
      <line x1="26.7137908794" y1="51.9471087359" x2="28.5712944192" y2="48.7495049502" />
      <line x1="28.5712944192" y1="46.1669629967" x2="28.5712944192" y2="48.7495049502" />
      <line x1="28.5712944192" y1="48.7495049502" x2="21.4861887462" y2="45.3962393111" />
      <path d="M 63.8954639293,89.4716215437 A 5.5,2.096598011485691 30.152511652932496 0,0 59.4113092293,86.866754341" />
      <line x1="44.1860814892" y1="77.8638306063" x2="45.7550123757" y2="75.1629908853" />
      <line x1="-82.6625279483" y1="1.4860127951" x2="-80.89125153" y2="-1.5631551118" />
      <line x1="-79.1199751117" y1="3.1626456146" x2="-77.3486986935" y2="0.1134777078" />
      <line x1="-75.5774222752" y1="4.8392784342" x2="-73.806145857" y2="1.7901105273" />
      <line x1="-72.0348694387" y1="6.5159112537" x2="-70.2635930204" y2="3.4667433469" />
      <line x1="-68.4923166022" y1="8.1925440733" x2="-66.7210401839" y2="5.1433761665" />
      <line x1="-64.9497637656" y1="9.8691768929" x2="-63.1784873474" y2="6.820008986" />
      <line x1="-61.4072109291" y1="11.5458097124" x2="-59.6359345109" y2="8.4966418056" />
      <line x1="-57.8646580926" y1="13.222442532" x2="-56.0933816743" y2="10.1732746251" />
      <line x1="-20.0525799614" y1="29.767923403" x2="-18.8965768908" y2="27.7779192305" />
      <line x1="-17.1253004726" y1="32.5037199569" x2="-15.3540240543" y2="29.4545520501" />
      <line x1="-13.582747636" y1="34.1803527765" x2="-11.8114712178" y2="31.1311848696" />
      <line x1="39.5555449118" y1="59.3298450699" x2="41.3268213301" y2="56.280677163" />
      <line x1="43.0980977483" y1="61.0064778894" x2="44.8693741666" y2="57.9573099826" />
      <line x1="46.6406505849" y1="62.683110709" x2="48.4119270031" y2="59.6339428022" />
      <line x1="50.1832034214" y1="64.3597435285" x2="51.9544798397" y2="61.3105756217" />
      <line x1="-4.8476431567" y1="-4.1389522008" x2="-2.9901396169" y2="-3.2598258924" />
      <line x1="-1.3050903201" y1="1.841917208" x2="-1.3050903201" y2="-2.2348128861" />
      <line x1="-1.3050903201" y1="1.8419172079" x2="2.2374625164" y2="3.5185500274" />
      <line x1="0.5524132197" y1="-1.3556865777" x2="-2.9901396169" y2="-3.0323193973" />
      <line x1="5.952469596" y1="-2.8766575438" x2="-1.132636077" y2="-6.2299231829" />
      <line x1="2.2374625164" y1="3.5185500274" x2="5.952469596" y2="-2.8766575438" />
      <line x1="-1.3050903201" y1="1.841917208" x2="0.5524132197" y2="-1.3556865777" />
      <line x1="5.952469596" y1="-11.9155543811" x2="5.952469596" y2="-2.8766575438" />
      <path d="M 83.3606964345,0.4999249032 A 1.625,0.6194494124844088 -149.8474883470675 0,1 83.3266579055,0.6350359082" />
      <path d="M 83.3266579055,0.6350359082 A 1.625,0.6194494124844088 -149.8474883470675 0,1 80.5164107838,-0.9974502678" />
      <path d="M 80.5164107838,-0.9974502678 A 1.625,0.6194494124844088 -149.8474883470675 0,1 83.3606964345,0.4999249032" />
      <path d="M 83.3606964345,-8.1085482752 A 1.625,0.6194494124844088 -149.8474883470675 0,1 83.3266579055,-7.9734372701" />
      <path d="M 83.3266579055,-7.9734372701 A 1.625,0.6194494124844088 -149.8474883470675 0,1 80.5164107838,-9.6059234461" />
      <path d="M 80.5164107838,-9.6059234461 A 1.625,0.6194494124844088 -149.8474883470675 0,1 83.3606964345,-8.1085482752" />
      <path d="M 43.839091352,-32.6242025638 A 1.5,0.5717994576779157 -149.8474883470675 0,1 43.8076711714,-32.499484713" />
      <path d="M 43.8076711714,-32.499484713 A 1.5,0.5717994576779157 -149.8474883470675 0,1 41.2135969052,-34.0063950293" />
      <path d="M 41.2135969052,-34.0063950293 A 1.5,0.5717994576779157 -149.8474883470675 0,1 43.839091352,-32.6242025638" />
      <path d="M 109.7084331561,-4.0921123409 A 1.625,0.6194494124844088 -149.8474883470675 0,1 109.6743946271,-3.9570013358" />
      <path d="M 109.6743946271,-3.9570013358 A 1.625,0.6194494124844088 -149.8474883470675 0,1 106.8641475054,-5.5894875118" />
      <path d="M 106.8641475054,-5.5894875118 A 1.625,0.6194494124844088 -149.8474883470675 0,1 109.7084331561,-4.0921123409" />
      <line x1="105.8337659912" y1="-8.0177884696" x2="105.8337659912" y2="-2.6374927331" />
      <line x1="105.8337659912" y1="-8.0177884696" x2="103.9762624513" y2="-4.820184684" />
      <line x1="105.8337659912" y1="-2.6374927331" x2="55.3523880707" y2="-26.5295104119" />
      <line x1="55.3523880707" y1="-26.5295104119" x2="55.3523880707" y2="-31.9098061483" />
      <line x1="55.3523880707" y1="-31.9098061483" x2="105.8337659912" y2="-8.0177884696" />
      <path d="M 54.3560450854,-30.2895001465 A 1.625,0.6194494124844088 -149.8474883470675 0,1 54.3220065564,-30.1543891414" />
      <path d="M 54.3220065564,-30.1543891414 A 1.625,0.6194494124844088 -149.8474883470675 0,1 51.5117594347,-31.7868753174" />
      <path d="M 51.5117594347,-31.7868753174 A 1.625,0.6194494124844088 -149.8474883470675 0,1 54.3560450854,-30.2895001465" />
      <path d="M 43.839091352,-37.7892864708 A 1.5,0.5717994576779157 -149.8474883470675 0,1 43.8076711714,-37.66456862" />
      <path d="M 43.8076711714,-37.66456862 A 1.5,0.5717994576779157 -149.8474883470675 0,1 41.2135969052,-39.1714789363" />
      <path d="M 41.2135969052,-39.1714789363 A 1.5,0.5717994576779157 -149.8474883470675 0,1 43.839091352,-37.7892864708" />
      <line x1="36.3111665744" y1="-37.908741941" x2="36.3111665744" y2="-34.4653526697" />
      <line x1="36.3111665744" y1="-37.908741941" x2="34.7422356878" y2="-35.2079022201" />
      <line x1="36.3111665744" y1="-34.4653526697" x2="22.1409552283" y2="-41.1718839479" />
      <line x1="22.1409552283" y1="-41.1718839479" x2="22.1409552283" y2="-44.6152732193" />
      <line x1="22.1409552283" y1="-44.6152732193" x2="36.3111665744" y2="-37.908741941" />
      <path d="M 17.2699450781,-45.1989487105 A 1.5,0.5717994576779157 -149.8474883470675 0,1 17.2385248975,-45.0742308597" />
      <path d="M 17.2385248975,-45.0742308597 A 1.5,0.5717994576779157 -149.8474883470675 0,1 14.6444506313,-46.581141176" />
      <path d="M 14.6444506313,-46.581141176 A 1.5,0.5717994576779157 -149.8474883470675 0,1 17.2699450781,-45.1989487105" />
      <path d="M -0.9963429853,-56.4911921887 A 1.625,0.6194494124844088 -149.8474883470675 0,1 -1.0303815142,-56.3560811837" />
      <path d="M -1.0303815142,-56.3560811837 A 1.625000000032022,0.6194494124966156 -149.8474883470675 0,1 -3.840628636,-57.9885673597" />
      <path d="M -3.840628636,-57.9885673597 A 1.625,0.6194494124844088 -149.8474883470675 0,1 -0.9963429853,-56.4911921887" />
      <line x1="36.3111665744" y1="-43.0738258481" x2="36.3111665744" y2="-39.6304365767" />
      <line x1="36.3111665744" y1="-43.0738258481" x2="34.7422356878" y2="-40.3729861271" />
      <line x1="36.3111665744" y1="-39.6304365767" x2="22.1409552283" y2="-46.336967855" />
      <line x1="22.1409552283" y1="-46.336967855" x2="22.1409552283" y2="-49.7803571263" />
      <line x1="22.1409552283" y1="-49.7803571263" x2="36.3111665744" y2="-43.0738258481" />
      <path d="M 17.2699450781,-50.3640326175 A 1.5,0.5717994576779157 -149.8474883470675 0,1 17.2385248975,-50.2393147667" />
      <path d="M 17.2385248975,-50.2393147667 A 1.5,0.5717994576779157 -149.8474883470675 0,1 14.6444506313,-51.746225083" />
      <path d="M 14.6444506313,-51.746225083 A 1.5,0.5717994576779157 -149.8474883470675 0,1 17.2699450781,-50.3640326175" />
      <line x1="-4.8710101502" y1="-55.0322683444" x2="-41.6249958292" y2="-72.4273338473" />
      <line x1="-41.6249958292" y1="-72.4273338473" x2="-41.6249958292" y2="-77.8076295838" />
      <line x1="-41.6249958292" y1="-77.8076295838" x2="-4.8710101502" y2="-60.4125640809" />
      <line x1="-4.8710101502" y1="-60.4125640809" x2="-6.72851369" y2="-57.2149602952" />
      <line x1="-4.8710101502" y1="-55.0322683444" x2="-4.8710101502" y2="-60.4125640809" />
      <path d="M -42.6213388144,-76.1916278185 A 1.625,0.6194494124844088 -149.8474883470675 0,1 -42.6553773434,-76.0565168135" />
      <path d="M -42.6553773434,-76.0565168135 A 1.625,0.6194494124844088 -149.8474883470675 0,1 -45.4656244651,-77.6890029895" />
      <path d="M -45.4656244651,-77.6890029895 A 1.625,0.6194494124844088 -149.8474883470675 0,1 -42.6213388144,-76.1916278185" />
      <line x1="51.325712782" y1="6.9963166228" x2="52.0065181569" y2="5.8243426279" />
      <line x1="44.240607109" y1="1.921356348" x2="44.240607109" y2="3.6430509837" />
      <line x1="44.240607109" y1="3.6430509837" x2="51.325712782" y2="6.9963166228" />
      <line x1="88.8791095485" y1="28.846460526" x2="85.336556712" y2="27.1698277064" />
      <line x1="85.336556712" y1="25.4481330708" x2="85.336556712" y2="27.1698277064" />
      <line x1="46.0981106488" y1="0.445447198" x2="44.240607109" y2="3.6430509837" />
      <line x1="85.336556712" y1="27.1698277064" x2="81.6215496324" y2="33.5650352777" />
      <line x1="81.6215496324" y1="31.843340642" x2="81.6215496324" y2="33.5650352777" />
      <line x1="81.6215496324" y1="33.5650352777" x2="84.8668133422" y2="35.1009659738" />
      <line x1="24.4978851434" y1="6.5293310623" x2="28.0404379799" y2="8.2059638819" />
      <line x1="28.0404379799" y1="6.4842692462" x2="28.0404379799" y2="8.2059638819" />
      <line x1="73.7271595882" y1="45.4331567309" x2="73.7271595882" y2="47.1548513666" />
      <line x1="73.7271595882" y1="47.1548513666" x2="77.2697124247" y2="48.8314841861" />
      <line x1="28.0404379799" y1="8.2059638819" x2="24.3254309003" y2="14.6011714531" />
      <line x1="70.0121525085" y1="51.8283643022" x2="70.0121525085" y2="53.5500589379" />
      <line x1="70.0121525085" y1="53.5500589379" x2="73.7271595882" y2="47.1548513666" />
      <line x1="24.3254309003" y1="14.6011714531" x2="21.9595762287" y2="13.4814507963" />
      <line x1="73.2574162183" y1="55.0859896339" x2="70.0121525085" y2="53.5500589379" />
      <line x1="30.4287979591" y1="42.9693592111" x2="23.343692286" y2="39.616093572" />
      <path d="M 47.883991438,23.7572730947 A 1.625,1.466768850438905 180.0 0,0 47.9039360801,23.7217765002" />
      <path d="M 44.9857226163,23.7217765002 A 1.625,1.466768850438905 180.0 0,0 47.883991438,23.7572730947" />
      <path d="M 65.5967556206,32.1404371925 A 1.625,1.466768850438905 180.0 0,0 65.6167002627,32.104940598" />
      <path d="M 62.6984867989,32.104940598 A 1.625,1.466768850438905 180.0 0,0 65.5967556206,32.1404371925" />
      <line x1="20.9553323069" y1="4.8526982427" x2="20.9553323069" y2="7.4352401962" />
      <line x1="20.9553323069" y1="7.4352401962" x2="17.2403252272" y2="13.8304477675" />
      <line x1="17.2403252272" y1="11.247905814" x2="17.2403252272" y2="13.8304477675" />
      <line x1="47.9556141886" y1="-2.7521565876" x2="47.9556141886" y2="-0.1696146341" />
      <line x1="47.9556141886" y1="-0.1696146341" x2="55.0407198616" y2="3.183651005" />
      <line x1="55.0407198616" y1="0.6011090515" x2="55.0407198616" y2="3.183651005" />
      <line x1="77.0972581815" y1="59.4858665305" x2="73.554705345" y2="57.809233711" />
      <line x1="77.2697124247" y1="51.4140261397" x2="80.8122652612" y2="53.0906589593" />
      <line x1="77.2697124247" y1="48.8314841862" x2="77.2697124247" y2="50.1227551629" />
      <line x1="88.7066553054" y1="39.5008428703" x2="85.1641024689" y2="37.8242100508" />
      <line x1="88.8791095485" y1="31.4290024795" x2="92.421662385" y2="33.1056352991" />
      <line x1="88.8791095485" y1="28.846460526" x2="88.8791095485" y2="30.1377315028" />
      <line x1="-74.2840154519" y1="-36.7745548909" x2="-76.1415189917" y2="-33.5769511053" />
      <line x1="-112.8604541803" y1="-14.3386249281" x2="-112.8604541803" y2="16.2214548551" />
      <line x1="-66.4228656848" y1="-94.2787195688" x2="-66.4228656848" y2="-67.162029057" />
      <line x1="-66.4228656848" y1="-67.162029057" x2="-69.441308937" y2="-61.9659229053" />
      <line x1="-69.441308937" y1="-60.889863758" x2="-69.441308937" y2="-61.9659229053" />
      <line x1="-66.4228656848" y1="-66.0859699097" x2="-69.441308937" y2="-60.889863758" />
      <line x1="-66.4228656848" y1="-66.0859699097" x2="-66.4228656848" y2="-63.7186397856" />
      <line x1="117.7898818144" y1="-7.0938129517" x2="117.7898818144" y2="20.0228775602" />
      <line x1="117.7898818144" y1="20.0228775602" x2="112.0332334551" y2="17.2983492284" />
      <line x1="112.0332334551" y1="17.2983492284" x2="112.0332334551" y2="18.3744083757" />
      <line x1="117.7898818144" y1="21.0989367074" x2="112.0332334551" y2="18.3744083757" />
      <line x1="117.7898818144" y1="21.0989367074" x2="117.7898818144" y2="23.4662668315" />
      <line x1="-60.6662173255" y1="-63.3614415779" x2="-66.4228656848" y2="-66.0859699097" />
      <line x1="-60.6662173255" y1="-64.4375007252" x2="-60.6662173255" y2="-63.3614415779" />
      <line x1="-60.6662173255" y1="-64.4375007252" x2="-66.4228656848" y2="-67.162029057" />
      <line x1="117.2995909124" y1="20.866889973" x2="117.7898818144" y2="20.0228775602" />
      <path d="M -64.1994062845,-61.2466273937 A 1.625,1.466768850438905 0.0 0,1 -66.1187511401,-61.2466273937" />
      <path d="M 114.69951196,23.423329994 A 1.625,1.466768850438905 0.0 0,1 112.7801671043,23.423329994" />
      <line x1="-98.4315614695" y1="4.7942943223" x2="-100.2890650093" y2="7.9918981079" />
      <path d="M -89.7476336213,24.1597071341 A 0.5,0.09993918375774194 -64.67256516342717 0,0 -89.7659262065,24.1074686998" />
      <path d="M -89.7659262065,24.1074686998 A 0.5,0.09993918375774194 -64.67256516342717 0,0 -89.8179216532,24.1264409483" />
      <line x1="-112.8604541803" y1="16.2214548551" x2="-112.8604541803" y2="17.9431494908" />
      <line x1="-112.8604541803" y1="17.9431494908" x2="-111.0029506405" y2="14.7455457052" />
      <line x1="73.2097968588" y1="101.9304523223" x2="71.352293319" y2="105.1280561079" />
      <line x1="71.352293319" y1="105.1280561079" x2="-112.8604541803" y2="17.9431494908" />
      <path d="M 69.6672440223,99.6081840143 A 0.5,0.09993918375774194 -64.67256516342717 0,0 69.6489514371,99.55594558" />
      <path d="M 69.6489514371,99.55594558 A 0.5,0.09993918375774194 -64.67256516342717 0,0 69.5969559904,99.5749178285" />
      <path d="M -10.0401947995,61.8839455742 A 0.5,0.09993918375774194 -64.67256516342717 0,0 -10.0584873847,61.8317071399" />
      <path d="M -10.0584873847,61.8317071399 A 0.5,0.09993918375774194 -64.67256516342717 0,0 -10.1104828314,61.8506793884" />
      <line x1="28.5712944192" y1="46.1669629967" x2="21.4861887462" y2="42.8136973576" />
      <line x1="55.0407198616" y1="3.183651005" x2="53.1832163218" y2="6.3812547906" />
      <line x1="88.2907604661" y1="29.8592754214" x2="88.8791095485" y2="28.846460526" />
      <line x1="46.0981106488" y1="0.445447198" x2="46.0981106488" y2="3.0279891515" />
      <line x1="46.0981106488" y1="3.0279891515" x2="47.9556141886" y2="-0.1696146341" />
      <line x1="24.4978851434" y1="6.5293310623" x2="24.4978851434" y2="9.1118730158" />
      <line x1="24.4978851434" y1="9.1118730158" x2="20.9553323069" y2="7.4352401962" />
      <line x1="76.6813633422" y1="49.8442990815" x2="77.2697124247" y2="48.8314841862" />
      <line x1="17.2403252272" y1="13.8304477675" x2="20.7828780638" y2="15.5070805871" />
      <line x1="20.7828780638" y1="15.5070805871" x2="24.4978851434" y2="9.1118730158" />
      <line x1="53.1832163218" y1="6.3812547906" x2="46.0981106488" y2="3.0279891515" />
      <line x1="72.6690671359" y1="56.0988045293" x2="72.6690671359" y2="57.3900755061" />
      <line x1="73.554705345" y1="57.809233711" x2="72.6690671359" y2="57.3900755061" />
      <line x1="72.6690671359" y1="57.3900755061" x2="76.3840742155" y2="50.9948679348" />
      <line x1="77.2697124247" y1="51.4140261397" x2="76.3840742155" y2="50.9948679348" />
      <line x1="76.3840742155" y1="50.9948679348" x2="76.3840742155" y2="49.703596958" />
      <line x1="77.2697124247" y1="50.1227551629" x2="76.3840742155" y2="49.703596958" />
      <line x1="84.2784642597" y1="36.1137808691" x2="84.2784642597" y2="37.4050518459" />
      <line x1="85.1641024689" y1="37.8242100508" x2="84.2784642597" y2="37.4050518459" />
      <line x1="84.2784642597" y1="37.4050518459" x2="87.9934713394" y2="31.0098442746" />
      <line x1="88.8791095485" y1="31.4290024795" x2="87.9934713394" y2="31.0098442746" />
      <line x1="87.9934713394" y1="31.0098442746" x2="87.9934713394" y2="29.7185732979" />
      <line x1="88.8791095485" y1="30.1377315028" x2="87.9934713394" y2="29.7185732979" />
      <line x1="-69.441308937" y1="-61.9659229053" x2="-68.951018035" y2="-61.7338761708" />
      <line x1="-60.6662173255" y1="-64.4375007252" x2="-61.1565082275" y2="-63.5934883124" />
      <line x1="-66.4228656848" y1="-96.0004142045" x2="-112.8604541803" y2="-16.0603195638" />
      <line x1="-66.4228656848" y1="-96.0004142045" x2="-66.4228656848" y2="-94.2787195688" />
      <line x1="-112.8604541803" y1="-16.0603195638" x2="-112.8604541803" y2="-14.3386249281" />
      <line x1="117.7898818144" y1="-8.8155075874" x2="-66.4228656848" y2="-96.0004142045" />
      <line x1="117.7898818144" y1="-8.8155075874" x2="117.7898818144" y2="-7.0938129517" />
      <line x1="76.3840742155" y1="49.703596958" x2="72.6690671359" y2="56.0988045293" />
      <line x1="87.9934713394" y1="29.7185732979" x2="84.2784642597" y2="36.1137808691" />
      <line x1="5.952469596" y1="-23.9674168308" x2="-1.132636077" y2="-27.3206824699" />
      <line x1="5.952469596" y1="-11.8608688357" x2="12.1158384298" y2="-22.4708144389" />
      <line x1="51.9544798397" y1="91.2250199165" x2="69.6672440223" y2="99.6081840143" />
      <line x1="-27.7529589821" y1="53.5007814764" x2="-10.0401947995" y2="61.8839455742" />
      <line x1="-107.4603978039" y1="15.7765430363" x2="-89.7476336213" y2="24.1597071341" />
      <line x1="-107.4603978039" y1="15.732962186" x2="-89.7659262065" y2="24.1074686998" />
      <line x1="-27.7529589821" y1="53.4572006261" x2="-10.0584873847" y2="61.8317071399" />
      <line x1="51.9544798397" y1="91.1814390662" x2="69.6489514371" y2="99.55594558" />
    </g>
  </g>
</svg>