<?xml version='1.0' encoding='utf-8'?>
<svg width="513.4999999999mm" height="485.0718777303mm" viewBox="-111.6269346994 -114.2623530452 222.0142799967 209.723239885" version="1.1" xmlns="http://www.w3.org/2000/svg">
  <g transform="scale(1,-1)" stroke-linecap="round">
    <g fill="none" stroke="rgb(64,192,64)" stroke-width="0.648532463476343" id="Visible">
      <line x1="-74.0291052201" y1="-69.6687669717" x2="-111.0348468718" y2="77.07447109" />
      <path d="M -74.0291052201,-69.6687669717 A 3.0,2.4846933589259557 0.0 0,1 -70.4791203706,-71.5929757765" />
      <line x1="107.6764338996" y1="-40.7743357481" x2="-70.4791203706" y2="-71.5929757765" />
      <path d="M 107.6764338996,-40.7743357481 A 3.0,2.4846933589259557 0.0 0,1 110.0630790656,-38.3421273825" />
      <path d="M 110.0630790656,-38.3421273825 A 3.0,2.4846933589259557 0.0 0,1 109.999709081,-37.8341278216" />
      <line x1="72.9939674293" y1="108.9091102402" x2="109.999709081" y2="-37.8341278216" />
      <line x1="69.078460742" y1="108.2317774923" x2="72.9939674293" y2="108.9091102402" />
      <line x1="69.078460742" y1="108.2317774923" x2="105.0619443371" y2="-34.45777996" />
      <line x1="101.9642440952" y1="-38.3780571954" x2="105.0619443371" y2="-34.45777996" />
      <line x1="101.9642440952" y1="-38.3780571954" x2="-66.4025434569" y2="-67.5033653541" />
      <line x1="-66.4025434569" y1="-67.5033653541" x2="-71.1358565895" y2="-64.9377536144" />
      <line x1="-71.1358565895" y1="-64.9377536144" x2="-107.1193401845" y2="77.7518038379" />
      <line x1="-111.0348468718" y1="77.07447109" x2="-107.1193401845" y2="77.7518038379" />
      <path d="M -69.5018006129,-68.885600982 A 1.625,1.3458755694182258 0.0 0,1 -72.7174752046,-69.1607674108" />
      <path d="M -72.7174752046,-69.1607674108 A 1.625,1.3458755694182258 0.0 0,1 -69.4674752046,-69.1607674108" />
      <path d="M -69.4674752046,-69.1607674108 A 1.625,1.3458755694182258 0.0 0,1 -69.5018006129,-68.885600982" />
      <path d="M 108.6537536573,-38.0669609537 A 1.625,1.3458755694182258 0.0 0,1 105.4380790656,-38.3421273825" />
      <path d="M 105.4380790656,-38.3421273825 A 1.625,1.3458755694182258 0.0 0,1 108.6880790656,-38.3421273825" />
      <path d="M 108.6880790656,-38.3421273825 A 1.625,1.3458755694182258 0.0 0,1 108.6537536573,-38.0669609537" />
      <line x1="-74.0291052201" y1="-77.2339869269" x2="-74.7446858598" y2="-74.3964105003" />
      <line x1="-74.7446858598" y1="-72.9954438419" x2="-74.7446858598" y2="-74.3964105003" />
      <line x1="-74.0291052201" y1="-75.8330202685" x2="-74.7446858598" y2="-72.9954438419" />
      <path d="M -98.6910808374,23.9233777559 A 1.625,0.1861794289745991 99.81431230158228 0,1 -98.0818565449,21.0047128642" />
      <path d="M -98.0818565449,21.0047128642 A 1.625,0.1861794289745991 99.81431230158228 1,1 -98.6358373931,24.2071502515" />
      <path d="M -98.6358373931,24.2071502515 A 1.625,0.1861794289745991 99.81431230158228 0,1 -98.6910808374,23.9233777559" />
      <path d="M -102.7801130641,40.1381001937 A 1.625,0.1861794289745991 99.81431230158228 0,1 -102.1708887716,37.219435302" />
      <path d="M -102.1708887716,37.219435302 A 1.625,0.1861794289745991 99.81431230158228 1,1 -102.7248696198,40.4218726893" />
      <path d="M -102.7248696198,40.4218726893 A 1.625,0.1861794289745991 99.81431230158228 0,1 -102.7801130641,40.1381001937" />
      <path d="M -106.3324598111,52.2632869898 A 5.5,0.6301457596063355 99.81431230158228 0,1 -104.270469898,42.3847288947" />
      <path d="M -104.270469898,42.3847288947 A 5.500000000004835,0.6301457596068893 99.81431230158228 1,1 -106.1454819994,53.2237477442" />
      <path d="M -106.1454819994,53.2237477442 A 5.5,0.6301457596063355 99.81431230158228 0,1 -106.3324598111,52.2632869898" />
      <line x1="-99.0744276087" y1="23.4821546628" x2="-101.732298556" y2="34.0217242473" />
      <line x1="-99.0744276087" y1="18.999061356" x2="-99.0744276087" y2="23.4821546628" />
      <line x1="-101.732298556" y1="29.5386309405" x2="-99.0744276087" y2="18.999061356" />
      <line x1="-101.732298556" y1="34.0217242473" x2="-101.732298556" y2="29.5386309405" />
      <line x1="-79.0381696978" y1="-54.8492119556" x2="-79.4470729205" y2="-53.2277397118" />
      <line x1="-79.0381696978" y1="-68.2984918759" x2="-79.0381696978" y2="-54.8492119556" />
      <line x1="-79.4470729205" y1="-66.6770196321" x2="-79.0381696978" y2="-68.2984918759" />
      <line x1="-79.4470729205" y1="-53.2277397118" x2="-79.4470729205" y2="-66.6770196321" />
      <line x1="-79.8559761431" y1="-51.606267468" x2="-80.2648793658" y2="-49.9847952243" />
      <line x1="-79.8559761431" y1="-65.0555473883" x2="-79.8559761431" y2="-51.606267468" />
      <line x1="-80.2648793658" y1="-63.4340751446" x2="-79.8559761431" y2="-65.0555473883" />
      <line x1="-80.2648793658" y1="-49.9847952243" x2="-80.2648793658" y2="-63.4340751446" />
      <line x1="-80.6737825885" y1="-48.3633229805" x2="-81.0826858112" y2="-46.7418507367" />
      <line x1="-80.6737825885" y1="-61.8126029008" x2="-80.6737825885" y2="-48.3633229805" />
      <line x1="-81.0826858112" y1="-60.191130657" x2="-80.6737825885" y2="-61.8126029008" />
      <line x1="-81.0826858112" y1="-46.7418507367" x2="-81.0826858112" y2="-60.191130657" />
      <line x1="-81.4915890338" y1="-45.1203784929" x2="-81.9004922565" y2="-43.4989062492" />
      <line x1="-81.4915890338" y1="-58.5696584132" x2="-81.4915890338" y2="-45.1203784929" />
      <line x1="-81.9004922565" y1="-56.9481861695" x2="-81.4915890338" y2="-58.5696584132" />
      <line x1="-81.9004922565" y1="-43.4989062492" x2="-81.9004922565" y2="-56.9481861695" />
      <line x1="-82.3093954792" y1="-41.8774340054" x2="-82.7182987018" y2="-40.2559617616" />
      <line x1="-82.3093954792" y1="-55.3267139257" x2="-82.3093954792" y2="-41.8774340054" />
      <line x1="-82.7182987018" y1="-53.7052416819" x2="-82.3093954792" y2="-55.3267139257" />
      <line x1="-82.7182987018" y1="-40.2559617616" x2="-82.7182987018" y2="-53.7052416819" />
      <line x1="-83.1272019245" y1="-38.6344895178" x2="-83.5361051472" y2="-37.013017274" />
      <line x1="-83.1272019245" y1="-52.0837694381" x2="-83.1272019245" y2="-38.6344895178" />
      <line x1="-83.5361051472" y1="-50.4622971944" x2="-83.1272019245" y2="-52.0837694381" />
      <line x1="-83.5361051472" y1="-37.013017274" x2="-83.5361051472" y2="-50.4622971944" />
      <line x1="-83.9450083699" y1="-35.3915450303" x2="-84.3539115925" y2="-33.7700727865" />
      <line x1="-83.9450083699" y1="-48.8408249506" x2="-83.9450083699" y2="-35.3915450303" />
      <line x1="-84.3539115925" y1="-47.2193527068" x2="-83.9450083699" y2="-48.8408249506" />
      <line x1="-84.3539115925" y1="-33.7700727865" x2="-84.3539115925" y2="-47.2193527068" />
      <line x1="-84.7628148152" y1="-32.1486005427" x2="-85.1717180379" y2="-30.5271282989" />
      <line x1="-84.7628148152" y1="-45.597880463" x2="-84.7628148152" y2="-32.1486005427" />
      <line x1="-85.1717180379" y1="-43.9764082193" x2="-84.7628148152" y2="-45.597880463" />
      <line x1="-85.1717180379" y1="-30.5271282989" x2="-85.1717180379" y2="-43.9764082193" />
      <line x1="-93.3497824913" y1="1.9023165766" x2="-93.758685714" y2="3.5237888204" />
      <line x1="-93.3497824913" y1="-11.5469633437" x2="-93.3497824913" y2="1.9023165766" />
      <line x1="-93.758685714" y1="-9.9254911" x2="-93.3497824913" y2="-11.5469633437" />
      <line x1="-93.758685714" y1="3.5237888204" x2="-93.758685714" y2="-9.9254911" />
      <line x1="-94.1675889366" y1="5.1452610641" x2="-94.5764921593" y2="6.7667333079" />
      <line x1="-94.1675889366" y1="-8.3040188562" x2="-94.1675889366" y2="5.1452610641" />
      <line x1="-94.5764921593" y1="-6.6825466124" x2="-94.1675889366" y2="-8.3040188562" />
      <line x1="-94.5764921593" y1="6.7667333079" x2="-94.5764921593" y2="-6.6825466124" />
      <line x1="-94.985395382" y1="8.3882055517" x2="-95.3942986046" y2="10.0096777955" />
      <line x1="-94.985395382" y1="-5.0610743686" x2="-94.985395382" y2="8.3882055517" />
      <line x1="-94.985395382" y1="-5.0610743686" x2="-95.3942986046" y2="-3.4396021248" />
      <line x1="-95.3942986046" y1="10.0096777955" x2="-95.3942986046" y2="-3.4396021248" />
      <path d="M -74.0291052201,-75.8330202685 A 3.0,2.4846933589259557 0.0 0,1 -70.4791203706,-77.7572290733" />
      <line x1="-107.1193401845" y1="79.0126738304" x2="-107.1193401845" y2="79.2928671621" />
      <line x1="-107.1193401845" y1="77.7518038379" x2="-107.1193401845" y2="79.0126738304" />
      <line x1="-111.0348468718" y1="77.07447109" x2="-111.0348468718" y2="79.3160177434" />
      <line x1="-111.0348468718" y1="79.3160177434" x2="72.9939674293" y2="111.1506568936" />
      <line x1="72.9939674293" y1="108.9091102402" x2="72.9939674293" y2="111.1506568936" />
      <line x1="69.078460742" y1="109.4926474848" x2="69.078460742" y2="108.2317774923" />
      <line x1="69.078460742" y1="109.4926474848" x2="69.078460742" y2="109.7728408165" />
      <line x1="49.5009273058" y1="106.1059837455" x2="49.5009273058" y2="106.3861770771" />
      <line x1="49.5009273058" y1="104.8451137529" x2="49.5009273058" y2="106.1059837455" />
      <line x1="-9.2316730031" y1="95.9459925273" x2="-9.2316730031" y2="94.6851225348" />
      <line x1="-9.2316730031" y1="95.9459925273" x2="-9.2316730031" y2="96.226185859" />
      <line x1="-28.8092064394" y1="92.559328788" x2="-28.8092064394" y2="92.8395221196" />
      <line x1="-28.8092064394" y1="91.2984587954" x2="-28.8092064394" y2="92.559328788" />
      <line x1="-87.5418067482" y1="82.3993375698" x2="-87.5418067482" y2="81.1384675773" />
      <line x1="-87.5418067482" y1="82.3993375698" x2="-87.5418067482" y2="82.6795309015" />
      <line x1="-67.0530520193" y1="-78.5655295773" x2="-70.4791203706" y2="-79.1581957317" />
      <line x1="107.6764338996" y1="-48.3395557033" x2="103.7609272123" y2="-49.0168884512" />
      <line x1="103.7609272123" y1="-49.0168884512" x2="103.7609272123" y2="-47.6159217928" />
      <line x1="107.6764338996" y1="-46.938589045" x2="103.7609272123" y2="-47.6159217928" />
      <line x1="-67.0530520193" y1="-77.1645629189" x2="-70.4791203706" y2="-77.7572290733" />
      <line x1="-67.0530520193" y1="-78.5655295773" x2="-67.0530520193" y2="-77.1645629189" />
      <path d="M 107.6764338996,-46.938589045 A 3.0,2.4846933589259557 0.0 0,1 110.0630790656,-44.5063806793" />
      <line x1="109.9470770489" y1="-45.1906397635" x2="109.999709081" y2="-45.3993477767" />
      <line x1="69.078460742" y1="85.8163109585" x2="73.0652671631" y2="70.0069565816" />
      <line x1="69.078460742" y1="85.8163109585" x2="69.078460742" y2="108.2317774923" />
      <line x1="88.7058154302" y1="7.9856432572" x2="100.4633005864" y2="-38.6377012907" />
      <line x1="88.7058154302" y1="7.9856432572" x2="84.6167832035" y2="24.200365695" />
      <line x1="84.6167832035" y1="24.200365695" x2="84.6167832035" y2="26.4419123483" />
      <line x1="84.6167832035" y1="26.4419123483" x2="84.6167832035" y2="29.8042323284" />
      <line x1="84.6167832035" y1="29.8042323284" x2="82.9811703129" y2="36.2901213035" />
      <line x1="81.6270577639" y1="36.0558770928" x2="73.0652671631" y2="70.0069565816" />
      <line x1="76.2342671388" y1="60.8028666725" x2="76.2342671388" y2="74.2521465928" />
      <line x1="76.6431703615" y1="59.1813944287" x2="76.2342671388" y2="60.8028666725" />
      <line x1="76.6431703615" y1="72.630674349" x2="76.6431703615" y2="59.1813944287" />
      <line x1="76.2342671388" y1="74.2521465928" x2="76.6431703615" y2="72.630674349" />
      <line x1="77.0520735841" y1="57.5599221849" x2="77.0520735841" y2="71.0092021052" />
      <line x1="77.4609768068" y1="55.9384499411" x2="77.0520735841" y2="57.5599221849" />
      <line x1="77.4609768068" y1="69.3877298614" x2="77.4609768068" y2="55.9384499411" />
      <line x1="77.0520735841" y1="71.0092021052" x2="77.4609768068" y2="69.3877298614" />
      <line x1="77.8698800295" y1="54.3169776974" x2="77.8698800295" y2="67.7662576177" />
      <line x1="78.2787832521" y1="52.6955054536" x2="77.8698800295" y2="54.3169776974" />
      <line x1="78.2787832521" y1="66.1447853739" x2="78.2787832521" y2="52.6955054536" />
      <line x1="77.8698800295" y1="67.7662576177" x2="78.2787832521" y2="66.1447853739" />
      <line x1="78.6876864748" y1="51.0740332098" x2="78.6876864748" y2="64.5233131301" />
      <line x1="79.0965896975" y1="49.4525609661" x2="78.6876864748" y2="51.0740332098" />
      <line x1="79.0965896975" y1="62.9018408864" x2="79.0965896975" y2="49.4525609661" />
      <line x1="78.6876864748" y1="64.5233131301" x2="79.0965896975" y2="62.9018408864" />
      <line x1="79.5054929201" y1="47.8310887223" x2="79.5054929201" y2="61.2803686426" />
      <line x1="79.9143961428" y1="46.2096164786" x2="79.5054929201" y2="47.8310887223" />
      <line x1="79.9143961428" y1="59.6588963989" x2="79.9143961428" y2="46.2096164786" />
      <line x1="79.5054929201" y1="61.2803686426" x2="79.9143961428" y2="59.6588963989" />
      <line x1="80.3232993655" y1="44.5881442348" x2="80.3232993655" y2="58.0374241551" />
      <line x1="80.7322025881" y1="42.9666719911" x2="80.3232993655" y2="44.5881442348" />
      <line x1="80.7322025881" y1="56.4159519114" x2="80.7322025881" y2="42.9666719911" />
      <line x1="80.3232993655" y1="58.0374241551" x2="80.7322025881" y2="56.4159519114" />
      <line x1="81.1411058108" y1="41.3451997473" x2="81.1411058108" y2="54.7944796676" />
      <line x1="81.5500090334" y1="39.7237275036" x2="81.1411058108" y2="41.3451997473" />
      <line x1="81.5500090334" y1="53.1730074239" x2="81.5500090334" y2="39.7237275036" />
      <line x1="81.1411058108" y1="54.7944796676" x2="81.5500090334" y2="53.1730074239" />
      <line x1="81.9589122561" y1="38.1022552598" x2="81.9589122561" y2="51.5515351802" />
      <line x1="82.3678154788" y1="36.4807830162" x2="81.9589122561" y2="38.1022552598" />
      <line x1="82.3678154788" y1="49.9300629365" x2="82.3678154788" y2="36.4807830162" />
      <line x1="81.9589122561" y1="51.5515351802" x2="82.3678154788" y2="49.9300629365" />
      <path d="M -74.0291052201,-77.2339869269 A 3.0,2.4846933589259557 0.0 0,1 -70.4791203706,-79.1581957317" />
      <line x1="-67.0530520193" y1="-78.5655295773" x2="-67.3915801565" y2="-77.2231239716" />
      <line x1="-74.7446858598" y1="-74.3964105003" x2="-74.4061577225" y2="-74.3378494476" />
      <path d="M -72.3460356162,-77.5824004888 A 1.625,1.3458755694182258 0.0 0,1 -69.9238563759,-77.6611754799" />
      <line x1="-111.2392984831" y1="80.1267538653" x2="-111.0348468718" y2="79.3160177434" />
      <line x1="-101.732298556" y1="29.5386309405" x2="-100.6490085168" y2="29.7260263092" />
      <line x1="-79.4470729205" y1="-66.6770196321" x2="-79.0381696978" y2="-66.6062845867" />
      <line x1="-80.2648793658" y1="-63.4340751446" x2="-79.8559761431" y2="-63.3633400991" />
      <line x1="-81.0826858112" y1="-60.191130657" x2="-80.6737825885" y2="-60.1203956116" />
      <line x1="-81.9004922565" y1="-56.9481861695" x2="-81.4915890338" y2="-56.877451124" />
      <line x1="-82.7182987018" y1="-53.7052416819" x2="-82.3093954792" y2="-53.6345066365" />
      <line x1="-83.5361051472" y1="-50.4622971944" x2="-83.1272019245" y2="-50.3915621489" />
      <line x1="-84.3539115925" y1="-47.2193527068" x2="-83.9450083699" y2="-47.1486176614" />
      <line x1="-85.1717180379" y1="-43.9764082193" x2="-84.7628148152" y2="-43.9056731738" />
      <line x1="-93.758685714" y1="-9.9254911" x2="-93.3497824913" y2="-9.8547560545" />
      <line x1="-94.5764921593" y1="-6.6825466124" x2="-94.1675889366" y2="-6.611811567" />
      <line x1="-95.3942986046" y1="-3.4396021248" x2="-94.985395382" y2="-3.3688670794" />
      <line x1="72.9939674293" y1="111.1506568936" x2="72.789515818" y2="111.9613930155" />
      <path d="M 72.789515818,111.9613930155 A 3.0,2.4846933589259557 0.0 0,1 69.2395309685,113.8856018202" />
      <line x1="69.2395309685" y1="113.8856018202" x2="-108.9160233017" y2="83.0669617919" />
      <path d="M -111.2392984831,80.1267538653 A 3.0,2.4846933589259557 180.0 0,0 -111.3026684677,80.6347534262" />
      <path d="M -111.3026684677,80.6347534262 A 3.0,2.4846933589259557 180.0 0,0 -108.9160233017,83.0669617919" />
      <line x1="69.078460742" y1="108.2317774923" x2="68.7264678807" y2="109.6275763585" />
      <path d="M 69.078460742,109.7728408165 A 0.5,0.05728597814603046 -80.18568769841771 0,0 69.0614627592,109.6855262025" />
      <line x1="-107.1193401845" y1="77.7518038379" x2="-87.5418067482" y2="81.1384675773" />
      <line x1="-28.8092064394" y1="91.2984587954" x2="-9.2316730031" y2="94.6851225348" />
      <line x1="49.5009273058" y1="104.8451137529" x2="69.078460742" y2="108.2317774923" />
      <line x1="-101.7028899885" y1="56.2733141472" x2="69.078460742" y2="85.8163109585" />
      <path d="M -39.5768498293,83.271540442 A 1.5,0.8228241479186096 14.153752194533514 0,0 -42.4996293977,82.6507534727" />
      <path d="M -42.4996293977,82.6507534727 A 1.5000000000304263,0.8228241479352999 14.153752194533514 0,0 -39.5907002764,83.3843278504" />
      <path d="M -39.5907002764,83.3843278504 A 1.5,0.8228241479186096 14.153752194533514 0,0 -39.5768498293,83.271540442" />
      <line x1="-34.1930281344" y1="81.9613263169" x2="-18.5310013853" y2="84.6706573084" />
      <line x1="-18.5310013853" y1="84.6706573084" x2="-18.5310013853" y2="89.1537506152" />
      <line x1="-18.5310013853" y1="89.1537506152" x2="-34.1930281344" y2="86.4444196237" />
      <line x1="-34.1930281344" y1="86.4444196237" x2="-34.1930281344" y2="81.9613263169" />
      <line x1="-60.1332599374" y1="80.5561235106" x2="-60.1332599374" y2="73.5512902188" />
      <line x1="-60.1332599374" y1="80.5561235106" x2="-100.7566418177" y2="73.5287962514" />
      <line x1="-100.7566418177" y1="73.5287962514" x2="-100.7566418177" y2="66.5239629596" />
      <line x1="-100.7566418177" y1="66.5239629596" x2="-60.1332599374" y2="73.5512902188" />
      <path d="M -10.2105496749,88.351536051 A 1.5,0.8228241479186096 14.153752194533514 0,0 -13.1333292433,87.7307490817" />
      <path d="M -13.1333292433,87.7307490817 A 1.5000000000304285,0.8228241479353012 14.153752194533514 0,0 -10.224400122,88.4643234594" />
      <path d="M -10.224400122,88.4643234594 A 1.5,0.8228241479186096 14.153752194533514 0,0 -10.2105496749,88.351536051" />
      <line x1="6.4303537459" y1="85.0659469327" x2="62.2263240393" y2="94.7179385899" />
      <line x1="62.2263240393" y1="94.7179385899" x2="62.2263240393" y2="101.7227718817" />
      <line x1="62.2263240393" y1="101.7227718817" x2="6.4303537459" y2="92.0707802245" />
      <line x1="6.4303537459" y1="92.0707802245" x2="6.4303537459" y2="85.0659469327" />
      <path d="M -101.8578780735,69.0513384415 A 1.625,0.891392826911827 14.153752194533514 0,0 -104.6533653795,67.9731826911" />
      <path d="M -104.8900685224,68.9118096202 A 1.625,0.891392826911827 14.153752194533514 0,0 -101.8728827246,69.1735248006" />
      <path d="M -101.8728827246,69.1735248006 A 1.625,0.891392826911827 14.153752194533514 0,0 -101.8578780735,69.0513384415" />
      <path d="M -55.8506744983,77.009998229 A 1.625,0.891392826911827 14.153752194533514 0,0 -59.0170190306,76.3374790123" />
      <path d="M -59.0170190306,76.3374790123 A 1.625,0.891392826911827 14.153752194533514 0,0 -55.8656791493,77.1321845881" />
      <path d="M -55.8656791493,77.1321845881 A 1.625,0.891392826911827 14.153752194533514 0,0 -55.8506744983,77.009998229" />
      <path d="M -39.5768498293,76.5469004818 A 1.5,0.8228241479186096 14.153752194533514 0,0 -42.4996293977,75.9261135125" />
      <path d="M -42.4996293977,75.9261135125 A 1.500000000030428,0.8228241479353008 14.153752194533514 0,0 -39.5907002764,76.6596878902" />
      <path d="M -39.5907002764,76.6596878902 A 1.5,0.8228241479186096 14.153752194533514 0,0 -39.5768498293,76.5469004818" />
      <line x1="-34.1930281344" y1="75.2366863567" x2="-18.5310013853" y2="77.9460173482" />
      <line x1="-18.5310013853" y1="77.9460173482" x2="-18.5310013853" y2="82.429110655" />
      <line x1="-18.5310013853" y1="82.429110655" x2="-34.1930281344" y2="79.7197796635" />
      <line x1="-34.1930281344" y1="79.7197796635" x2="-34.1930281344" y2="75.2366863567" />
      <path d="M 5.3291174901,87.5989262812 A 1.625,0.891392826911827 14.153752194533514 0,0 2.1627729578,86.9264070645" />
      <path d="M 2.1627729578,86.9264070645 A 1.625,0.891392826911827 14.153752194533514 0,0 5.3141128391,87.7211126403" />
      <path d="M 5.3141128391,87.7211126403 A 1.625,0.891392826911827 14.153752194533514 0,0 5.3291174901,87.5989262812" />
      <path d="M 66.5089094785,98.1822504668 A 1.625,0.891392826911827 14.153752194533514 0,0 63.3425649462,97.50973125" />
      <path d="M 63.3425649462,97.50973125 A 1.625,0.891392826911827 14.153752194533514 0,0 66.4939048275,98.3044368259" />
      <path d="M 66.4939048275,98.3044368259 A 1.625,0.891392826911827 14.153752194533514 0,0 66.5089094785,98.1822504668" />
      <path d="M -10.2105496749,81.6268960909 A 1.5,0.8228241479186096 14.153752194533514 0,0 -13.1333292433,81.0061091216" />
      <path d="M -13.1333292433,81.0061091216 A 1.500000000030427,0.8228241479353003 14.153752194533514 0,0 -10.224400122,81.7396834993" />
      <path d="M -10.224400122,81.7396834993 A 1.5,0.8228241479186096 14.153752194533514 0,0 -10.2105496749,81.6268960909" />
      <line x1="-9.2316730031" y1="94.6851225348" x2="-9.5836658644" y2="96.080921401" />
      <path d="M -9.2316730031,96.226185859 A 0.5,0.05728597814603046 -80.18568769841771 0,0 -9.248670986,96.138871245" />
      <line x1="-87.5418067482" y1="81.1384675773" x2="-87.8937996095" y2="82.5342664435" />
      <path d="M -87.5418067482,82.6795309015 A 0.5,0.05728597814603046 -80.18568769841771 0,0 -87.5588047311,82.5922162875" />
      <path d="M 107.6764338996,-48.3395557033 A 3.0,2.4846933589259557 0.0 0,1 110.0630790656,-45.9073473377" />
      <path d="M 110.0630790656,-45.9073473377 A 3.0,2.4846933589259557 0.0 0,1 109.999709081,-45.3993477767" />
      <path d="M 106.4441136304,-47.1517647438 A 1.625,1.3458755694182258 0.0 0,1 108.3166394771,-46.7637604605" />
      <line x1="61.2972686194" y1="3.2443140221" x2="69.128281994" y2="4.5989795178" />
      <line x1="24.9053062229" y1="13.8710412899" x2="23.2696933322" y2="20.356930265" />
      <path d="M -63.3119200152,-17.4653836357 A 1.625,1.3458755694182258 0.0 0,1 -66.5275946069,-17.7405500645" />
      <path d="M -66.5275946069,-17.7405500645 A 1.625,1.3458755694182258 0.0 0,1 -63.2775946069,-17.7405500645" />
      <path d="M -63.2775946069,-17.7405500645 A 1.625,1.3458755694182258 0.0 0,1 -63.3119200152,-17.4653836357" />
      <path d="M -79.924536044,-9.4606790252 A 1.625,1.3458755694182258 0.0 0,1 -83.1402106357,-9.735845454" />
      <path d="M -83.1402106357,-9.735845454 A 1.625,1.3458755694182258 0.0 0,1 -79.8902106357,-9.735845454" />
      <path d="M -79.8902106357,-9.735845454 A 1.625,1.3458755694182258 0.0 0,1 -79.924536044,-9.4606790252" />
      <path d="M -65.9405835895,-7.0416334971 A 1.625,1.3458755694182258 0.0 0,1 -69.1562581812,-7.3167999259" />
      <path d="M -69.1562581812,-7.3167999259 A 1.625,1.3458755694182258 0.0 0,1 -65.9062581812,-7.3167999259" />
      <path d="M -65.9062581812,-7.3167999259 A 1.625,1.3458755694182258 0.0 0,1 -65.9405835895,-7.0416334971" />
      <path d="M -49.3279675607,-15.0463381075 A 1.625,1.3458755694182258 0.0 0,1 -52.5436421524,-15.3215045364" />
      <path d="M -52.5436421524,-15.3215045364 A 1.625,1.3458755694182258 0.0 0,1 -49.2936421524,-15.3215045364" />
      <path d="M -49.2936421524,-15.3215045364 A 1.625,1.3458755694182258 0.0 0,1 -49.3279675607,-15.0463381075" />
      <path d="M -35.3440151062,-12.6272925794 A 1.625,1.3458755694182258 0.0 0,1 -38.5596896979,-12.9024590082" />
      <path d="M -38.5596896979,-12.9024590082 A 1.625,1.3458755694182258 0.0 0,1 -35.3096896979,-12.9024590082" />
      <path d="M -35.3096896979,-12.9024590082 A 1.625,1.3458755694182258 0.0 0,1 -35.3440151062,-12.6272925794" />
      <path d="M -51.956631135,-4.622587969 A 1.625,1.3458755694182258 0.0 0,1 -55.1723057267,-4.8977543978" />
      <path d="M -55.1723057267,-4.8977543978 A 1.625,1.3458755694182258 0.0 0,1 -51.9223057267,-4.8977543978" />
      <path d="M -51.9223057267,-4.8977543978 A 1.625,1.3458755694182258 0.0 0,1 -51.956631135,-4.622587969" />
      <path d="M -37.9726786805,-2.2035424408 A 1.625,1.3458755694182258 0.0 0,1 -41.1883532722,-2.4787088697" />
      <path d="M -41.1883532722,-2.4787088697 A 1.625,1.3458755694182258 0.0 0,1 -37.9383532722,-2.4787088697" />
      <path d="M -37.9383532722,-2.4787088697 A 1.625,1.3458755694182258 0.0 0,1 -37.9726786805,-2.2035424408" />
      <path d="M -82.5531996183,0.9630711133 A 1.625,1.3458755694182258 0.0 0,1 -85.76887421,0.6879046845" />
      <path d="M -85.76887421,0.6879046845 A 1.625,1.3458755694182258 0.0 0,1 -82.51887421,0.6879046845" />
      <path d="M -82.51887421,0.6879046845 A 1.625,1.3458755694182258 0.0 0,1 -82.5531996183,0.9630711133" />
      <path d="M -68.5692471638,3.3821166415 A 1.625,1.3458755694182258 0.0 0,1 -71.7849217555,3.1069502126" />
      <path d="M -71.7849217555,3.1069502126 A 1.625,1.3458755694182258 0.0 0,1 -68.5349217555,3.1069502126" />
      <path d="M -68.5349217555,3.1069502126 A 1.625,1.3458755694182258 0.0 0,1 -68.5692471638,3.3821166415" />
      <path d="M -85.1818631926,11.3868212519 A 1.625,1.3458755694182258 0.0 0,1 -88.3975377843,11.1116548231" />
      <path d="M -88.3975377843,11.1116548231 A 1.625,1.3458755694182258 0.0 0,1 -85.1475377843,11.1116548231" />
      <path d="M -85.1475377843,11.1116548231 A 1.625,1.3458755694182258 0.0 0,1 -85.1818631926,11.3868212519" />
      <path d="M -71.1979107381,13.80586678 A 1.625,1.3458755694182258 0.0 0,1 -74.4135853298,13.5307003512" />
      <path d="M -74.4135853298,13.5307003512 A 1.625,1.3458755694182258 0.0 0,1 -71.1635853298,13.5307003512" />
      <path d="M -71.1635853298,13.5307003512 A 1.625,1.3458755694182258 0.0 0,1 -71.1979107381,13.80586678" />
      <path d="M -54.5852947093,5.8011621696 A 1.625,1.3458755694182258 0.0 0,1 -57.800969301,5.5259957408" />
      <path d="M -57.800969301,5.5259957408 A 1.625,1.3458755694182258 0.0 0,1 -54.550969301,5.5259957408" />
      <path d="M -54.550969301,5.5259957408 A 1.625,1.3458755694182258 0.0 0,1 -54.5852947093,5.8011621696" />
      <path d="M -40.6013422548,8.2202076977 A 1.625,1.3458755694182258 0.0 0,1 -43.8170168465,7.9450412689" />
      <path d="M -43.8170168465,7.9450412689 A 1.625,1.3458755694182258 0.0 0,1 -40.5670168465,7.9450412689" />
      <path d="M -40.5670168465,7.9450412689 A 1.625,1.3458755694182258 0.0 0,1 -40.6013422548,8.2202076977" />
      <path d="M -57.2139582836,16.2249123082 A 1.625,1.3458755694182258 0.0 0,1 -60.4296328753,15.9497458793" />
      <path d="M -60.4296328753,15.9497458793 A 1.625,1.3458755694182258 0.0 0,1 -57.1796328753,15.9497458793" />
      <path d="M -57.1796328753,15.9497458793 A 1.625,1.3458755694182258 0.0 0,1 -57.2139582836,16.2249123082" />
      <path d="M -43.2300058291,18.6439578363 A 1.625,1.3458755694182258 0.0 0,1 -46.4456804208,18.3687914075" />
      <path d="M -46.4456804208,18.3687914075 A 1.625,1.3458755694182258 0.0 0,1 -43.1956804208,18.3687914075" />
      <path d="M -43.1956804208,18.3687914075 A 1.625,1.3458755694182258 0.0 0,1 -43.2300058291,18.6439578363" />
      <path d="M -21.3600626517,-10.2082470513 A 1.625,1.3458755694182258 0.0 0,1 -24.5757372434,-10.4834134801" />
      <path d="M -24.5757372434,-10.4834134801 A 1.625,1.3458755694182258 0.0 0,1 -21.3257372434,-10.4834134801" />
      <path d="M -21.3257372434,-10.4834134801 A 1.625,1.3458755694182258 0.0 0,1 -21.3600626517,-10.2082470513" />
      <path d="M -7.3761101972,-7.7892015231 A 1.625,1.3458755694182258 0.0 0,1 -10.5917847889,-8.064367952" />
      <path d="M -10.5917847889,-8.064367952 A 1.625,1.3458755694182258 0.0 0,1 -7.3417847889,-8.064367952" />
      <path d="M -7.3417847889,-8.064367952 A 1.625,1.3458755694182258 0.0 0,1 -7.3761101972,-7.7892015231" />
      <path d="M -23.988726226,0.2155030873 A 1.625,1.3458755694182258 0.0 0,1 -27.2044008177,-0.0596633415" />
      <path d="M -27.2044008177,-0.0596633415 A 1.625,1.3458755694182258 0.0 0,1 -23.9544008177,-0.0596633415" />
      <path d="M -23.9544008177,-0.0596633415 A 1.625,1.3458755694182258 0.0 0,1 -23.988726226,0.2155030873" />
      <path d="M -10.0047737715,2.6345486154 A 1.625,1.3458755694182258 0.0 0,1 -13.2204483632,2.3593821866" />
      <path d="M -13.2204483632,2.3593821866 A 1.625,1.3458755694182258 0.0 0,1 -9.9704483632,2.3593821866" />
      <path d="M -9.9704483632,2.3593821866 A 1.625,1.3458755694182258 0.0 0,1 -10.0047737715,2.6345486154" />
      <path d="M 20.5917947118,-2.9511104669 A 1.625,1.3458755694182258 0.0 0,1 17.3761201201,-3.2262768957" />
      <path d="M 17.3761201201,-3.2262768957 A 1.625,1.3458755694182258 0.0 0,1 20.6261201201,-3.2262768957" />
      <path d="M 20.6261201201,-3.2262768957 A 1.625,1.3458755694182258 0.0 0,1 20.5917947118,-2.9511104669" />
      <path d="M 3.979178683,5.0535941435 A 1.625,1.3458755694182258 0.0 0,1 0.7635040913,4.7784277147" />
      <path d="M 0.7635040913,4.7784277147 A 1.625,1.3458755694182258 0.0 0,1 4.0135040913,4.7784277147" />
      <path d="M 4.0135040913,4.7784277147 A 1.625,1.3458755694182258 0.0 0,1 3.979178683,5.0535941435" />
      <path d="M 17.9631311375,7.4726396717 A 1.625,1.3458755694182258 0.0 0,1 14.7474565458,7.1974732428" />
      <path d="M 14.7474565458,7.1974732428 A 1.625,1.3458755694182258 0.0 0,1 17.9974565458,7.1974732428" />
      <path d="M 17.9974565458,7.1974732428 A 1.625,1.3458755694182258 0.0 0,1 17.9631311375,7.4726396717" />
      <path d="M -26.6173898003,10.6392532259 A 1.625,1.3458755694182258 0.0 0,1 -29.833064392,10.364086797" />
      <path d="M -29.833064392,10.364086797 A 1.625,1.3458755694182258 0.0 0,1 -26.583064392,10.364086797" />
      <path d="M -26.583064392,10.364086797 A 1.625,1.3458755694182258 0.0 0,1 -26.6173898003,10.6392532259" />
      <path d="M -12.6334373458,13.058298754 A 1.625,1.3458755694182258 0.0 0,1 -15.8491119375,12.7831323252" />
      <path d="M -15.8491119375,12.7831323252 A 1.625,1.3458755694182258 0.0 0,1 -12.5991119375,12.7831323252" />
      <path d="M -12.5991119375,12.7831323252 A 1.625,1.3458755694182258 0.0 0,1 -12.6334373458,13.058298754" />
      <path d="M -29.2460533746,21.0630033644 A 1.625,1.3458755694182258 0.0 0,1 -32.4617279663,20.7878369356" />
      <path d="M -32.4617279663,20.7878369356 A 1.6250000000000018,1.3458755694182274 0.0 0,1 -29.2117279663,20.7878369356" />
      <path d="M -29.2117279663,20.7878369356 A 1.625,1.3458755694182258 0.0 0,1 -29.2460533746,21.0630033644" />
      <path d="M -15.2621009201,23.4820488925 A 1.625,1.3458755694182258 0.0 0,1 -18.4777755118,23.2068824637" />
      <path d="M -18.4777755118,23.2068824637 A 1.625,1.3458755694182258 0.0 0,1 -15.2277755118,23.2068824637" />
      <path d="M -15.2277755118,23.2068824637 A 1.625,1.3458755694182258 0.0 0,1 -15.2621009201,23.4820488925" />
      <path d="M 1.3505151087,15.4773442821 A 1.625,1.3458755694182258 0.0 0,1 -1.865159483,15.2021778533" />
      <path d="M -1.865159483,15.2021778533 A 1.625,1.3458755694182258 0.0 0,1 1.384840517,15.2021778533" />
      <path d="M 1.384840517,15.2021778533 A 1.625,1.3458755694182258 0.0 0,1 1.3505151087,15.4773442821" />
      <path d="M 15.3344675632,17.8963898102 A 1.625,1.3458755694182258 0.0 0,1 12.1187929715,17.6212233814" />
      <path d="M 12.1187929715,17.6212233814 A 1.625,1.3458755694182258 0.0 0,1 15.3687929715,17.6212233814" />
      <path d="M 15.3687929715,17.6212233814 A 1.625,1.3458755694182258 0.0 0,1 15.3344675632,17.8963898102" />
      <path d="M -1.2781484656,25.9010944207 A 1.625,1.3458755694182258 0.0 0,1 -4.4938230573,25.6259279918" />
      <path d="M -4.4938230573,25.6259279918 A 1.625,1.3458755694182258 0.0 0,1 -1.2438230573,25.6259279918" />
      <path d="M -1.2438230573,25.6259279918 A 1.625,1.3458755694182258 0.0 0,1 -1.2781484656,25.9010944207" />
      <path d="M 12.7058039889,28.3201399488 A 1.625,1.3458755694182258 0.0 0,1 9.4901293972,28.04497352" />
      <path d="M 9.4901293972,28.04497352 A 1.625,1.3458755694182258 0.0 0,1 12.7401293972,28.04497352" />
      <path d="M 12.7401293972,28.04497352 A 1.625,1.3458755694182258 0.0 0,1 12.7058039889,28.3201399488" />
      <path d="M -87.8105267669,21.8105713905 A 1.625,1.3458755694182258 0.0 0,1 -91.0262013586,21.5354049616" />
      <path d="M -91.0262013586,21.5354049616 A 1.625,1.3458755694182258 0.0 0,1 -87.7762013586,21.5354049616" />
      <path d="M -87.7762013586,21.5354049616 A 1.625,1.3458755694182258 0.0 0,1 -87.8105267669,21.8105713905" />
      <path d="M -73.8265743124,24.2296169186 A 1.625,1.3458755694182258 0.0 0,1 -77.0422489041,23.9544504898" />
      <path d="M -77.0422489041,23.9544504898 A 1.625,1.3458755694182258 0.0 0,1 -73.7922489041,23.9544504898" />
      <path d="M -73.7922489041,23.9544504898 A 1.625,1.3458755694182258 0.0 0,1 -73.8265743124,24.2296169186" />
      <path d="M -90.4391903412,32.234321529 A 1.625,1.3458755694182258 0.0 0,1 -93.6548649329,31.9591551002" />
      <path d="M -93.6548649329,31.9591551002 A 1.625,1.3458755694182258 0.0 0,1 -90.4048649329,31.9591551002" />
      <path d="M -90.4048649329,31.9591551002 A 1.625,1.3458755694182258 0.0 0,1 -90.4391903412,32.234321529" />
      <path d="M -76.4552378867,34.6533670572 A 1.625,1.3458755694182258 0.0 0,1 -79.6709124784,34.3782006283" />
      <path d="M -79.6709124784,34.3782006283 A 1.625,1.3458755694182258 0.0 0,1 -76.4209124784,34.3782006283" />
      <path d="M -76.4209124784,34.3782006283 A 1.625,1.3458755694182258 0.0 0,1 -76.4552378867,34.6533670572" />
      <path d="M -59.8426218579,26.6486624467 A 1.625,1.3458755694182258 0.0 0,1 -63.0582964496,26.3734960179" />
      <path d="M -63.0582964496,26.3734960179 A 1.625,1.3458755694182258 0.0 0,1 -59.8082964496,26.3734960179" />
      <path d="M -59.8082964496,26.3734960179 A 1.625,1.3458755694182258 0.0 0,1 -59.8426218579,26.6486624467" />
      <path d="M -45.8586694034,29.0677079749 A 1.625,1.3458755694182258 0.0 0,1 -49.0743439951,28.792541546" />
      <path d="M -49.0743439951,28.792541546 A 1.625,1.3458755694182258 0.0 0,1 -45.8243439951,28.792541546" />
      <path d="M -45.8243439951,28.792541546 A 1.625,1.3458755694182258 0.0 0,1 -45.8586694034,29.0677079749" />
      <path d="M -62.4712854322,37.0724125853 A 1.625,1.3458755694182258 0.0 0,1 -65.6869600239,36.7972461565" />
      <path d="M -65.6869600239,36.7972461565 A 1.625,1.3458755694182258 0.0 0,1 -62.4369600239,36.7972461565" />
      <path d="M -62.4369600239,36.7972461565 A 1.625,1.3458755694182258 0.0 0,1 -62.4712854322,37.0724125853" />
      <path d="M -48.4873329777,39.4914581134 A 1.625,1.3458755694182258 0.0 0,1 -51.7030075694,39.2162916846" />
      <path d="M -51.7030075694,39.2162916846 A 1.625,1.3458755694182258 0.0 0,1 -48.4530075694,39.2162916846" />
      <path d="M -48.4530075694,39.2162916846 A 1.625,1.3458755694182258 0.0 0,1 -48.4873329777,39.4914581134" />
      <path d="M -93.0678539155,42.6580716676 A 1.625,1.3458755694182258 0.0 0,1 -96.2835285072,42.3829052388" />
      <path d="M -96.2835285072,42.3829052388 A 1.625,1.3458755694182258 0.0 0,1 -93.0335285072,42.3829052388" />
      <path d="M -93.0335285072,42.3829052388 A 1.625,1.3458755694182258 0.0 0,1 -93.0678539155,42.6580716676" />
      <path d="M -79.083901461,45.0771171957 A 1.625,1.3458755694182258 0.0 0,1 -82.2995760527,44.8019507669" />
      <path d="M -82.2995760527,44.8019507669 A 1.625,1.3458755694182258 0.0 0,1 -79.0495760527,44.8019507669" />
      <path d="M -79.0495760527,44.8019507669 A 1.625,1.3458755694182258 0.0 0,1 -79.083901461,45.0771171957" />
      <path d="M -95.6965174898,53.0818218062 A 1.625,1.3458755694182258 0.0 0,1 -98.9121920815,52.8066553773" />
      <path d="M -98.9121920815,52.8066553773 A 1.625,1.3458755694182258 0.0 0,1 -95.6621920815,52.8066553773" />
      <path d="M -95.6621920815,52.8066553773 A 1.625,1.3458755694182258 0.0 0,1 -95.6965174898,53.0818218062" />
      <path d="M -81.7125650353,55.5008673343 A 1.625,1.3458755694182258 0.0 0,1 -84.928239627,55.2257009055" />
      <path d="M -84.928239627,55.2257009055 A 1.625,1.3458755694182258 0.0 0,1 -81.678239627,55.2257009055" />
      <path d="M -81.678239627,55.2257009055 A 1.625,1.3458755694182258 0.0 0,1 -81.7125650353,55.5008673343" />
      <path d="M -65.0999490065,47.4961627238 A 1.625,1.3458755694182258 0.0 0,1 -68.3156235982,47.220996295" />
      <path d="M -68.3156235982,47.220996295 A 1.625,1.3458755694182258 0.0 0,1 -65.0656235982,47.220996295" />
      <path d="M -65.0656235982,47.220996295 A 1.625,1.3458755694182258 0.0 0,1 -65.0999490065,47.4961627238" />
      <path d="M -51.115996552,49.915208252 A 1.625,1.3458755694182258 0.0 0,1 -54.3316711437,49.6400418231" />
      <path d="M -54.3316711437,49.6400418231 A 1.625,1.3458755694182258 0.0 0,1 -51.0816711437,49.6400418231" />
      <path d="M -51.0816711437,49.6400418231 A 1.625,1.3458755694182258 0.0 0,1 -51.115996552,49.915208252" />
      <path d="M -67.7286125808,57.9199128624 A 1.625,1.3458755694182258 0.0 0,1 -70.9442871725,57.6447464336" />
      <path d="M -70.9442871725,57.6447464336 A 1.625,1.3458755694182258 0.0 0,1 -67.6942871725,57.6447464336" />
      <path d="M -67.6942871725,57.6447464336 A 1.625,1.3458755694182258 0.0 0,1 -67.7286125808,57.9199128624" />
      <path d="M -53.7446601264,60.3389583905 A 1.625,1.3458755694182258 0.0 0,1 -56.9603347181,60.0637919617" />
      <path d="M -56.9603347181,60.0637919617 A 1.625,1.3458755694182258 0.0 0,1 -53.7103347181,60.0637919617" />
      <path d="M -53.7103347181,60.0637919617 A 1.625,1.3458755694182258 0.0 0,1 -53.7446601264,60.3389583905" />
      <path d="M -31.8747169489,31.486753503 A 1.625,1.3458755694182258 0.0 0,1 -35.0903915406,31.2115870742" />
      <path d="M -35.0903915406,31.2115870742 A 1.6250000000000018,1.3458755694182274 0.0 0,1 -31.8403915406,31.2115870742" />
      <path d="M -31.8403915406,31.2115870742 A 1.625,1.3458755694182258 0.0 0,1 -31.8747169489,31.486753503" />
      <path d="M -17.8907644944,33.9057990311 A 1.625,1.3458755694182258 0.0 0,1 -21.1064390861,33.6306326023" />
      <path d="M -21.1064390861,33.6306326023 A 1.625,1.3458755694182258 0.0 0,1 -17.8564390861,33.6306326023" />
      <path d="M -17.8564390861,33.6306326023 A 1.625,1.3458755694182258 0.0 0,1 -17.8907644944,33.9057990311" />
      <path d="M -34.5033805232,41.9105036415 A 1.625,1.3458755694182258 0.0 0,1 -37.7190551149,41.6353372127" />
      <path d="M -37.7190551149,41.6353372127 A 1.625,1.3458755694182258 0.0 0,1 -34.4690551149,41.6353372127" />
      <path d="M -34.4690551149,41.6353372127 A 1.625,1.3458755694182258 0.0 0,1 -34.5033805232,41.9105036415" />
      <path d="M -20.5194280688,44.3295491697 A 1.625,1.3458755694182258 0.0 0,1 -23.7351026604,44.0543827408" />
      <path d="M -23.7351026604,44.0543827408 A 1.625,1.3458755694182258 0.0 0,1 -20.4851026604,44.0543827408" />
      <path d="M -20.4851026604,44.0543827408 A 1.625,1.3458755694182258 0.0 0,1 -20.5194280688,44.3295491697" />
      <path d="M -3.9068120399,36.3248445592 A 1.625,1.3458755694182258 0.0 0,1 -7.1224866316,36.0496781304" />
      <path d="M -7.1224866316,36.0496781304 A 1.625,1.3458755694182258 0.0 0,1 -3.8724866316,36.0496781304" />
      <path d="M -3.8724866316,36.0496781304 A 1.625,1.3458755694182258 0.0 0,1 -3.9068120399,36.3248445592" />
      <path d="M 10.0771404145,38.7438900874 A 1.625,1.3458755694182258 0.0 0,1 6.8614658228,38.4687236585" />
      <path d="M 6.8614658228,38.4687236585 A 1.625,1.3458755694182258 0.0 0,1 10.1114658228,38.4687236585" />
      <path d="M 10.1114658228,38.4687236585 A 1.625,1.3458755694182258 0.0 0,1 10.0771404145,38.7438900874" />
      <path d="M -6.5354756143,46.7485946978 A 1.625,1.3458755694182258 0.0 0,1 -9.751150206,46.473428269" />
      <path d="M -9.751150206,46.473428269 A 1.625,1.3458755694182258 0.0 0,1 -6.501150206,46.473428269" />
      <path d="M -6.501150206,46.473428269 A 1.625,1.3458755694182258 0.0 0,1 -6.5354756143,46.7485946978" />
      <path d="M 7.4484768402,49.1676402259 A 1.625,1.3458755694182258 0.0 0,1 4.2328022485,48.8924737971" />
      <path d="M 4.2328022485,48.8924737971 A 1.625,1.3458755694182258 0.0 0,1 7.4828022485,48.8924737971" />
      <path d="M 7.4828022485,48.8924737971 A 1.625,1.3458755694182258 0.0 0,1 7.4484768402,49.1676402259" />
      <path d="M -37.1320440976,52.3342537801 A 1.625,1.3458755694182258 0.0 0,1 -40.3477186893,52.0590873513" />
      <path d="M -40.3477186893,52.0590873513 A 1.625,1.3458755694182258 0.0 0,1 -37.0977186893,52.0590873513" />
      <path d="M -37.0977186893,52.0590873513 A 1.625,1.3458755694182258 0.0 0,1 -37.1320440976,52.3342537801" />
      <path d="M -23.1480916431,54.7532993082 A 1.625,1.3458755694182258 0.0 0,1 -26.3637662348,54.4781328794" />
      <path d="M -26.3637662348,54.4781328794 A 1.625,1.3458755694182258 0.0 0,1 -23.1137662348,54.4781328794" />
      <path d="M -23.1137662348,54.4781328794 A 1.625,1.3458755694182258 0.0 0,1 -23.1480916431,54.7532993082" />
      <path d="M -39.7607076719,62.7580039187 A 1.625,1.3458755694182258 0.0 0,1 -42.9763822636,62.4828374898" />
      <path d="M -42.9763822636,62.4828374898 A 1.625,1.3458755694182258 0.0 0,1 -39.7263822636,62.4828374898" />
      <path d="M -39.7263822636,62.4828374898 A 1.625,1.3458755694182258 0.0 0,1 -39.7607076719,62.7580039187" />
      <path d="M -25.7767552174,65.1770494468 A 1.625,1.3458755694182258 0.0 0,1 -28.9924298091,64.901883018" />
      <path d="M -28.9924298091,64.901883018 A 1.625,1.3458755694182258 0.0 0,1 -25.7424298091,64.901883018" />
      <path d="M -25.7424298091,64.901883018 A 1.625,1.3458755694182258 0.0 0,1 -25.7767552174,65.1770494468" />
      <path d="M -9.1641391886,57.1723448364 A 1.625,1.3458755694182258 0.0 0,1 -12.3798137803,56.8971784075" />
      <path d="M -12.3798137803,56.8971784075 A 1.625,1.3458755694182258 0.0 0,1 -9.1298137803,56.8971784075" />
      <path d="M -9.1298137803,56.8971784075 A 1.625,1.3458755694182258 0.0 0,1 -9.1641391886,57.1723448364" />
      <path d="M 4.8198132659,59.5913903645 A 1.625,1.3458755694182258 0.0 0,1 1.6041386742,59.3162239357" />
      <path d="M 1.6041386742,59.3162239357 A 1.625,1.3458755694182258 0.0 0,1 4.8541386742,59.3162239357" />
      <path d="M 4.8541386742,59.3162239357 A 1.625,1.3458755694182258 0.0 0,1 4.8198132659,59.5913903645" />
      <path d="M -11.7928027629,67.5960949749 A 1.625,1.3458755694182258 0.0 0,1 -15.0084773546,67.3209285461" />
      <path d="M -15.0084773546,67.3209285461 A 1.625,1.3458755694182258 0.0 0,1 -11.7584773546,67.3209285461" />
      <path d="M -11.7584773546,67.3209285461 A 1.625,1.3458755694182258 0.0 0,1 -11.7928027629,67.5960949749" />
      <path d="M 2.1911496916,70.0151405031 A 1.625,1.3458755694182258 0.0 0,1 -1.0245249001,69.7399740742" />
      <path d="M -1.0245249001,69.7399740742 A 1.625,1.3458755694182258 0.0 0,1 2.2254750999,69.7399740742" />
      <path d="M 2.2254750999,69.7399740742 A 1.625,1.3458755694182258 0.0 0,1 2.1911496916,70.0151405031" />
      <line x1="-71.3868409399" y1="-63.9424957263" x2="-65.451585134" y2="-62.9157721257" />
      <line x1="-65.451585134" y1="-67.3388616856" x2="-65.451585134" y2="-62.9157721257" />
      <line x1="-65.451585134" y1="-62.9157721257" x2="-66.2693915794" y2="-59.6728276381" />
      <line x1="-71.002704712" y1="-57.1072158985" x2="-73.0224538306" y2="-57.4566067512" />
      <line x1="-76.9008753688" y1="-32.084602547" x2="-79.3154385473" y2="-32.5022911996" />
      <line x1="5.0228250845" y1="-55.1476870201" x2="5.0213075802" y2="-55.1416694809" />
      <line x1="5.0213075802" y1="-55.1416694809" x2="9.7546207128" y2="-54.3228666421" />
      <line x1="-3.1567568733" y1="-22.7122246053" x2="8.5897631885" y2="-20.6802263617" />
      <line x1="-5.6101762093" y1="-12.9833911427" x2="-3.1567568733" y2="-22.7122246053" />
      <line x1="-84.4717440654" y1="-12.0553839255" x2="-78.5364882595" y2="-11.0286603248" />
      <line x1="-76.9008753688" y1="-32.084602547" x2="-76.9008753688" y2="-23.1184159334" />
      <line x1="-76.9008753688" y1="-23.1184159334" x2="-80.8163820561" y2="-23.7957486813" />
      <line x1="-80.8163820561" y1="-22.6749753546" x2="-80.8163820561" y2="-23.7957486813" />
      <line x1="-80.8163820561" y1="-18.1918820478" x2="-82.8361311747" y2="-18.5412729006" />
      <line x1="-78.5364882595" y1="-11.0286603248" x2="-77.7186818141" y2="-14.2716048124" />
      <line x1="76.6431703615" y1="60.8736017179" x2="76.2342671388" y2="60.8028666725" />
      <line x1="77.4609768068" y1="57.6306572303" x2="77.0520735841" y2="57.5599221849" />
      <line x1="78.2787832521" y1="54.3877127428" x2="77.8698800295" y2="54.3169776974" />
      <line x1="79.0965896975" y1="51.1447682553" x2="78.6876864748" y2="51.0740332098" />
      <line x1="79.9143961428" y1="47.9018237677" x2="79.5054929201" y2="47.8310887223" />
      <line x1="80.7322025881" y1="44.6588792802" x2="80.3232993655" y2="44.5881442348" />
      <line x1="81.5500090334" y1="41.4159347927" x2="81.1411058108" y2="41.3451997473" />
      <line x1="82.3678154788" y1="38.1729903053" x2="81.9589122561" y2="38.1022552598" />
      <line x1="84.6167832035" y1="24.200365695" x2="76.785769829" y2="22.8457001992" />
      <line x1="76.785769829" y1="22.8457001992" x2="75.1501569383" y2="29.3315891743" />
      <line x1="62.954359992" y1="61.4890693629" x2="55.1233466175" y2="60.1344038672" />
      <line x1="55.1233466175" y1="60.1344038672" x2="53.4877337268" y2="66.6202928423" />
      <line x1="30.6514298221" y1="55.9010741929" x2="38.4824431967" y2="57.2557396887" />
      <line x1="29.0158169314" y1="62.3869631681" x2="30.6514298221" y2="55.9010741929" />
      <line x1="32.7363195974" y1="15.2257067856" x2="24.9053062229" y2="13.8710412899" />
      <line x1="59.6616557288" y1="9.7302029972" x2="61.2972686194" y2="3.2443140221" />
      <line x1="75.1501569383" y1="29.3315891743" x2="75.1501569383" y2="31.5731358277" />
      <line x1="75.1501569383" y1="31.5731358277" x2="79.0656636256" y2="32.2504685756" />
      <line x1="82.9811703129" y1="36.2901213035" x2="79.0656636256" y2="35.6127885557" />
      <line x1="79.0656636256" y1="32.2504685756" x2="79.0656636256" y2="35.6127885557" />
      <line x1="79.0656636256" y1="35.6127885557" x2="80.7012765163" y2="29.1268995805" />
      <line x1="80.7012765163" y1="29.1268995805" x2="84.6167832035" y2="29.8042323284" />
      <line x1="80.7012765163" y1="25.7645796005" x2="80.7012765163" y2="29.1268995805" />
      <line x1="80.7012765163" y1="25.7645796005" x2="76.785769829" y2="25.0872468526" />
      <line x1="76.785769829" y1="22.8457001992" x2="76.785769829" y2="25.0872468526" />
      <line x1="-34.1930281344" y1="85.3457408953" x2="-19.3488078307" y2="87.913601796" />
      <line x1="-19.3488078307" y1="87.913601796" x2="-19.3488078307" y2="89.0122805243" />
      <line x1="-60.9510663828" y1="80.4146534198" x2="-60.9510663828" y2="76.7942347064" />
      <line x1="-100.7566418177" y1="69.908377538" x2="-60.9510663828" y2="76.7942347064" />
      <line x1="6.4303537459" y1="88.4503615111" x2="61.408517594" y2="97.9608830775" />
      <line x1="61.408517594" y1="97.9608830775" x2="61.408517594" y2="101.5813017909" />
      <line x1="-34.1930281344" y1="78.6211009352" x2="-19.3488078307" y2="81.1889618358" />
      <line x1="-19.3488078307" y1="81.1889618358" x2="-19.3488078307" y2="82.2876405641" />
      <line x1="-19.3488078307" y1="87.913601796" x2="-18.5310013853" y2="84.6706573084" />
      <line x1="-60.9510663828" y1="76.7942347064" x2="-60.1332599374" y2="73.5512902188" />
      <line x1="61.408517594" y1="97.9608830775" x2="62.2263240393" y2="94.7179385899" />
      <line x1="-19.3488078307" y1="81.1889618358" x2="-18.5310013853" y2="77.9460173482" />
      <line x1="61.2972686194" y1="3.2443140221" x2="61.2972686194" y2="5.4858606754" />
      <line x1="69.128281994" y1="4.5989795178" x2="69.128281994" y2="6.8405261712" />
      <line x1="24.9053062229" y1="13.8710412899" x2="24.9053062229" y2="16.1125879432" />
      <line x1="23.2696933322" y1="20.356930265" x2="23.2696933322" y2="22.5984769184" />
      <line x1="29.0158169314" y1="62.3869631681" x2="29.0158169314" y2="64.6285098215" />
      <line x1="53.4877337268" y1="66.6202928423" x2="53.4877337268" y2="68.8618394957" />
      <line x1="-1.6946695221" y1="-10.0645117414" x2="-1.6946695221" y2="2.2639948522" />
      <line x1="-5.6101762093" y1="-12.9833911427" x2="-1.6946695221" y2="-10.0645117414" />
      <line x1="6.1363438525" y1="3.618660348" x2="-1.6946695221" y2="2.2639948522" />
      <line x1="7.7719567431" y1="-15.1957352208" x2="7.7719567431" y2="-8.4710952606" />
      <line x1="7.7719567431" y1="-8.4710952606" x2="6.9541502978" y2="-5.2281507731" />
      <line x1="6.9541502978" y1="0.3757158604" x2="6.9541502978" y2="-5.2281507731" />
      <line x1="6.9541502978" y1="0.3757158604" x2="6.1363438525" y2="3.618660348" />
      <line x1="8.5897631885" y1="-20.6802263617" x2="7.7719567431" y2="-15.1957352208" />
      <line x1="17.5856340873" y1="-41.7825624778" x2="19.2212469779" y2="-48.2684514529" />
      <line x1="19.2212469779" y1="-52.6915410128" x2="19.2212469779" y2="-48.2684514529" />
      <line x1="11.3902336035" y1="-54.0462065086" x2="11.3902336035" y2="-49.6231169486" />
      <line x1="19.2212469779" y1="-48.2684514529" x2="11.3902336035" y2="-49.6231169486" />
      <path d="M -66.1716820018,-18.5811300595 A 1.625,1.3458755694182258 180.0 0,0 -63.6335072119,-18.5811300595" />
      <path d="M -82.7842980306,-10.5764254491 A 1.625,1.3458755694182258 180.0 0,0 -80.2461232407,-10.5764254491" />
      <path d="M -68.8003455761,-8.1573799209 A 1.625,1.3458755694182258 180.0 0,0 -66.2621707862,-8.1573799209" />
      <path d="M -52.1877295473,-16.1620845314 A 1.625,1.3458755694182258 180.0 0,0 -49.6495547574,-16.1620845314" />
      <path d="M -38.2037770928,-13.7430390032 A 1.625,1.3458755694182258 180.0 0,0 -35.6656023029,-13.7430390032" />
      <path d="M -54.8163931216,-5.7383343928 A 1.625,1.3458755694182258 180.0 0,0 -52.2782183317,-5.7383343928" />
      <path d="M -40.8324406671,-3.3192888647 A 1.625,1.3458755694182258 180.0 0,0 -38.2942658773,-3.3192888647" />
      <path d="M -85.4129616049,-0.1526753105 A 1.625,1.3458755694182258 180.0 0,0 -82.874786815,-0.1526753105" />
      <path d="M -71.4290091504,2.2663702176 A 1.625,1.3458755694182258 180.0 0,0 -68.8908343606,2.2663702176" />
      <path d="M -88.0416251792,10.2710748281 A 1.625,1.3458755694182258 180.0 0,0 -85.5034503894,10.2710748281" />
      <path d="M -74.0576727247,12.6901203562 A 1.625,1.3458755694182258 180.0 0,0 -71.5194979349,12.6901203562" />
      <path d="M -57.4450566959,4.6854157458 A 1.625,1.3458755694182258 180.0 0,0 -54.9068819061,4.6854157458" />
      <path d="M -43.4611042414,7.1044612739 A 1.625,1.3458755694182258 180.0 0,0 -40.9229294516,7.1044612739" />
      <path d="M -60.0737202702,15.1091658843 A 1.625,1.3458755694182258 180.0 0,0 -57.5355454804,15.1091658843" />
      <path d="M -46.0897678157,17.5282114124 A 1.625,1.3458755694182258 180.0 0,0 -43.5515930259,17.5282114124" />
      <path d="M -24.2198246383,-11.3239934751 A 1.625,1.3458755694182258 180.0 0,0 -21.6816498485,-11.3239934751" />
      <path d="M -10.2358721838,-8.904947947 A 1.625,1.3458755694182258 180.0 0,0 -7.697697394,-8.904947947" />
      <path d="M -26.8484882126,-0.9002433366 A 1.625,1.3458755694182258 180.0 0,0 -24.3103134228,-0.9002433366" />
      <path d="M -12.8645357581,1.5188021916 A 1.625,1.3458755694182258 180.0 0,0 -10.3263609683,1.5188021916" />
      <path d="M 17.7320327252,-4.0668568907 A 1.625,1.3458755694182258 180.0 0,0 20.270207515,-4.0668568907" />
      <path d="M 1.1194166964,3.9378477197 A 1.625,1.3458755694182258 180.0 0,0 3.6575914862,3.9378477197" />
      <path d="M 15.1033691509,6.3568932478 A 1.625,1.3458755694182258 180.0 0,0 17.6415439407,6.3568932478" />
      <path d="M -29.4771517869,9.523506802 A 1.625,1.3458755694182258 180.0 0,0 -26.9389769971,9.523506802" />
      <path d="M -15.4931993324,11.9425523301 A 1.625,1.3458755694182258 180.0 0,0 -12.9550245426,11.9425523301" />
      <path d="M -32.1058153612,19.9472569406 A 1.625,1.3458755694182258 180.0 0,0 -29.5676405714,19.9472569406" />
      <path d="M -18.1218629067,22.3663024687 A 1.625,1.3458755694182258 180.0 0,0 -15.5836881169,22.3663024687" />
      <path d="M -1.5092468779,14.3615978583 A 1.625,1.3458755694182258 180.0 0,0 1.0289279119,14.3615978583" />
      <path d="M 12.4747055765,16.7806433864 A 1.625,1.3458755694182258 180.0 0,0 15.0128803664,16.7806433864" />
      <path d="M -4.1379104523,24.7853479968 A 1.625,1.3458755694182258 180.0 0,0 -1.5997356624,24.7853479968" />
      <path d="M 9.8460420022,27.2043935249 A 1.625,1.3458755694182258 180.0 0,0 12.3842167921,27.2043935249" />
      <path d="M -90.6702887535,20.6948249666 A 1.625,1.3458755694182258 180.0 0,0 -88.1321139637,20.6948249666" />
      <path d="M -76.686336299,23.1138704948 A 1.625,1.3458755694182258 180.0 0,0 -74.1481615092,23.1138704948" />
      <path d="M -93.2989523278,31.1185751052 A 1.625,1.3458755694182258 180.0 0,0 -90.760777538,31.1185751052" />
      <path d="M -79.3149998733,33.5376206333 A 1.625,1.3458755694182258 180.0 0,0 -76.7768250835,33.5376206333" />
      <path d="M -62.7023838445,25.5329160229 A 1.625,1.3458755694182258 180.0 0,0 -60.1642090547,25.5329160229" />
      <path d="M -48.71843139,27.951961551 A 1.625,1.3458755694182258 180.0 0,0 -46.1802566002,27.951961551" />
      <path d="M -65.3310474188,35.9566661614 A 1.625,1.3458755694182258 180.0 0,0 -62.792872629,35.9566661614" />
      <path d="M -51.3470949644,38.3757116896 A 1.625,1.3458755694182258 180.0 0,0 -48.8089201745,38.3757116896" />
      <path d="M -95.9276159021,41.5423252437 A 1.625,1.3458755694182258 180.0 0,0 -93.3894411123,41.5423252437" />
      <path d="M -81.9436634476,43.9613707719 A 1.625,1.3458755694182258 180.0 0,0 -79.4054886578,43.9613707719" />
      <path d="M -98.5562794765,51.9660753823 A 1.625,1.3458755694182258 180.0 0,0 -96.0181046866,51.9660753823" />
      <path d="M -84.572327022,54.3851209104 A 1.625,1.3458755694182258 180.0 0,0 -82.0341522321,54.3851209104" />
      <path d="M -67.9597109932,46.3804163 A 1.625,1.3458755694182258 180.0 0,0 -65.4215362033,46.3804163" />
      <path d="M -53.9757585387,48.7994618281 A 1.625,1.3458755694182258 180.0 0,0 -51.4375837488,48.7994618281" />
      <path d="M -70.5883745675,56.8041664386 A 1.625,1.3458755694182258 180.0 0,0 -68.0501997776,56.8041664386" />
      <path d="M -56.604422113,59.2232119667 A 1.625,1.3458755694182258 180.0 0,0 -54.0662473231,59.2232119667" />
      <path d="M -34.7344789356,30.3710070791 A 1.625,1.3458755694182258 180.0 0,0 -32.1963041457,30.3710070791" />
      <path d="M -20.7505264811,32.7900526073 A 1.625,1.3458755694182258 180.0 0,0 -18.2123516912,32.7900526073" />
      <path d="M -37.3631425099,40.7947572177 A 1.625,1.3458755694182258 180.0 0,0 -34.82496772,40.7947572177" />
      <path d="M -23.3791900554,43.2138027458 A 1.625,1.3458755694182258 180.0 0,0 -20.8410152655,43.2138027458" />
      <path d="M -6.7665740266,35.2090981354 A 1.625,1.3458755694182258 180.0 0,0 -4.2283992367,35.2090981354" />
      <path d="M 7.2173784279,37.6281436635 A 1.625,1.3458755694182258 180.0 0,0 9.7555532178,37.6281436635" />
      <path d="M -9.3952376009,45.632848274 A 1.625,1.3458755694182258 180.0 0,0 -6.857062811,45.632848274" />
      <path d="M 4.5887148536,48.0518938021 A 1.625,1.3458755694182258 180.0 0,0 7.1268896435,48.0518938021" />
      <path d="M -39.9918060842,51.2185073563 A 1.625,1.3458755694182258 180.0 0,0 -37.4536312943,51.2185073563" />
      <path d="M -26.0078536297,53.6375528844 A 1.625,1.3458755694182258 180.0 0,0 -23.4696788398,53.6375528844" />
      <path d="M -42.6204696585,61.6422574948 A 1.625,1.3458755694182258 180.0 0,0 -40.0822948686,61.6422574948" />
      <path d="M -28.636517204,64.061303023 A 1.625,1.3458755694182258 180.0 0,0 -26.0983424142,64.061303023" />
      <path d="M -12.0239011752,56.0565984125 A 1.625,1.3458755694182258 180.0 0,0 -9.4857263853,56.0565984125" />
      <path d="M 1.9600512793,58.4756439406 A 1.625,1.3458755694182258 180.0 0,0 4.4982260691,58.4756439406" />
      <path d="M -14.6525647495,66.4803485511 A 1.625,1.3458755694182258 180.0 0,0 -12.1143899597,66.4803485511" />
      <path d="M -0.668612295,68.8993940792 A 1.625,1.3458755694182258 180.0 0,0 1.8695624948,68.8993940792" />
      <line x1="-66.2693915794" y1="-59.6728276381" x2="-67.0871980247" y2="-56.4298831506" />
      <line x1="-71.002704712" y1="-57.1072158985" x2="-67.0871980247" y2="-56.4298831506" />
      <line x1="-77.3766982341" y1="-21.2315793268" x2="-76.9008753688" y2="-23.1184159334" />
      <line x1="5.0213075802" y1="-55.1416694809" x2="5.0473170899" y2="-55.1434502154" />
      <line x1="-3.1567568733" y1="-22.7122246053" x2="-0.0590566314" y2="-16.5504007165" />
      <line x1="-0.0590566314" y1="-16.5504007165" x2="7.7719567431" y2="-15.1957352208" />
      <line x1="-1.6946695221" y1="-10.0645117414" x2="-0.0590566314" y2="-16.5504007165" />
      <line x1="-80.8163820561" y1="-22.6749753546" x2="-78.8586287124" y2="-22.3363089807" />
      <line x1="-80.8163820561" y1="-18.1918820478" x2="-76.9008753688" y2="-17.5145492999" />
      <line x1="-76.9008753688" y1="-20.87686928" x2="-76.9008753688" y2="-17.5145492999" />
      <line x1="-76.9008753688" y1="-20.87686928" x2="-78.8586287124" y2="-22.3363089807" />
      <line x1="-76.9008753688" y1="-17.5145492999" x2="-77.7186818141" y2="-14.2716048124" />
      <line x1="67.4980080192" y1="13.3052441124" x2="67.4926691033" y2="13.3264151463" />
      <line x1="67.4926691033" y1="13.3264151463" x2="59.6616557288" y2="11.9717496506" />
      <line x1="59.6616557288" y1="9.7302029972" x2="59.6616557288" y2="11.9717496506" />
      <line x1="59.6616557288" y1="11.9717496506" x2="60.4794621741" y2="8.728805163" />
      <line x1="32.7363195974" y1="15.2257067856" x2="32.7363195974" y2="17.467253439" />
      <line x1="32.7363195974" y1="17.467253439" x2="28.8208129101" y2="16.7899206911" />
      <line x1="31.1007067067" y1="23.9531424141" x2="32.7363195974" y2="17.467253439" />
      <line x1="27.9976675488" y1="23.4163561927" x2="31.1007067067" y2="23.9531424141" />
      <line x1="29.8336233768" y1="61.3855653339" x2="30.6514298221" y2="58.1426208463" />
      <line x1="30.6514298221" y1="55.9010741929" x2="30.6514298221" y2="58.1426208463" />
      <line x1="30.6514298221" y1="58.1426208463" x2="38.4824431967" y2="59.4972863421" />
      <line x1="38.4824431967" y1="57.2557396887" x2="38.4824431967" y2="59.4972863421" />
      <line x1="38.4824431967" y1="59.4972863421" x2="37.6646367513" y2="62.7402308296" />
      <line x1="55.1233466175" y1="60.1344038672" x2="55.1233466175" y2="62.3759505205" />
      <line x1="55.1233466175" y1="62.3759505205" x2="54.3055401721" y2="65.6188950081" />
      <line x1="62.954359992" y1="61.4890693629" x2="62.954359992" y2="63.7306160163" />
      <line x1="62.954359992" y1="63.7306160163" x2="55.1233466175" y2="62.3759505205" />
      <line x1="62.1365535467" y1="66.9735605038" x2="62.954359992" y2="63.7306160163" />
      <line x1="76.785769829" y1="25.0872468526" x2="75.1501569383" y2="31.5731358277" />
      <line x1="79.0656636256" y1="32.2504685756" x2="80.7012765163" y2="25.7645796005" />
      <line x1="69.128281994" y1="6.8405261712" x2="69.128281994" y2="10.2028461513" />
      <line x1="69.128281994" y1="10.2028461513" x2="61.2972686194" y2="8.8481806555" />
      <line x1="61.2972686194" y1="5.4858606754" x2="61.2972686194" y2="8.8481806555" />
      <line x1="24.9053062229" y1="16.1125879432" x2="24.9053062229" y2="19.4749079233" />
      <line x1="24.9053062229" y1="19.4749079233" x2="23.2696933322" y2="25.9607968984" />
      <line x1="23.2696933322" y1="22.5984769183" x2="23.2696933322" y2="25.9607968984" />
      <line x1="36.846830306" y1="69.3454952973" x2="29.0158169314" y2="67.9908298015" />
      <line x1="29.0158169314" y1="64.6285098214" x2="29.0158169314" y2="67.9908298015" />
      <line x1="61.3187471013" y1="73.5788249715" x2="53.4877337268" y2="72.2241594757" />
      <line x1="53.4877337268" y1="68.8618394957" x2="53.4877337268" y2="72.2241594757" />
      <line x1="-0.0590566314" y1="-16.5504007165" x2="-0.0590566314" y2="-9.8257607564" />
      <line x1="-1.6946695221" y1="2.2639948522" x2="-0.8768630767" y2="-0.9789496353" />
      <line x1="-0.8768630767" y1="-0.9789496353" x2="-0.8768630767" y2="-6.5828162688" />
      <line x1="-0.8768630767" y1="-6.5828162688" x2="-0.0590566314" y2="-9.8257607564" />
      <line x1="6.9541502978" y1="0.3757158604" x2="-0.8768630767" y2="-0.9789496353" />
      <line x1="-0.0590566314" y1="-9.8257607564" x2="7.7719567431" y2="-8.4710952606" />
      <line x1="6.9541502978" y1="-5.2281507731" x2="-0.8768630767" y2="-6.5828162688" />
      <line x1="9.7546207128" y1="-54.3291466903" x2="9.7546207128" y2="-48.741094607" />
      <line x1="9.7546207127" y1="-48.741094607" x2="10.572427158" y2="-48.5996245161" />
      <line x1="13.6701274" y1="-42.4598952256" x2="13.6701274" y2="-45.8443098041" />
      <line x1="13.6701274" y1="-42.4598952257" x2="17.5856340873" y2="-41.7825624778" />
      <line x1="13.6701274" y1="-42.4598952256" x2="14.4879338453" y2="-45.7028397132" />
      <line x1="14.4879338453" y1="-45.7028397132" x2="10.572427158" y2="-46.3801724611" />
      <line x1="11.3902336035" y1="-49.6231169486" x2="10.5724271581" y2="-46.3801724611" />
      <line x1="10.572427158" y1="-46.3801724611" x2="10.572427158" y2="-51.9840390945" />
      <line x1="10.572427158" y1="-51.9840390945" x2="9.7546207127" y2="-48.741094607" />
      <line x1="68.3104755486" y1="13.4457906388" x2="69.128281994" y2="10.2028461513" />
      <line x1="61.2972686194" y1="8.8481806555" x2="60.4794621741" y2="12.0911251431" />
      <line x1="60.4794621741" y1="8.728805163" x2="60.4794621741" y2="12.0911251431" />
      <line x1="28.8208129101" y1="16.7899206911" x2="28.8208129101" y2="20.1522406712" />
      <line x1="28.8208129101" y1="20.1522406712" x2="24.9053062229" y2="19.4749079233" />
      <line x1="23.2696933322" y1="25.9607968984" x2="27.1852000194" y2="26.6381296463" />
      <line x1="29.0158169314" y1="67.9908298015" x2="29.8336233768" y2="64.747885314" />
      <line x1="29.8336233768" y1="61.3855653339" x2="29.8336233768" y2="63.0667253239" />
      <line x1="29.8336233768" y1="61.3855653339" x2="37.6646367513" y2="62.7402308296" />
      <line x1="37.6646367513" y1="62.7402308296" x2="37.6646367513" y2="63.5752871751" />
      <line x1="37.6646367513" y1="66.1025508097" x2="36.846830306" y2="69.3454952973" />
      <line x1="54.3055401721" y1="65.6188950081" x2="62.1365535467" y2="66.9735605038" />
      <line x1="53.4877337268" y1="72.2241594757" x2="54.3055401721" y2="68.9812149882" />
      <line x1="54.3055401721" y1="65.6188950081" x2="54.3055401721" y2="67.3000549981" />
      <line x1="62.1365535467" y1="66.9735605038" x2="62.1365535467" y2="67.8086168493" />
      <line x1="62.1365535467" y1="70.3358804839" x2="61.3187471013" y2="73.5788249715" />
      <line x1="60.4794621741" y1="12.0911251431" x2="68.3104755486" y2="13.4457906388" />
      <line x1="27.1852000194" y1="26.6381296463" x2="28.8208129101" y2="20.1522406712" />
      <line x1="29.8336233768" y1="63.0667253239" x2="30.0380749881" y2="62.255989202" />
      <line x1="30.0380749881" y1="62.255989202" x2="30.0380749881" y2="63.9371491921" />
      <line x1="29.8336233768" y1="64.747885314" x2="30.0380749881" y2="63.9371491921" />
      <line x1="37.6646367513" y1="66.1025508097" x2="37.8690883626" y2="65.2918146878" />
      <line x1="37.8690883626" y1="65.2918146878" x2="37.8690883626" y2="63.6106546978" />
      <line x1="54.3055401721" y1="67.3000549981" x2="54.5099917835" y2="66.4893188762" />
      <line x1="54.5099917835" y1="66.4893188762" x2="54.5099917835" y2="68.1704788663" />
      <line x1="54.3055401721" y1="68.9812149882" x2="54.5099917835" y2="68.1704788663" />
      <line x1="62.1365535467" y1="70.3358804839" x2="62.341005158" y2="69.525144362" />
      <line x1="62.341005158" y1="69.525144362" x2="62.341005158" y2="67.843984372" />
      <line x1="30.0380749881" y1="63.9371491921" x2="37.8690883626" y2="65.2918146878" />
      <line x1="54.5099917835" y1="68.1704788663" x2="62.341005158" y2="69.525144362" />
      <line x1="37.8690883626" y1="63.6106546978" x2="30.0380749881" y2="62.255989202" />
      <line x1="62.341005158" y1="67.843984372" x2="54.5099917835" y2="66.4893188762" />
      <line x1="-74.0291052201" y1="-75.8330202685" x2="-74.0291052201" y2="-69.6687669717" />
      <line x1="-111.2392984831" y1="54.9093540147" x2="-111.2392984831" y2="77.8852072119" />
      <line x1="-74.0291052201" y1="-92.6446201689" x2="-111.2392984831" y2="54.9093540147" />
      <line x1="-74.0291052201" y1="-92.6446201689" x2="-74.0291052201" y2="-77.2339869269" />
      <line x1="-70.4791203706" y1="-77.7572290733" x2="-70.4791203706" y2="-71.5929757765" />
      <line x1="49.5009273058" y1="106.3861770771" x2="69.078460742" y2="109.7728408165" />
      <line x1="-28.8092064394" y1="92.8395221196" x2="-9.2316730031" y2="96.226185859" />
      <line x1="-107.1193401845" y1="79.2928671621" x2="-87.5418067482" y2="82.6795309015" />
      <line x1="-70.4791203706" y1="-94.5688289737" x2="-70.4791203706" y2="-79.1581957317" />
      <line x1="107.6764338996" y1="-63.7501889453" x2="-70.4791203706" y2="-94.5688289737" />
      <line x1="107.6764338996" y1="-63.7501889453" x2="107.6764338996" y2="-48.3395557033" />
      <line x1="107.6764338996" y1="-46.938589045" x2="107.6764338996" y2="-40.7743357481" />
      <path d="M -70.4791203706,-94.5688289737 A 3.0,2.4846933589259557 180.0 0,0 -74.0291052201,-92.6446201689" />
      <path d="M -111.2392984831,54.9093540147 A 3.0,1.64564829583722 -165.84624780546648 0,1 -111.2115975889,54.6837791979" />
      <path d="M -74.0291052201,-92.6446201689 A 3.0,1.64564829583722 -165.84624780546648 0,1 -74.0014043259,-92.8701949857" />
      <path d="M -111.3026684677,55.4173535756 A 3.0,2.4846933589259557 0.0 0,1 -111.2392984831,54.9093540147" />
      <line x1="-111.2392984831" y1="77.8852072119" x2="-111.2392984831" y2="80.1267538653" />
      <path d="M -70.4791203706,-94.5688289737 A 3.0,0.34371586887618294 -80.18568769841771 0,0 -70.5811082679,-95.0927166579" />
      <path d="M 107.6764338996,-63.7501889453 A 3.0,0.3437158688761828 -80.18568769841771 0,0 107.5744460023,-64.2740766295" />
      <path d="M 110.0630790656,-61.3179805797 A 3.0,2.4846933589259557 180.0 0,0 107.6764338996,-63.7501889453" />
      <line x1="110.0630790656" y1="-44.5063806793" x2="110.0630790656" y2="-38.3421273825" />
      <line x1="-74.0014043259" y1="-92.8701949857" x2="-111.2115975889" y2="54.6837791979" />
      <line x1="-111.3026684677" y1="55.4173535756" x2="-111.3026684677" y2="78.3932067728" />
      <line x1="49.5009273058" y1="106.3018028975" x2="69.0614627592" y2="109.6855262025" />
      <line x1="-28.8092064394" y1="92.75514794" x2="-9.248670986" y2="96.138871245" />
      <line x1="-107.1193401845" y1="79.2084929825" x2="-87.5588047311" y2="82.5922162875" />
      <line x1="107.5744460023" y1="-64.2740766295" x2="-70.5811082679" y2="-95.0927166579" />
      <line x1="110.0630790656" y1="-61.3179805797" x2="110.0630790656" y2="-45.9073473377" />
      <path d="M -74.0014043259,-92.8701949857 A 3.0,3.0 -80.18568769841771 0,1 -70.5811082679,-95.0927166579" />
      <path d="M -111.3026684677,55.4173535756 A 3.0,3.0 -80.18568769841771 0,1 -111.2115975889,54.6837791979" />
      <line x1="-111.3026684677" y1="78.3932067728" x2="-111.3026684677" y2="80.6347534262" />
      <path d="M 107.5744460023,-64.2740766295 A 3.0,3.0 14.153752194533517 0,1 110.0630790656,-61.3179805797" />
    </g>
  </g>
</svg>