<?xml version='1.0' encoding='utf-8'?>
<svg width="513.4999999997mm" height="452.9121849387mm" viewBox="-50.1935034891 -44.1676669473 98.1178122049 86.540901085" version="1.1" xmlns="http://www.w3.org/2000/svg">
  <g transform="scale(1,-1)" stroke-linecap="round">
    <g fill="none" stroke="rgb(64,192,64)" stroke-width="0.2866148360417232" id="Visible">
      <path d="M 18.4779982081,43.972947294 A 1.0,0.3283590842099818 -141.6902225176233 0,1 17.6933276138,43.7580943511" />
      <line x1="17.6933276138" y1="43.7580943511" x2="-43.1049028441" y2="3.6065452841" />
      <path d="M -43.1049028441,3.6065452841 A 1.0,0.3283590842099818 -141.6902225176233 0,1 -43.9155459169,2.6661312951" />
      <line x1="-43.9155459169" y1="-2.492891238" x2="-43.9155459169" y2="2.6661312951" />
      <line x1="47.7810012979" y1="-1.0076696775" x2="47.7810012979" y2="6.83024135" />
      <path d="M 47.7810012979,6.83024135 A 1.0,0.3283590842099818 -141.6902225176233 0,1 47.7550288194,6.9148003067" />
      <path d="M 47.7550288194,6.9148003067 A 1.0,0.3283590842099818 -141.6902225176233 0,1 46.9703582251,6.6999473639" />
      <line x1="-13.8278722329" y1="-33.4516017032" x2="46.9703582251" y2="6.6999473639" />
      <path d="M -13.8278722329,-33.4516017032 A 1.0,0.3283590842099818 -141.6902225176233 0,1 -14.6385153056,-34.3920156921" />
      <line x1="-14.6385153056" y1="-42.2299267197" x2="-14.6385153056" y2="-34.3920156921" />
      <line x1="-38.0785099798" y1="-12.5601566002" x2="-14.6385153056" y2="-42.2299267197" />
      <line x1="-38.0785099798" y1="-12.5601566002" x2="-38.0785099798" y2="-8.509556586" />
      <line x1="-42.7260945073" y1="-2.6267581273" x2="-38.0785099798" y2="-8.509556586" />
      <line x1="-14.6385153056" y1="-42.2299267197" x2="47.7810012979" y2="-1.0076696775" />
      <line x1="-12.9766970065" y1="-39.4109460391" x2="-13.0172291601" y2="-39.4377137385" />
      <line x1="-13.0172291601" y1="-39.4377137385" x2="-13.0172291601" y2="-38.9921477369" />
      <line x1="-13.0172291601" y1="-38.9921477369" x2="-12.9766970065" y2="-38.9653800375" />
      <path d="M -12.6119076237,-38.5421937425 A 0.45,0.14776158789449198 38.309777482376646 0,0 -12.9766970065,-38.9653800375" />
      <line x1="-12.6119076237" y1="-38.5421937425" x2="-12.6119076237" y2="-38.0966277409" />
      <path d="M -12.9766970065,-38.1552600347 A 0.45,0.14776158789449198 38.309777482376646 0,0 -12.623595239,-38.0585762104" />
      <path d="M -12.623595239,-38.0585762104 A 0.45,0.14776158789449198 38.309777482376646 0,0 -12.6119076237,-38.0966277409" />
      <line x1="-12.9766970065" y1="-38.1552600347" x2="-13.0172291601" y2="-38.1820277341" />
      <line x1="-13.0172291601" y1="-38.1820277341" x2="-13.0172291601" y2="-33.6858617183" />
      <line x1="-13.0172291601" y1="-33.6858617183" x2="46.1597151523" y2="5.3949793736" />
      <line x1="43.8254777822" y1="3.8534337465" x2="46.1597151523" y2="0.8988133578" />
      <line x1="46.1597151523" y1="0.8988133578" x2="46.1597151523" y2="5.3949793736" />
      <line x1="46.1597151523" y1="0.8988133578" x2="46.1191829987" y2="0.8720456584" />
      <path d="M 45.7543936159,0.4488593634 A 0.45,0.14776158789449198 38.309777482376646 0,0 46.1191829987,0.8720456584" />
      <line x1="45.7543936159" y1="0.4488593634" x2="45.7543936159" y2="0.0032933618" />
      <path d="M 46.1191829987,0.0619256556 A 0.45,0.14776158789449198 38.309777482376646 0,0 45.7660812313,-0.0347581687" />
      <path d="M 45.7660812313,-0.0347581687 A 0.45,0.14776158789449198 38.309777482376646 0,0 45.7543936159,0.0032933618" />
      <line x1="46.1191829987" y1="0.0619256556" x2="46.1597151523" y2="0.088693355" />
      <line x1="45.9115740489" y1="-0.0427817264" x2="46.1597151523" y2="-0.3568726466" />
      <line x1="46.1597151523" y1="-0.3568726466" x2="46.1597151523" y2="0.088693355" />
      <line x1="46.1191829987" y1="-0.383640346" x2="46.1597151523" y2="-0.3568726466" />
      <path d="M 45.7543936159,-0.806826641 A 0.45,0.14776158789449198 38.309777482376646 0,0 46.1191829987,-0.383640346" />
      <line x1="45.7543936159" y1="-1.1308746421" x2="45.7543936159" y2="-0.806826641" />
      <line x1="42.5053875468" y1="2.9816375205" x2="45.7543936159" y2="-1.1308746421" />
      <line x1="-12.6119076237" y1="-39.6763617465" x2="45.7543936159" y2="-1.1308746421" />
      <line x1="-12.6119076237" y1="-39.6763617465" x2="-12.6119076237" y2="-39.3523137454" />
      <path d="M -12.9766970065,-39.4109460391 A 0.45,0.14776158789449198 38.309777482376646 0,0 -12.623595239,-39.3142622148" />
      <path d="M -12.623595239,-39.3142622148 A 0.45,0.14776158789449198 38.309777482376646 0,0 -12.6119076237,-39.3523137454" />
      <path d="M -42.7260945073,-2.6267581273 A 6.0,5.485740627201816 3.9260290701365595e-15 0,1 -50.050196071,-7.9772503007" />
      <path d="M -50.050196071,-7.9772503007 A 6.0,5.485740627201816 3.9260290701365595e-15 0,1 -40.5369523977,-12.4242279391" />
      <path d="M -50.050196071,-12.0278503149 A 6.0,5.485740627201816 3.9260290701365595e-15 0,1 -40.5369523977,-16.4748279534" />
      <path d="M -40.5369523977,-12.4242279391 A 6.0,5.485740627201816 3.9260290701365595e-15 0,1 -38.0785099798,-8.509556586" />
      <path d="M -43.0694155456,-9.2186982248 A 1.675,1.5314359250938403 3.9260290701365595e-15 0,1 -42.375196071,-7.9772503007" />
      <path d="M -42.375196071,-7.9772503007 A 1.6750000000000007,1.531435925093841 3.9260290701365595e-15 0,1 -45.725196071,-7.9772503007" />
      <path d="M -45.725196071,-7.9772503007 A 1.675,1.5314359250938403 3.9260290701365595e-15 0,1 -43.0694155456,-9.2186982248" />
      <path d="M -40.5369523977,-16.4748279534 A 6.0,5.485740627201816 3.9260290701365595e-15 0,1 -38.0785099798,-12.5601566002" />
      <line x1="46.9703582251" y1="6.6999473639" x2="17.6933276138" y2="43.7580943511" />
      <line x1="-43.1049028441" y1="3.6065452841" x2="-13.8278722329" y2="-33.4516017032" />
      <line x1="-43.9155459169" y1="2.6661312951" x2="-14.6385153056" y2="-34.3920156921" />
      <line x1="-13.0172291601" y1="-39.3596414336" x2="-12.9766970065" y2="-39.4109460391" />
      <line x1="-13.0172291601" y1="-38.1039554292" x2="-12.9766970065" y2="-38.1552600347" />
      <line x1="43.7849456286" y1="3.8266660471" x2="46.1191829987" y2="0.8720456584" />
      <line x1="43.3255250011" y1="3.5232616597" x2="45.7543936159" y2="0.4488593634" />
      <line x1="43.0942041807" y1="3.3704958768" x2="45.7543936159" y2="0.0032933618" />
      <line x1="45.859759618" y1="-0.0552685961" x2="46.1191829987" y2="-0.383640346" />
      <line x1="42.6736208707" y1="3.092739908" x2="45.7543936159" y2="-0.806826641" />
      <line x1="47.7550288194" y1="6.9148003067" x2="18.4779982081" y2="43.972947294" />
      <line x1="-13.0172291601" y1="-37.5603240516" x2="-12.623595239" y2="-38.0585762104" />
      <line x1="43.082129707" y1="3.3625218155" x2="45.7660812313" y2="-0.0347581687" />
      <line x1="-12.9266789916" y1="-38.9306262375" x2="-12.623595239" y2="-39.3142622148" />
      <line x1="-50.050196071" y1="-12.0278503149" x2="-50.050196071" y2="-7.9772503007" />
    </g>
  </g>
</svg>