<?xml version='1.0' encoding='utf-8'?>
<svg width="513.5000000002mm" height="452.1206845868mm" viewBox="-51.2493999875 -44.4007817352 99.4607756077 87.5721011826" version="1.1" xmlns="http://www.w3.org/2000/svg">
  <g transform="scale(1,-1)" stroke-linecap="round">
    <g fill="none" stroke="rgb(64,192,64)" stroke-width="0.2905378060593691" id="Visible">
      <line x1="16.3891456218" y1="38.5055778179" x2="17.9867603035" y2="39.6001135267" />
      <line x1="46.4684920355" y1="2.171545367" x2="16.3891456218" y2="38.5055778179" />
      <line x1="46.4684920355" y1="2.171545367" x2="48.0661067171" y2="3.2660810758" />
      <line x1="48.0661067171" y1="3.2660810758" x2="24.6042165145" y2="31.6066263875" />
      <line x1="18.5883472317" y1="38.8734328777" x2="17.9867603035" y2="39.6001135267" />
      <line x1="18.5883472317" y1="38.8734328777" x2="21.1312507177" y2="40.6155917984" />
      <line x1="24.6042165145" y1="31.6066263875" x2="27.1471200005" y2="33.3487853082" />
      <line x1="16.3891456218" y1="36.9899128243" x2="16.3891456218" y2="38.5055778179" />
      <line x1="16.3492052548" y1="36.9625494316" x2="16.3891456218" y2="36.9899128243" />
      <path d="M 15.9897419514,36.5294160897 A 0.45,0.14926738230399145 39.61986113337017 0,0 16.3492052548,36.9625494316" />
      <line x1="15.9897419514" y1="36.0726403381" x2="15.9897419514" y2="36.5294160897" />
      <path d="M 16.0025737475,36.0319499029 A 0.45,0.14926738230399145 39.61986113337017 0,0 15.9897419514,36.0726403381" />
      <path d="M 15.9897419514,35.2421389718 A 0.45,0.14926738230399145 39.61986113337017 0,0 16.31683771,35.6523380306" />
      <line x1="15.9897419514" y1="35.2421389718" x2="15.9897419514" y2="34.9099384252" />
      <line x1="15.9897419514" y1="34.9099384252" x2="-40.1689433575" y2="-3.5647245435" />
      <line x1="-43.5214049389" y1="-2.5395112616" x2="-41.9237902572" y2="-1.4449755528" />
      <line x1="-43.5214049389" y1="-3.6783428394" x2="-43.5214049389" y2="-2.5395112616" />
      <line x1="48.0661067171" y1="-0.8864257561" x2="48.0661067171" y2="3.2660810758" />
      <line x1="-13.4420585252" y1="-43.0260505444" x2="48.0661067171" y2="-0.8864257561" />
      <line x1="-13.4420585252" y1="-43.0260505444" x2="-13.4420585252" y2="-38.8735437125" />
      <line x1="-13.4420585252" y1="-38.8735437125" x2="-11.8444438436" y2="-37.7790080037" />
      <line x1="-11.8444438436" y1="-39.2946729973" x2="-11.8444438436" y2="-37.7790080037" />
      <line x1="-11.8045034766" y1="-39.2673096046" x2="-11.8444438436" y2="-39.2946729973" />
      <path d="M -11.8045034766,-39.2673096046 A 0.45,0.14926738230399145 39.61986113337017 0,0 -11.4578719692,-39.1672114423" />
      <path d="M -11.4578719692,-39.1672114423 A 0.45,0.14926738230399145 39.61986113337017 0,0 -11.4450401732,-39.2079018776" />
      <line x1="-11.4450401732" y1="-39.6646776291" x2="-11.4450401732" y2="-39.2079018776" />
      <path d="M -11.4450401732,-39.6646776291 A 0.45,0.14926738230399145 39.61986113337017 0,0 -11.8045034766,-40.097810971" />
      <line x1="-11.8444438436" y1="-40.1251743637" x2="-11.8045034766" y2="-40.097810971" />
      <line x1="-11.8444438436" y1="-40.5819501152" x2="-11.8444438436" y2="-40.1251743637" />
      <line x1="-11.8045034766" y1="-40.5545867225" x2="-11.8444438436" y2="-40.5819501152" />
      <path d="M -11.8045034766,-40.5545867225 A 0.45,0.14926738230399145 39.61986113337017 0,0 -11.4578719692,-40.4544885602" />
      <path d="M -11.4578719692,-40.4544885602 A 0.45,0.14926738230399145 39.61986113337017 0,0 -11.4450401732,-40.4951789955" />
      <line x1="-11.4450401732" y1="-40.827379542" x2="-11.4450401732" y2="-40.4951789955" />
      <line x1="-11.4450401732" y1="-40.827379542" x2="46.0690883651" y2="-1.4240940257" />
      <line x1="46.0690883651" y1="-1.4240940257" x2="46.0690883651" y2="-1.0918934791" />
      <path d="M 46.0690883651,-1.0918934791 A 0.45,0.14926738230399145 39.61986113337017 0,0 46.4285516685,-0.6587601372" />
      <line x1="46.4285516685" y1="-0.6587601372" x2="46.4684920355" y2="-0.6313967445" />
      <line x1="46.4684920355" y1="-0.6313967445" x2="46.4684920355" y2="-0.174620993" />
      <line x1="46.4285516685" y1="-0.2019843857" x2="46.4684920355" y2="-0.174620993" />
      <path d="M 46.4285516685,-0.2019843857 A 0.45,0.14926738230399145 39.61986113337017 0,0 46.0819201611,-0.302082548" />
      <path d="M 46.0819201611,-0.302082548 A 0.45,0.14926738230399145 39.61986113337017 0,0 46.0690883651,-0.2613921128" />
      <line x1="46.0690883651" y1="0.1953836388" x2="46.0690883651" y2="-0.2613921128" />
      <path d="M 46.0690883651,0.1953836388 A 0.45,0.14926738230399145 39.61986113337017 0,0 46.4285516685,0.6285169807" />
      <line x1="46.4684920355" y1="0.6558803734" x2="46.4285516685" y2="0.6285169807" />
      <line x1="46.4684920355" y1="0.6558803734" x2="46.4684920355" y2="2.171545367" />
      <line x1="16.3891456218" y1="36.9899128243" x2="46.4684920355" y2="0.6558803734" />
      <line x1="26.7977751391" y1="28.9569401491" x2="27.1471200005" y2="29.1962784763" />
      <line x1="27.1471200005" y1="29.1962784763" x2="27.1471200005" y2="33.3487853082" />
      <line x1="-36.9039487279" y1="-14.6855052327" x2="-13.4420585252" y2="-43.0260505444" />
      <line x1="-43.5214049389" y1="-2.5395112616" x2="-42.9198180106" y2="-3.2661919106" />
      <line x1="-36.9039487279" y1="-10.5329984008" x2="-13.4420585252" y2="-38.8735437125" />
      <line x1="-41.9237902572" y1="-1.4449755528" x2="-11.8444438436" y2="-37.7790080037" />
      <line x1="15.9897419514" y1="34.9099384252" x2="46.0690883651" y2="-1.4240940257" />
      <line x1="46.2060089369" y1="-0.3143330261" x2="46.4684920355" y2="-0.6313967445" />
      <line x1="-36.9039487279" y1="-14.6855052327" x2="-36.9039487279" y2="-10.5329984008" />
      <path d="M 30.398051158,34.4371867921 A 6.0,5.458242145961092 0.0 0,1 32.7885295884,38.7972706862" />
      <path d="M 32.7885295884,38.7972706862 A 6.0,5.458242145961092 0.0 0,1 21.1312507177,40.6155917984" />
      <path d="M 30.398051158,30.2846799602 A 6.0,5.458242145961092 0.0 0,1 32.7885295884,34.6447638543" />
      <path d="M 27.1471200005,33.3487853082 A 6.0,5.458242145961092 0.0 0,1 30.398051158,34.4371867921" />
      <path d="M 27.7961876932,37.5800805991 A 1.675,1.523759265747472 0.0 0,1 28.4635295884,38.7972706862" />
      <path d="M 28.4635295884,38.7972706862 A 1.6750000000000007,1.5237592657474726 0.0 0,1 25.1135295884,38.7972706862" />
      <path d="M 25.1135295884,38.7972706862 A 1.675,1.523759265747472 0.0 0,1 27.7961876932,37.5800805991" />
      <path d="M 27.1471200005,29.1962784763 A 6.0,5.458242145961092 0.0 0,1 30.398051158,30.2846799602" />
      <line x1="-45.4627214966" y1="-5.0083508313" x2="-42.9198180106" y2="-3.2661919106" />
      <line x1="-39.4468522139" y1="-12.2751573215" x2="-36.9039487279" y2="-10.5329984008" />
      <line x1="-39.4468522139" y1="-16.4276641534" x2="-39.4468522139" y2="-12.2751573215" />
      <line x1="-39.4468522139" y1="-16.4276641534" x2="-36.9039487279" y2="-14.6855052327" />
      <path d="M -45.4627214966,-5.0083508313 A 6.0,5.458242145961092 0.0 0,1 -51.1041310845,-10.4568362092" />
      <path d="M -51.1041310845,-10.4568362092 A 6.0,5.458242145961092 0.0 0,1 -41.4946095148,-14.8169201033" />
      <path d="M -51.1041310845,-14.6093430411 A 6.0,5.458242145961092 0.0 0,1 -41.4946095148,-18.9694269352" />
      <path d="M -41.4946095148,-14.8169201033 A 6.0,5.458242145961092 0.0 0,1 -39.4468522139,-12.2751573215" />
      <path d="M -41.4946095148,-18.9694269352 A 6.0,5.458242145961092 0.0 0,1 -39.4468522139,-16.4276641534" />
      <path d="M -44.0964729796,-11.6740262963 A 1.675,1.523759265747472 0.0 0,1 -43.4291310845,-10.4568362092" />
      <path d="M -43.4291310845,-10.4568362092 A 1.6750000000000007,1.5237592657474726 0.0 0,1 -46.7791310845,-10.4568362092" />
      <path d="M -46.7791310845,-10.4568362092 A 1.675,1.523759265747472 0.0 0,1 -44.0964729796,-11.6740262963" />
      <line x1="-11.8444438436" y1="-39.2190640552" x2="-11.8045034766" y2="-39.2673096046" />
      <line x1="-11.8444438436" y1="-40.5063411731" x2="-11.8045034766" y2="-40.5545867225" />
      <line x1="15.9897419514" y1="35.2421389718" x2="46.0690883651" y2="-1.0918934791" />
      <line x1="46.1514155057" y1="-0.3239964029" x2="46.4285516685" y2="-0.6587601372" />
      <line x1="15.9897419514" y1="36.0726403381" x2="46.0690883651" y2="-0.2613921128" />
      <line x1="15.9897419514" y1="36.5294160897" x2="46.0690883651" y2="0.1953836388" />
      <line x1="16.3492052548" y1="36.9625494316" x2="46.4285516685" y2="0.6285169807" />
      <line x1="-11.8444438436" y1="-38.7002559828" x2="-11.4578719692" y2="-39.1672114423" />
      <line x1="-11.7721359317" y1="-40.0748766879" x2="-11.4578719692" y2="-40.4544885602" />
      <line x1="16.0025737475" y1="36.0319499029" x2="46.0819201611" y2="-0.302082548" />
      <line x1="32.7885295884" y1="34.6447638543" x2="32.7885295884" y2="38.7972706862" />
      <line x1="-51.1041310845" y1="-14.6093430411" x2="-51.1041310845" y2="-10.4568362092" />
    </g>
  </g>
</svg>