<?xml version='1.0' encoding='utf-8'?>
<svg width="405.8318969625mm" height="513.5000000001mm" viewBox="-32.0367507132 -36.493809529 59.0729372963 74.7451186777" version="1.1" xmlns="http://www.w3.org/2000/svg">
  <g transform="scale(1,-1)" stroke-linecap="round">
    <g fill="none" stroke="rgb(64,192,64)" stroke-width="0.21834017140511336" id="Visible">
      <path d="M 6.3655341965,36.2819763111 A 1.0,0.29568963947433485 -160.82040937375604 0,1 5.4210407404,36.2648701138" />
      <line x1="5.4210407404" y1="36.2648701138" x2="-22.5885008507" y2="27.4670032948" />
      <path d="M -22.5885008507,27.4670032948 A 1.0,0.29568963947433485 -160.82040937375604 0,1 -23.5379768369,26.8573464897" />
      <line x1="-23.5379768369" y1="22.5444240285" x2="-23.5379768369" y2="26.8573464897" />
      <line x1="26.9270164974" y1="-28.7478066969" x2="26.9270164974" y2="-22.8463212988" />
      <path d="M 26.9270164974,-22.8463212988 A 1.0,0.29568963947433485 -160.82040937375604 0,1 26.9220339674,-22.8160238435" />
      <path d="M 26.9220339674,-22.8160238435 A 1.0,0.29568963947433485 -160.82040937375604 0,1 25.9775405112,-22.8331300408" />
      <line x1="-2.0320010799" y1="-31.6309968598" x2="25.9775405112" y2="-22.8331300408" />
      <path d="M -2.0320010799,-31.6309968598 A 1.0,0.29568963947433485 -160.82040937375604 0,1 -2.981477066,-32.2406536649" />
      <line x1="-2.981477066" y1="-38.142139063" x2="-2.981477066" y2="-32.2406536649" />
      <line x1="-20.4094260284" y1="11.961572267" x2="-2.981477066" y2="-38.142139063" />
      <line x1="-20.4094260284" y1="11.961572267" x2="-20.4094260284" y2="15.0758125826" />
      <line x1="-22.9004513514" y1="22.2372756997" x2="-20.4094260284" y2="15.0758125826" />
      <line x1="-2.981477066" y1="-38.142139063" x2="26.9270164974" y2="-28.7478066969" />
      <line x1="-1.0350512944" y1="-36.2072097431" x2="-1.0825250937" y2="-36.2221213818" />
      <line x1="-1.0825250937" y1="-36.2221213818" x2="-1.0825250937" y2="-35.6927005281" />
      <line x1="-1.0825250937" y1="-35.6927005281" x2="-1.0350512944" y2="-35.6777888895" />
      <path d="M -0.6077871007,-35.4034433272 A 0.45,0.13306033776345086 19.179590626243964 0,0 -1.0350512944,-35.6777888895" />
      <line x1="-0.6077871007" y1="-35.4034433272" x2="-0.6077871007" y2="-35.0608768925" />
      <path d="M -1.0350512944,-35.0549408263 A 0.45,0.13306033776345086 19.179590626243964 0,0 -0.6100292391,-35.0472430376" />
      <path d="M -0.6100292391,-35.0472430376 A 0.45,0.13306033776345086 19.179590626243964 0,0 -0.6077871007,-35.0608768925" />
      <line x1="-1.0350512944" y1="-35.0549408263" x2="-1.0825250937" y2="-35.069852465" />
      <line x1="-1.0825250937" y1="-35.069852465" x2="-1.0825250937" y2="-32.0490393589" />
      <line x1="-1.0825250937" y1="-32.0490393589" x2="25.0280645251" y2="-23.8476380869" />
      <line x1="24.0808066814" y1="-24.1451741364" x2="25.0280645251" y2="-26.8684511931" />
      <line x1="25.0280645251" y1="-26.8684511931" x2="25.0280645251" y2="-23.8476380869" />
      <line x1="25.0280645251" y1="-26.8684511931" x2="24.9805907258" y2="-26.8833628318" />
      <path d="M 24.553326532,-27.157708394 A 0.45,0.13306033776345086 19.179590626243964 0,0 24.9805907258,-26.8833628318" />
      <line x1="24.553326532" y1="-27.157708394" x2="24.553326532" y2="-27.5002748288" />
      <path d="M 24.9805907258,-27.5062108949 A 0.45,0.13306033776345086 19.179590626243964 0,0 24.5555686705,-27.5139086837" />
      <path d="M 24.5555686705,-27.5139086837 A 0.45,0.13306033776345086 19.179590626243964 0,0 24.553326532,-27.5002748288" />
      <line x1="24.9805907258" y1="-27.5062108949" x2="25.0280645251" y2="-27.4912992562" />
      <line x1="24.8602718561" y1="-27.5383319947" x2="25.0280645251" y2="-28.0207201099" />
      <line x1="25.0280645251" y1="-28.0207201099" x2="25.0280645251" y2="-27.4912992562" />
      <line x1="24.9805907258" y1="-28.0356317485" x2="25.0280645251" y2="-28.0207201099" />
      <path d="M 24.553326532,-28.3099773108 A 0.45,0.13306033776345086 19.179590626243964 0,0 24.9805907258,-28.0356317485" />
      <line x1="24.553326532" y1="-28.5591165361" x2="24.553326532" y2="-28.3099773108" />
      <line x1="23.1226742217" y1="-24.4461259298" x2="24.553326532" y2="-28.5591165361" />
      <line x1="-0.6077871007" y1="-36.4622850345" x2="24.553326532" y2="-28.5591165361" />
      <line x1="-0.6077871007" y1="-36.4622850345" x2="-0.6077871007" y2="-36.2131458092" />
      <path d="M -1.0350512944,-36.2072097431 A 0.45,0.13306033776345086 19.179590626243964 0,0 -0.6100292391,-36.1995119543" />
      <path d="M -0.6100292391,-36.1995119543 A 0.45,0.13306033776345086 19.179590626243964 0,0 -0.6077871007,-36.2131458092" />
      <path d="M -22.9004513514,22.2372756997 A 6.0,5.7016263129364555 0.0 0,1 -31.9275806275,17.3144966603" />
      <path d="M -31.9275806275,17.3144966603 A 6.0,5.7016263129364555 0.0 0,1 -24.0445424806,11.9009393942" />
      <path d="M -31.9275806275,14.2002563447 A 6.0,5.7016263129364555 0.0 0,1 -24.0445424806,8.7866990786" />
      <path d="M -24.0445424806,11.9009393942 A 6.0,5.7016263129364555 0.0 0,1 -20.4094260284,15.0758125826" />
      <path d="M -25.4018991449,15.8032119235 A 1.675,1.5917040123614272 0.0 0,1 -24.2525806275,17.3144966603" />
      <path d="M -24.2525806275,17.3144966603 A 1.6750000000000007,1.591704012361428 0.0 0,1 -27.6025806275,17.3144966603" />
      <path d="M -27.6025806275,17.3144966603 A 1.675,1.5917040123614272 0.0 0,1 -25.4018991449,15.8032119235" />
      <path d="M -24.0445424806,8.7866990786 A 6.0,5.7016263129364555 0.0 0,1 -20.4094260284,11.961572267" />
      <path d="M -25.5803137169,15.7573765025 A 1.675,1.5917040123614272 0.0 0,1 -26.2748475382,15.7573765025" />
      <line x1="25.9775405112" y1="-22.8331300408" x2="5.4210407404" y2="36.2648701138" />
      <line x1="-22.5885008507" y1="27.4670032948" x2="-2.0320010799" y2="-31.6309968598" />
      <line x1="-23.5379768369" y1="26.8573464897" x2="-2.981477066" y2="-32.2406536649" />
      <line x1="-1.0825250937" y1="-36.0707270428" x2="-1.0350512944" y2="-36.2072097431" />
      <line x1="-1.0825250937" y1="-34.918458126" x2="-1.0350512944" y2="-35.0549408263" />
      <line x1="24.0333328821" y1="-24.1600857751" x2="24.9805907258" y2="-26.8833628318" />
      <line x1="23.5621237368" y1="-24.3080937419" x2="24.553326532" y2="-27.157708394" />
      <line x1="23.4547027442" y1="-24.3418349434" x2="24.553326532" y2="-27.5002748288" />
      <line x1="24.8109649219" y1="-27.5479735434" x2="24.9805907258" y2="-28.0356317485" />
      <line x1="23.20079858" y1="-24.4215868742" x2="24.553326532" y2="-28.3099773108" />
      <line x1="26.9220339674" y1="-22.8160238435" x2="6.3655341965" y2="36.2819763111" />
      <line x1="-1.0825250937" y1="-33.6888619708" x2="-0.6100292391" y2="-35.0472430376" />
      <line x1="23.4524487777" y1="-24.3425429199" x2="24.5555686705" y2="-27.5139086837" />
      <line x1="-0.8213820596" y1="-35.5918925077" x2="-0.6100292391" y2="-36.1995119543" />
      <line x1="-31.9275806275" y1="14.2002563447" x2="-31.9275806275" y2="17.3144966603" />
    </g>
  </g>
</svg>