<?xml version="1.0" encoding="UTF-8" standalone="no"?>
<!-- Created with Inkscape (http://www.inkscape.org/) -->

<svg
   width="96.779289mm"
   height="98.297028mm"
   viewBox="0 0 96.779289 98.297028"
   version="1.1"
   id="svg145"
   inkscape:version="1.1 (ce6663b3b7, 2021-05-25)"
   sodipodi:docname="4tv-logo-head.svg"
   xmlns:inkscape="http://www.inkscape.org/namespaces/inkscape"
   xmlns:sodipodi="http://sodipodi.sourceforge.net/DTD/sodipodi-0.dtd"
   xmlns="http://www.w3.org/2000/svg"
   xmlns:svg="http://www.w3.org/2000/svg">
  <sodipodi:namedview
     id="namedview147"
     pagecolor="#ffffff"
     bordercolor="#666666"
     borderopacity="1.0"
     inkscape:pageshadow="2"
     inkscape:pageopacity="0.0"
     inkscape:pagecheckerboard="0"
     inkscape:document-units="mm"
     showgrid="false"
     inkscape:zoom="0.74118967"
     inkscape:cx="178.76666"
     inkscape:cy="132.21987"
     inkscape:window-width="1853"
     inkscape:window-height="1025"
     inkscape:window-x="67"
     inkscape:window-y="1107"
     inkscape:window-maximized="1"
     inkscape:current-layer="layer1" />
  <defs
     id="defs142" />
  <g
     inkscape:label="Layer 1"
     inkscape:groupmode="layer"
     id="layer1"
     transform="translate(-57.987759,-113.63033)">
    <g
       id="g1162"
       transform="matrix(0.26458333,0,0,0.26458333,-143.59651,93.329383)">
      <path
         style="fill:#bfbfbf;fill-opacity:1;fill-rule:evenodd;stroke:none;stroke-width:1px;stroke-linecap:butt;stroke-linejoin:miter;stroke-opacity:1"
         d="m 867.94662,188.71822 -8.2732,16.5464 -7.81358,14.24829 -2.29811,10.57131 -9.19244,14.70791 -23.90035,17.92526 -17.92527,16.54645 -17.46563,24.8196 -11.49055,27.1177 -4.59622,22.98109 c 0.92956,6.4752 6.27998,4.8313 11.49055,0 l 18.38488,-17.0061 32.17355,-14.24819 25.73884,-1.8385 20.683,3.2173 14.7079,7.354 55.61427,-12.4098 41.36598,-79.97428 0.45962,-39.52751 -63.88747,-26.19845 z"
         id="path4204-5"
         inkscape:connector-curvature="0"
         sodipodi:nodetypes="ccccccccccccccccccccc" />
      <path
         style="fill:#a6a6a6;fill-opacity:1;fill-rule:evenodd;stroke:none;stroke-width:1px;stroke-linecap:butt;stroke-linejoin:miter;stroke-opacity:1"
         d="m 766.07597,360.39633 29.85705,-23.9923 27.72441,-14.39539 23.99228,0.5332 22.39279,2.1326 16.528,7.4643 48.51771,-24.5255 13.32904,-20.7933 10.66323,-21.32643 6.93111,-15.99485 5.86477,-12.79588 6.39793,-16.52802 1.59949,-11.72955 -34.6555,-10.66324 -40.96514,-2.61677 c 1.0009,9.05546 -6.68664,21.45002 -13.19556,21.25722 l -12.48451,4.2855 -12.79587,14.92853 -18.66066,0.53316 -9.06375,9.59692 -13.32904,10.13007 c 8.41877,-3.81531 24.83245,-11.14725 36.26136,-7.93889 10.05513,13.80736 17.41183,16.27234 23.98591,15.40315 -94.72478,42.94258 -123.42514,96.87947 -118.89505,97.03547 z"
         id="path4305-2"
         inkscape:connector-curvature="0"
         sodipodi:nodetypes="cccccccccccccccccccccccc" />
      <path
         style="fill:#737373;fill-opacity:1;fill-rule:evenodd;stroke:none;stroke-width:1px;stroke-linecap:butt;stroke-linejoin:miter;stroke-opacity:1"
         d="m 827.21344,322.01214 37.72642,-14.5762 36.01158,-2.5722 33.43932,1.7148 -31.72448,19.7207 -20.57805,6.85929 -12.86127,-7.71679 -23.15031,-2.5722 z"
         id="path4339-8"
         inkscape:connector-curvature="0" />
      <path
         style="fill:#999999;fill-opacity:1;fill-rule:evenodd;stroke:none;stroke-width:1px;stroke-linecap:butt;stroke-linejoin:miter;stroke-opacity:1"
         d="m 865.64975,230.36996 -11.05006,0.65001 -6.66254,1.46251 -3.41252,9.42505 7.96254,-0.4875 13.16258,-0.1625 z"
         id="path4292-3"
         inkscape:connector-curvature="0" />
      <path
         style="fill:#808080;fill-opacity:1;fill-rule:evenodd;stroke:none;stroke-width:1px;stroke-linecap:butt;stroke-linejoin:miter;stroke-opacity:1"
         d="m 864.69842,235.65254 0.59764,-4.98026 h -2.49014 c -1.45142,1.40531 -3.47817,2.72843 -3.18737,4.38263 l -11.65382,2.09171 -2.58974,1.09566 0.49803,4.18342 19.22383,-1.59368 z"
         id="path4309-6"
         inkscape:connector-curvature="0"
         sodipodi:nodetypes="ccccccccc" />
      <path
         style="fill:#000000;fill-opacity:1;fill-rule:evenodd;stroke:none;stroke-width:1px;stroke-linecap:butt;stroke-linejoin:miter;stroke-opacity:1"
         d="m 863.21633,188.80489 c -11.05789,17.30101 -9.81683,26.69395 -15.73438,41.58398 -3.08453,2.01642 -5.22,4.18362 -6.56445,10.08985 l -20.68555,15.91015 c -22.21499,16.10587 -27.95212,25.15017 -37.26952,39.64647 -5.33172,8.1115 -8.97875,13.5854 -14.35937,27.2188 -3.22389,8.2282 -5.37598,15.18269 -6.70899,32.39259 -0.0556,8.3829 2.96396,8.2995 2.96396,8.2995 6.81313,-2.7469 24.17035,-19.3207 33.60049,-26.3992 5.60543,-2.9738 10.78249,-5.55789 15.69336,-7.90029 21.30301,-5.5306 44.31699,-10.3149 72.76561,5.21479 l 6.47266,-4.03909 c -17.27745,-4.4817 -29.4279,-14.1597 -60.09765,-9.6386 3.78215,-1.5382 7.42969,-2.9551 10.97656,-4.2793 30.69273,-10.6139 46.08007,-8.5743 46.08007,-8.5743 15.99091,-0.7703 15.99884,2.9718 38.76967,0.8504 l 11.5625,-7.2644 c -10.93427,0.094 -22.39529,1.2484 -38.72475,0.2832 -19.09727,0.1225 -38.72722,3.1788 -58.81835,8.7676 -25.66249,8.6417 -31.75052,13.9594 -46.9414,21.77339 -8.8439,6.3321 -17.21851,15.9417 -28.53576,23.7142 -0.4345,-0.6885 -1.15999,-0.504 -0.59118,-4.2025 0.65937,-14.5414 7.21838,-28.29569 15.26953,-41.85149 l 11.96092,-19.6094 c 4.35138,-7.4557 16.94116,-24.11271 49.09961,-46.95315 8.47759,-1.57042 17.25941,-3.84893 23.45703,-0.0996 l -0.65039,-3.24804 c -6.14606,-1.68043 -10.60507,-2.92302 -20.17726,0.57536 -0.35025,-0.40793 0.22951,-1.54962 0.91366,-2.62305 8.08354,-2.32413 13.40211,-3.27755 19.2636,-0.87614 l 0.65039,-2.59961 c -6.20277,-0.78726 -11.40079,-1.12882 -19.46046,1.59725 0.95337,-1.18186 2.21369,-2.91958 2.21369,-2.91958 5.51645,-1.34486 9.46895,-3.05566 17.57099,-0.95306 l 1.94922,-3.57227 c -0.87376,-0.065 -1.99241,-0.10461 -3.32422,-0.11914 -3.4067,-0.0372 -8.39056,0.10669 -14.01758,0.33789 7.78479,-17.00096 2.29781,-14.6157 17.08204,-39.40234 z"
         id="path4235-9"
         inkscape:connector-curvature="0"
         sodipodi:nodetypes="cccccccccccccccccccccccccccccccccccsccc" />
      <ellipse
         style="fill:#999999;fill-opacity:1;stroke:none;stroke-width:2;stroke-linejoin:round;stroke-miterlimit:4;stroke-dasharray:none;stroke-opacity:1"
         id="path4206-0"
         cx="884.07672"
         cy="235.77913"
         rx="18.844252"
         ry="20.63121" />
      <path
         style="fill:#999999;fill-opacity:1;fill-rule:evenodd;stroke:none;stroke-width:1px;stroke-linecap:butt;stroke-linejoin:miter;stroke-opacity:1"
         d="m 936.82516,203.88231 -33.63769,28.76267 -3.08752,-9.10006 26.32515,-23.40014 z"
         id="path4290-5"
         inkscape:connector-curvature="0" />
      <path
         style="fill:#808080;fill-opacity:1;fill-rule:evenodd;stroke:none;stroke-width:1px;stroke-linecap:butt;stroke-linejoin:miter;stroke-opacity:1"
         d="m 869.01344,249.02042 c 5.26316,1.90617 8.75997,0.2158 9.56999,-3.27761 15.38324,-3.87962 3.57876,-19.97292 5.52265,-21.34569 0,0 0.9179,-6.3047 -5.63411,-8.85572 6.38682,-0.80016 17.31152,2.76552 20.68454,6.78744 3.00138,8.54466 17.54402,-9.96531 32.21397,-20.93908 l 5.2923,4.37189 -33.59457,26.69158 -1.8408,13.80599 -6.90299,7.5933 -10.81469,3.91169 z"
         id="path4307-2"
         inkscape:connector-curvature="0"
         sodipodi:nodetypes="cccccccccccc" />
      <ellipse
         style="fill:#000000;fill-opacity:1;stroke:none;stroke-width:1.91204;stroke-linejoin:round;stroke-miterlimit:4;stroke-dasharray:none;stroke-opacity:1"
         id="path4208-7"
         cx="883.91425"
         cy="236.10402"
         rx="12.552665"
         ry="13.527369" />
      <ellipse
         style="fill:#4d4d4d;fill-opacity:1;stroke:none;stroke-width:2;stroke-linejoin:round;stroke-miterlimit:4;stroke-dasharray:none;stroke-opacity:1"
         id="path4212-2"
         cx="969.68805"
         cy="215.96016"
         rx="4.0612617"
         ry="4.3861628" />
      <ellipse
         style="fill:#4d4d4d;fill-opacity:1;stroke:none;stroke-width:2;stroke-linejoin:round;stroke-miterlimit:4;stroke-dasharray:none;stroke-opacity:1"
         id="path4212-3-5"
         cx="965.30188"
         cy="230.09334"
         rx="4.0612617"
         ry="4.3861628" />
      <path
         style="fill:#000000;fill-opacity:1;fill-rule:evenodd;stroke:none;stroke-width:1px;stroke-linecap:butt;stroke-linejoin:miter;stroke-opacity:1"
         d="m 882.99757,213.11544 c -0.92178,-0.006 -1.85597,0.0909 -2.75195,0.37304 -2.10027,0.78854 -4.74389,1.07442 -7.18945,3.24414 -2.56671,1.9758 -2.60436,2.06989 -5.21484,5.07422 -1.848,2.64654 -2.49991,4.64888 -3.10156,6.625 -0.35091,3.92832 -1.88803,4.30019 -0.56446,13.25196 1.22177,4.08529 2.44425,6.90979 3.66602,8.74023 2.69482,3.05881 3.85293,4.25604 5.91992,5.49805 3.06099,1.67104 5.91443,2.51002 8.5996,2.67773 3.18185,-0.18161 6.35046,-0.40507 9.16406,-1.6914 3.1797,-1.31583 6.16756,-3.20684 8.59961,-6.76563 1.801,-1.51888 3.20142,-6.1463 4.22852,-10.57422 0.44882,-3.68639 0.54473,-6.3737 -0.50307,-11.55671 -0.53367,-1.6509 -1.59139,-4.22587 -3.52343,-7.20918 -1.20024,-1.46943 -1.6503,-2.11128 -4.85436,-4.35325 -2.4618,-1.37424 -4.00668,-2.12783 -8.17774,-2.81836 -1.25583,-0.20965 -2.76057,-0.50638 -4.29687,-0.51562 z m 0.51953,3.28711 c 0.77101,-0.0237 1.52162,0.007 2.25,0.0898 4.41142,0.24968 6.27765,1.6492 8.32617,3.20312 1.28108,1.46602 2.43988,2.6546 3.84375,4.48243 1.57179,2.13513 3.10097,4.27112 3.20117,6.40625 0.88931,4.19908 0.10753,8.39857 -0.85351,12.59765 -1.52171,4.29621 -4.47041,6.21236 -7.04492,8.75391 -2.74057,2.33596 -6.33087,3.46185 -10.25,3.6289 -4.01822,-0.67018 -6.37192,-2.0054 -8.53906,-3.41601 -2.27764,-1.58351 -3.85086,-3.09664 -4.62534,-4.49205 -1.49579,-2.13393 -2.68115,-5.28269 -3.06216,-8.53139 -0.15303,-2.29702 -0.48295,-3.7132 -0.33769,-7.04089 0.32528,-2.06076 0.6809,-3.32159 1.56343,-4.7914 2.54029,-3.4099 1.02944,-3.64243 7.9559,-9.09349 2.56466,-1.46761 5.25924,-1.72578 7.57226,-1.79687 z"
         id="path4250-7"
         inkscape:connector-curvature="0"
         sodipodi:nodetypes="scccccccccccccccsccccccccccccccsc" />
      <path
         style="fill:#000000;fill-opacity:1;fill-rule:evenodd;stroke:none;stroke-width:1px;stroke-linecap:butt;stroke-linejoin:miter;stroke-opacity:1"
         d="m 901.03612,225.72337 c 3.61787,-6.80537 17.37485,-16.99045 30.13157,-26.8421 l -4.07895,-1.84211 c -9.34897,7.77419 -18.60885,14.83579 -28.28946,25.26316 z"
         id="path4261-1"
         inkscape:connector-curvature="0"
         sodipodi:nodetypes="ccccc" />
      <path
         style="fill:#000000;fill-opacity:1;fill-rule:evenodd;stroke:none;stroke-width:1px;stroke-linecap:butt;stroke-linejoin:miter;stroke-opacity:1"
         d="m 942.74663,201.776 -4.47368,-1.8421 c -12.60438,9.93597 -25.11691,19.90255 -35.65788,30.52631 l 1.71052,3.81579 c 25.23742,-24.78377 34.9553,-27.54572 38.42104,-32.5 z"
         id="path4263-5"
         inkscape:connector-curvature="0"
         sodipodi:nodetypes="ccccc" />
      <path
         style="fill:#1a1a1a;fill-opacity:1;fill-rule:evenodd;stroke:none;stroke-width:1px;stroke-linecap:butt;stroke-linejoin:miter;stroke-opacity:1"
         d="m 1117.7257,238.08505 -19.7468,-16.29106 -32.0884,-17.77205 -25.1771,-8.39236 5.4304,-26.65808 6.9114,-15.30371 9.8733,-17.77206 3.4557,-11.35437 -30.6074,-18.7594 -33.5695,-14.810049 -33.07573,-9.3797 -41.9618,-1.97467 -34.55677,5.43035 -18.26572,4.93668 -7.40502,7.40503 2.46834,17.278389 3.94935,21.22774 -3.94935,33.07577 -19.25306,-2.96201 -31.1011,2.46834 -26.16442,5.43035 -7.40501,6.41768 18.75938,-0.98733 25.17708,0.98733 28.63276,5.92402 23.2024,3.45568 29.12643,5.92402 28.13908,7.89869 31.59477,9.3797 23.69606,7.89869 35.54413,9.87336 30.1137,4.44302 38.0125,4.44301 z"
         id="path4288-4"
         inkscape:connector-curvature="0" />
      <path
         style="fill:#0d0d0d;fill-opacity:1;fill-rule:evenodd;stroke:none;stroke-width:1px;stroke-linecap:butt;stroke-linejoin:miter;stroke-opacity:1"
         d="m 976.88658,84.188541 c 11.5639,5.57859 11.49923,12.45866 5.9244,12.08511 -24.52458,-1.64332 -83.27352,-6.88428 -104.91457,1.6842 42.46449,-7.19013 88.43787,1.06604 106.06089,4.465719 33.1539,12.45943 -2.08436,55.15072 -6.69858,88.57017 l 62.89228,5.9543 5.9543,-26.79433 15.2578,-32.74863 3.7215,-8.18716 -2.605,-9.30359 -40.9358,-21.584339 z"
         id="path4327-2"
         inkscape:connector-curvature="0"
         sodipodi:nodetypes="cscccccccccc" />
      <path
         style="fill:#000000;fill-opacity:1;fill-rule:evenodd;stroke:none;stroke-width:1px;stroke-linecap:butt;stroke-linejoin:miter;stroke-opacity:1"
         d="m 872.16294,155.85487 -1.11999,13.81318 26.50637,6.71992 40.31954,10.07988 53.38607,5.59994 49.65277,4.47995 3.36,-15.3065 C 991.94122,159.90194 935.30935,149.64746 872.16294,155.85487 Z"
         id="path4329-1"
         inkscape:connector-curvature="0"
         sodipodi:nodetypes="cccccccc" />
      <path
         style="fill:#0d0d0d;fill-opacity:1;fill-rule:evenodd;stroke:none;stroke-width:1px;stroke-linecap:butt;stroke-linejoin:miter;stroke-opacity:1"
         d="m 950.01941,159.9254 c -35.85759,-4.79555 -63.30875,-3.46259 -72.77944,-1.3234 10.99624,-0.0205 22.41405,0.47231 30.23775,1.18259 -9.03187,-0.12712 -19.30181,1.11183 -28.94031,2.00543 7.02808,0.006 11.24173,-0.2749 17.67125,0.38924 l -12.0677,2.09304 c 3.37786,0.14817 6.88867,0.30615 10.89402,1.28089 -4.66892,0.0821 -8.31129,0.62079 -12.06771,0.85204 3.94598,0.63987 8.684,1.51334 11.1689,2.24701 -3.35983,0.40576 -7.90318,1.39885 -11.73236,1.97897 l 26.20105,7.32501 30.14528,7.60676 19.15776,2.81732 9.29714,0.84519 c -7.94979,-2.04154 -13.5633,-3.8235 -24.51066,-6.1981 7.9189,0.75129 15.46179,1.50257 22.25681,2.25386 -4.87189,-1.69498 -8.93799,-2.95946 -16.05871,-4.50771 6.12647,-0.13809 12.24633,0.64956 16.74309,0.69123 -7.11488,-3.03731 -17.29849,-3.51734 -26.04023,-5.19893 h 27.32797 c -6.28354,-1.9267 -12.71815,-3.79758 -20.84815,-5.3529 9.33653,-0.95126 14.87921,-0.37427 20.56642,-0.28173 -10.13879,-4.14629 -19.57744,-5.50405 -30.40648,-7.45964 11.12083,0.0664 19.80171,-0.2838 30.12475,1.26154 -5.41436,-1.50663 -8.69647,-3.27978 -16.34044,-4.50771 z"
         id="path4331-9"
         inkscape:connector-curvature="0"
         sodipodi:nodetypes="ccccccccccccccccccccccccc" />
      <path
         style="fill:#000000;fill-opacity:1;fill-rule:evenodd;stroke:none;stroke-width:1px;stroke-linecap:butt;stroke-linejoin:miter;stroke-opacity:1"
         d="m 868.27297,171.18495 c 4.39916,-36.00668 2.18335,-42.18925 -3.57143,-67.0635 -1.16597,-8.944419 3.13877,-14.433659 10.71428,-17.857139 97.01427,-31.72501 178.34288,25.333189 188.49208,31.746039 9.2652,5.86075 1.8398,17.20111 -0.7937,21.42857 -15.1797,22.13045 -18.3101,48.22811 -19.4444,59.5238 l -6.7461,-0.39682 c 3.1359,-23.65257 12.763,-42.23778 22.6191,-59.5238 2.8766,-5.67675 6.8633,-12.79302 -3.5715,-18.25397 C 988.72794,80.035031 935.94827,77.032271 878.59042,91.819861 c -9.60192,2.98418 -10.25317,8.710189 -8.71113,14.285719 8.62993,26.19886 4.63624,45.49544 1.56828,63.8889 z"
         id="path4265-6"
         inkscape:connector-curvature="0"
         sodipodi:nodetypes="ccccccccccccc" />
      <path
         style="fill:#333333;fill-opacity:1;fill-rule:evenodd;stroke:none;stroke-width:1px;stroke-linecap:butt;stroke-linejoin:miter;stroke-opacity:1"
         d="m 878.85853,328.97734 6.86197,1.6338 57.18302,-29.4084 15.52111,-29.24508 17.48166,-42.96897 4.0845,-11.59999 51.95491,12.90703 11.7633,3.75774 -9.9662,34.79996 6.5352,10.12961 -2.7774,14.8676 -6.2084,14.8675 5.7182,4.4113 -4.0844,24.50699 -21.0761,19.4422 -37.08726,16.9916 -24.01687,17.8084 -41.0084,37.7408 -16.17463,13.2338 -13.72393,-21.8929 0.49014,-33.3296 -6.53519,-13.2338 0.32676,-24.0168 -0.16338,-12.9071 z"
         id="path4300-1"
         inkscape:connector-curvature="0" />
      <path
         style="fill:#262626;fill-opacity:1;fill-rule:evenodd;stroke:none;stroke-width:1px;stroke-linecap:butt;stroke-linejoin:miter;stroke-opacity:1"
         d="m 979.35366,214.1636 -7.1909,20.77376 -4.79395,11.18587 c 20.42125,-6.95365 24.26232,-0.78071 27.29922,1.29033 l -7.36503,13.10108 c 18.7661,-12.96998 31.0383,-10.35433 45.583,-13.19293 5.665,-2.02803 6.793,-6.32456 9.9874,-9.58788 l -1.598,-5.59294 z"
         id="path4311-2"
         inkscape:connector-curvature="0"
         sodipodi:nodetypes="ccccccccc" />
      <path
         style="fill:#000000;fill-opacity:1;fill-rule:evenodd;stroke:none;stroke-width:1px;stroke-linecap:butt;stroke-linejoin:miter;stroke-opacity:1"
         d="m 982.91535,215.69643 c -14.22395,53.07926 -21.43455,41.89325 -23.7742,69.38461 l -1.98393,-6.3486 c -5.3072,10.6664 -9.57227,15.075 -16.633,25.9652 l -17.19293,10.4732 c 25.35873,-27.7318 43.21548,-63.68002 54.42583,-101.06155 z"
         id="path4267-5"
         inkscape:connector-curvature="0"
         sodipodi:nodetypes="ccccccc" />
      <path
         style="fill:#000000;fill-opacity:1;fill-rule:evenodd;stroke:none;stroke-width:1px;stroke-linecap:butt;stroke-linejoin:miter;stroke-opacity:1"
         d="m 1003.5473,224.62374 c -5.62909,15.68522 -14.41183,29.26802 -21.77593,43.79658 10.89526,-14.22457 23.17693,-27.06272 31.07353,-44.28592 z"
         id="path4269-5"
         inkscape:connector-curvature="0"
         sodipodi:nodetypes="cccc" />
      <path
         style="fill:#262626;fill-opacity:1;fill-rule:evenodd;stroke:none;stroke-width:1px;stroke-linecap:butt;stroke-linejoin:miter;stroke-opacity:1"
         d="m 1023.9191,259.40403 c 2.2992,5.87504 7.6101,2.98295 12.1877,1.56699 l -4.8751,8.5314 -20.7191,7.13852 9.5761,-11.31717 z"
         id="path4313-3"
         inkscape:connector-curvature="0"
         sodipodi:nodetypes="cccccc" />
      <path
         style="fill:#262626;fill-opacity:1;fill-rule:evenodd;stroke:none;stroke-width:1px;stroke-linecap:butt;stroke-linejoin:miter;stroke-opacity:1"
         d="m 1035.4303,311.24894 -3.3933,-4.5245 9.6146,-22.0571 -9.6146,-16.40139 -14.1392,6.78679 -22.87533,7.6893 c -1.06794,7.5457 12.03853,19.4888 -62.52509,55.65409 l -6.32397,4.5408 c -4.55028,17.8202 -16.24933,35.8164 -27.00696,42.3506 -10.39772,-1.2696 -18.74958,-8.4122 -26.18362,-10.4775 l 7.05553,12.6648 -2.40086,25.576 c 2.9438,11.2533 7.69357,21.6037 15.27028,30.5405 l 35.63064,-30.5405 34.49952,-32.2373 37.89286,-16.967 30.5406,-24.3193 z"
         id="path4315-1"
         inkscape:connector-curvature="0"
         sodipodi:nodetypes="cccccccccccccccccc" />
      <path
         style="fill:#000000;fill-opacity:1;fill-rule:evenodd;stroke:none;stroke-width:1px;stroke-linecap:butt;stroke-linejoin:miter;stroke-opacity:1"
         d="m 1039.7593,232.20919 c -2.8348,11.33654 -2.7451,22.67322 -9.0528,34.00976 -4.4366,2.30435 -4.7805,3.86404 -15.6601,7.33989 4.605,-3.91682 7.9001,-9.35992 9.0527,-14.92583 0,0 -9.6365,12.85744 -20.0625,16.88283 -17.32737,4.2634 -35.38585,12.1876 -53.33787,19.5742 -21.85672,11.4158 -41.52007,23.7713 -67.25389,33.5254 l -2.625,-0.7812 -0.5918,0.7988 -3.65625,-0.4727 c -4.81638,2.8426 -8.52116,6.63769 -10.29296,12.08989 1.80405,3.9618 3.86323,7.4145 6.53516,9.6406 -3.66252,10.4325 -2.9784,19.778 -1.47071,28.918 1.32436,5.3024 4.52014,6.862 7.02538,9.8027 -6.75173,29.1082 -1.97582,30.4433 0.32618,37.7402 4.82718,8.3821 8.9574,14.669 13.39843,21.8926 32.26825,-25.0187 64.60187,-61.3167 83.16014,-69.4355 29.18069,-12.85724 44.65429,-23.33233 53.12609,-31.82588 10.2964,-10.32279 10.2503,-17.7186 11.8993,-22.90661 0.9252,-8.886 4.3511,-17.6953 -6.209,-17.9726 15.2199,-29.4994 11.6451,-31.0198 8.9863,-33.98244 l -7.2754,-5.67579 c 4.8632,-8.68478 8.7585,-18.53173 10.8301,-30.5664 z m -12.1172,40.88085 7.4082,3.9317 c 6.9356,4.157 -2.9296,26.7468 -10.9473,41.6621 l 6.8633,-6.2071 c 7.3065,-0.9454 0.5905,27.49459 -19.6074,40.02739 -7.1765,6.103 -23.82229,12.0605 -23.82229,12.0605 -19.92373,7.7124 -23.78712,12.024 -39.40428,24.6992 -15.9348,14.4247 -34.28658,35.2115 -53.75195,48.8516 l -8.49609,-12.0898 c -4.71859,-4.9282 -4.69607,-19.5136 -2.94141,-34.9629 4.37288,3.6231 8.18956,5.9872 16.01172,7.0234 35.19208,-15.2529 29.84534,-17.4276 44.76562,-26.1406 -14.41152,5.9361 -25.61911,13.9974 -44.60351,19.9336 -14.74141,-4.8307 -20.11838,-10.7018 -23.19922,-16.8282 -0.0466,-6.9164 -0.81886,-13.8335 2.45117,-20.75 6.74062,2.4458 5.99215,1.8959 8.82227,2.7774 -4.09832,-3.9921 -9.08104,-5.5504 -11.59961,-13.8867 -0.49797,-2.2993 1.24823,-5.9499 3.41992,-9.8184 l 4.74805,1.1582 3.80273,-2.0117 0.01,0.01 c 23.95073,-9.85389 36.68695,-17.19059 49.91405,-25.20309 25.85843,-10.2089 47.52821,-23.9543 78.78513,-29.6055 5.4393,-1.8174 8.8355,-3.2935 11.3711,-4.6269 z"
         id="path4271-1"
         inkscape:connector-curvature="0"
         sodipodi:nodetypes="cccccccccccccccccsccccccccccccccccccccccccccccccc" />
      <path
         style="fill:#0d0d0d;fill-opacity:1;fill-rule:evenodd;stroke:none;stroke-width:1px;stroke-linecap:butt;stroke-linejoin:miter;stroke-opacity:1"
         d="m 1074.1597,210.07793 -31.7041,-12.40594 -72.18423,-7.26433 c -23.58365,4.24793 -31.04966,5.88518 -99.07631,-1.94806 52.50954,8.29545 90.22692,20.45324 125.77211,33.10531 l 70.30033,14.70334 51.4617,2.75688 -23.8929,-19.75761 z"
         id="path4325-5"
         inkscape:connector-curvature="0"
         sodipodi:nodetypes="ccccccccc" />
      <path
         style="fill:#404040;fill-opacity:1;fill-rule:evenodd;stroke:none;stroke-width:1px;stroke-linecap:butt;stroke-linejoin:miter;stroke-opacity:1"
         d="m 965.62016,215.84634 0.60387,-1.66066 6.0387,0.90581 2.41549,1.50968 -2.11355,2.86839 -5.28386,0.75483 c 1.72324,-1.71712 2.20895,-4.32513 -1.66065,-4.37805 z"
         id="path4335-7"
         inkscape:connector-curvature="0"
         sodipodi:nodetypes="ccccccc" />
      <path
         style="fill:#000000;fill-opacity:1;fill-rule:evenodd;stroke:none;stroke-width:1px;stroke-linecap:butt;stroke-linejoin:miter;stroke-opacity:1"
         d="m 841.78078,164.9006 c -9.51384,-0.005 -19.21047,0.58433 -27.22851,1.55469 -18.74192,1.41563 -33.71527,11.17895 -38.93945,17.17382 17.26381,-2.10516 38.36418,-2.39491 51.17968,-0.94141 20.53291,2.89628 51.59964,10.23099 75.73632,13.03711 45.52937,11.70933 94.21007,30.71548 125.87688,38.3086 49.9382,8.77368 95.7566,9.0765 99.2676,6.54101 -30.0184,-24.15099 -66.6834,-47.38782 -104.4355,-50.47266 -30.56589,-1.79512 -60.76084,-2.277 -85.08985,-5.86132 -24.10173,-4.72374 -46.90683,-11.97444 -70.23436,-17.33007 -7.28721,-1.40445 -16.61896,-2.00427 -26.13281,-2.00977 z m 0.46485,5.01758 c 10.0678,0.0221 20.74374,0.90314 31.59765,2.92188 21.35806,4.62802 47.40831,11.50725 57.46483,14.13866 37.58712,7.03318 63.79116,7.93584 89.65819,8.6582 26.9988,3.12468 77.1718,25.55939 90.0351,40.14063 -20.0762,0.82491 -75.4895,-2.789 -117.21088,-18.24219 -26.65721,-7.43913 -57.17475,-20.90328 -91.21483,-26.45313 -24.80135,-4.96934 -37.73006,-7.45299 -65.09764,-13.38281 -11.08705,-1.122 -27.77991,-3.64441 -48.30469,1.52539 11.71189,-5.25247 30.9231,-9.35525 53.07227,-9.30663 z"
         id="path4275-0"
         inkscape:connector-curvature="0"
         sodipodi:nodetypes="scccccccccssccccccccs" />
      <path
         style="fill:#000000;fill-opacity:1;fill-rule:evenodd;stroke:none;stroke-width:1px;stroke-linecap:butt;stroke-linejoin:miter;stroke-opacity:1"
         d="m 966.64977,213.94243 c 0.0823,1.34338 -0.16265,3.48251 0.28273,4.09969 1.01785,1.84722 2.57291,1.6116 4.24106,1.41368 1.23617,-0.0424 1.76451,-1.6019 2.26189,-3.11011 l 1.55505,0.70685 c -0.58413,1.59332 -2.2619,3.25147 -2.2619,3.25147 -0.8466,0.84982 -2.40668,0.98615 -4.38241,0.70685 -2.41407,-0.59686 -2.87069,-2.37906 -3.53422,-4.09969 -0.4938,-1.2252 -0.35403,-2.45039 0.28274,-3.67559 z"
         id="path4281-4"
         inkscape:connector-curvature="0"
         sodipodi:nodetypes="cccccccccc" />
      <path
         style="fill:#404040;fill-opacity:1;fill-rule:evenodd;stroke:none;stroke-width:1px;stroke-linecap:butt;stroke-linejoin:miter;stroke-opacity:1"
         d="m 963.95952,225.96117 c 0.75492,2.82372 1.18518,5.52492 -2.41549,5.58581 l 1.81161,3.17032 4.2271,-0.4529 1.50968,-2.26452 -0.4529,-4.83097 -1.96258,-1.66064 z"
         id="path4333-2"
         inkscape:connector-curvature="0"
         sodipodi:nodetypes="cccccccc" />
      <path
         style="fill:#000000;fill-opacity:1;fill-rule:evenodd;stroke:none;stroke-width:1px;stroke-linecap:butt;stroke-linejoin:miter;stroke-opacity:1"
         d="m 966.03076,225.02755 c -0.89684,-0.0908 -2.2466,-0.10827 -4.1875,1.49609 -1.16923,1.49279 -1.43872,2.86862 -1.33603,4.71844 0.46347,1.48945 1.74129,3.66491 3.17392,3.90656 3.20718,0.35483 4.23537,-0.38161 5.23047,-1.13281 0.89946,-1.12992 1.13746,-2.58395 0.99024,-3.81641 -0.37746,-1.36656 -0.31827,-2.73305 -1.55664,-4.09961 -0.83323,-0.46336 -1.41761,-0.98144 -2.31446,-1.07226 z m 0.33594,1.35548 c 1.12301,0.57023 1.7984,1.40896 1.97852,2.54493 0.0802,0.98488 -0.0408,2.01915 -0.14063,2.82617 -0.17398,0.95517 -0.15846,0.90141 -0.99023,1.69726 -0.87425,0.97968 -1.99961,0.94872 -3.25,0.42383 -1.93985,-1.68333 -2.2601,-2.89122 -1.94532,-4.80664 0.20861,-0.71252 0.95378,-1.76354 1.66211,-2.26172 1.33232,-0.72155 1.59637,-0.59174 2.68555,-0.42383 z"
         id="path4283-7"
         inkscape:connector-curvature="0"
         sodipodi:nodetypes="cccccccccccccccc" />
      <path
         style="fill:#000000;fill-opacity:1;fill-rule:evenodd;stroke:none;stroke-width:1px;stroke-linecap:butt;stroke-linejoin:miter;stroke-opacity:1"
         d="m 985.90044,306.58294 c -26.39115,23.0494 -56.33194,40.68979 -91.81303,49.88779 15.27046,-7.3551 33.32842,-21.6791 45.50027,-21.2876 17.33788,-8.58329 31.40605,-18.80139 46.31276,-28.60019 z"
         id="path4294-0"
         inkscape:connector-curvature="0"
         sodipodi:nodetypes="cccc" />
      <path
         style="fill:#000000;fill-opacity:1;fill-rule:evenodd;stroke:none;stroke-width:1px;stroke-linecap:butt;stroke-linejoin:miter;stroke-opacity:1"
         d="m 965.91283,361.83323 c 21.04356,-10.3256 36.67107,-21.3147 49.07527,-33.80019 -8.9327,5.52439 -13.4829,11.27289 -25.83764,17.22509 -8.91782,4.9373 -16.00046,10.5694 -23.23763,16.5751 z"
         id="path4296-4"
         inkscape:connector-curvature="0"
         sodipodi:nodetypes="cccc" />
    </g>
  </g>
</svg>
