<svg xmlns="http://www.w3.org/2000/svg" width="524.289" height="621.533" viewBox="0 0 138.718 164.447"><path d="m120.825 38.076-.034.23h.004zm-5.372.315-.017.01-.022.264.022-.001zm-5.407 4.85-1.26 59.537-3.538-58.462-.127.073 2.437 58.451-6.92-55.848-.163.095 5.862 55.893-10.064-53.454-.192.112 9.046 53.558L92.1 51.95l-.215.124 12.048 51.415-15.857-49.203-.23.134 14.913 49.435-18.595-47.298-.241.14 17.688 47.597-21.281-45.51-.25.145 20.413 45.875-23.953-43.82-.253.147 23.122 44.252-26.644-42.208-.253.147 25.852 42.708-29.388-40.655-.25.145 28.635 41.22L65.141 67.6l-.243.142 31.507 39.77-35.176-37.64-.232.134 34.502 38.336-38.294-36.134-.217.125 37.659 36.895-41.616-34.596-.196.113 41.017 35.42-45.19-32.998-.167.098 44.623 33.887L44.05 79.846l-.132.077 48.53 32.259L40.227 83.31v.126l51.618 29.816-51.668-24.464-.003.173 51.133 25.397-51.179-20.406-.003.211 50.715 21.332L40.08 98.868l-.003.24 50.367 17.551-50.408-13.071-.003.26 50.09 13.998-50.13-9.687-.003.276 49.888 10.616-49.927-6.43-.003.288 49.761 7.36-49.799-3.254-.003.294 49.71 4.185-49.747-.12-.003.297 49.735 1.052-49.773 3.011-.003.294 49.838-2.078-49.876 6.18-.003.288 50.019-5.246-50.057 9.424-.003.278 50.276-8.492-50.316 12.79-.003.262 50.61-11.858-50.65 16.323-.004.241 51.019-15.39-51.061 20.074-.003.214 51.502-19.141-51.548 24.106-.003.177 52.06-23.165-52.11 28.485v.13l52.69-27.53-50.024 31.577.117.069 50.554-30.601-46.02 33.266.155.092 46.575-32.355-42.332 34.849.186.109 42.919-34.002-38.907 36.36.207.122 39.53-35.576-35.696 37.83.225.132 36.358-37.11-32.66 39.284.238.14 33.36-38.63-29.756 40.749.245.144 30.496-40.159-26.95 42.243.249.146 27.73-41.718-24.21 43.788.252.148 25.03-43.331-21.5 45.405.247.146 22.358-45.015-18.785 47.115.24.142 19.682-46.791-16.03 48.937.23.136 16.965-48.68-13.198 50.894.216.127 14.169-50.7-10.244 53.007.196.115 11.252-52.878-7.122 55.306.17.1 8.17-55.238-3.778 57.82.136.08 4.867-57.808-.145 60.583.091.054 1.283-60.623 3.527 58.29.13-.076-2.43-58.276 6.902 55.702.166-.096-5.846-55.746 10.04 53.33.195-.111-9.025-53.435 13 51.146.217-.125-12.023-51.313 15.83 49.122.232-.134-14.889-49.354 18.57 47.234.244-.14-17.666-47.533 21.26 45.464.25-.145-20.392-45.829 23.937 43.79.254-.147-23.106-44.222 26.633 42.191.254-.146-25.842-42.692 29.386 40.652.25-.145-28.633-41.217 32.227 39.148.244-.14-31.515-39.78 35.196 37.66.232-.133-34.522-38.358 38.328 36.166.217-.124-37.693-36.928 41.667 34.64.195-.113-41.068-35.465 45.262 33.05.167-.095-44.694-33.94 49.164 31.366.13-.075-48.624-32.322 52.136 28.826v-.129l-51.526-29.767 51.546 24.408v-.178l-51.01-25.336 51.025 20.345v-.215l-50.56-21.267 50.573 16.567v-.244l-50.181-17.488 50.194 13.017v-.266l-49.875-13.938 49.888 9.642v-.282l-49.644-10.564 49.657 6.394v-.292l-49.489-7.32 49.5 3.234v-.299l-49.41-4.16 49.422.118v-.301l-49.408-1.046 49.42-2.99v-.3l-49.484 2.062 49.496-6.132v-.295l-49.636 5.206 49.647-9.347v-.285l-49.865 8.422 49.878-12.678v-.271l-50.17 11.755 50.183-16.172v-.25l-50.55 15.249 50.564-19.879v-.223L127.2 114.78l51.017-23.857v-.19l-51.528 22.929 51.543-28.175v-.144l-52.123 27.235 49.647-31.34-.126-.073-50.167 30.367 45.634-32.987-.165-.096-46.166 32.08 41.944-34.529-.195-.113-42.52 33.686 38.52-35.999-.22-.126-39.132 35.22 35.316-37.427-.236-.136-35.966 36.71 32.287-38.837-.248-.143-32.977 38.186 29.397-40.256-.257-.148-30.126 39.67 26.608-41.704-.261-.151-27.376 41.184 23.886-43.202-.263-.152-24.694 42.75 21.199-44.77-.26-.15-22.045 44.383 18.511-46.427-.254-.147-19.394 46.108 15.787-48.193-.245-.141-16.706 47.94 12.99-50.09-.232-.133-13.945 49.903 10.076-52.14-.212-.123-11.068 52.019 7-54.37-.186-.108-8.032 54.31 3.711-56.808-.154-.089-4.783 56.805.144-59.487z" style="fill:#bfbfbf;fill-opacity:1;stroke:none;stroke-width:4.7625;stroke-linecap:butt;stroke-linejoin:round;stroke-miterlimit:4;stroke-dasharray:none;stroke-dashoffset:0;stroke-opacity:1" transform="translate(-39.514 -38.076)"/></svg>