<?xml version="1.0" encoding="UTF-8" standalone="no"?>
<!-- Created with Inkscape (http://www.inkscape.org/) -->

<svg
   width="138.71822mm"
   height="164.44731mm"
   viewBox="0 0 138.71822 164.44731"
   version="1.1"
   id="svg145"
   inkscape:version="1.1 (ce6663b3b7, 2021-05-25)"
   sodipodi:docname="4tv-logo-burst.svg"
   xmlns:inkscape="http://www.inkscape.org/namespaces/inkscape"
   xmlns:sodipodi="http://sodipodi.sourceforge.net/DTD/sodipodi-0.dtd"
   xmlns="http://www.w3.org/2000/svg"
   xmlns:svg="http://www.w3.org/2000/svg">
  <sodipodi:namedview
     id="namedview147"
     pagecolor="#ffffff"
     bordercolor="#666666"
     borderopacity="1.0"
     inkscape:pageshadow="2"
     inkscape:pageopacity="0.0"
     inkscape:pagecheckerboard="0"
     inkscape:document-units="mm"
     showgrid="false"
     inkscape:zoom="0.74118967"
     inkscape:cx="247.57496"
     inkscape:cy="416.89734"
     inkscape:window-width="1853"
     inkscape:window-height="1025"
     inkscape:window-x="67"
     inkscape:window-y="1107"
     inkscape:window-maximized="1"
     inkscape:current-layer="layer1" />
  <defs
     id="defs142" />
  <g
     inkscape:label="Layer 1"
     inkscape:groupmode="layer"
     id="layer1"
     transform="translate(-39.514456,-38.075617)">
    <path
       style="fill:#bfbfbf;fill-opacity:1;stroke:none;stroke-width:4.7625;stroke-linecap:butt;stroke-linejoin:round;stroke-miterlimit:4;stroke-dasharray:none;stroke-dashoffset:0;stroke-opacity:1"
       d="m 120.82472,38.075617 -0.0341,0.230994 h 0.004 z m -5.37122,0.315226 -0.0175,0.01034 -0.0222,0.264067 0.0222,-0.0016 z m -5.40742,4.849317 -1.26093,59.53745 -3.53724,-58.462064 -0.12713,0.0739 2.43707,58.450694 -6.91895,-55.848269 -0.16434,0.09509 5.86216,55.893229 -10.063984,-53.454102 -0.19222,0.112138 9.046484,53.557974 -13.027144,-51.247004 -0.21444,0.124023 12.047334,51.414431 -15.856404,-49.202679 -0.23048,0.133842 14.913324,49.434707 -18.594734,-47.29737 -0.24186,0.14056 17.688854,47.59606 -21.281924,-45.509883 -0.24958,0.144694 20.413214,45.875239 -23.953074,-43.820067 -0.25321,0.146761 23.1221,44.252596 -26.64383,-42.20776 -0.25324,0.146762 25.85167,42.707468 -29.38787,-40.654364 -0.24961,0.145211 28.63495,41.219703 -32.22024,-39.138693 -0.24289,0.141076 31.50661,39.770177 -35.17564,-37.639556 -0.23201,0.134358 34.50174,38.335638 -38.29378,-36.134223 -0.21651,0.125574 37.65868,36.894899 -41.61608,-34.596847 -0.19584,0.113686 41.01714,35.420581 -45.18949,-32.998506 -0.16795,0.09767 44.62364,33.886816 -49.06936,-31.306094 -0.13229,0.077 48.53088,32.259014 -52.22163,-28.872138 v 0.12609 l 51.61753,29.816268 -51.66714,-24.464142 -0.003,0.173633 51.13229,25.396379 -51.17827,-20.405467 -0.003,0.210839 50.71422,21.332028 -50.75761,-16.627406 -0.003,0.239779 50.36646,17.551897 -50.40778,-13.07155 -0.003,0.26096 50.09047,13.9976 -50.13026,-9.68778 -0.003,0.27647 49.8879,10.61589 -49.92666,-6.42958 -0.003,0.28783 49.7608,7.35925 -49.79853,-3.25355 -0.003,0.29352 49.70965,4.18527 -49.74735,-0.11937 -0.003,0.2961 49.73545,1.05265 -49.77318,3.01119 -0.003,0.29404 49.8383,-2.07791 -49.87603,6.17895 -0.003,0.28836 50.01866,-5.24619 -50.05742,9.42422 -0.003,0.27802 50.27599,-8.49199 -50.31525,12.78992 -0.003,0.26252 50.60932,-11.85871 -50.65014,16.32303 -0.003,0.24133 51.01857,-15.39079 -51.06146,20.07475 -0.003,0.21393 51.50278,-19.14094 -51.5488,24.10602 -0.003,0.17725 52.06039,-23.165 -52.10947,28.48457 v 0.13022 l 52.68981,-27.53061 -50.02435,31.57791 0.11679,0.0687 50.55402,-30.60123 -46.0194,33.2667 0.15502,0.0915 46.57494,-32.35513 -42.3323,34.84903 0.18553,0.10904 42.91933,-34.00206 -38.90719,36.36057 0.20775,0.12196 39.52989,-35.57664 -35.69653,37.83025 0.2253,0.13229 36.35748,-37.11091 -32.65901,39.28494 0.2372,0.13952 33.35973,-38.62968 -29.75581,40.74842 0.24545,0.14417 30.49582,-40.15827 -26.9508,42.24238 0.24958,0.14625 27.73114,-41.71787 -24.2099,43.78803 0.25064,0.14728 25.029474,-43.33069 -21.499464,45.40549 0.24752,0.14573 22.357824,-45.01482 -18.785414,47.11495 0.24132,0.14159 19.681484,-46.79094 -16.031054,48.93707 0.23151,0.13591 16.963824,-48.6792 -13.197634,50.89301 0.21651,0.12765 14.168124,-50.70079 -10.243804,53.00762 0.19635,0.11524 11.252044,-52.87843 -7.122054,55.30619 0.17002,0.10025 8.169514,-55.23797 -3.77753,57.81973 0.13591,0.0796 4.86741,-57.80784 -0.14573,60.58338 0.0915,0.0537 1.28313,-60.62265 3.52639,58.28894 0.13076,-0.0749 -2.42983,-58.27654 6.90086,55.70202 0.16693,-0.0961 -5.84669,-55.74595 10.04073,53.33112 0.19481,-0.11214 -9.02528,-53.43498 13.00075,51.14623 0.21654,-0.12454 -12.02357,-51.31315 15.83005,49.12155 0.23201,-0.13384 -14.88847,-49.35358 18.56991,47.23381 0.24339,-0.14004 -17.66557,-47.53302 21.26017,45.46338 0.25064,-0.14418 -20.39254,-45.82924 23.93651,43.78905 0.25373,-0.14624 -23.10606,-44.22211 26.63349,42.19123 0.25373,-0.14625 -25.8418,-42.69145 29.38579,40.65127 0.25011,-0.14418 -28.63286,-41.21764 32.22746,39.148 0.24339,-0.14005 -31.51484,-39.78051 35.19628,37.66075 0.23204,-0.13333 -34.52243,-38.35786 38.32838,36.16626 0.21654,-0.12454 -37.69331,-36.92797 41.66775,34.63974 0.19481,-0.11213 -41.06778,-35.46502 45.26132,33.05069 0.16692,-0.0961 -44.69391,-33.94056 49.16392,31.36656 0.13073,-0.0749 -48.62388,-32.32154 52.13532,28.82563 v -0.12867 l -51.526,-29.76727 51.54673,24.40781 v -0.17777 l -51.01087,-25.33592 51.02534,20.3445 v -0.21497 l -50.56023,-21.26692 50.57365,16.56694 v -0.24391 l -50.18143,-17.4873 50.19437,13.01625 v -0.26561 l -49.87502,-13.93765 49.88793,9.64127 v -0.28164 l -49.64401,-10.56369 49.65642,6.39392 v -0.29249 l -49.48846,-7.31945 49.50034,3.23391 v -0.2992 l -49.40993,-4.15995 49.42178,0.11833 v -0.30179 l -49.40834,-1.04593 49.41972,-2.99 v -0.30023 l -49.48328,2.06292 49.49516,-6.13193 v -0.29507 l -49.63573,5.20588 49.64761,-9.34723 v -0.28525 l -49.86515,8.42222 49.87756,-12.67829 v -0.27079 l -50.16953,11.75536 50.18244,-16.17214 v -0.25063 l -50.54883,15.24919 50.5628,-19.878369 v -0.223758 l -51.00257,18.954397 51.01651,-23.856941 v -0.189134 l -51.52758,22.927795 51.54256,-28.17502 v -0.143661 l -52.12236,27.234511 49.64707,-31.339688 -0.1261,-0.07286 -50.16746,30.367138 45.63441,-32.987648 -0.16537,-0.0956 -46.1655,32.080728 41.94368,-34.529675 -0.19534,-0.113173 -42.52039,33.686318 38.52013,-35.998836 -0.2186,-0.126609 -39.13248,35.219555 35.31515,-37.426137 -0.23564,-0.135909 -35.96576,36.710416 32.28692,-38.837417 -0.24805,-0.143661 -32.97656,38.186298 29.39614,-40.25594 -0.25686,-0.14831 -30.12527,39.67044 26.60716,-41.704425 -0.26099,-0.150896 -27.37609,41.184571 23.8864,-43.202535 -0.26252,-0.151412 -24.69409,42.748807 21.1987,-44.769355 -0.25995,-0.150379 -22.04463,44.383334 18.51102,-46.42662 -0.25427,-0.146761 -19.39414,46.107781 15.78713,-48.192925 -0.24495,-0.141594 -16.70645,47.940739 12.98937,-50.089961 -0.23098,-0.133326 -13.94489,49.903417 10.07589,-52.139972 -0.21188,-0.12299 -11.06858,52.018532 7.00111,-54.36981 -0.18706,-0.108004 -8.03156,54.309344 3.71089,-56.807383 -0.15399,-0.08888 -4.78266,56.804803 0.14314,-59.487327 z"
       id="path5337-5" />
  </g>
</svg>
