<svg xmlns="http://www.w3.org/2000/svg" width="365.78" height="371.516" viewBox="0 0 96.779 98.297"><g transform="matrix(.26458 0 0 .26458 -201.584 -20.3)"><path d="m867.947 188.718-8.274 16.547-7.813 14.248-2.298 10.571-9.193 14.708-23.9 17.925-17.925 16.547-17.466 24.82-11.49 27.117-4.597 22.981c.93 6.475 6.28 4.832 11.49 0l18.386-17.006 32.173-14.248 25.74-1.839 20.682 3.218 14.708 7.354 55.614-12.41 41.366-79.974.46-39.528-63.888-26.198z" style="fill:#bfbfbf;fill-opacity:1;fill-rule:evenodd;stroke:none;stroke-width:1px;stroke-linecap:butt;stroke-linejoin:miter;stroke-opacity:1"/><path d="m766.076 360.396 29.857-23.992 27.724-14.395 23.993.533 22.393 2.132 16.528 7.465 48.517-24.526 13.33-20.793 10.662-21.326 6.932-15.995 5.864-12.796 6.398-16.528 1.6-11.73-34.656-10.663-40.965-2.617c1.001 9.056-6.687 21.45-13.195 21.257l-12.485 4.286-12.796 14.928-18.66.534-9.064 9.597-13.33 10.13c8.42-3.816 24.833-11.148 36.262-7.94 10.055 13.808 17.412 16.273 23.986 15.404-94.725 42.942-123.425 96.88-118.895 97.035" style="fill:#a6a6a6;fill-opacity:1;fill-rule:evenodd;stroke:none;stroke-width:1px;stroke-linecap:butt;stroke-linejoin:miter;stroke-opacity:1"/><path d="m827.213 322.012 37.727-14.576 36.011-2.572 33.44 1.715-31.725 19.72-20.578 6.86-12.861-7.717-23.15-2.572z" style="fill:#737373;fill-opacity:1;fill-rule:evenodd;stroke:none;stroke-width:1px;stroke-linecap:butt;stroke-linejoin:miter;stroke-opacity:1"/><path d="m865.65 230.37-11.05.65-6.663 1.462-3.412 9.426 7.962-.488 13.163-.162z" style="fill:#999;fill-opacity:1;fill-rule:evenodd;stroke:none;stroke-width:1px;stroke-linecap:butt;stroke-linejoin:miter;stroke-opacity:1"/><path d="m864.698 235.653.598-4.98h-2.49c-1.452 1.405-3.478 2.728-3.187 4.382l-11.654 2.092-2.59 1.095.498 4.184 19.224-1.594z" style="fill:gray;fill-opacity:1;fill-rule:evenodd;stroke:none;stroke-width:1px;stroke-linecap:butt;stroke-linejoin:miter;stroke-opacity:1"/><path d="M863.216 188.805c-11.058 17.3-9.817 26.694-15.734 41.584-3.085 2.016-5.22 4.183-6.564 10.09l-20.686 15.91c-22.215 16.106-27.952 25.15-37.27 39.646-5.331 8.112-8.978 13.586-14.359 27.22-3.224 8.227-5.376 15.182-6.709 32.392-.056 8.383 2.964 8.3 2.964 8.3 6.813-2.748 24.17-19.321 33.6-26.4a408 408 0 0 1 15.694-7.9c21.303-5.53 44.317-10.315 72.765 5.215l6.473-4.04c-17.277-4.481-29.428-14.16-60.097-9.638a406 406 0 0 1 10.976-4.28c30.693-10.613 46.08-8.574 46.08-8.574 15.991-.77 15.999 2.972 38.77.85l11.562-7.264c-10.934.094-22.395 1.249-38.724.283-19.098.123-38.728 3.18-58.819 8.768-25.662 8.642-31.75 13.96-46.941 21.773-8.844 6.333-17.219 15.942-28.536 23.715-.434-.689-1.16-.504-.591-4.203.66-14.541 7.218-28.296 15.27-41.851l11.96-19.61c4.352-7.455 16.941-24.112 49.1-46.953 8.478-1.57 17.26-3.849 23.457-.1l-.65-3.248c-6.146-1.68-10.606-2.923-20.178.576-.35-.408.23-1.55.914-2.623 8.084-2.324 13.402-3.278 19.264-.876l.65-2.6c-6.203-.787-11.4-1.129-19.46 1.597.953-1.182 2.213-2.92 2.213-2.92 5.517-1.344 9.47-3.055 17.571-.952l1.95-3.573a55 55 0 0 0-3.325-.119c-3.407-.037-8.39.107-14.017.338 7.784-17 2.297-14.616 17.082-39.402z" style="fill:#000;fill-opacity:1;fill-rule:evenodd;stroke:none;stroke-width:1px;stroke-linecap:butt;stroke-linejoin:miter;stroke-opacity:1"/><ellipse cx="884.077" cy="235.779" rx="18.844" ry="20.631" style="fill:#999;fill-opacity:1;stroke:none;stroke-width:2;stroke-linejoin:round;stroke-miterlimit:4;stroke-dasharray:none;stroke-opacity:1"/><path d="m936.825 203.882-33.638 28.763-3.087-9.1 26.325-23.4z" style="fill:#999;fill-opacity:1;fill-rule:evenodd;stroke:none;stroke-width:1px;stroke-linecap:butt;stroke-linejoin:miter;stroke-opacity:1"/><path d="M869.013 249.02c5.264 1.907 8.76.216 9.57-3.277 15.384-3.88 3.58-19.973 5.523-21.346 0 0 .918-6.305-5.634-8.856 6.387-.8 17.311 2.766 20.685 6.788 3 8.545 17.544-9.965 32.213-20.94l5.293 4.373-33.595 26.691-1.84 13.806-6.904 7.594-10.814 3.911z" style="fill:gray;fill-opacity:1;fill-rule:evenodd;stroke:none;stroke-width:1px;stroke-linecap:butt;stroke-linejoin:miter;stroke-opacity:1"/><ellipse cx="883.914" cy="236.104" rx="12.553" ry="13.527" style="fill:#000;fill-opacity:1;stroke:none;stroke-width:1.91204;stroke-linejoin:round;stroke-miterlimit:4;stroke-dasharray:none;stroke-opacity:1"/><ellipse cx="969.688" cy="215.96" rx="4.061" ry="4.386" style="fill:#4d4d4d;fill-opacity:1;stroke:none;stroke-width:2;stroke-linejoin:round;stroke-miterlimit:4;stroke-dasharray:none;stroke-opacity:1"/><ellipse cx="965.302" cy="230.093" rx="4.061" ry="4.386" style="fill:#4d4d4d;fill-opacity:1;stroke:none;stroke-width:2;stroke-linejoin:round;stroke-miterlimit:4;stroke-dasharray:none;stroke-opacity:1"/><path d="M882.998 213.115c-.922-.006-1.856.091-2.752.373-2.1.789-4.744 1.075-7.19 3.245-2.567 1.975-2.604 2.07-5.215 5.074-1.848 2.646-2.5 4.649-3.101 6.625-.351 3.928-1.888 4.3-.565 13.252 1.222 4.085 2.445 6.91 3.666 8.74 2.695 3.059 3.853 4.256 5.92 5.498 3.061 1.671 5.915 2.51 8.6 2.678 3.182-.182 6.35-.405 9.164-1.692 3.18-1.315 6.167-3.206 8.6-6.765 1.8-1.52 3.2-6.147 4.228-10.574.449-3.687.545-6.374-.503-11.557-.534-1.651-1.591-4.226-3.523-7.21-1.2-1.469-1.65-2.11-4.855-4.353-2.462-1.374-4.006-2.127-8.178-2.818-1.255-.21-2.76-.506-4.296-.516m.52 3.288a16 16 0 0 1 2.25.09c4.41.249 6.277 1.649 8.325 3.202 1.281 1.466 2.44 2.655 3.844 4.483 1.572 2.135 3.101 4.271 3.201 6.406.89 4.2.108 8.399-.853 12.598-1.522 4.296-4.47 6.212-7.045 8.754-2.74 2.336-6.331 3.462-10.25 3.629-4.018-.67-6.372-2.006-8.54-3.416-2.277-1.584-3.85-3.097-4.625-4.492-1.495-2.134-2.68-5.283-3.062-8.532-.153-2.297-.483-3.713-.337-7.04.325-2.061.68-3.322 1.563-4.792 2.54-3.41 1.03-3.643 7.956-9.094 2.565-1.467 5.26-1.725 7.572-1.796" style="fill:#000;fill-opacity:1;fill-rule:evenodd;stroke:none;stroke-width:1px;stroke-linecap:butt;stroke-linejoin:miter;stroke-opacity:1"/><path d="M901.036 225.723c3.618-6.805 17.375-16.99 30.132-26.842l-4.08-1.842c-9.348 7.774-18.608 14.836-28.289 25.263zM942.747 201.776l-4.474-1.842c-12.604 9.936-25.117 19.902-35.658 30.526l1.71 3.816c25.238-24.784 34.956-27.546 38.422-32.5" style="fill:#000;fill-opacity:1;fill-rule:evenodd;stroke:none;stroke-width:1px;stroke-linecap:butt;stroke-linejoin:miter;stroke-opacity:1"/><path d="m1117.726 238.085-19.747-16.291-32.088-17.772-25.178-8.392 5.43-26.658 6.912-15.304 9.873-17.772 3.456-11.355-30.607-18.759-33.57-14.81-33.075-9.38-41.962-1.974-34.557 5.43-18.266 4.937-7.405 7.405 2.469 17.278 3.949 21.228-3.95 33.076-19.252-2.963-31.102 2.469-26.164 5.43-7.405 6.418 18.76-.987 25.176.987 28.633 5.924 23.203 3.456 29.126 5.924 28.14 7.898 31.594 9.38 23.696 7.899 35.544 9.873 30.114 4.443 38.012 4.443z" style="fill:#1a1a1a;fill-opacity:1;fill-rule:evenodd;stroke:none;stroke-width:1px;stroke-linecap:butt;stroke-linejoin:miter;stroke-opacity:1"/><path d="M976.887 84.189c11.563 5.578 11.499 12.458 5.924 12.085-24.525-1.644-83.274-6.885-104.915 1.684 42.465-7.19 88.438 1.066 106.061 4.466 33.154 12.459-2.084 55.15-6.698 88.57l62.892 5.954 5.954-26.794 15.258-32.749 3.722-8.187-2.605-9.304-40.936-21.584z" style="fill:#0d0d0d;fill-opacity:1;fill-rule:evenodd;stroke:none;stroke-width:1px;stroke-linecap:butt;stroke-linejoin:miter;stroke-opacity:1"/><path d="m872.163 155.855-1.12 13.813 26.506 6.72 40.32 10.08 53.386 5.6 49.653 4.48 3.36-15.307c-52.327-21.34-108.959-31.594-172.105-25.386" style="fill:#000;fill-opacity:1;fill-rule:evenodd;stroke:none;stroke-width:1px;stroke-linecap:butt;stroke-linejoin:miter;stroke-opacity:1"/><path d="M950.02 159.925c-35.858-4.795-63.31-3.462-72.78-1.323 10.996-.02 22.414.472 30.238 1.183-9.032-.128-19.302 1.111-28.94 2.005 7.027.006 11.241-.275 17.67.39l-12.067 2.092c3.378.148 6.889.306 10.894 1.281-4.669.082-8.311.621-12.068.852 3.946.64 8.684 1.514 11.17 2.247-3.36.406-7.904 1.4-11.733 1.98l26.2 7.324 30.146 7.607 19.158 2.817 9.297.845c-7.95-2.041-13.563-3.823-24.51-6.198 7.918.752 15.461 1.503 22.256 2.254-4.872-1.695-8.938-2.96-16.059-4.507 6.127-.139 12.247.65 16.744.69-7.115-3.037-17.299-3.517-26.04-5.198h27.327c-6.283-1.927-12.718-3.798-20.848-5.353 9.337-.951 14.88-.374 20.567-.282-10.14-4.146-19.578-5.504-30.407-7.46 11.12.067 19.802-.283 30.125 1.262-5.415-1.507-8.697-3.28-16.34-4.508" style="fill:#0d0d0d;fill-opacity:1;fill-rule:evenodd;stroke:none;stroke-width:1px;stroke-linecap:butt;stroke-linejoin:miter;stroke-opacity:1"/><path d="M868.273 171.185c4.4-36.007 2.183-42.19-3.571-67.064-1.166-8.944 3.138-14.433 10.714-17.857 97.014-31.725 178.343 25.333 188.492 31.746 9.265 5.861 1.84 17.201-.794 21.429-15.18 22.13-18.31 48.228-19.444 59.524l-6.746-.397c3.136-23.653 12.763-42.238 22.619-59.524 2.876-5.677 6.863-12.793-3.572-18.254-67.243-40.753-120.023-43.756-177.38-28.968-9.603 2.984-10.254 8.71-8.712 14.286 8.63 26.198 4.637 45.495 1.569 63.888z" style="fill:#000;fill-opacity:1;fill-rule:evenodd;stroke:none;stroke-width:1px;stroke-linecap:butt;stroke-linejoin:miter;stroke-opacity:1"/><path d="m878.859 328.977 6.861 1.634 57.184-29.408 15.52-29.245 17.482-42.97 4.085-11.6 51.955 12.908 11.763 3.757-9.966 34.8 6.535 10.13-2.777 14.868-6.209 14.867 5.718 4.411-4.084 24.507-21.076 19.443-37.087 16.991-24.017 17.809-41.009 37.74-16.174 13.234-13.724-21.893.49-33.33-6.535-13.233.327-24.017-.164-12.907z" style="fill:#333;fill-opacity:1;fill-rule:evenodd;stroke:none;stroke-width:1px;stroke-linecap:butt;stroke-linejoin:miter;stroke-opacity:1"/><path d="m979.354 214.164-7.191 20.773-4.794 11.186c20.421-6.953 24.262-.78 27.299 1.29l-7.365 13.102c18.766-12.97 31.038-10.355 45.583-13.193 5.665-2.028 6.793-6.325 9.987-9.588l-1.598-5.593z" style="fill:#262626;fill-opacity:1;fill-rule:evenodd;stroke:none;stroke-width:1px;stroke-linecap:butt;stroke-linejoin:miter;stroke-opacity:1"/><path d="M982.915 215.696c-14.224 53.08-21.434 41.894-23.774 69.385l-1.984-6.349c-5.307 10.667-9.572 15.075-16.633 25.966l-17.193 10.473c25.359-27.732 43.216-63.68 54.426-101.062zM1003.547 224.624c-5.629 15.685-14.412 29.268-21.776 43.796 10.896-14.224 23.177-27.062 31.074-44.286z" style="fill:#000;fill-opacity:1;fill-rule:evenodd;stroke:none;stroke-width:1px;stroke-linecap:butt;stroke-linejoin:miter;stroke-opacity:1"/><path d="M1023.92 259.404c2.298 5.875 7.61 2.983 12.187 1.567l-4.875 8.531-20.72 7.139 9.577-11.317z" style="fill:#262626;fill-opacity:1;fill-rule:evenodd;stroke:none;stroke-width:1px;stroke-linecap:butt;stroke-linejoin:miter;stroke-opacity:1"/><path d="m1035.43 311.249-3.393-4.525 9.615-22.057-9.615-16.401-14.14 6.787-22.875 7.689c-1.067 7.546 12.039 19.489-62.525 55.654l-6.324 4.54c-4.55 17.821-16.249 35.817-27.007 42.352-10.397-1.27-18.75-8.413-26.183-10.478l7.055 12.665-2.4 25.576c2.943 11.253 7.693 21.604 15.27 30.54l35.63-30.54 34.5-32.237 37.893-16.967 30.54-24.32z" style="fill:#262626;fill-opacity:1;fill-rule:evenodd;stroke:none;stroke-width:1px;stroke-linecap:butt;stroke-linejoin:miter;stroke-opacity:1"/><path d="M1039.76 232.21c-2.836 11.336-2.746 22.672-9.054 34.009-4.436 2.304-4.78 3.864-15.66 7.34 4.605-3.917 7.9-9.36 9.053-14.926 0 0-9.636 12.857-20.062 16.883-17.328 4.263-35.386 12.187-53.338 19.574-21.857 11.416-41.52 23.771-67.254 33.525l-2.625-.78-.592.798-3.656-.473c-4.817 2.843-8.521 6.638-10.293 12.09 1.804 3.962 3.863 7.415 6.535 9.64-3.663 10.433-2.978 19.779-1.47 28.919 1.324 5.302 4.52 6.862 7.025 9.803-6.752 29.108-1.976 30.443.326 37.74 4.827 8.382 8.957 14.669 13.398 21.892 32.269-25.018 64.602-61.316 83.16-69.435 29.181-12.857 44.655-23.332 53.126-31.826 10.297-10.323 10.25-17.719 11.9-22.907.925-8.886 4.35-17.695-6.21-17.972 15.22-29.5 11.646-31.02 8.987-33.983l-7.275-5.675c4.863-8.685 8.758-18.532 10.83-30.567zm-12.118 40.88 7.408 3.932c6.936 4.157-2.93 26.747-10.947 41.662l6.863-6.207c7.307-.946.59 27.494-19.607 40.027-7.177 6.103-23.822 12.06-23.822 12.06-19.924 7.713-23.788 12.025-39.405 24.7-15.934 14.425-34.286 35.211-53.752 48.851l-8.496-12.09c-4.718-4.928-4.696-19.513-2.941-34.962 4.373 3.623 8.19 5.987 16.012 7.023 35.192-15.253 29.845-17.427 44.765-26.14-14.411 5.936-25.619 13.997-44.603 19.933-14.742-4.83-20.119-10.702-23.2-16.828-.046-6.916-.818-13.834 2.452-20.75 6.74 2.446 5.992 1.896 8.822 2.777-4.098-3.992-9.081-5.55-11.6-13.886-.498-2.3 1.249-5.95 3.42-9.819l4.748 1.158 3.803-2.011.01.01c23.95-9.854 36.687-17.19 49.914-25.203 25.859-10.21 47.528-23.955 78.785-29.606 5.44-1.817 8.836-3.293 11.371-4.627z" style="fill:#000;fill-opacity:1;fill-rule:evenodd;stroke:none;stroke-width:1px;stroke-linecap:butt;stroke-linejoin:miter;stroke-opacity:1"/><path d="m1074.16 210.078-31.704-12.406-72.185-7.264c-23.583 4.248-31.05 5.885-99.076-1.948 52.51 8.295 90.227 20.453 125.772 33.105l70.3 14.703 51.462 2.757-23.893-19.757z" style="fill:#0d0d0d;fill-opacity:1;fill-rule:evenodd;stroke:none;stroke-width:1px;stroke-linecap:butt;stroke-linejoin:miter;stroke-opacity:1"/><path d="m965.62 215.846.604-1.66 6.039.905 2.415 1.51-2.113 2.869-5.284.754c1.723-1.717 2.209-4.325-1.66-4.378" style="fill:#404040;fill-opacity:1;fill-rule:evenodd;stroke:none;stroke-width:1px;stroke-linecap:butt;stroke-linejoin:miter;stroke-opacity:1"/><path d="M841.78 164.9c-9.513-.004-19.21.585-27.228 1.555-18.742 1.416-33.715 11.18-38.94 17.174 17.265-2.105 38.365-2.395 51.18-.941 20.533 2.896 51.6 10.23 75.737 13.037 45.53 11.71 94.21 30.715 125.877 38.308 49.938 8.774 95.756 9.077 99.267 6.541-30.018-24.15-66.683-47.387-104.435-50.472-30.566-1.795-60.761-2.277-85.09-5.862-24.102-4.723-46.907-11.974-70.234-17.33-7.288-1.404-16.62-2.004-26.133-2.01m.466 5.018c10.067.022 20.743.903 31.597 2.922 21.358 4.628 47.409 11.507 57.465 14.139 37.587 7.033 63.791 7.936 89.658 8.658 27 3.125 77.172 25.56 90.035 40.14-20.076.825-75.49-2.788-117.21-18.242-26.658-7.439-57.175-20.903-91.215-26.453-24.802-4.97-37.73-7.453-65.098-13.383-11.087-1.122-27.78-3.644-48.305 1.526 11.712-5.253 30.923-9.355 53.073-9.307" style="fill:#000;fill-opacity:1;fill-rule:evenodd;stroke:none;stroke-width:1px;stroke-linecap:butt;stroke-linejoin:miter;stroke-opacity:1"/><path d="M966.65 213.942c.082 1.344-.163 3.483.283 4.1 1.017 1.847 2.572 1.612 4.24 1.414 1.237-.043 1.765-1.602 2.262-3.11l1.556.707c-.585 1.593-2.262 3.251-2.262 3.251-.847.85-2.407.986-4.383.707-2.414-.597-2.87-2.38-3.534-4.1-.494-1.225-.354-2.45.283-3.675z" style="fill:#000;fill-opacity:1;fill-rule:evenodd;stroke:none;stroke-width:1px;stroke-linecap:butt;stroke-linejoin:miter;stroke-opacity:1"/><path d="M963.96 225.961c.754 2.824 1.185 5.525-2.416 5.586l1.812 3.17 4.227-.453 1.51-2.264-.453-4.831-1.963-1.66z" style="fill:#404040;fill-opacity:1;fill-rule:evenodd;stroke:none;stroke-width:1px;stroke-linecap:butt;stroke-linejoin:miter;stroke-opacity:1"/><path d="M966.03 225.028c-.896-.091-2.246-.109-4.187 1.496-1.169 1.492-1.438 2.868-1.336 4.718.464 1.49 1.742 3.665 3.174 3.907 3.207.354 4.236-.382 5.23-1.133.9-1.13 1.138-2.584.99-3.817-.377-1.366-.317-2.733-1.556-4.1-.833-.463-1.417-.98-2.314-1.071m.337 1.355c1.123.57 1.798 1.409 1.978 2.545.08.985-.04 2.02-.14 2.826-.174.955-.159.902-.99 1.697-.875.98-2 .95-3.25.424-1.94-1.683-2.26-2.891-1.946-4.806.209-.713.954-1.764 1.662-2.262 1.332-.722 1.597-.592 2.686-.424M985.9 306.583c-26.39 23.05-56.331 40.69-91.813 49.888 15.27-7.355 33.329-21.68 45.5-21.288 17.339-8.583 31.407-18.801 46.313-28.6M965.913 361.833c21.043-10.325 36.67-21.314 49.075-33.8-8.933 5.524-13.483 11.273-25.838 17.225-8.917 4.937-16 10.57-23.237 16.575" style="fill:#000;fill-opacity:1;fill-rule:evenodd;stroke:none;stroke-width:1px;stroke-linecap:butt;stroke-linejoin:miter;stroke-opacity:1"/></g></svg>