<svg xmlns="http://www.w3.org/2000/svg" width="542.526" height="623.67"><path d="M533.526 463.253 271.263 614.67 9 463.253V160.417L271.263 9l262.263 151.417Z" style="opacity:1;fill:#fff;fill-opacity:1;stroke:none;stroke-width:18;stroke-linecap:butt;stroke-linejoin:round;stroke-miterlimit:4;stroke-dasharray:none;stroke-dashoffset:0;stroke-opacity:1"/><path d="m315.314-6.64-.128.872h.015zm-20.3 1.19-.067.04-.084.998.084-.006zM274.576 12.88l-4.765 225.023-13.37-220.959-.48.28 9.21 220.916-26.15-211.08-.62.359 22.156 211.25L222.52 36.637l-.727.424 34.191 202.423-49.236-193.69-.81.47 45.533 194.322-59.93-185.963-.871.506 56.365 186.84-70.28-178.762-.913.531 66.855 179.89-80.435-172.005-.944.547 77.153 173.387-90.532-165.62-.957.555 87.391 167.254L133.672 88.221l-.957.554 97.707 161.414L119.35 96.535l-.944.549 108.227 155.791-121.778-147.926-.918.533 119.08 150.313L90.07 113.535l-.877.508 130.4 144.89-144.732-136.57-.818.475 142.332 139.445-157.29-130.76-.74.43 155.026 133.873L42.576 141.107l-.635.37 168.657 128.076L25.138 151.23l-.5.291 183.425 121.924L10.689 164.322l-.003.477 195.09 112.691-195.278-92.463-.006.657 193.256 95.986-193.43-77.123-.005.797 191.675 80.625-191.84-62.844-.01.906L200.5 290.37 9.982 240.965l-.007.986 189.318 52.904L9.824 258.24l-.01 1.045 188.553 40.123-188.699-24.3-.01 1.087L197.73 304.01 9.516 291.713l-.01 1.11 187.879 15.818-188.022-.452-.01 1.12 187.977 3.978L9.21 324.668l-.009 1.111 188.365-7.853L9.06 341.279l-.01 1.09 189.047-19.828-189.194 35.62-.01 1.05 190.02-32.096-190.168 48.34-.01.992 191.28-44.82L8.58 393.32l-.01.912 192.826-58.17L8.408 411.937l-.008.808L203.057 340.4 8.227 431.51l-.006.67 196.763-87.553L8.035 452.285l-.004.492 199.143-104.052-189.069 119.35.442.259 191.07-115.658L35.686 478.408l.585.346 176.032-122.287L52.307 488.18l.7.412L215.224 360.08 68.172 497.506l.785.46 149.404-134.462-134.916 142.98.852.5L221.71 366.723 98.275 515.2l.897.528 126.084-146.002-112.463 154.01.928.544 115.26-151.779-101.862 159.656.944.553 104.81-157.674-91.502 165.498.947.557 94.6-163.77-81.258 171.612.936.55 84.502-170.134-71 178.072.912.535 74.386-176.848-60.59 184.96.876.513 64.115-183.984-49.881 192.351.818.483 53.55-191.625-38.718 200.343.743.436 42.527-199.856-26.918 209.032.643.379 30.876-208.774-14.277 218.531.514.301 18.396-218.486-.55 228.976.345.204 4.85-229.125 13.328 220.304.494-.283-9.183-220.258 26.082 210.528.63-.364-22.097-210.693 37.949 201.566.736-.423-34.111-201.96 49.137 193.31.818-.472-45.443-193.939 59.83 185.656.877-.506-56.272-186.533 70.186 178.522.92-.53-66.768-179.652 80.354 171.83.947-.545-77.074-173.213 90.468 165.502.96-.553-87.33-167.138 100.661 159.463.96-.553-97.67-161.354 111.064 153.643.945-.545-108.218-155.783 121.804 147.96.92-.528-119.111-150.352 133.025 142.34.877-.504-130.478-144.975 144.863 136.692.818-.471-142.463-139.57 157.485 130.922.736-.424-155.217-134.041L500.221 482.76l.63-.364L331.93 354.117l185.816 118.551.494-.283-183.775-122.16 197.047 108.947.002-.486L336.75 346.18l194.822 92.25.002-.672L338.777 342l192.852 76.893.004-.813-191.094-80.379 191.145 62.615.004-.921L342.025 333.3l189.711 49.195.002-1.004-188.504-52.678 188.553 36.44.002-1.065-187.63-39.925 187.677 24.166.002-1.106-187.043-27.664 187.088 12.223.004-1.131-186.746-15.723 186.79.448.005-1.141-186.74-3.953 186.783-11.301.003-1.135-187.023 7.797 187.068-23.176.004-1.115-187.6 19.676L532.077 265.8l.004-1.078-188.467 31.832 188.514-47.918.002-1.024-189.617 44.43 189.666-61.123.002-.947-191.051 57.634 191.103-75.13.002-.846L339.47 283.27l192.818-90.168.004-.715-194.75 86.656 194.807-106.488.002-.543-196.998 102.933 187.642-118.449-.476-.275-189.61 114.773 172.477-124.678-.625-.36-174.537 121.25L488.75 136.698l-.738-.428L327.305 263.59 472.893 127.53l-.827-.478-147.902 133.113L457.64 118.713l-.891-.514-135.934 138.748 122.03-146.787-.938-.543-124.635 144.326 111.104-152.148-.97-.56-113.86 149.935L414.107 93.547l-.986-.57-103.469 155.658 90.28-163.285-.993-.573-93.332 161.57L385.73 77.142l-.983-.569-83.318 167.748L371.39 68.85l-.961-.555-73.301 174.266 59.668-182.147-.926-.535-63.142 181.193 49.093-189.316-.873-.504-52.705 188.611L326.326 42.8l-.8-.465-41.835 196.605 26.461-205.492-.707-.408-30.355 205.264 14.025-214.705-.582-.336-18.076 214.695.541-224.834z" style="opacity:1;fill:#bfbfbf;fill-opacity:1;stroke:none;stroke-width:18;stroke-linecap:butt;stroke-linejoin:round;stroke-miterlimit:4;stroke-dasharray:none;stroke-dashoffset:0;stroke-opacity:1"/><path d="M533.526 463.253 271.263 614.67 9 463.253V160.417L271.263 9l262.263 151.417Z" style="opacity:1;fill:none;fill-opacity:1;stroke:#000;stroke-width:18;stroke-linecap:butt;stroke-linejoin:round;stroke-miterlimit:4;stroke-dasharray:none;stroke-dashoffset:0;stroke-opacity:1"/><path d="m206.465 242.582-8.273 16.546-7.813 14.248-2.299 10.572-9.192 14.708-23.9 17.925-17.926 16.546-17.465 24.82-11.49 27.118-4.597 22.98c.93 6.476 6.28 4.832 11.49 0l18.385-17.005 32.174-14.248 25.739-1.839 20.683 3.217 14.708 7.354 55.614-12.41 41.366-79.974.46-39.527-63.888-26.199z" style="fill:#bfbfbf;fill-opacity:1;fill-rule:evenodd;stroke:none;stroke-width:1px;stroke-linecap:butt;stroke-linejoin:miter;stroke-opacity:1"/><path d="m104.595 414.26 29.857-23.992 27.724-14.396 23.992.533 22.393 2.133 16.528 7.464 48.518-24.525 13.329-20.793 10.663-21.327 6.931-15.995 5.865-12.796 6.398-16.528 1.6-11.73-34.656-10.662-40.965-2.617c1 9.055-6.687 21.45-13.196 21.257l-12.484 4.285-12.796 14.929-18.66.533-9.064 9.597-13.33 10.13c8.42-3.815 24.833-11.147 36.262-7.939 10.055 13.808 17.412 16.273 23.986 15.403-94.725 42.943-123.425 96.88-118.895 97.036" style="fill:#a6a6a6;fill-opacity:1;fill-rule:evenodd;stroke:none;stroke-width:1px;stroke-linecap:butt;stroke-linejoin:miter;stroke-opacity:1"/><path d="M165.732 375.876 203.46 361.3l36.011-2.573 33.44 1.715-31.725 19.72-20.578 6.86-12.861-7.717-23.15-2.572z" style="fill:#737373;fill-opacity:1;fill-rule:evenodd;stroke:none;stroke-width:1px;stroke-linecap:butt;stroke-linejoin:miter;stroke-opacity:1"/><path d="m204.169 284.234-11.05.65-6.663 1.462-3.413 9.425 7.963-.487 13.162-.163z" style="fill:#999;fill-opacity:1;fill-rule:evenodd;stroke:none;stroke-width:1px;stroke-linecap:butt;stroke-linejoin:miter;stroke-opacity:1"/><path d="m203.217 289.516.598-4.98h-2.49c-1.452 1.405-3.478 2.728-3.188 4.382l-11.654 2.092-2.59 1.096.499 4.183 19.224-1.593z" style="fill:gray;fill-opacity:1;fill-rule:evenodd;stroke:none;stroke-width:1px;stroke-linecap:butt;stroke-linejoin:miter;stroke-opacity:1"/><path d="M201.735 242.668c-11.058 17.301-9.817 26.694-15.734 41.584-3.085 2.017-5.22 4.184-6.565 10.09l-20.685 15.91c-22.215 16.106-27.952 25.15-37.27 39.647-5.332 8.111-8.979 13.585-14.36 27.219-3.223 8.228-5.375 15.182-6.708 32.392-.056 8.383 2.964 8.3 2.964 8.3 6.813-2.747 24.17-19.32 33.6-26.4a408 408 0 0 1 15.694-7.9c21.303-5.53 44.317-10.315 72.765 5.215l6.473-4.039c-17.278-4.482-29.428-14.16-60.098-9.639a406 406 0 0 1 10.977-4.279c30.693-10.614 46.08-8.574 46.08-8.574 15.99-.77 15.999 2.972 38.77.85l11.562-7.264c-10.934.094-22.395 1.248-38.725.283-19.097.123-38.727 3.179-58.818 8.768-25.663 8.641-31.75 13.959-46.941 21.773-8.844 6.332-17.219 15.942-28.536 23.714-.435-.688-1.16-.504-.591-4.202.659-14.542 7.218-28.296 15.27-41.852l11.96-19.61c4.351-7.455 16.941-24.112 49.1-46.952 8.477-1.57 17.26-3.85 23.457-.1l-.65-3.248c-6.147-1.68-10.606-2.923-20.178.575-.35-.408.23-1.55.914-2.623 8.083-2.324 13.402-3.277 19.263-.876l.65-2.6c-6.202-.787-11.4-1.128-19.46 1.598.954-1.182 2.214-2.92 2.214-2.92 5.516-1.345 9.469-3.055 17.57-.953l1.95-3.572a55 55 0 0 0-3.324-.12c-3.407-.036-8.39.107-14.018.339 7.785-17.001 2.298-14.616 17.082-39.403z" style="fill:#000;fill-opacity:1;fill-rule:evenodd;stroke:none;stroke-width:1px;stroke-linecap:butt;stroke-linejoin:miter;stroke-opacity:1"/><ellipse cx="222.595" cy="289.643" rx="18.844" ry="20.631" style="opacity:1;fill:#999;fill-opacity:1;stroke:none;stroke-width:2;stroke-linejoin:round;stroke-miterlimit:4;stroke-dasharray:none;stroke-opacity:1"/><path d="m275.344 257.746-33.638 28.763-3.087-9.1 26.325-23.4z" style="fill:#999;fill-opacity:1;fill-rule:evenodd;stroke:none;stroke-width:1px;stroke-linecap:butt;stroke-linejoin:miter;stroke-opacity:1"/><path d="M207.532 302.884c5.263 1.906 8.76.216 9.57-3.278 15.383-3.88 3.579-19.973 5.523-21.345 0 0 .918-6.305-5.634-8.856 6.387-.8 17.311 2.765 20.684 6.787 3.002 8.545 17.544-9.965 32.214-20.939l5.293 4.372-33.595 26.692-1.84 13.806-6.904 7.593-10.815 3.912z" style="fill:gray;fill-opacity:1;fill-rule:evenodd;stroke:none;stroke-width:1px;stroke-linecap:butt;stroke-linejoin:miter;stroke-opacity:1"/><ellipse cx="222.433" cy="289.968" rx="12.553" ry="13.527" style="opacity:1;fill:#000;fill-opacity:1;stroke:none;stroke-width:1.91204154;stroke-linejoin:round;stroke-miterlimit:4;stroke-dasharray:none;stroke-opacity:1"/><ellipse cx="308.207" cy="269.824" rx="4.061" ry="4.386" style="opacity:1;fill:#4d4d4d;fill-opacity:1;stroke:none;stroke-width:2;stroke-linejoin:round;stroke-miterlimit:4;stroke-dasharray:none;stroke-opacity:1"/><ellipse cx="303.821" cy="283.957" rx="4.061" ry="4.386" style="opacity:1;fill:#4d4d4d;fill-opacity:1;stroke:none;stroke-width:2;stroke-linejoin:round;stroke-miterlimit:4;stroke-dasharray:none;stroke-opacity:1"/><path d="M221.516 266.979c-.921-.006-1.856.09-2.752.373-2.1.789-4.744 1.074-7.19 3.244-2.566 1.976-2.603 2.07-5.214 5.074-1.848 2.647-2.5 4.65-3.101 6.625-.351 3.929-1.889 4.3-.565 13.252 1.222 4.086 2.444 6.91 3.666 8.74 2.695 3.06 3.853 4.257 5.92 5.499 3.061 1.67 5.914 2.51 8.6 2.677 3.181-.181 6.35-.405 9.164-1.691 3.18-1.316 6.167-3.207 8.6-6.766 1.8-1.519 3.2-6.146 4.228-10.574.449-3.686.545-6.374-.503-11.557-.534-1.65-1.592-4.225-3.524-7.209-1.2-1.47-1.65-2.111-4.854-4.353-2.462-1.374-4.007-2.128-8.178-2.818-1.256-.21-2.76-.507-4.297-.516m.52 3.287a16 16 0 0 1 2.25.09c4.411.25 6.278 1.65 8.326 3.203 1.281 1.466 2.44 2.655 3.844 4.482 1.572 2.136 3.1 4.272 3.2 6.407.89 4.199.108 8.398-.853 12.597-1.521 4.297-4.47 6.213-7.044 8.754-2.741 2.336-6.331 3.462-10.25 3.63-4.019-.671-6.372-2.006-8.54-3.417-2.277-1.583-3.85-3.096-4.625-4.492-1.496-2.134-2.681-5.283-3.062-8.531-.153-2.297-.483-3.713-.338-7.041.326-2.06.681-3.322 1.564-4.792 2.54-3.41 1.03-3.642 7.956-9.093 2.564-1.468 5.259-1.726 7.572-1.797" style="fill:#000;fill-opacity:1;fill-rule:evenodd;stroke:none;stroke-width:1px;stroke-linecap:butt;stroke-linejoin:miter;stroke-opacity:1"/><path d="M239.555 279.587c3.618-6.805 17.375-16.99 30.131-26.842l-4.079-1.842c-9.348 7.774-18.608 14.836-28.289 25.263zM281.265 255.64l-4.473-1.843c-12.605 9.936-25.117 19.903-35.658 30.527l1.71 3.816c25.238-24.784 34.956-27.546 38.421-32.5" style="fill:#000;fill-opacity:1;fill-rule:evenodd;stroke:none;stroke-width:1px;stroke-linecap:butt;stroke-linejoin:miter;stroke-opacity:1"/><path d="m456.244 291.949-19.746-16.291-32.089-17.772-25.177-8.393 5.43-26.658 6.912-15.304 9.873-17.772 3.456-11.354-30.607-18.76-33.57-14.81-33.076-9.38-41.961-1.974-34.557 5.43-18.266 4.937-7.405 7.405 2.468 17.279 3.95 21.227-3.95 33.076-19.253-2.962-31.1 2.468-26.165 5.43-7.405 6.418 18.76-.987 25.176.987 28.633 5.924 23.202 3.456 29.127 5.924 28.139 7.899 31.595 9.38 23.696 7.898 35.544 9.874 30.114 4.443 38.012 4.443z" style="fill:#1a1a1a;fill-opacity:1;fill-rule:evenodd;stroke:none;stroke-width:1px;stroke-linecap:butt;stroke-linejoin:miter;stroke-opacity:1"/><path d="M315.405 138.052c11.564 5.579 11.5 12.459 5.925 12.085-24.525-1.643-83.274-6.884-104.915 1.684 42.465-7.19 88.438 1.066 106.061 4.466 33.154 12.46-2.084 55.15-6.699 88.57l62.893 5.955 5.954-26.795 15.258-32.748 3.721-8.188-2.605-9.303-40.935-21.584z" style="fill:#0d0d0d;fill-opacity:1;fill-rule:evenodd;stroke:none;stroke-width:1px;stroke-linecap:butt;stroke-linejoin:miter;stroke-opacity:1"/><path d="m210.682 209.718-1.12 13.814 26.506 6.72 40.32 10.08 53.386 5.6 49.652 4.48 3.36-15.307c-52.326-21.34-108.958-31.594-172.104-25.387" style="fill:#000;fill-opacity:1;fill-rule:evenodd;stroke:none;stroke-width:1px;stroke-linecap:butt;stroke-linejoin:miter;stroke-opacity:1"/><path d="M288.538 213.789c-35.857-4.796-63.309-3.463-72.78-1.323 10.997-.02 22.415.472 30.238 1.182-9.031-.127-19.301 1.112-28.94 2.006 7.028.006 11.242-.275 17.671.389l-12.067 2.093c3.378.148 6.888.306 10.894 1.28-4.67.083-8.312.622-12.068.853 3.946.64 8.684 1.513 11.169 2.247-3.36.406-7.903 1.399-11.732 1.979l26.2 7.325 30.146 7.607 19.158 2.817 9.297.845c-7.95-2.041-13.564-3.823-24.51-6.198 7.918.751 15.46 1.503 22.256 2.254-4.872-1.695-8.938-2.96-16.059-4.508 6.127-.138 12.247.65 16.743.691-7.115-3.037-17.298-3.517-26.04-5.199h27.328c-6.283-1.926-12.718-3.797-20.848-5.352 9.336-.952 14.88-.375 20.566-.282-10.138-4.147-19.577-5.504-30.406-7.46 11.12.067 19.802-.284 30.125 1.262-5.415-1.507-8.697-3.28-16.34-4.508" style="fill:#0d0d0d;fill-opacity:1;fill-rule:evenodd;stroke:none;stroke-width:1px;stroke-linecap:butt;stroke-linejoin:miter;stroke-opacity:1"/><path d="M206.792 225.049c4.399-36.007 2.183-42.19-3.572-67.064-1.166-8.944 3.14-14.434 10.715-17.857 97.014-31.725 178.342 25.333 188.492 31.746 9.265 5.86 1.84 17.201-.794 21.428-15.18 22.13-18.31 48.229-19.444 59.524l-6.747-.397c3.136-23.652 12.763-42.237 22.62-59.523 2.876-5.677 6.863-12.793-3.572-18.254-67.243-40.753-120.023-43.756-177.38-28.969-9.603 2.985-10.254 8.71-8.712 14.286 8.63 26.199 4.636 45.496 1.568 63.89z" style="fill:#000;fill-opacity:1;fill-rule:evenodd;stroke:none;stroke-width:1px;stroke-linecap:butt;stroke-linejoin:miter;stroke-opacity:1"/><path d="m217.377 382.84 6.862 1.635 57.183-29.409 15.521-29.245 17.482-42.969 4.085-11.6 51.954 12.907 11.764 3.758-9.966 34.8 6.535 10.13-2.778 14.867-6.208 14.868 5.718 4.411-4.084 24.507-21.076 19.442-37.088 16.992-24.016 17.808-41.009 37.741-16.175 13.234-13.723-21.893.49-33.33-6.535-13.234.326-24.016-.163-12.907z" style="fill:#333;fill-opacity:1;fill-rule:evenodd;stroke:none;stroke-width:1px;stroke-linecap:butt;stroke-linejoin:miter;stroke-opacity:1"/><path d="m317.872 268.027-7.19 20.774-4.794 11.186c20.42-6.954 24.262-.78 27.299 1.29l-7.365 13.101c18.766-12.97 31.038-10.354 45.583-13.193 5.665-2.028 6.793-6.324 9.987-9.588l-1.598-5.593z" style="fill:#262626;fill-opacity:1;fill-rule:evenodd;stroke:none;stroke-width:1px;stroke-linecap:butt;stroke-linejoin:miter;stroke-opacity:1"/><path d="M321.434 269.56C307.21 322.64 300 311.453 297.66 338.945l-1.984-6.349c-5.307 10.666-9.572 15.075-16.633 25.965l-17.193 10.473c25.359-27.731 43.216-63.68 54.426-101.061zM342.066 278.487c-5.629 15.686-14.412 29.268-21.776 43.797 10.895-14.225 23.177-27.063 31.074-44.286z" style="fill:#000;fill-opacity:1;fill-rule:evenodd;stroke:none;stroke-width:1px;stroke-linecap:butt;stroke-linejoin:miter;stroke-opacity:1"/><path d="M362.438 313.268c2.299 5.875 7.61 2.983 12.188 1.567l-4.876 8.531-20.719 7.139 9.576-11.318z" style="fill:#262626;fill-opacity:1;fill-rule:evenodd;stroke:none;stroke-width:1px;stroke-linecap:butt;stroke-linejoin:miter;stroke-opacity:1"/><path d="m373.95 365.113-3.394-4.525 9.614-22.057-9.614-16.401-14.14 6.786-22.875 7.69c-1.068 7.545 12.039 19.488-62.525 55.654l-6.324 4.54c-4.55 17.82-16.25 35.817-27.007 42.351-10.398-1.27-18.75-8.412-26.183-10.477l7.055 12.664-2.4 25.576c2.943 11.254 7.693 21.604 15.27 30.54l35.63-30.54 34.5-32.237 37.893-16.967 30.54-24.32z" style="fill:#262626;fill-opacity:1;fill-rule:evenodd;stroke:none;stroke-width:1px;stroke-linecap:butt;stroke-linejoin:miter;stroke-opacity:1"/><path d="M378.278 286.073c-2.835 11.336-2.745 22.673-9.053 34.01-4.436 2.304-4.78 3.864-15.66 7.34 4.605-3.917 7.9-9.36 9.053-14.926 0 0-9.637 12.857-20.063 16.882-17.327 4.264-35.385 12.188-53.338 19.575-21.856 11.415-41.52 23.77-67.253 33.525l-2.625-.781-.592.799-3.656-.473c-4.817 2.843-8.522 6.638-10.293 12.09 1.804 3.962 3.863 7.414 6.535 9.64-3.663 10.433-2.979 19.778-1.471 28.918 1.324 5.303 4.52 6.862 7.025 9.803-6.751 29.108-1.975 30.443.327 37.74 4.827 8.382 8.957 14.67 13.398 21.893 32.268-25.019 64.602-61.317 83.16-69.436 64.646-28.483 62.02-45.275 65.026-54.732.925-8.886 4.35-17.695-6.21-17.973 15.22-29.5 11.646-31.02 8.987-33.982l-7.276-5.676c4.864-8.685 8.759-18.532 10.83-30.566zm-12.117 40.88 7.408 3.932c6.936 4.157-2.93 26.747-10.947 41.662l6.863-6.207c7.307-.945.59 27.495-19.607 40.028-7.177 6.103-23.823 12.06-23.823 12.06-19.923 7.713-23.787 12.024-39.404 24.7-15.935 14.424-34.287 35.21-53.752 48.851l-8.496-12.09c-4.719-4.928-4.696-19.513-2.941-34.963 4.373 3.623 8.19 5.988 16.011 7.024 35.192-15.253 29.846-17.428 44.766-26.14-14.412 5.935-25.62 13.997-44.604 19.933-14.74-4.831-20.118-10.702-23.199-16.828-.046-6.917-.819-13.834 2.451-20.75 6.741 2.445 5.993 1.895 8.823 2.777-4.099-3.992-9.081-5.55-11.6-13.887-.498-2.3 1.248-5.95 3.42-9.818l4.748 1.158 3.803-2.012.01.01c23.95-9.854 36.687-17.19 49.914-25.203 25.858-10.209 47.528-23.954 78.785-29.605 5.44-1.818 8.835-3.294 11.371-4.627z" style="fill:#000;fill-opacity:1;fill-rule:evenodd;stroke:none;stroke-width:1px;stroke-linecap:butt;stroke-linejoin:miter;stroke-opacity:1"/><path d="m412.678 263.942-31.704-12.406-72.184-7.265c-23.584 4.248-31.05 5.885-99.076-1.948 52.51 8.296 90.227 20.453 125.772 33.105l70.3 14.704 51.462 2.757-23.893-19.758z" style="fill:#0d0d0d;fill-opacity:1;fill-rule:evenodd;stroke:none;stroke-width:1px;stroke-linecap:butt;stroke-linejoin:miter;stroke-opacity:1"/><path d="m304.139 269.71.604-1.66 6.038.905 2.416 1.51-2.114 2.868-5.283.755c1.723-1.717 2.209-4.325-1.661-4.378" style="fill:#404040;fill-opacity:1;fill-rule:evenodd;stroke:none;stroke-width:1px;stroke-linecap:butt;stroke-linejoin:miter;stroke-opacity:1"/><path d="M180.3 218.764c-9.514-.005-19.21.584-27.229 1.555-18.742 1.415-33.715 11.179-38.94 17.174 17.264-2.105 38.365-2.395 51.18-.942 20.533 2.897 51.6 10.231 75.737 13.037 45.529 11.71 94.21 30.716 125.877 38.309 49.938 8.774 95.756 9.076 99.267 6.541-30.018-24.151-66.683-47.388-104.435-50.473-30.566-1.795-60.761-2.277-85.09-5.861-24.102-4.724-46.907-11.974-70.235-17.33-7.287-1.405-16.619-2.004-26.132-2.01m.464 5.018c10.068.022 20.744.903 31.598 2.922 21.358 4.628 47.408 11.507 57.465 14.138 37.587 7.033 63.791 7.936 89.658 8.658 26.999 3.125 77.172 25.56 90.035 40.141-20.076.825-75.49-2.789-117.21-18.242-26.658-7.44-57.175-20.903-91.216-26.453-24.8-4.97-37.73-7.453-65.097-13.383-11.087-1.122-27.78-3.644-48.305 1.525 11.712-5.252 30.923-9.355 53.072-9.306" style="fill:#000;fill-opacity:1;fill-rule:evenodd;stroke:none;stroke-width:1px;stroke-linecap:butt;stroke-linejoin:miter;stroke-opacity:1"/><path d="M305.169 267.806c.082 1.343-.163 3.483.282 4.1 1.018 1.847 2.573 1.611 4.241 1.413 1.236-.042 1.765-1.602 2.262-3.11l1.555.707c-.584 1.593-2.262 3.252-2.262 3.252-.846.85-2.406.986-4.382.706-2.414-.596-2.87-2.379-3.534-4.1-.494-1.224-.354-2.45.282-3.675z" style="fill:#000;fill-opacity:1;fill-rule:evenodd;stroke:none;stroke-width:1px;stroke-linecap:butt;stroke-linejoin:miter;stroke-opacity:1"/><path d="M302.478 279.825c.755 2.823 1.185 5.525-2.415 5.586l1.811 3.17 4.227-.453 1.51-2.265-.453-4.83-1.962-1.661z" style="fill:#404040;fill-opacity:1;fill-rule:evenodd;stroke:none;stroke-width:1px;stroke-linecap:butt;stroke-linejoin:miter;stroke-opacity:1"/><path d="M304.55 278.891c-.897-.09-2.247-.108-4.188 1.496-1.17 1.493-1.439 2.869-1.336 4.719.463 1.49 1.741 3.665 3.174 3.906 3.207.355 4.235-.381 5.23-1.133.9-1.13 1.138-2.584.99-3.816-.377-1.367-.318-2.733-1.556-4.1-.833-.463-1.418-.981-2.314-1.072m.335 1.356c1.123.57 1.799 1.409 1.979 2.545.08.984-.04 2.019-.14 2.826-.175.955-.16.901-.99 1.697-.875.98-2 .949-3.25.424-1.94-1.684-2.261-2.891-1.946-4.807.208-.712.954-1.763 1.662-2.262 1.332-.721 1.596-.591 2.685-.423M324.42 360.447c-26.392 23.049-56.333 40.69-91.814 49.887 15.27-7.355 33.329-21.679 45.5-21.287 17.338-8.584 31.406-18.802 46.313-28.6M304.432 415.697c21.043-10.326 36.67-21.315 49.075-33.8-8.933 5.524-13.483 11.273-25.838 17.225-8.918 4.937-16 10.57-23.237 16.575" style="fill:#000;fill-opacity:1;fill-rule:evenodd;stroke:none;stroke-width:1px;stroke-linecap:butt;stroke-linejoin:miter;stroke-opacity:1"/><path d="m271.263 47.566 224.663 132.135" style="fill:none;fill-rule:evenodd;stroke:#000;stroke-width:18;stroke-linecap:butt;stroke-linejoin:miter;stroke-miterlimit:4;stroke-dasharray:none;stroke-dashoffset:0;stroke-opacity:1"/><path d="m43.399 179.701-1 264.268M271.263 576.104 500.127 443.97" style="fill:none;fill-rule:evenodd;stroke:#000;stroke-width:18;stroke-linecap:butt;stroke-linejoin:miter;stroke-miterlimit:4;stroke-dasharray:none;stroke-opacity:1"/></svg>