<?xml version="1.0" encoding="UTF-8" standalone="no"?>
<!-- Created with Inkscape (http://www.inkscape.org/) -->

<svg
   xmlns:dc="http://purl.org/dc/elements/1.1/"
   xmlns:cc="http://creativecommons.org/ns#"
   xmlns:rdf="http://www.w3.org/1999/02/22-rdf-syntax-ns#"
   xmlns:svg="http://www.w3.org/2000/svg"
   xmlns="http://www.w3.org/2000/svg"
   xmlns:sodipodi="http://sodipodi.sourceforge.net/DTD/sodipodi-0.dtd"
   xmlns:inkscape="http://www.inkscape.org/namespaces/inkscape"
   width="23.817011mm"
   height="18.343124mm"
   viewBox="0 0 23.817011 18.343124"
   version="1.1"
   id="svg3871"
   sodipodi:docname="looking.svg"
   inkscape:version="0.92.3 (2405546, 2018-03-11)">
  <defs
     id="defs3865" />
  <sodipodi:namedview
     id="base"
     pagecolor="#ffffff"
     bordercolor="#666666"
     borderopacity="1.0"
     inkscape:pageopacity="0.0"
     inkscape:pageshadow="2"
     inkscape:zoom="0.35"
     inkscape:cx="714.15711"
     inkscape:cy="-167.98012"
     inkscape:document-units="mm"
     inkscape:current-layer="layer1"
     showgrid="false"
     inkscape:window-width="1853"
     inkscape:window-height="1025"
     inkscape:window-x="67"
     inkscape:window-y="27"
     inkscape:window-maximized="1" />
  <metadata
     id="metadata3868">
    <rdf:RDF>
      <cc:Work
         rdf:about="">
        <dc:format>image/svg+xml</dc:format>
        <dc:type
           rdf:resource="http://purl.org/dc/dcmitype/StillImage" />
        <dc:title></dc:title>
      </cc:Work>
    </rdf:RDF>
  </metadata>
  <g
     inkscape:label="Layer 1"
     inkscape:groupmode="layer"
     id="layer1"
     transform="translate(83.120735,-86.045469)">
    <path
       id="path3793"
       d="m 96.484094,155.36173 v -10.26054 h -0.91017 v 10.26054 c -1.12448,0.21432 -1.97644,1.19857 -1.97644,2.3839 0,1.34144 1.08744,2.43152 2.43153,2.43152 1.34143,0 2.43152,-1.08744 2.43152,-2.43152 -0.003,-1.18533 -0.85196,-2.16958 -1.97644,-2.3839 z"
       inkscape:connector-curvature="0"
       style="stroke-width:0.26458332" />
    <g
       transform="matrix(0.26458333,0,0,0.26458333,83.461304,136.69273)"
       id="g3797">
      <path
         id="path3795"
         d="m 67.94,36.03 c 0,0.93 -0.76,1.72 -1.72,1.72 h -7.48 v -3.44 h 7.48 c 0.96,0 1.72,0.76 1.72,1.72 z"
         inkscape:connector-curvature="0" />
    </g>
    <g
       transform="matrix(0.26458333,0,0,0.26458333,83.461304,136.69273)"
       id="g3801">
      <path
         id="path3799"
         d="m 67.94,18.83 c 0,0.96 -0.76,1.72 -1.72,1.72 h -7.48 v -3.44 h 7.48 c 0.96,0 1.72,0.78 1.72,1.72 z"
         inkscape:connector-curvature="0" />
    </g>
    <g
       transform="matrix(0.26458333,0,0,0.26458333,83.461304,136.69273)"
       id="g3805">
      <path
         id="path3803"
         d="m 65.24,27.37 c 0,0.96 -0.76,1.72 -1.72,1.72 h -4.77 v -3.44 h 4.77 c 0.96,0 1.72,0.78 1.72,1.72 z"
         inkscape:connector-curvature="0" />
    </g>
    <g
       transform="matrix(0.26458333,0,0,0.26458333,83.461304,136.69273)"
       id="g3809">
      <path
         id="path3807"
         d="m 67.99,53.33 c 0,0.93 -0.76,1.72 -1.72,1.72 H 58.8 v -3.46 h 7.48 c 0.95,0 1.71,0.78 1.71,1.74 z"
         inkscape:connector-curvature="0" />
    </g>
    <g
       transform="matrix(0.26458333,0,0,0.26458333,83.461304,136.69273)"
       id="g3813">
      <path
         id="path3811"
         d="m 65.29,44.67 c 0,0.96 -0.76,1.72 -1.72,1.72 H 58.8 v -3.44 h 4.77 c 0.96,0 1.72,0.76 1.72,1.72 z"
         inkscape:connector-curvature="0" />
    </g>
    <path
       id="path3815"
       d="m 96.029014,161.74084 c -2.18017,0 -3.95553,-1.77536 -3.95553,-3.95552 0,-1.44198 0.7673,-2.74109 2.01613,-3.44488 v -13.45141 c 0,-1.06892 0.87048,-1.9394 1.9394,-1.9394 1.06891,0 1.93939,0.87048 1.93939,1.9394 v 13.45141 c 1.24883,0.70115 2.01613,2.0029 2.01613,3.44488 0,2.18016 -1.77536,3.95552 -3.95552,3.95552 z m 0,-22.10858 c -0.69321,0 -1.25678,0.56356 -1.25678,1.25677 v 13.86945 l -0.1905,0.0926 c -1.12712,0.55828 -1.82562,1.68011 -1.82562,2.93159 0,1.80446 1.46844,3.27289 3.2729,3.27289 1.80445,0 3.27289,-1.46843 3.27289,-3.27289 0,-1.25148 -0.6985,-2.37596 -1.82562,-2.93159 l -0.1905,-0.0926 v -13.86945 c 0,-0.69321 -0.56357,-1.25677 -1.25677,-1.25677 z"
       inkscape:connector-curvature="0"
       style="stroke-width:0.26458332" />
    <g
       transform="matrix(0.26458333,0,0,0.26458333,-84.443652,81.992751)"
       id="g3767">
      <path
         id="path3753"
         d="m 42.051,34.6 -2.723,1.13 v 0 0 0 L 5,49.963 37.772,63.623 v 0 l 4.278,1.783 1.174,-2.824 -3.444,-1.438 c 0.118,-0.176 0.227,-0.336 0.353,-0.539 0.075,-0.121 0.154,-0.274 0.23,-0.4 0.215,-0.365 0.432,-0.751 0.65,-1.183 a 20.974,20.974 0 0 0 0.912,-2.138 19.721,19.721 0 0 0 1.254,-6.884 27.524,27.524 0 0 0 -0.9,-6.752 c -0.183,-0.721 -0.377,-1.4 -0.579,-2.02 -0.192,-0.6 -0.384,-1.139 -0.571,-1.628 -0.007,-0.017 -0.014,-0.04 -0.021,-0.058 -0.154,-0.4 -0.3,-0.743 -0.43,-1.06 l 2.548,-1.057 z M 12.965,49.969 37.852,39.655 v 0 q 0.165,0.388 0.357,0.88 v 0 A 9.763,9.763 0 0 0 37.376,59.24 h 0.006 c -0.174,0.269 -0.336,0.5 -0.479,0.7 v 0 z m 27.014,-2.307 a 1.581,1.581 0 0 1 -1.348,0.909 2.011,2.011 0 0 1 0,-3.954 1.434,1.434 0 0 1 0.917,0.381 2.056,2.056 0 0 1 0.728,1.6 2.19,2.19 0 0 1 -0.297,1.064 z"
         inkscape:connector-curvature="0" />
      <rect
         id="rect3755"
         transform="rotate(-69.527,89.716784,81.439886)"
         height="10.137"
         width="3.0599999"
         y="76.371002"
         x="88.186996" />
      <rect
         id="rect3757"
         transform="rotate(-69.527,70.344056,74.207244)"
         height="10.137"
         width="3.0599999"
         y="69.139"
         x="68.814003" />
      <rect
         id="rect3759"
         transform="rotate(-69.527,50.971549,66.975823)"
         height="10.137"
         width="3.0599999"
         y="61.908001"
         x="49.442001" />
      <rect
         id="rect3761"
         transform="matrix(0.937,-0.35,0.35,0.937,-0.828,32.535)"
         height="3.0599999"
         width="10.137"
         y="17.030001"
         x="84.648003" />
      <rect
         id="rect3763"
         transform="rotate(-20.462,70.344531,25.794623)"
         height="3.0599999"
         width="10.136"
         y="24.264"
         x="65.276001" />
      <rect
         id="rect3765"
         transform="rotate(-20.463,50.971946,33.027299)"
         height="3.0599999"
         width="10.137"
         y="31.497"
         x="45.903" />
    </g>
  </g>
</svg>
