<?xml version="1.0" encoding="UTF-8" standalone="no"?>
<!-- Created with Inkscape (http://www.inkscape.org/) -->

<svg
   xmlns:dc="http://purl.org/dc/elements/1.1/"
   xmlns:cc="http://creativecommons.org/ns#"
   xmlns:rdf="http://www.w3.org/1999/02/22-rdf-syntax-ns#"
   xmlns:svg="http://www.w3.org/2000/svg"
   xmlns="http://www.w3.org/2000/svg"
   xmlns:sodipodi="http://sodipodi.sourceforge.net/DTD/sodipodi-0.dtd"
   xmlns:inkscape="http://www.inkscape.org/namespaces/inkscape"
   width="226.90446mm"
   height="226.9243mm"
   viewBox="0 0 226.90446 226.9243"
   version="1.1"
   id="svg8"
   inkscape:version="0.92.3 (2405546, 2018-03-11)"
   sodipodi:docname="syringe.svg">
  <defs
     id="defs2" />
  <sodipodi:namedview
     id="base"
     pagecolor="#ffffff"
     bordercolor="#666666"
     borderopacity="1.0"
     inkscape:pageopacity="0.0"
     inkscape:pageshadow="2"
     inkscape:zoom="0.175"
     inkscape:cx="-1061.03"
     inkscape:cy="-380.19119"
     inkscape:document-units="mm"
     inkscape:current-layer="g3751"
     showgrid="false"
     inkscape:window-width="1853"
     inkscape:window-height="1025"
     inkscape:window-x="67"
     inkscape:window-y="27"
     inkscape:window-maximized="1" />
  <metadata
     id="metadata5">
    <rdf:RDF>
      <cc:Work
         rdf:about="">
        <dc:format>image/svg+xml</dc:format>
        <dc:type
           rdf:resource="http://purl.org/dc/dcmitype/StillImage" />
        <dc:title></dc:title>
      </cc:Work>
    </rdf:RDF>
  </metadata>
  <g
     inkscape:label="Layer 1"
     inkscape:groupmode="layer"
     id="layer1"
     transform="translate(-1045.8346,524.96358)">
    <g
       id="g3751"
       transform="matrix(0.26458333,0,0,0.26458333,-359.57116,-31.416912)">
      <g
         id="g3727"
         transform="translate(5228.5715,-1948.5715)">
        <path
           id="path3713"
           d="m 580.1,223.3 c 24.9,24.9 49.9,49.9 74.8,74.8 39.5,39.5 78.9,78.9 118.4,118.4 9.1,9.1 18.2,18.2 27.3,27.3 0,-11.8 0,-23.6 0,-35.4 -5.4,5.4 -10.8,10.8 -16.1,16.1 -14.2,14.2 -28.4,28.4 -42.6,42.6 -20.2,20.2 -40.3,40.3 -60.5,60.5 -23.2,23.2 -46.4,46.4 -69.7,69.7 -23.4,23.4 -46.8,46.8 -70.2,70.2 -20.7,20.7 -41.3,41.3 -62,62 -15.1,15.1 -30.1,30.1 -45.2,45.2 -6.6,6.6 -13.1,13.2 -19.7,19.7 -0.3,0.3 -0.5,0.5 -0.8,0.8 -0.5,0.4 -1.3,1 -1.6,1.5 0,0 4.4,-2.9 2.2,-1.7 -1.2,0.7 -2.4,1.5 -3.6,2.2 -0.6,0.3 -1.3,0.6 -1.9,0.9 0,0 5.1,-1.8 2.7,-1.2 -1.8,0.4 -3.6,0.9 -5.4,1.4 -2.5,0.6 3.4,-0.4 3.2,-0.5 -0.6,-0.1 -1.5,0.1 -2.1,0.1 -1.2,0 -5.8,-0.5 -1.5,0.2 4.5,0.7 -0.4,-0.1 -1.4,-0.4 -0.7,-0.2 -1.3,-0.4 -2,-0.6 -3.2,-0.8 1.3,0.5 2.1,1 -1.1,-0.8 -2.5,-1.2 -3.7,-2 -0.6,-0.4 -1.2,-0.8 -1.8,-1.2 -2.2,-1.2 2.2,1.7 2.2,1.7 -0.5,-0.8 -1.6,-1.4 -2.2,-2.1 -3.6,-3.5 -7,-7 -10.6,-10.6 -19,-19 -38.1,-38.1 -57.1,-57.1 -22.7,-22.7 -45.3,-45.3 -68,-68 -11.4,-11.4 -23,-22.6 -34.2,-34.2 0,0 0,0 0,0 -0.5,-0.5 -1,-1.1 -1.5,-1.6 -1.8,-1.7 1.6,2.2 1.6,2.2 -0.5,-1.2 -1.6,-2.4 -2.3,-3.6 -0.3,-0.6 -0.6,-1.3 -1,-1.9 -1.4,-2.5 1.5,4.9 0.9,2.1 -0.3,-1.3 -0.8,-2.6 -1.1,-4 -0.1,-0.7 -0.2,-1.4 -0.4,-2 0,-0.1 0.4,5.8 0.5,3.2 0.1,-1.3 0.1,-2.8 0,-4.1 -0.2,-2.5 -0.6,3.3 -0.5,3.2 0.3,-1.1 0.4,-2.3 0.7,-3.4 0.3,-1.1 2,-5.4 0.3,-1.6 -1.8,3.9 0.4,-0.6 0.9,-1.4 0.5,-0.9 3.3,-4.9 0.9,-1.6 -2.4,3.2 0.3,-0.1 0.9,-0.8 0.1,-0.1 0.2,-0.2 0.3,-0.3 2.1,-2.2 4.3,-4.3 6.4,-6.4 11.3,-11.3 22.6,-22.6 33.9,-33.9 18.3,-18.3 36.6,-36.6 54.9,-54.9 22.4,-22.4 44.9,-44.9 67.3,-67.3 23.7,-23.7 47.3,-47.3 71,-71 22,-22 44,-44 66,-66 17.5,-17.5 34.9,-34.9 52.4,-52.4 10,-10 20,-20 30.1,-30.1 1.3,-1.3 2.6,-2.6 4,-4 9.3,-9.3 9.9,-26.2 0,-35.4 -10,-9.2 -25.5,-9.9 -35.4,0 -5.5,5.5 -11,11 -16.4,16.4 -14.5,14.5 -29.1,29.1 -43.6,43.6 -20.5,20.5 -41,41 -61.5,61.5 -23.5,23.5 -47,47 -70.5,70.5 -23.7,23.7 -47.3,47.3 -71,71 -20.6,20.6 -41.2,41.2 -61.8,61.8 -14.7,14.7 -29.4,29.4 -44,44 -5.8,5.8 -11.7,11.5 -17.4,17.4 -23.3,24 -23.3,62 0,86 3.3,3.4 6.7,6.7 10.1,10.1 19.1,19.1 38.2,38.2 57.3,57.3 23,23 45.9,45.9 68.9,68.9 11.2,11.2 22.2,22.6 33.6,33.6 24,23.3 62,23.2 86,0 1.7,-1.6 3.3,-3.3 5,-5 10.8,-10.8 21.5,-21.5 32.3,-32.3 18.1,-18.1 36.2,-36.2 54.3,-54.3 22.6,-22.6 45.2,-45.2 67.8,-67.8 23.9,-23.9 47.8,-47.8 71.7,-71.7 22.3,-22.3 44.6,-44.6 67,-67 17.8,-17.8 35.7,-35.7 53.5,-53.5 10.2,-10.2 20.4,-20.4 30.6,-30.6 1.4,-1.4 2.7,-2.7 4.1,-4.1 9.5,-9.5 9.6,-25.8 0,-35.4 C 811,383.1 786,358.1 761.1,333.2 721.6,293.7 682.2,254.3 642.7,214.8 c -9.1,-9.1 -18.2,-18.2 -27.3,-27.3 -9.3,-9.3 -26.2,-9.9 -35.4,0 -9,10.4 -9.8,25.9 0.1,35.8 z"
           inkscape:connector-curvature="0" />
        <path
           id="path3715"
           d="m 179.7,748.7 c 27.9,27.9 55.7,55.7 83.6,83.6 4,4 8,8 12,12 9.5,9.5 25.8,9.6 35.4,0 17.1,-17.1 34.2,-34.2 51.3,-51.3 9.5,-9.5 9.6,-25.8 0,-35.4 -27.9,-27.9 -55.7,-55.7 -83.6,-83.6 -4,-4 -8,-8 -12,-12 -9.5,-9.5 -25.8,-9.6 -35.4,0 -17.1,17.1 -34.2,34.2 -51.3,51.3 -9.3,9.3 -10,26.3 0,35.4 10,9.2 25.5,9.9 35.4,0 17.1,-17.1 34.2,-34.2 51.3,-51.3 -11.8,0 -23.6,0 -35.4,0 27.9,27.9 55.7,55.7 83.6,83.6 4,4 8,8 12,12 0,-11.8 0,-23.6 0,-35.4 -17.1,17.1 -34.2,34.2 -51.3,51.3 11.8,0 23.6,0 35.4,0 -27.9,-27.9 -55.7,-55.7 -83.6,-83.6 -4,-4 -8,-8 -12,-12 -9.3,-9.3 -26.2,-9.9 -35.4,0 -9.2,10 -9.9,25.5 0,35.4 z"
           inkscape:connector-curvature="0" />
        <path
           id="path3717"
           d="m 553.3,506.1 c 9.9,-9.9 19.7,-19.7 29.6,-29.6 23.5,-23.5 47.1,-47.1 70.6,-70.6 28.6,-28.6 57.2,-57.2 85.7,-85.7 24.6,-24.6 49.2,-49.2 73.8,-73.8 12,-12 24.3,-23.7 36,-36 0.2,-0.2 0.3,-0.3 0.5,-0.5 9.3,-9.3 9.9,-26.2 0,-35.4 -10,-9.2 -25.5,-9.9 -35.4,0 -9.9,9.9 -19.7,19.7 -29.6,29.6 -23.5,23.5 -47.1,47.1 -70.6,70.6 -28.6,28.6 -57.2,57.2 -85.7,85.7 -24.6,24.6 -49.2,49.2 -73.8,73.8 -12,12 -24.3,23.7 -36,36 -0.2,0.2 -0.3,0.3 -0.5,0.5 -9.3,9.3 -9.9,26.2 0,35.4 10,9.1 25.5,9.8 35.4,0 z"
           inkscape:connector-curvature="0" />
        <path
           id="path3719"
           d="m 933.7,258.6 c -19,-19 -38,-38 -57,-57 -30.1,-30.1 -60.3,-60.3 -90.4,-90.4 -6.9,-6.9 -13.9,-13.9 -20.8,-20.8 -9.3,-9.3 -26.2,-9.9 -35.4,0 -9.2,10 -9.9,25.5 0,35.4 19,19 38,38 57,57 30.1,30.1 60.3,60.3 90.4,90.4 6.9,6.9 13.9,13.9 20.8,20.8 9.3,9.3 26.2,9.9 35.4,0 9.1,-10 9.8,-25.5 0,-35.4 z"
           inkscape:connector-curvature="0" />
        <path
           id="path3721"
           d="m 227.5,761.2 c -15.4,15.4 -30.9,30.9 -46.3,46.3 -24.6,24.6 -49.2,49.2 -73.8,73.8 -5.7,5.7 -11.3,11.3 -17,17 -9.3,9.3 -9.9,26.2 0,35.4 10,9.2 25.5,9.9 35.4,0 15.4,-15.4 30.9,-30.9 46.3,-46.3 24.6,-24.6 49.2,-49.2 73.8,-73.8 5.7,-5.7 11.3,-11.3 17,-17 9.3,-9.3 9.9,-26.2 0,-35.4 -10,-9.2 -25.5,-9.9 -35.4,0 z"
           inkscape:connector-curvature="0" />
        <path
           id="path3723"
           d="m 663.6,581 c -24.9,-24.9 -49.9,-49.9 -74.8,-74.8 -39.5,-39.5 -78.9,-78.9 -118.4,-118.4 -9.1,-9.1 -18.2,-18.2 -27.3,-27.3 -9.3,-9.3 -26.2,-9.9 -35.4,0 -9.2,10 -9.9,25.5 0,35.4 24.9,24.9 49.9,49.9 74.8,74.8 39.5,39.5 78.9,78.9 118.4,118.4 9.1,9.1 18.2,18.2 27.3,27.3 9.3,9.3 26.2,9.9 35.4,0 9.2,-10 9.9,-25.5 0,-35.4 z"
           inkscape:connector-curvature="0" />
        <path
           id="path3725"
           d="m 533.9,177 c 10.4,10.4 20.8,20.8 31.2,31.2 24.9,24.9 49.7,49.7 74.6,74.6 30.2,30.2 60.4,60.4 90.6,90.6 26,26 52,52 78,78 12.7,12.7 25.1,25.7 38.1,38.1 0.2,0.2 0.4,0.4 0.5,0.5 9.3,9.3 26.2,9.9 35.4,0 9.2,-10 9.9,-25.5 0,-35.4 -10.4,-10.4 -20.8,-20.8 -31.2,-31.2 -24.9,-24.9 -49.7,-49.7 -74.6,-74.6 -30.2,-30.2 -60.4,-60.4 -90.6,-90.6 -26,-26 -52,-52 -78,-78 -12.7,-12.7 -25.1,-25.7 -38.1,-38.1 -0.2,-0.2 -0.4,-0.4 -0.5,-0.5 -9.3,-9.3 -26.2,-9.9 -35.4,0 -9.2,10.1 -9.9,25.6 0,35.4 z"
           inkscape:connector-curvature="0" />
      </g>
      <g
         id="g3791"
         transform="translate(2460.0293,-272.631)">
        <g
           id="g3767">
          <path
             id="path3753"
             d="m 42.051,34.6 -2.723,1.13 v 0 0 0 L 5,49.963 37.772,63.623 v 0 l 4.278,1.783 1.174,-2.824 -3.444,-1.438 c 0.118,-0.176 0.227,-0.336 0.353,-0.539 0.075,-0.121 0.154,-0.274 0.23,-0.4 0.215,-0.365 0.432,-0.751 0.65,-1.183 a 20.974,20.974 0 0 0 0.912,-2.138 19.721,19.721 0 0 0 1.254,-6.884 27.524,27.524 0 0 0 -0.9,-6.752 c -0.183,-0.721 -0.377,-1.4 -0.579,-2.02 -0.192,-0.6 -0.384,-1.139 -0.571,-1.628 -0.007,-0.017 -0.014,-0.04 -0.021,-0.058 -0.154,-0.4 -0.3,-0.743 -0.43,-1.06 l 2.548,-1.057 z M 12.965,49.969 37.852,39.655 v 0 q 0.165,0.388 0.357,0.88 v 0 A 9.763,9.763 0 0 0 37.376,59.24 h 0.006 c -0.174,0.269 -0.336,0.5 -0.479,0.7 v 0 z m 27.014,-2.307 a 1.581,1.581 0 0 1 -1.348,0.909 2.011,2.011 0 0 1 0,-3.954 1.434,1.434 0 0 1 0.917,0.381 2.056,2.056 0 0 1 0.728,1.6 2.19,2.19 0 0 1 -0.297,1.064 z"
             inkscape:connector-curvature="0" />
          <rect
             id="rect3755"
             transform="rotate(-69.527,89.716784,81.439886)"
             height="10.137"
             width="3.0599999"
             y="76.371002"
             x="88.186996" />
          <rect
             id="rect3757"
             transform="rotate(-69.527,70.344056,74.207244)"
             height="10.137"
             width="3.0599999"
             y="69.139"
             x="68.814003" />
          <rect
             id="rect3759"
             transform="rotate(-69.527,50.971549,66.975823)"
             height="10.137"
             width="3.0599999"
             y="61.908001"
             x="49.442001" />
          <rect
             id="rect3761"
             transform="matrix(0.937,-0.35,0.35,0.937,-0.828,32.535)"
             height="3.0599999"
             width="10.137"
             y="17.030001"
             x="84.648003" />
          <rect
             id="rect3763"
             transform="rotate(-20.462,70.344531,25.794623)"
             height="3.0599999"
             width="10.136"
             y="24.264"
             x="65.276001" />
          <rect
             id="rect3765"
             transform="rotate(-20.463,50.971946,33.027299)"
             height="3.0599999"
             width="10.137"
             y="31.497"
             x="45.903" />
        </g>
        <text
           id="text3771"
           font-weight="bold"
           font-size="5px"
           y="120"
           x="0"
           style="font-weight:bold;font-size:5px;font-family:'Helvetica Neue', Helvetica, Arial-Unicode, Arial, Sans-serif;fill:#000000" />
      </g>
      <g
         id="g3843"
         transform="translate(3044.9714,70.762687)">
        <path
           id="path3793"
           d="M 49.22,70.56 V 31.78 h -3.44 v 38.78 c -4.25,0.81 -7.47,4.53 -7.47,9.01 0,5.07 4.11,9.19 9.19,9.19 5.07,0 9.19,-4.11 9.19,-9.19 -0.01,-4.48 -3.22,-8.2 -7.47,-9.01 z"
           inkscape:connector-curvature="0" />
        <g
           id="g3797">
          <path
             id="path3795"
             d="m 67.94,36.03 c 0,0.93 -0.76,1.72 -1.72,1.72 h -7.48 v -3.44 h 7.48 c 0.96,0 1.72,0.76 1.72,1.72 z"
             inkscape:connector-curvature="0" />
        </g>
        <g
           id="g3801">
          <path
             id="path3799"
             d="m 67.94,18.83 c 0,0.96 -0.76,1.72 -1.72,1.72 h -7.48 v -3.44 h 7.48 c 0.96,0 1.72,0.78 1.72,1.72 z"
             inkscape:connector-curvature="0" />
        </g>
        <g
           id="g3805">
          <path
             id="path3803"
             d="m 65.24,27.37 c 0,0.96 -0.76,1.72 -1.72,1.72 h -4.77 v -3.44 h 4.77 c 0.96,0 1.72,0.78 1.72,1.72 z"
             inkscape:connector-curvature="0" />
        </g>
        <g
           id="g3809">
          <path
             id="path3807"
             d="m 67.99,53.33 c 0,0.93 -0.76,1.72 -1.72,1.72 H 58.8 v -3.46 h 7.48 c 0.95,0 1.71,0.78 1.71,1.74 z"
             inkscape:connector-curvature="0" />
        </g>
        <g
           id="g3813">
          <path
             id="path3811"
             d="m 65.29,44.67 c 0,0.96 -0.76,1.72 -1.72,1.72 H 58.8 v -3.44 h 4.77 c 0.96,0 1.72,0.76 1.72,1.72 z"
             inkscape:connector-curvature="0" />
        </g>
        <path
           id="path3815"
           d="m 47.5,94.67 c -8.24,0 -14.95,-6.71 -14.95,-14.95 0,-5.45 2.9,-10.36 7.62,-13.02 V 15.86 c 0,-4.04 3.29,-7.33 7.33,-7.33 4.04,0 7.33,3.29 7.33,7.33 V 66.7 c 4.72,2.65 7.62,7.57 7.62,13.02 0,8.24 -6.71,14.95 -14.95,14.95 z m 0,-83.56 c -2.62,0 -4.75,2.13 -4.75,4.75 v 52.42 l -0.72,0.35 c -4.26,2.11 -6.9,6.35 -6.9,11.08 0,6.82 5.55,12.37 12.37,12.37 6.82,0 12.37,-5.55 12.37,-12.37 0,-4.73 -2.64,-8.98 -6.9,-11.08 L 52.25,68.28 V 15.86 c 0,-2.62 -2.13,-4.75 -4.75,-4.75 z"
           inkscape:connector-curvature="0" />
        <text
           id="text3817"
           font-weight="bold"
           font-size="5px"
           y="115"
           x="0"
           style="font-weight:bold;font-size:5px;font-family:'Helvetica Neue', Helvetica, Arial-Unicode, Arial, Sans-serif;fill:#000000" />
      </g>
    </g>
  </g>
</svg>
