<svg xmlns="http://www.w3.org/2000/svg" xml:space="preserve" width="893.401" height="636.633" style="clip-rule:evenodd;fill-rule:evenodd;stroke-linecap:round;stroke-linejoin:round;stroke-miterlimit:1.5"><path d="m455.25 221.56 42.85 131.899h138.69l-112.2 81.52 42.86 131.9-112.2-81.52-112.205 81.52 42.857-131.9-112.202-81.52h138.69z"/><path d="m455.25 221.56 42.85 131.899h138.69l-112.2 81.52 42.86 131.9-112.2-81.52-112.205 81.52 42.857-131.9-112.202-81.52h138.69zm0 90.11 16.37 50.389a27.84 27.84 0 0 0 26.48 19.24h52.99l-42.87 31.15a27.84 27.84 0 0 0-10.11 31.13l16.37 50.4-42.87-31.15a27.84 27.84 0 0 0-32.73 0l-42.868 31.15 16.374-50.4a27.84 27.84 0 0 0-10.116-31.13l-42.868-31.15h52.988a27.83 27.83 0 0 0 26.48-19.24z"/><path d="m772.39 349.032 4.593 105.475 101.737 28.22-98.892 36.969 4.601 105.476-65.717-82.629-98.896 36.968 58.276-88.035-65.718-82.63 101.736 28.22z"/><path d="m772.39 349.032 4.593 105.475 101.737 28.22-98.892 36.969 4.601 105.476-65.717-82.629-98.896 36.968 58.276-88.035-65.718-82.63 101.736 28.22zm-24.086 86.83.86 19.855c.528 12.051 8.757 22.4 20.376 25.623l19.153 5.313-18.616 6.962a27.835 27.835 0 0 0-18.069 27.291l.868 19.856-12.372-15.55a27.84 27.84 0 0 0-31.546-8.75l-18.616 6.954 10.971-16.572a27.84 27.84 0 0 0-1.428-32.699l-12.37-15.558 19.152 5.313c11.624 3.224 24.004-1.408 30.665-11.465zM113.688 349.032l-4.594 105.475-101.736 28.22 98.892 36.969-4.602 105.476 65.718-82.629 98.896 36.968-58.277-88.035 65.719-82.63-101.736 28.22z"/><path d="m113.688 349.032-4.594 105.475-101.736 28.22 98.892 36.969-4.602 105.476 65.718-82.629 98.896 36.968-58.277-88.035 65.719-82.63-101.736 28.22zm24.086 86.83 10.972 16.573c6.66 10.057 19.04 14.69 30.665 11.465l19.152-5.313-12.37 15.558a27.84 27.84 0 0 0-1.429 32.699l10.971 16.572-18.615-6.955a27.84 27.84 0 0 0-31.547 8.751l-12.371 15.55.867-19.856A27.835 27.835 0 0 0 116 493.616l-18.616-6.963 19.153-5.313c11.62-3.223 19.849-13.572 20.377-25.623zM571.352 329.317S693.322 128.692 825.074 171.3c14.394 41.754 7.18 85.902 7.18 85.902s-95.874-49.4-260.902 72.116"/><path d="M550.577 320.757S605.01 105.464 805.767 8.544c13.758 52.5 12.603 48.078 12.603 48.078s-134.052 45.585-267.793 264.135"/><path d="M526.719 319.08s99.197-119.962 26.612-299.734C511.16 29.31 514.71 28.47 514.71 28.47s60.5 112.83 12.009 290.61M294.31 333.508S200.661 118.2 64.35 142.554c-19.92 39.417-18.757 84.136-18.757 84.136s101.685-35.947 248.716 106.818"/><path d="M332.998 325.07S273.712 111.062 70.815 18.705c-12.567 52.798-11.512 48.35-11.512 48.35s135.048 42.543 273.695 258.015"/><path d="M371.508 326.177S247.102 222.347 281.654 29.03c44.226 2.84 40.502 2.597 40.502 2.597s-36.612 123.88 49.352 294.55"/><path d="M596.116 825.861s-52.222-44.715-111.298-40.798c-18.93 12.729-21.215 67.888-21.215 67.888s50.916-8.812 62.992.326-66.909-85.839 69.521-27.416" style="fill:#fff" transform="matrix(1 0 0 1 -411.67 -637.85)"/><path d="m716.647 1006.84 65.291 44.84s29.105 25.96 64.766 5.77" style="fill:none;stroke:#fff;stroke-width:2.54px" transform="matrix(1 0 0 1 -411.67 -637.85)"/><path d="M803.439 1068.69s26.221 11.59 45.068-6.96c18.846-18.56-88.087 137.25-88.087 137.25zM916.108 1101.06l-42.609-40.87-1.639 56.85 97.509 77.84zM867.223 874.396s9.115 126.254 9.115 131.994-24.644 40.18-43.211 31.73c-18.568-8.44-113.429-41.181-130.309-41.181h121.869zM911.55 994.081s3.457 36.489-21.03 47.729c-24.486 11.23 129.63-50.806 146.34-47.729s-125.31 0-125.31 0" style="fill:#fff;stroke:#000;stroke-width:1px" transform="matrix(1 0 0 1 -411.67 -637.85)"/><path d="m859.587 1091.81-1.921 24.16-86.369 74.74s80.958-69.82 88.29-98.9M995.732 1023.27s-76.63 41.87-84.012 41.87 29.022 34.76 29.531 42.66c.509 7.89-10.183-36.41-10.183-36.41zM528.83 1091.81l18.272-32.93 30.713 11.67-48.985-72.315zM522.221 1096.21l31.101 22.16-117.02 3.88zM587.534 1076.77l-16.717 36.93 103.802-59.87z" style="fill:#fff" transform="matrix(1 0 0 1 -411.67 -637.85)"/><path d="m524.936 1160.05 36.2-30.65 1.63 17.61-12.066 12.39-33.917 93.93z" style="fill:#fff;stroke:#fff;stroke-width:2.54px" transform="matrix(1 0 0 1 -411.67 -637.85)"/><path d="m570.817 1129.4 13.8 44.68 83.161 33.26-49.244-77.94z" style="fill:#fff" transform="matrix(1 0 0 .93967 -413.379 -567.361)"/><path d="m1182.99 996.858-34.21 109.392-78.98-31.77 23.94 35.57-4.9 11.63-58.36-71.13 96.79 29.88 54.85-86.349M1096.45 1131.75l40.13 3.83-40.13 35.75-58.6 41.33zM1136.58 1176.92l9-38.18 22.12 27.48 23.59 83.89zM1191.29 1095.21s-30.4 26.47-42.55 26.47h128.88zM1153.84 1140.93l16.29 19.94 21.16-6.32z" style="fill:#fff" transform="matrix(1 0 0 1 -411.67 -637.85)"/><path d="M1182.99 1015.43v71.12" style="fill:none;stroke:#fff;stroke-width:2.54px" transform="matrix(1 0 0 1 -411.67 -637.85)"/><path d="M581.611 724.172s-70.294-52.94-95.427-58.288c.802 16.31-9.464 36.568-9.464 36.568 21.319.884 43.94 18.773 62.404 33.217 0 0-78.393-63.368 42.487-11.497M698.263 670.894l28.913 2.628s-14.676 97.637-1.972 132.954-51.911-106.345-26.941-135.582M932.316 670.894s26.61-8.435 31.339-5.01c5.856 4.241 13.858 139.736-1.095 175.729-2.67-58.529-11.006-145.502-30.244-170.719M1158.75 816.05s52.78 4.611 50.06 25.563c-2.72 20.953-88.65 29.332-125.08 60.322 48.19-16.746 100.33-32.251 156.67-11.105 1.93-5.641 1.51-65.734-5.39-78.739-17.9-5.025-55.69-11.243-76.26 3.959M1175.72 675.507s38.93-18.82 30.81 12.77c-23.92 16.823-75.61 58.776-80.07 67.495 42.16-36.077 99.33-63.847 99.33-63.847l-8.72-41.958s-32.64 14.594-41.35 25.54" style="fill:#fff" transform="matrix(1 0 0 1 -411.67 -637.85)"/></svg>