<svg xmlns="http://www.w3.org/2000/svg" xml:space="preserve" width="1067.981" height="1215.922" style="clip-rule:evenodd;fill-rule:evenodd;stroke-linecap:round;stroke-linejoin:round;stroke-miterlimit:1.5"><path d="M809.92 883.19V609.076l-155.246-81.057 47.246-84.374 108 56.388V387.781h99.334v112.252l107.996-56.388 47.79 29.571-.54 54.803-30.69-54.803 30.69 54.803-155.246 81.057V883.19l237.386-137.057-7.42-174.976 96.69-1.27 5.17 121.725 97.21-56.126 47.81 29.75 1.86 56.276-97.21 56.126 102.83 65.336-49.45 83.104-147.82-93.919-237.389 137.057 237.389 137.054 147.82-93.92 49.45 83.11-102.83 65.33 97.21 56.13-49.67 86.03-97.21-56.13-5.17 121.73-49.5 26.59-47.19-27.87 7.42-174.97-237.386-137.06v274.12l155.246 81.05-47.25 84.38-107.996-56.39v112.25l-49.667 26.53-49.667-26.53V1438.4l-108 56.39-47.246-84.38 155.246-81.05v-274.12L572.53 1192.3l7.427 174.97-96.694 1.28-5.166-121.73-97.213 56.13-49.667-86.03 97.213-56.13-102.834-65.33 49.447-83.11 147.82 93.92 237.39-137.054-237.39-137.057-147.82 93.919-49.447-83.104 102.834-65.336-97.213-56.126 49.667-86.026 97.213 56.126 5.166-121.725 49.503-26.6 47.191 27.87-7.427 174.976zm-155.787 582.03 47.787 29.57-47.246-84.38zm410.907 0-47.79 29.57 47.25-84.38zm-532.274-70.08-49.503-26.59 96.694-1.28zM333.078 1273.2l-1.861-56.28 49.667 86.03zm1053.022 0-47.81 29.75 49.67-86.03zM327.311 1039.29l-1.715 56.17 49.447-83.11zm1064.549 0 1.72 56.17-49.45-83.11zm0-140.145 1.72-56.171-49.45 83.104zm-1064.549 0-1.715-56.171 49.447 83.104zm5.767-233.909 47.806-29.75-49.667 86.026zm853.332-121.949 49.5 26.6-96.69 1.27zm-532.277-70.071 47.787-29.571-47.246 84.374zm205.454-111.961 49.667 26.526H809.92Z" style="fill:#2f2f2f" transform="matrix(1 0 0 1 -325.595 -361.254)"/><path d="m586.128 1178.85-24.761 8.74 8.739 167.99-18.935 18.45" style="fill:none;stroke:#fff;stroke-width:4.17px" transform="matrix(1 0 0 1 -325.595 -361.254)"/><path d="m1145.3 574.459 41.99-27.901 45.53 27.607s-26.7-16.153-40.3-1.469c-13.59 14.685-10.51 16.447-10.51 16.447l17.03 152.72s-9.4 25.845-47.28 1.175c-2.64-10.573-6.46-168.579-6.46-168.579" style="fill:#fff" transform="matrix(1 0 0 1 -325.595 -361.254)"/><path d="m859.587 370.426 37.149 17.355s-40.697 7.384-37.149 5.537c3.548-1.846 15.958 3.696 7.979-5.537-7.979-9.232-23.262 0-23.262 0l5.462 19.097-6.939 104.596-26.954-11.447V392.211Z" style="fill:#fff;stroke:#000;stroke-width:1px" transform="matrix(1 0 0 1 -325.595 -361.254)"/><path d="m904.137 391.954.755 106.856-21.145 30.032z" style="fill:#fff" transform="matrix(1 0 0 1 -325.595 -361.254)"/><path d="m665.057 478.527 15.231 16.154 16.154-13.385 146.771 71.54 2.769-35.078-141.694-66.462zM815.873 613.064s31.693-16.57 40.431-50.807c8.739-34.238 0 375.832 0 375.832l-32.517-57.502zM909.254 502.066l-42.994 50.77 152.25-67.004 39.32-8.58-38.32-25.956z" style="fill:#fff;stroke:#000;stroke-width:1px" transform="matrix(1 0 0 1 -325.595 -361.254)"/><path d="M496.7 569.098s32.522-20.361 30.542-11.594l-3.498 15.494-10.699 140.272-24.166-22.785ZM370.005 915.782l-36.682-19.628-1.608-46.334 56.309 22.202s-18.019-5.792-21.237 14.479-1.608 24.776 3.218 29.281" style="fill:#fff;stroke:#fff;stroke-width:1px" transform="matrix(1 0 0 1 -325.595 -361.254)"/><path d="M433.854 782.217s68.643 12.871 100.463-3.575-159.097 60.421-142.651 88.307c-21.451-23.954-76.262-13.586-54.462-21.808 21.799-8.223 96.65-62.924 96.65-62.924" style="fill:#fff" transform="matrix(1 0 0 1 -325.595 -361.254)"/><path d="m380.508 642.956.295 40.358-43.599 29.956v-44.096s46.545-35.645 35.645-21.505-37.118 42.715-25.04 40.653 32.699-45.366 32.699-45.366M388.024 648.988s16.283 29.89 8.142 38.375c-8.142 8.486 443.713 265.733 443.713 265.733s4.394-33.682-35.633-64.434S570.43 749.056 570.43 749.056s-33.35 13.179-47.838-7.81-33.713-36.122-33.713-36.122zM332.173 1087.02c1.837-14.57 28.508-35.73 40.253-18.11 57.999 15.1 103.512 46.54 147.91 79.43 105.015-72.49 214.072-129.62 324.292-182.33-41.13 21.037-74.967 24.962-85.939 9.601L540.31 1116.62c-24.279 12.12-88.481-27.4-160.598-92.24l-39.988 19.32s-8.77 52.99-7.551 43.32M538.01 1161.54s-19.966 14.14-99.418 2.49c-79.451 54.08-96.922 53.4-95.674 56.86s-4.16 47.97-4.16 47.97l39.102 26.21 6.655-49.5s-22.462-52.42 153.495-84.03" style="fill:#fff;stroke:#fff;stroke-width:1px" transform="matrix(1 0 0 1 -325.595 -361.254)"/><path d="M481.379 1245.61s53.841-8.86 59.975-43.28c6.133-34.42-29.988 153.69-8.52 164.59 21.469 10.91 14.313 14.31 14.313 14.31l-13.631 7.84-43.278-22.15zM570.093 1176.71l274.535-160.66-197.476 128.68ZM859.587 1005.84c-10.23 21.98-20.804 77.75-45.292 51.75-2.079 24.56 12.008 273.55-.211 266.93l21.879 15.33-26.043-2.07c10.013 5.35 25.418 13.25-149.206 77.54l-1.034 51.7c6.495-29.48 19.202-41.87 42.24-25.85 37.249-24.6 61.346-43.73 135.594-83.75l11.373-12.4s-23.419-201.72 10.7-339.18" style="fill:#fff" transform="matrix(1 0 0 1 -325.595 -361.254)"/><path d="M909.254 892.36s10.203 49.044-29.377 67.544c-39.579 18.499 329.233-199.197 329.233-199.197s-53.43 10.176-56.44-11.335c-62.38 44.312-243.416 142.988-243.416 142.988" style="fill:#fff;stroke:#fff;stroke-width:1px" transform="matrix(1 0 0 1 -325.595 -361.254)"/><path d="M1384 667.923s-45.08-17.47-31.53 0c11.16 14.403-34.68 16.346-129.59 89.923 0 0 54.24-44.838 22.95-62.577 42.62-17.984 93.33-53.215 93.33-53.215zM1287.1 779.577c8.4 2.626-19.89 23.654-72.32 25.263 61.93-2.418 148.08 19.265 114.79 39.91l35.74 21.023 26.07-19.762zM950.379 977.409s-30.304 11.914-65.958 2.804c-35.655-9.111 296.509 159.077 296.509 159.077h33.85l143.45-86.2 23.13 4.91 6.6-11.91-40.24-25.93-147.16 94.42zM1190.63 1166.49s78.23 15.89 95.34 2.06c31.46 18.96 96.87 52.79 96.87 52.79l-.51 47.67zM902.077 1312.71l-1.791 19.71-18.543 20.6 120.657 72.56 36.28 13.44 7.17 19.7 11.65-2.69 1.79-38.96-146.016-78.38z" style="fill:#fff" transform="matrix(1 0 0 1 -325.595 -361.254)"/><path d="m816.542 1440.95 43.045-29.35v127.19l44.198 7.34-44.198 25.28-45.083-24.06zM1158.14 1200.99l-7.23 163.09 28.38 21.64 4.46-22.19-12.25-12.81z" style="fill:#fff;stroke:#fff;stroke-width:1px" transform="matrix(1 0 0 1 -325.595 -361.254)"/><path d="m1150.91 1176.2-251.454-141.71 4.329 291.69M1059.29 491.312v29.136l-159.834 85.167v286.131s11.601 50.801-22.765 67.237M530.493 555.873l42.106 20.074-5.876 164.997s-9.792 14.688-44.064-7.344M373.691 913.931l140.762-89.965 8.206-1.836 242.716 136.853 6.12 14.313s34.885 12.99 65.485-14.313M1378.95 671.237l3.35 43.645s-72.74 41.406-102.21 56.7M1228.24 579.471l6.34 118.997s17.91 21.43-6.34 47.272M1372.33 1272.05l-33.49 20.71-104.24-56.64-6.36 124.55-34.96 18.88M1054.53 1467.02l-35.8 15.54-115.342-57.95-2.841 111.36-13.352 2.85" style="fill:none;stroke:#fff;stroke-width:4.17px" transform="matrix(1 0 0 1 -325.595 -361.254)"/></svg>