<svg xmlns="http://www.w3.org/2000/svg" xml:space="preserve" width="649.093" height="748.274" style="clip-rule:evenodd;fill-rule:evenodd;stroke-linecap:round;stroke-linejoin:round;stroke-miterlimit:1.5"><g transform="matrix(.7554 0 0 1.21874 -3611.954 -1221.008)"><ellipse cx="5211.13" cy="1555.84" rx="429.629" ry="59.991"/><path d="M5211.13 1495.85c237.11 0 429.63 26.88 429.63 59.99s-192.52 59.99-429.63 59.99c-237.12 0-429.63-26.88-429.63-59.99s192.51-59.99 429.63-59.99m0 2.09c165.39 0 309.02 13.07 380.3 32.26 14.92 4.01 26.62 8.28 34.56 12.77 7.33 4.15 11.4 8.42 11.4 12.87 0 4.46-4.07 8.73-11.4 12.87-7.94 4.49-19.64 8.76-34.56 12.78-71.28 19.19-214.91 32.26-380.3 32.26-165.4 0-309.02-13.07-380.31-32.26-14.92-4.02-26.61-8.29-34.56-12.78-7.33-4.14-11.4-8.41-11.4-12.87 0-4.45 4.07-8.72 11.4-12.87 7.95-4.49 19.64-8.76 34.56-12.77 71.29-19.19 214.91-32.26 380.31-32.26"/></g><path d="M0 655.139h649.086v25.446H0z"/><path d="M649.092 655.139H0v25.446h649.092zm-2.54 2.54v20.361H2.54v-20.36z"/><g transform="matrix(.7554 0 0 1.21874 -3611.954 -1242.932)"><ellipse cx="5211.13" cy="1555.84" rx="429.629" ry="59.991" style="fill:#fff"/><path d="M5211.13 1495.85c237.11 0 429.63 26.88 429.63 59.99s-192.52 59.99-429.63 59.99c-237.12 0-429.63-26.88-429.63-59.99s192.51-59.99 429.63-59.99m0 2.09c165.39 0 309.02 13.07 380.3 32.26 14.92 4.01 26.62 8.28 34.56 12.77 7.33 4.15 11.4 8.42 11.4 12.87 0 4.46-4.07 8.73-11.4 12.87-7.94 4.49-19.64 8.76-34.56 12.78-71.28 19.19-214.91 32.26-380.3 32.26-165.4 0-309.02-13.07-380.31-32.26-14.92-4.02-26.61-8.29-34.56-12.78-7.33-4.14-11.4-8.41-11.4-12.87 0-4.45 4.07-8.72 11.4-12.87 7.95-4.49 19.64-8.76 34.56-12.77 71.29-19.19 214.91-32.26 380.31-32.26"/></g><g transform="matrix(.66273 0 0 1.16407 -3129.017 -1161.153)"><ellipse cx="5211.13" cy="1555.84" rx="429.629" ry="59.991"/><path d="M5211.13 1495.85c237.11 0 429.63 26.88 429.63 59.99s-192.52 59.99-429.63 59.99c-237.12 0-429.63-26.88-429.63-59.99s192.51-59.99 429.63-59.99m0 2.19c165.26 0 308.78 13.04 380 32.22 14.86 4 26.51 8.25 34.43 12.72 7.31 4.14 11.36 8.41 11.36 12.86s-4.05 8.73-11.36 12.86c-7.92 4.48-19.57 8.73-34.43 12.73-71.22 19.18-214.74 32.22-380 32.22-165.27 0-308.78-13.04-380.01-32.22-14.86-4-26.51-8.25-34.43-12.73-7.31-4.13-11.36-8.41-11.36-12.86s4.05-8.72 11.36-12.86c7.92-4.47 19.57-8.72 34.43-12.72 71.23-19.18 214.74-32.22 380.01-32.22"/></g><path d="M39.816 605.328H609.27v49.805H39.816z"/><path d="M609.276 605.328H39.816v49.804h569.46zm-2.543 2.537v44.722H42.359v-44.722z"/><g transform="matrix(.66273 0 0 1.16407 -3129.017 -1205.783)"><ellipse cx="5211.13" cy="1555.84" rx="429.629" ry="59.991" style="fill:#fff"/><path d="M5211.13 1495.85c237.11 0 429.63 26.88 429.63 59.99s-192.52 59.99-429.63 59.99c-237.12 0-429.63-26.88-429.63-59.99s192.51-59.99 429.63-59.99m0 2.19c165.26 0 308.78 13.04 380 32.22 14.86 4 26.51 8.25 34.43 12.72 7.31 4.14 11.36 8.41 11.36 12.86s-4.05 8.73-11.36 12.86c-7.92 4.48-19.57 8.73-34.43 12.73-71.22 19.18-214.74 32.22-380 32.22-165.27 0-308.78-13.04-380.01-32.22-14.86-4-26.51-8.25-34.43-12.73-7.31-4.13-11.36-8.41-11.36-12.86s4.05-8.72 11.36-12.86c7.92-4.47 19.57-8.72 34.43-12.72 71.23-19.18 214.74-32.22 380.01-32.22"/></g><ellipse cx="792.285" cy="1322.27" rx="187.897" ry="26.136" transform="matrix(1.0986 0 0 1.97443 -545.853 -2012.364)"/><path d="M324.543 0c177.124 0 320.931 143.81 320.931 320.934 0 177.136-143.807 320.943-320.931 320.943C147.407 641.877 3.6 498.07 3.6 320.934 3.6 143.81 147.407 0 324.543 0m0 53.96c147.345 0 266.979 119.629 266.979 266.974 0 147.357-119.634 266.99-266.98 266.99-147.356 0-266.978-119.633-266.978-266.99 0-147.345 119.622-266.974 266.979-266.974"/><path d="m175.397 577.186-45.852-178.05 43.13-91.335 90.113 64.405 37.882 200.53z"/><path d="m383.055 581.331 68.86-345.58-66.31-142.817-131.34 133.898 15.3 364.699z"/><path d="m353.09 556.36 115.095-164.276L528.601 365l4.942 68.948-81.63 137.066z"/><path d="M4919.28 875.793 4799.2 1006.22l90.83 66.61 80.46-58.91zM4793.22 1006.22l12.48 135.59 72.02 103.01 12.31-163.44zM4984.99 1013.92l-88.54 64-13.32 171.94 35.32 40.85zM4709.57 1092.33l-39.17 80.63 106 44.04 11.08-69.19zM4670.4 1176.4l35.37 133.68 150.87 29.03-87.57-108.32zM4793 1155.86l-12.41 63.79 80.64 118.38 98.62 5.82zM5060.19 1146.32l-50.81 21.47-1.32 14.24 6.56 35.98 50.77-16.3zM5004.1 1172.33l7.03 46.2-72.16 95.85-17.71-23.71zM5065.39 1211.06l-51.24 11.12-71.35 90.66 43.32 26.27z" style="fill:#fff" transform="matrix(1 0 0 1 -4534.192 -776.806)"/><path d="M523.414 580.121s73.68 47.12-135.936 69.83c63.946 0 16.092 16.51 16.092 16.51 35.626 11.94 321.903-41.23 146.474-100.03-24.21 2.12-26.63 13.69-26.63 13.69"/><path d="m611.373 623.95-.25 33.39s-14.37 45.99-214.003 62.45c201.093-8.87 304.593-61.44 214.253-95.84"/><path d="M662.893 1347.1c-52.88 9.83-137.824 79.66 223.717 97.86" style="fill:none;stroke:#000;stroke-width:2.92px" transform="matrix(1 0 0 1 -553.163 -776.806)"/><path d="M696.101 1363.16s27.892 38.44 190.509 31.07" style="fill:none;stroke:#fff;stroke-width:4.17px" transform="matrix(1 0 0 1 -553.163 -776.806)"/><path d="M402.744 152.338s17.643 83.824-46.919 138.044c31.389-15.7 73.315-53.27 73.315-53.27zM350.643 476.031l31.667 27.89 66.954-264.48-52.609 38.63s54.139-32.17 27.27 23.72c-33.904 145.99-41.095 164.9-41.095 164.9s-12.551 10.7-23.185-2.53c-6.83-40.48-9.54 3.27-9.002 11.87"/><path d="M725.665 1311.77s56.986 68.07 149.942 27.34c-33.059-26.12-100.023-31.6-100.023-31.6z" style="fill:#fff;stroke:#fff;stroke-width:5px" transform="matrix(1 0 0 1 -553.163 -776.806)"/><path d="M885.431 1329.81s-8.961 22.57-21.818 25.69c-12.857 3.11 182.257-3.4 166.367-16.39s-68.215-24.91-68.215-24.91-47.503 34.67-76.334 15.61" style="fill:#fff" transform="matrix(1 0 0 1 -553.163 -776.806)"/><path d="M267.431 399.591s129.369 142.19 73.763 152.45l-24.897 27.42 118.786-6.71s-146.608-151.42-167.652-173.16M495.574 451.931s37.73-19.56 7.03 14.61-67.521 85.93-67.521 85.93-10.152-14.41-26.882-14.9c23.406 19.25 26.882 32.94 26.882 32.94l38.76-6.94-19.25-11.27 74.33-115.74z"/><path d="m184.63 436.561 35.464 25.7 92.62 100.04-78.503-104.18zM172.5 516.911s4.152 72.7 133.921 48.2c-49.673-17.88-87.126 10.18-133.921-48.2M166.09 351.782s5.974-26.25 28.647-7.45c22.673 18.81 59.89 28.99 37.951 76.78 1.567 7.06-19.979-1.56-19.979-1.56l26.751 14.89 13.82-58.94-76.611-54.56zM264.396 244.062l11.032 35.1s90.22 25.57 49.121 112.82c-4.994 21.57-18.128-2-18.128-2l33.192 64.69 9.317-144.42zM501.474 383.381s34.98 9.68-16.69 51.06c33.06-13.19 42.36-13.51 42.36-13.51l-4.17-45.43z"/><path d="M902.096 823.676s-218.981-39.028-294.193 207.534c-41.72 214.57 110.188 306.84 193.623 323.06" style="fill:none;stroke:#fff;stroke-width:5px" transform="matrix(1 0 0 1 -553.163 -776.806)"/><path d="M881.214 782.883s188.916-6.076 278.436 179.557c79.22 164.27-15.76 327.41-88.5 391.83" style="fill:none;stroke:#fff;stroke-width:5px" transform="matrix(1 0 0 1 -553.163 -776.806)"/><path d="M912.452 791.799C679.404 750.912 448.466 1039.38 635.904 1292.6" style="fill:none;stroke:#fff;stroke-width:16.96px" transform="matrix(1 0 0 1 -553.163 -776.803)"/><path d="M893.339 816.753c222.431 20.924 401.261 328.807 136.821 516.967" style="fill:none;stroke:#fff;stroke-width:16.96px" transform="matrix(1 0 0 1 -553.163 -776.803)"/><path d="m778.378 879.072 21.174 16.542s-110.499 110.776-97.266 136.306c-21.173-34.029-63.52 0-63.52 0s46.892-132.336 139.612-152.848" style="fill:#fff;stroke:#000;stroke-width:5px" transform="matrix(1 0 0 1 -553.163 -776.803)"/><path d="M309.59 53.135s113.842-9.768 195.014 48.5c-51.29-61.687-180.055-72.751-180.055-72.751s-11.79 18.525-14.959 24.25"/><path d="M630.816 1298.97s58.058 63.81 97.72 72.72c-52.886-30.54-60.943-46.27-85.648-84.5-19.544-22.71-12.072 11.78-12.072 11.78" style="fill:#fff" transform="matrix(1 0 0 1 -553.163 -776.803)"/></svg>