<?xml version="1.0" encoding="UTF-8" standalone="no"?>
<svg
   width="649.09283"
   height="748.27429"
   viewBox="0 0 649.09283 748.27429"
   version="1.1"
   xml:space="preserve"
   style="clip-rule:evenodd;fill-rule:evenodd;stroke-linecap:round;stroke-linejoin:round;stroke-miterlimit:1.5"
   id="svg3882"
   sodipodi:docname="crystalisation.svg"
   inkscape:version="1.2.2 (732a01da63, 2022-12-09, custom)"
   xmlns:inkscape="http://www.inkscape.org/namespaces/inkscape"
   xmlns:sodipodi="http://sodipodi.sourceforge.net/DTD/sodipodi-0.dtd"
   xmlns="http://www.w3.org/2000/svg"
   xmlns:svg="http://www.w3.org/2000/svg"><defs
   id="defs3886" /><sodipodi:namedview
   id="namedview3884"
   pagecolor="#505050"
   bordercolor="#eeeeee"
   borderopacity="1"
   inkscape:showpageshadow="0"
   inkscape:pageopacity="0"
   inkscape:pagecheckerboard="0"
   inkscape:deskcolor="#505050"
   showgrid="false"
   inkscape:zoom="0.11865259"
   inkscape:cx="303.40678"
   inkscape:cy="223.3411"
   inkscape:window-width="1850"
   inkscape:window-height="1016"
   inkscape:window-x="0"
   inkscape:window-y="0"
   inkscape:window-maximized="1"
   inkscape:current-layer="svg3882" />
    <g
   id="Crystallisation"
   transform="matrix(0.829192,0,0,1.09268,-553.1633,-2033.8551)">
        
        <g
   id="Layer1"
   transform="matrix(1.20599,0,0,0.915179,-457.841,170.765)">
            <g
   transform="matrix(0.967103,0,0,0.888305,43.8825,293.949)"
   id="g3714">
                <g
   transform="matrix(0.781101,0,0,1.37199,-2815.67,374.092)"
   id="g3700">
                    <ellipse
   cx="5211.1299"
   cy="1555.84"
   rx="429.629"
   ry="59.991001"
   id="ellipse3696" />
                    <path
   d="m 5211.13,1495.85 c 237.11,0 429.63,26.88 429.63,59.99 0,33.11 -192.52,59.99 -429.63,59.99 -237.12,0 -429.63,-26.88 -429.63,-59.99 0,-33.11 192.51,-59.99 429.63,-59.99 z m 0,2.09 c 165.39,0 309.02,13.07 380.3,32.26 14.92,4.01 26.62,8.28 34.56,12.77 7.33,4.15 11.4,8.42 11.4,12.87 0,4.46 -4.07,8.73 -11.4,12.87 -7.94,4.49 -19.64,8.76 -34.56,12.78 -71.28,19.19 -214.91,32.26 -380.3,32.26 -165.4,0 -309.02,-13.07 -380.31,-32.26 -14.92,-4.02 -26.61,-8.29 -34.56,-12.78 -7.33,-4.14 -11.4,-8.41 -11.4,-12.87 0,-4.45 4.07,-8.72 11.4,-12.87 7.95,-4.49 19.64,-8.76 34.56,-12.77 71.29,-19.19 214.91,-32.26 380.31,-32.26 z"
   id="path3698" />
                </g>
                <g
   transform="matrix(0.976266,0,0,0.487998,-3494.11,1796.34)"
   id="g3706">
                    <rect
   x="4520.5601"
   y="1413.55"
   width="687.48401"
   height="58.701"
   id="rect3702" />
                    <path
   d="m 5208.05,1413.55 h -687.49 v 58.7 h 687.49 z m -2.69,5.86 v 46.97 c 0,0 -635.53,0 -682.11,0 0,0 0,-46.97 0,-46.97 0,0 682.11,0 682.11,0 z"
   id="path3704" />
                </g>
                <g
   transform="matrix(0.781101,0,0,1.37199,-2815.67,349.412)"
   id="g3712">
                    <ellipse
   cx="5211.1299"
   cy="1555.84"
   rx="429.629"
   ry="59.991001"
   style="fill:#ffffff"
   id="ellipse3708" />
                    <path
   d="m 5211.13,1495.85 c 237.11,0 429.63,26.88 429.63,59.99 0,33.11 -192.52,59.99 -429.63,59.99 -237.12,0 -429.63,-26.88 -429.63,-59.99 0,-33.11 192.51,-59.99 429.63,-59.99 z m 0,2.09 c 165.39,0 309.02,13.07 380.3,32.26 14.92,4.01 26.62,8.28 34.56,12.77 7.33,4.15 11.4,8.42 11.4,12.87 0,4.46 -4.07,8.73 -11.4,12.87 -7.94,4.49 -19.64,8.76 -34.56,12.78 -71.28,19.19 -214.91,32.26 -380.3,32.26 -165.4,0 -309.02,-13.07 -380.31,-32.26 -14.92,-4.02 -26.61,-8.29 -34.56,-12.78 -7.33,-4.14 -11.4,-8.41 -11.4,-12.87 0,-4.45 4.07,-8.72 11.4,-12.87 7.95,-4.49 19.64,-8.76 34.56,-12.77 71.29,-19.19 214.91,-32.26 380.31,-32.26 z"
   id="path3710" />
                </g>
            </g>
            <g
   transform="matrix(0.848457,0,0,0.848457,192.753,345.021)"
   id="g3734">
                <g
   transform="matrix(0.781101,0,0,1.37199,-2815.67,402.013)"
   id="g3720">
                    <ellipse
   cx="5211.1299"
   cy="1555.84"
   rx="429.629"
   ry="59.991001"
   id="ellipse3716" />
                    <path
   d="m 5211.13,1495.85 c 237.11,0 429.63,26.88 429.63,59.99 0,33.11 -192.52,59.99 -429.63,59.99 -237.12,0 -429.63,-26.88 -429.63,-59.99 0,-33.11 192.51,-59.99 429.63,-59.99 z m 0,2.19 c 165.26,0 308.78,13.04 380,32.22 14.86,4 26.51,8.25 34.43,12.72 7.31,4.14 11.36,8.41 11.36,12.86 0,4.45 -4.05,8.73 -11.36,12.86 -7.92,4.48 -19.57,8.73 -34.43,12.73 -71.22,19.18 -214.74,32.22 -380,32.22 -165.27,0 -308.78,-13.04 -380.01,-32.22 -14.86,-4 -26.51,-8.25 -34.43,-12.73 -7.31,-4.13 -11.36,-8.41 -11.36,-12.86 0,-4.45 4.05,-8.72 11.36,-12.86 7.92,-4.47 19.57,-8.72 34.43,-12.72 71.23,-19.18 214.74,-32.22 380.01,-32.22 z"
   id="path3718" />
                </g>
                <g
   transform="matrix(0.976266,0,0,1,-3494.11,1070.46)"
   id="g3726">
                    <rect
   x="4520.5601"
   y="1413.55"
   width="687.48401"
   height="58.701"
   id="rect3722" />
                    <path
   d="m 5208.05,1413.55 h -687.49 v 58.7 h 687.49 z m -3.07,2.99 v 52.71 c 0,0 -631.85,0 -681.35,0 0,0 0,-52.71 0,-52.71 0,0 681.35,0 681.35,0 z"
   id="path3724" />
                </g>
                <g
   transform="matrix(0.781101,0,0,1.37199,-2815.67,349.412)"
   id="g3732">
                    <ellipse
   cx="5211.1299"
   cy="1555.84"
   rx="429.629"
   ry="59.991001"
   style="fill:#ffffff"
   id="ellipse3728" />
                    <path
   d="m 5211.13,1495.85 c 237.11,0 429.63,26.88 429.63,59.99 0,33.11 -192.52,59.99 -429.63,59.99 -237.12,0 -429.63,-26.88 -429.63,-59.99 0,-33.11 192.51,-59.99 429.63,-59.99 z m 0,2.19 c 165.26,0 308.78,13.04 380,32.22 14.86,4 26.51,8.25 34.43,12.72 7.31,4.14 11.36,8.41 11.36,12.86 0,4.45 -4.05,8.73 -11.36,12.86 -7.92,4.48 -19.57,8.73 -34.43,12.73 -71.22,19.18 -214.74,32.22 -380,32.22 -165.27,0 -308.78,-13.04 -380.01,-32.22 -14.86,-4 -26.51,-8.25 -34.43,-12.73 -7.31,-4.13 -11.36,-8.41 -11.36,-12.86 0,-4.45 4.05,-8.72 11.36,-12.86 7.92,-4.47 19.57,-8.72 34.43,-12.72 71.23,-19.18 214.74,-32.22 380.01,-32.22 z"
   id="path3730" />
                </g>
            </g>
            <g
   transform="matrix(1.0986,0,0,1.97443,386.949,-165.101)"
   id="g3738">
                <ellipse
   cx="792.28497"
   cy="1322.27"
   rx="187.897"
   ry="26.136"
   id="ellipse3736" />
            </g>
            <g
   transform="matrix(1.12332,0,0,1.12332,-4223.78,808.828)"
   id="g3742">
                <path
   d="m 4879.4,924.438 c 157.68,0 285.7,128.022 285.7,285.702 0,157.69 -128.02,285.71 -285.7,285.71 -157.69,0 -285.71,-128.02 -285.71,-285.71 0,-157.68 128.02,-285.702 285.71,-285.702 z m 0,48.036 c 131.17,0 237.67,106.496 237.67,237.666 0,131.18 -106.5,237.68 -237.67,237.68 -131.18,0 -237.67,-106.5 -237.67,-237.68 0,-131.17 106.49,-237.666 237.67,-237.666 z"
   id="path3740" />
            </g>
            <g
   transform="matrix(0.866132,-0.0895894,0.0895894,0.866132,-3166.63,1679.56)"
   id="g3746">
                <path
   d="m 4795.28,1356.03 -31.34,-208.81 60.06,-99.24 95.33,84.22 19.58,233.55 z"
   id="path3744" />
            </g>
            <g
   transform="translate(-3625.27,1044.56)"
   id="g3750">
                <path
   d="m 4941.13,1384.04 68.86,-345.58 -66.31,-142.818 -131.34,133.898 15.3,364.7 z"
   id="path3748" />
            </g>
            <g
   transform="matrix(1.04908,0,0,1.03697,-3854.89,987.388)"
   id="g3754">
                <path
   d="m 4900.28,1365.75 109.71,-158.42 57.59,-26.12 4.71,66.49 -77.81,132.18 z"
   id="path3752" />
            </g>
            <g
   transform="translate(-3601.4,1070.46)"
   id="g3758">
                <path
   d="m 4919.28,875.793 -120.08,130.427 90.83,66.61 80.46,-58.91 z"
   style="fill:#ffffff"
   id="path3756" />
            </g>
            <g
   transform="translate(-3601.4,1070.46)"
   id="g3762">
                <path
   d="m 4793.22,1006.22 12.48,135.59 72.02,103.01 12.31,-163.44 z"
   style="fill:#ffffff"
   id="path3760" />
            </g>
            <g
   transform="translate(-3601.4,1070.46)"
   id="g3766">
                <path
   d="m 4984.99,1013.92 -88.54,64 -13.32,171.94 35.32,40.85 z"
   style="fill:#ffffff"
   id="path3764" />
            </g>
            <g
   transform="translate(-3601.4,1070.46)"
   id="g3770">
                <path
   d="m 4709.57,1092.33 -39.17,80.63 106,44.04 11.08,-69.19 z"
   style="fill:#ffffff"
   id="path3768" />
            </g>
            <g
   transform="translate(-3601.4,1070.46)"
   id="g3774">
                <path
   d="m 4670.4,1176.4 35.37,133.68 150.87,29.03 -87.57,-108.32 z"
   style="fill:#ffffff"
   id="path3772" />
            </g>
            <g
   transform="translate(-3601.4,1070.46)"
   id="g3778">
                <path
   d="m 4793,1155.86 -12.41,63.79 80.64,118.38 98.62,5.82 z"
   style="fill:#ffffff"
   id="path3776" />
            </g>
            <g
   transform="translate(-3601.4,1070.46)"
   id="g3782">
                <path
   d="m 5060.19,1146.32 -50.81,21.47 -1.32,14.24 6.56,35.98 50.77,-16.3 z"
   style="fill:#ffffff"
   id="path3780" />
            </g>
            <g
   transform="translate(-3601.4,1070.46)"
   id="g3786">
                <path
   d="m 5004.1,1172.33 7.03,46.2 -72.16,95.85 -17.71,-23.71 z"
   style="fill:#ffffff"
   id="path3784" />
            </g>
            <g
   transform="translate(-3601.4,1070.46)"
   id="g3790">
                <path
   d="m 5065.39,1211.06 -51.24,11.12 -71.35,90.66 43.32,26.27 z"
   style="fill:#ffffff"
   id="path3788" />
            </g>
            <g
   transform="translate(379.639,1070.46)"
   id="g3794">
                <path
   d="m 1076.58,1356.93 c 0,0 73.68,47.12 -135.936,69.83 63.946,0 16.092,16.51 16.092,16.51 35.626,11.94 321.904,-41.23 146.474,-100.03 -24.21,2.12 -26.63,13.69 -26.63,13.69 z"
   id="path3792" />
            </g>
            <g
   transform="translate(379.639,1070.46)"
   id="g3798">
                <path
   d="m 1164.54,1400.76 -0.25,33.39 c 0,0 -14.37,45.99 -214.004,62.45 201.094,-8.87 304.594,-61.44 214.254,-95.84 z"
   id="path3796" />
            </g>
            <g
   transform="translate(379.639,1070.46)"
   id="g3802">
                <path
   d="m 662.893,1347.1 c -52.88,9.83 -137.824,79.66 223.717,97.86"
   style="fill:none;stroke:#000000;stroke-width:2.92px"
   id="path3800" />
            </g>
            <g
   transform="translate(379.639,1070.46)"
   id="g3806">
                <path
   d="m 696.101,1363.16 c 0,0 27.892,38.44 190.509,31.07"
   style="fill:none;stroke:#ffffff;stroke-width:4.17px"
   id="path3804" />
            </g>
            <g
   transform="translate(379.639,1070.46)"
   id="g3810">
                <path
   d="m 955.91,929.146 c 0,0 17.643,83.824 -46.919,138.044 31.389,-15.7 73.315,-53.27 73.315,-53.27 L 955.91,929.146"
   id="path3808" />
            </g>
            <g
   transform="translate(379.639,1070.46)"
   id="g3814">
                <path
   d="m 903.809,1252.84 31.667,27.89 66.954,-264.48 -52.609,38.63 c 0,0 54.139,-32.17 27.27,23.72 -33.904,145.99 -41.095,164.9 -41.095,164.9 0,0 -12.551,10.7 -23.185,-2.53 -6.83,-40.48 -9.54,3.27 -9.002,11.87 z"
   id="path3812" />
            </g>
            <g
   transform="translate(379.639,1070.46)"
   id="g3818">
                <path
   d="m 725.665,1311.77 c 0,0 56.986,68.07 149.942,27.34 -33.059,-26.12 -100.023,-31.6 -100.023,-31.6 z"
   style="fill:#ffffff;stroke:#ffffff;stroke-width:5px"
   id="path3816" />
            </g>
            <g
   transform="translate(379.639,1070.46)"
   id="g3822">
                <path
   d="m 885.431,1329.81 c 0,0 -8.961,22.57 -21.818,25.69 -12.857,3.11 182.257,-3.4 166.367,-16.39 -15.89,-12.99 -68.215,-24.91 -68.215,-24.91 0,0 -47.503,34.67 -76.334,15.61 z"
   style="fill:#ffffff"
   id="path3820" />
            </g>
            <g
   transform="translate(379.639,1070.46)"
   id="g3826">
                <path
   d="m 820.597,1176.4 c 0,0 129.369,142.19 73.763,152.45 -13.621,15 -24.897,27.42 -24.897,27.42 l 118.786,-6.71 c 0,0 -146.608,-151.42 -167.652,-173.16 z"
   id="path3824" />
            </g>
            <g
   transform="translate(379.639,1070.46)"
   id="g3830">
                <path
   d="m 1048.74,1228.74 c 0,0 37.73,-19.56 7.03,14.61 -30.7,34.17 -67.521,85.93 -67.521,85.93 0,0 -10.152,-14.41 -26.882,-14.9 23.406,19.25 26.882,32.94 26.882,32.94 l 38.761,-6.94 -19.25,-11.27 74.33,-115.74 z"
   id="path3828" />
            </g>
            <g
   transform="translate(379.639,1070.46)"
   id="g3834">
                <path
   d="m 737.796,1213.37 35.464,25.7 92.62,100.04 -78.503,-104.18 z"
   id="path3832" />
            </g>
            <g
   transform="translate(379.639,1070.46)"
   id="g3838">
                <path
   d="m 725.665,1293.72 c 0,0 4.152,72.7 133.922,48.2 -49.673,-17.88 -87.126,10.18 -133.922,-48.2 z"
   id="path3836" />
            </g>
            <g
   transform="translate(379.639,1070.46)"
   id="g3842">
                <path
   d="m 719.256,1128.59 c 0,0 5.973,-26.25 28.646,-7.45 22.674,18.81 59.89,28.99 37.952,76.78 1.567,7.06 -19.979,-1.56 -19.979,-1.56 l 26.751,14.89 13.819,-58.94 -76.611,-54.56 z"
   id="path3840" />
            </g>
            <g
   transform="translate(379.639,1070.46)"
   id="g3846">
                <path
   d="m 817.562,1020.87 11.032,35.1 c 0,0 90.22,25.57 49.121,112.82 -4.994,21.57 -18.128,-2 -18.128,-2 l 33.192,64.69 9.317,-144.42 z"
   id="path3844" />
            </g>
            <g
   transform="translate(379.639,1070.46)"
   id="g3850">
                <path
   d="m 1054.64,1160.19 c 0,0 34.98,9.68 -16.69,51.06 33.06,-13.19 42.36,-13.51 42.36,-13.51 l -4.17,-45.43 z"
   id="path3848" />
            </g>
            <g
   transform="translate(379.639,1070.46)"
   id="g3854">
                <path
   d="m 902.096,823.676 c 0,0 -218.981,-39.028 -294.193,207.534 -41.72,214.57 110.188,306.84 193.623,323.06"
   style="fill:none;stroke:#ffffff;stroke-width:5px"
   id="path3852" />
            </g>
            <g
   transform="translate(379.639,1070.46)"
   id="g3858">
                <path
   d="m 881.214,782.883 c 0,0 188.916,-6.076 278.436,179.557 79.22,164.27 -15.76,327.41 -88.5,391.83"
   style="fill:none;stroke:#ffffff;stroke-width:5px"
   id="path3856" />
            </g>
        </g>
        <g
   transform="matrix(1.20599,0,0,0.915179,0,1150.43)"
   id="g3863">
            <path
   d="M 912.452,791.799 C 679.404,750.912 448.466,1039.38 635.904,1292.6"
   style="fill:none;stroke:#ffffff;stroke-width:16.96px"
   id="path3861" />
        </g>
        <g
   transform="matrix(1.20599,0,0,0.915179,0,1150.43)"
   id="g3867">
            <path
   d="M 893.339,816.753 C 1115.77,837.677 1294.6,1145.56 1030.16,1333.72"
   style="fill:none;stroke:#ffffff;stroke-width:16.96px"
   id="path3865" />
        </g>
        <g
   transform="matrix(1.20599,0,0,0.915179,0,1150.43)"
   id="g3871">
            <path
   d="m 778.378,879.072 21.174,16.542 c 0,0 -110.499,110.776 -97.266,136.306 -21.173,-34.029 -63.52,0 -63.52,0 0,0 46.892,-132.336 139.612,-152.848 z"
   style="fill:#ffffff;stroke:#000000;stroke-width:5px"
   id="path3869" />
        </g>
        <g
   transform="matrix(1.20599,0,0,0.915179,0,1150.43)"
   id="g3875">
            <path
   d="m 862.756,829.94 c 0,0 113.842,-9.768 195.014,48.501 -51.29,-61.688 -180.055,-72.752 -180.055,-72.752 0,0 -11.79,18.525 -14.959,24.251 z"
   id="path3873" />
        </g>
        <g
   transform="matrix(1.20599,0,0,0.915179,0,1150.43)"
   id="g3879">
            <path
   d="m 630.816,1298.97 c 0,0 58.058,63.81 97.72,72.72 -52.886,-30.54 -60.943,-46.27 -85.648,-84.5 -19.544,-22.71 -12.072,11.78 -12.072,11.78"
   style="fill:#ffffff"
   id="path3877" />
        </g>
    </g>
</svg>
