<svg xmlns="http://www.w3.org/2000/svg" xml:space="preserve" width="627.574" height="1141.929" style="clip-rule:evenodd;fill-rule:evenodd;stroke-linecap:round;stroke-linejoin:round;stroke-miterlimit:1.5"><circle cx="3000.29" cy="4971.09" r="277.556" transform="matrix(.44796 0 0 .45278 -1042.39 -1947.08)"/><path d="m301.618 0 47.342 164.357h-94.683zM301.63 603.256l-47.343-164.358h94.684zM603.248 301.623 438.89 348.965v-94.684zM0 301.633l164.358-47.342v94.684zM88.338 88.35l149.695 82.742-66.952 66.952zM514.902 514.898l-149.695-82.743 66.952-66.951zM514.897 88.34l-82.742 149.695-66.952-66.952zM88.343 514.905l82.743-149.694 66.951 66.951z"/><path d="m791.429 866.083 82.309-1.834-39.057 21.232-13.631-3.67s-10.223 41.1-1.311 47.942c8.913 6.843 12.034 82.077 12.034 82.077zM826.21 617.661c-18.337 1.019-36.393 5.628-20.635 18.009s39.741 6.003 54.012 11.631 46.538 24.762 44.662 36.393 27.074 4.502 22.541-9.755c-4.532-14.257-33.046-60.029-100.58-56.278" style="fill:#fff" transform="matrix(1 0 0 1 -530.15 -422.239)"/><path d="M4.055 1043.19h623.519v98.74H4.055zM188.243 632.25c-69.966 188.533 76.446 253.63-37.498 381.327 11.644-118.502-128.127-158.468 37.498-381.328M329.007 632.25c-69.966 188.533 76.446 253.63-37.498 381.327 11.644-118.502-128.127-158.468 37.498-381.328M464.737 632.25c-69.966 188.533 76.447 253.63-37.498 381.327 11.644-118.502-128.127-158.468 37.498-381.328"/><path d="M940.47 1321.33s31.072 79.97 24.165 95.21c-6.907 15.23 57.105-41.35 11.579-187.35 8.055 62.94 8.055 133.29 2.518 120.77-5.538-12.52-14.6-7.49-14.6-7.49l8.055 24.17s-12.586-3.13-31.717-45.31" style="fill:#fff;stroke:#000;stroke-width:1px" transform="matrix(1 0 0 1 -530.15 -422.239)"/><path d="M693.532 1101.5s-28.269 99.81-19.038 114.24c9.231 14.42 41.539 84.23 38.077 100.38-9.231-91.15-32.885-147.69-19.039-214.62" style="fill:#fff" transform="matrix(1 0 0 1 -530.15 -422.239)"/><path d="M851.226 1073.23s-55.931 91.17-37.692 131.54c18.239 40.38 32.42 36.16 32.42 58.08 0-35.19-26.233-140.19 5.272-189.62" style="fill:#fff;stroke:#000;stroke-width:1px" transform="matrix(1 0 0 1 -530.15 -422.239)"/><path d="M937.292 1168.04s14.277-36.48 30.523 40.77c2.462-69.03-8.081-79.98 4.911-137.72-6.892-2.46-43.311 85.27-35.434 96.95" style="fill:#fff" transform="matrix(1 0 0 1 -539.542 -385.34)"/><path d="M845.954 1262.85s28.629 79.87-15.402 153.69c33.839-103.08 12.523-156.19 0-166.55-12.522-10.35 15.402 12.86 15.402 12.86" style="fill:#fff" transform="matrix(1 0 0 1 -530.15 -422.239)"/><path d="M646.361 1279.15s12.898 47.38 19.589 52.78c6.691 5.41 27.655 72.19 21.894 84.61-5.762 12.4 39.196-41.77 32.091-69.13-7.106-27.36-11.056 51.15-19.128 29.11s-46.38-60.5-54.446-97.37M790.818 1279.15s3.457 37.45 14.596 47.82 27.049 73.92 21.908 91.38c-5.142 17.47 19.219-64.55 0-86.42-19.219-21.86-33.047-31.47-36.504-52.78" style="fill:#fff;stroke:#000;stroke-width:1px" transform="matrix(1 0 0 1 -530.15 -422.239)"/><path d="M703.456 1084.27s-82.211 109.99-54.057 207.59" style="fill:none;stroke:#fff;stroke-width:1.67px" transform="matrix(1 0 0 1 -530.15 -422.239)"/><path d="m1106.82 1480.74 35.05.52-3.14 24.06s1.05-17.26-31.91-24.58" style="fill:#fff" transform="matrix(1 0 0 1 -530.15 -422.239)"/><path d="m547.639 1503.59 4.317 48.22 590.794 3.77" style="fill:none;stroke:#fff;stroke-width:6.06px" transform="matrix(1 0 0 1 -530.15 -422.239)"/><path d="M723.823 738.489s12.932 93.43 107.95 89.996c95.017-3.435 100.866-65.114 107.077-83.813 6.212-18.699-162.129 107.17-215.027-6.183" style="fill:#fff" transform="matrix(.91509 0 0 1 -459.203 -428.577)"/><path d="M718.74 703.59s-9.103 73.243 34.807 107.353c32.293 25.086 74.222 42.077 145.719 11.3" style="fill:none;stroke:#fff;stroke-width:4.17px" transform="matrix(1 0 0 1 -530.15 -422.239)"/><path d="M770.638 639.83s-16.099 7.17-11.342 13.648 15.001 9.404 15.001 9.404l11.343-16.1s-12.075-9.147-15.002-6.952M834.842 437.944s9.936 64.8 6.867 72.643c-3.07 7.842-29.206 45.106-19.571 50.006s19.23 18.541 19.23 18.541l-49.451 2.388zM719.897 571.856l-94.408-54.929 75.526 136.551s-20.312-44.268-10.299-48.722-14.971-33.652-14.971-33.652 26.701-2.395 44.152.752M690.225 682.443s10.546 27.733-14.062 32.81-18.15-13.844-50.674-1.562-56.741 12.282-56.741 12.282l48.435 17.013-72.262-17.013zM1037.96 516.927s-22.19 37.529-41.247 46.591c-19.062 9.062-62.809 19.998-60.622 32.81 2.188 12.812-.937 24.999-.937 24.999l-31.873-24.686zM719.897 837.013c0-5.006 42.354 14.632 42.354 14.632l-59.9-57.637-16.895 34.814 2.816 6.655-6.144 3.072s-56.639 94.203-56.639 91.131 66.983-59.389 66.983-59.389-8.6-13.095 0-15.871 27.425-10.239 27.425-17.407M991.982 847.521s-41.136-8.4-37.509-1.91l28.672 51.308-45.181-37.182-13.354 2.561s-24.136-7.524-21.329-9.814 58.352-58.476 58.352-58.476zM974.115 764.918l21.635-41.052-3.768-17.086 12.028 12.39s68.22-4.905 98.8 4.696 18.11 0 18.11 0L975.1 682.635Z" style="fill:#fff" transform="matrix(1 0 0 1 -530.15 -422.239)"/><path d="m720.781 577.198 32.857 16.591-46.196 48.473M687.923 720.339l-.976 37.411-60.184-14.964M843.751 484.807l23.098 92.391h-7.262M947.518 625.996l13.023 19.519 48.469-82.956M983.314 757.75l44.896-12.036 62.13-14.314M992.423 852.744l32.527 63.437-21.79-10.085M638.492 922.248l113.263-66.625-13.991-7.995M848.029 884.938l18.82-8.995-31.479 112.264" style="fill:none;stroke:#fff;stroke-width:4.17px" transform="matrix(1 0 0 1 -530.15 -422.239)"/></svg>