<svg xmlns="http://www.w3.org/2000/svg" xml:space="preserve" id="Layer_1" width="273.2" height="267.177" x="0" y="0" version="1.1"><style id="style4778" type="text/css">.st1,.st2{fill-rule:evenodd;clip-rule:evenodd}.st2{fill:#fff}.st5{fill:none;stroke:#fff;stroke-width:1.1513;stroke-linecap:round;stroke-linejoin:round;stroke-miterlimit:10}</style><g id="g4784" transform="matrix(-1.20599 0 0 -1.23176 1471.433 2827.628)"><path id="path4782" d="m1107.9 2180.3 108.9 115.3H999Zm0 9.5 93.8 99.3H1014Z" class="st1"/></g><g id="g4788" transform="matrix(-1.43808 0 0 -1.02407 1773.083 5458.038)"><path id="path4786" d="m1138.9 5206 40.6 70.7h-81.3z" class="st1"/></g><g id="g4812" transform="matrix(.53034 0 0 .3464 85.252 1351.748)"><g id="g4792" transform="matrix(1.41632 0 0 1.38685 -1434.61 -234.191)"><path id="path4790" d="M1079.5-2342s-30 68.6-30 98c0 25.9 13.4 46.8 30 46.8 16.5 0 30-21 30-46.8 0-29.5-30-98-30-98" class="st1"/></g><g id="g4796" transform="matrix(.52088 -.15735 .17235 .47555 -3601.77 -1474.55)"><ellipse id="ellipse4794" cx="7637.3" cy="-1597.4" class="st2" rx="10.4" ry="30.6" transform="rotate(164.994 7637.249 -1597.37)"/></g><g id="g4800" transform="matrix(.6836 0 0 .62411 -3105.94 -3638.57)"><path id="path4798" d="M4707.5 355.1s45.5 229-55.3 185c22.8 22.3 136.2 12 55.3-185" class="st2"/></g><g id="g4804" transform="matrix(.6836 0 0 .62411 -3105.94 -3638.57)"><path id="path4802" d="M4652.2 361.7s-28.1 79.3-21.5 106.7" style="fill:none;stroke:#fff;stroke-width:2.8346;stroke-linecap:round;stroke-linejoin:round;stroke-miterlimit:1.5"/></g><g id="g4810" transform="matrix(.58972 .31566 -.34574 .5384 466.662 -4683.04)"><path id="path4806" d="M681 2152.2s-14.9 89.9-76.7 36c-31.2-2.7 75.5 69.7 76.7-36" class="st2"/><path id="path4808" d="M681 2152.2s-3.7 22.5-15.2 38.2-30.6 24.8-61.5-2.2c-31.2-2.7 75.5 69.7 76.7-36" class="st2"/></g></g><g id="g4816" transform="translate(-479.2 -446.807)"><path id="path4814" d="M733.6 623v46.7c0 6.4-2.5 12.5-7.1 17-4.5 4.5-10.6 7.1-17 7.1H522.2c-6.4 0-12.5-2.5-17-7.1-4.5-4.5-7.1-10.6-7.1-17V623h-18.9v61.5c0 6.4 2.5 12.5 7.1 17 4.5 4.5 10.6 7 17 7h225c6.4 0 12.5-2.5 17-7s7.1-10.6 7.1-17V623z" class="st1"/></g><g id="g4820" transform="matrix(1.20599 0 0 1.89402 -469.657 -4760.122)"><path id="rect4818" d="M404.2 2633.9h197.1v14.2H404.2z" class="st1" transform="matrix(-.998 -.06253 .06253 -.998 839.448 5308.206)"/></g><g id="g4824" transform="matrix(1.80899 0 0 .51626 -984.238 1373.868)"><ellipse id="ellipse4822" cx="620.6" cy="-2210.7" rx="64.8" ry="8.1" style="fill-rule:evenodd;clip-rule:evenodd;fill:#fff;stroke:#000;stroke-width:2.94;stroke-linecap:round;stroke-linejoin:round;stroke-miterlimit:1.5" transform="scale(-1)rotate(2.284 -110886.161 -31127.422)"/></g><g id="g4828" transform="matrix(1.20599 0 0 .91518 -452.327 798.248)"><path id="path4826" d="M585.9-612.5s2.4 16.1-14.5 16.1c-12.2-1.3-28.3-1-41-1.1-19.4-.1-34.4 0-34.4 0s81.3 1.4 89.9-15" class="st2"/></g><g id="g4832" transform="matrix(1.20599 0 0 .91518 -452.327 798.248)"><path id="path4830" d="m377.3-677.8 12-1-7.9 3.7-1.1 62.6s-2 14.6 13.4 24.9c-3.2-.2-16-1.3-17.3-25.4-.1-24.1.9-64.8.9-64.8" class="st2"/></g><g id="g4836" transform="matrix(.94052 0 0 .91518 -151.293 798.248)"><path id="path4834" d="M434.2-677.1h8.1s2.4 79-11.2 79.1c3.1-5.8 3.2-13.4 3.2-13.4z" class="st2"/></g><g id="g4840" transform="matrix(1.20599 0 0 .91518 -452.327 798.248)"><path id="path4838" d="M390.8-621.3s-2.6 23.1 14.3 23.4" class="st5"/></g><g id="g4844" transform="matrix(1.20599 0 0 .91518 -452.327 798.248)"><path id="path4842" d="m402.9-598 168.6.9" class="st5"/></g><g id="g4850" transform="matrix(2.10457 0 0 .91518 -1353.966 772.628)"><ellipse id="ellipse4846" cx="707.6" cy="-782.2" class="st2" rx="22.5" ry="6.5" transform="rotate(-156.578 707.642 -782.176)"/><path id="path4848" d="M707.6-788.2c13.4 0 24.2 2.7 24.2 6s-10.9 6-24.2 6-24.2-2.7-24.2-6 10.9-6 24.2-6m23.3 6c-.4.4-1.1.8-1.8 1.2-4 1.9-12.1 3.2-21.4 3.2s-17.4-1.3-21.4-3.2q-1.2-.6-1.8-1.2c.4-.4 1.1-.8 1.8-1.2 4-1.9 12.1-3.2 21.4-3.2s17.4 1.3 21.4 3.2q1.05.6 1.8 1.2" class="st1"/></g><g id="g4860" transform="matrix(1.20599 0 0 .91518 -452.327 798.248)"><path id="path4856" d="m396.4-860.9 90.8 129.7-82.7-129.7z" class="st1"/><path id="path4858" d="m396.4-860.9 90.8 129.7-82.7-129.7zm2.8 1.6h4.8l49 76.8z" class="st1"/></g></svg>