<svg xmlns="http://www.w3.org/2000/svg" xml:space="preserve" style="fill-rule:evenodd;clip-rule:evenodd;stroke-linecap:round;stroke-linejoin:round;stroke-miterlimit:1.5" viewBox="0 0 1720 1989"><path d="M829.25 1461.08c-691.045-274.65 30.337-558.082-11.74-1015.329 283.86 164.421 154.427 366.862 154.427 366.862s94.813-102.698 127.133-77.09c-90.66 231.647 317.7 531.807-201.04 729.107 364.57-232.37-80.902-335-15.623-549.81-114.8 24.67-154.977 317.45-114.156 358.28-23.047 4.43-59.476-41.97-59.931-73.04-36.758 100.22-13.784 177.96 120.93 261.02" style="stroke:#000;stroke-width:2.81px" transform="matrix(1.09979 0 0 1.09979 -72.585 -114.933)"/><path d="M756.144 1449.45s-229.551-78.84-218.318-302.27c32.662 171.1 157.941 274.15 218.318 302.27M957.013 1478.48s205.527-79.26 150.837-272.7c-34.34-121.43-13.07-135.77 10.74-232.183.58-2.387 4.14-2.507 6.24-3.557-23.22 212.46 221.75 286.62-167.817 508.44" style="fill:#fff;stroke:#000;stroke-width:1px"/><path d="M618.346 1292.24s35.118 104.64 162.711 168.56c-61.65-46.5-89.086-107.39-94.563-158.81-4.453 47.35-3.375 60.57-68.148-9.75" style="fill:#fff;stroke:#000;stroke-width:1px"/><path d="M1128.08 696.722s-68.1 66.822-45.54 116.194c22.55 49.372 35.75 135.347 38.73 135.773s1.27-88.955-6.39-116.62-17.45-94.062 13.2-135.347" style="fill:#fff;stroke:#000;stroke-width:1px" transform="matrix(1 0 0 1 4.256 1.71)"/><path d="M1132.33 698.425s-63.97 41.135-79.9 149.428c-7.03-56.801-5.34-66.436-5.34-66.436s5.4-67.47 85.24-82.992M834.394 387.694s11.581 27.348 15.711 34.551c184.005 320.869 98.249 355.727 79.753 425.608 14.57-27.296 88.832-97.903 77.022-195.376-12.91-106.589-60.059-202.854-123.728-230.987a82 82 0 0 1-1.948-.891c-25.575-2.604-19.459-13.679-46.81-32.905" style="fill:#fff;stroke:#000;stroke-width:1px"/><path d="M834.394 387.694s81.705 107.877 91.039 122.742c-4.161-26.274-46.325-97.835-46.325-97.835z" style="stroke:#000;stroke-width:1px"/><path d="M730.147 741.416s125.318-161.94 155.645-117.305c30.328 44.633 20.198-117.307-17.739-157.935-37.935-40.628-27.466-17.113-27.466-17.113-26.763 171.569-70.48 218.106-110.44 292.353"/><path d="M730.147 741.416s125.318-161.94 155.645-117.305c30.328 44.633 20.198-117.307-17.739-157.935-37.935-40.628-27.466-17.113-27.466-17.113-26.763 171.569-70.48 218.106-110.44 292.353m117.188-284.612c3.916 3.517 9.045 8.414 14.96 14.75 8.46 9.061 15.22 24.72 20.542 42.557 8.37 28.05 12.854 61.482 12.86 85.39.001 9.374-.465 17.134-1.939 22.059a22 22 0 0 1-1.448-1.878c-6.42-9.447-15.736-12.642-27.139-10.727-8.972 1.507-19.576 6.619-30.82 14.306-18.222 12.458-38.53 31.798-56.712 50.995 26.54-48.062 51.718-106.075 69.696-217.452"/><path d="M712.41 1123.9s5.477 109.53 38.336 142.39c-11.949-77.67-4.978-141.27 31.864-287.271-41.821 126.331-53.77 228.021-70.2 144.881" style="fill:#fff"/><path d="M712.41 1123.9s5.477 109.53 38.336 142.39c-11.949-77.67-4.978-141.27 31.864-287.271-41.821 126.331-53.77 228.021-70.2 144.881m11.633 38.09c2.682.15 5.466-.69 8.195-3.02 2.199-1.88 4.679-5.33 7.069-10.42.495-1.05.997-2.2 1.506-3.43-3.515 30.6-4.133 57.03-2.309 83.19-3.056-8.84-5.598-18.44-7.759-28.06-2.967-13.22-5.136-26.52-6.702-38.26M1005.77 1183.28c107.96 158.32 8.9 234.93-93.84 304.99 131-136.61 133.47-206.79 93.84-304.99" style="fill:#fff"/><path d="M1005.767 1183.277c53.98 79.16 56.2 137.89 32.09 185.59-24.11 47.699-74.559 84.369-125.93 119.399 131-136.61 133.47-206.79 93.84-304.99m28.48 70.24c11.44 31.46 12.93 58.92 7.05 83.5-9.76 40.81-39.33 73.359-75.712 102.639 45.912-56.93 66.122-102.25 69.852-145.26 1.19-13.74.71-27.26-1.19-40.88"/><path d="M863.07 1492.196s-102.577-47.21-63.682-118.14c16.09 44.63 27.837 39.66 44.235 46.52 28.6-22.88 28.762-47.06-10.895-123.66-18.304-3.81 112.53 59.6 82.685 94.68s8.07 40.1 31.167 13.73c-4.793 50.33-32.03 79.28-83.51 86.87"/><path d="M834.306 1299.986c-3.587-2.53-4.557-3.69-1.578-3.07zc18.438 13 106.097 62.24 81.107 91.61-29.845 35.08 8.07 40.1 31.167 13.73-4.793 50.33-32.03 79.28-83.51 86.87 0 0-102.577-47.21-63.682-118.14 16.09 44.63 27.837 39.66 44.235 46.52 28.213-22.57 28.752-46.41-9.317-120.59m19.51 21.99c13.144 8.76 28.448 19.63 40.406 30.91 7.327 6.91 13.366 13.89 16.247 20.66 1.975 4.64 2.224 9.09-1.057 12.95-8.629 10.14-12.159 18.41-12.76 24.35-.62 6.16 1.366 10.75 4.7 13.99 3.292 3.19 8.3 5.15 14.492 5.08 5.635-.06 12.54-1.9 19.507-5.64-3.669 14.08-9.838 25.79-18.713 35.07-12.33 12.89-29.77 21-52.338 24.68-6.29-3.16-25.77-13.65-42.1-29.89-15.02-14.94-27.531-35-22.502-58.9 5.945 12.05 11.564 18.54 16.996 22.57 7.547 5.6 15.043 6.34 23.886 10.04a7.89 7.89 0 0 0 7.965-1.11c9.843-7.88 16.598-16.01 20.217-25.73 3.605-9.7 4.157-21.1.857-35.79-2.636-11.73-7.811-25.82-15.803-43.24"/><path d="M544.026 921.746s90.345-120.461 70.916-178.749 0-99.089 34.973-107.832-7.772 187.492-105.889 286.581" style="fill:#fff" transform="matrix(1 0 0 1 16.514 48.299)"/><path d="M560.538 970.043s90.345-120.46 70.916-178.749c-19.429-58.286 0-99.088 34.973-107.831s-7.772 187.491-105.889 286.58M668.097 691.17c-31.315 8-46.608 45.31-29.168 97.632 3.708 11.123 3.878 24.36 1.506 38.601 16.273-40.132 26.258-78.439 29.255-105.49 1.31-11.82 1.338-21.313-.313-27.552-.238-.9-.509-1.708-.835-2.414a7 7 0 0 0-.445-.777"/><path d="M901.139 911.063s-54.3 64.702-32.385 112.257c25.854 56.11 76.472 98.4 76.472 98.4s-18.768-20.32-36.253-49.65c-15.425-25.87-29.851-58.74-29.516-90.843.713-68.495 21.682-70.164 21.682-70.164" style="fill:#fff"/><path d="M884.823 934.53c-13.916 23.161-29.669 59.278-16.069 88.79 25.854 56.11 76.472 98.4 76.472 98.4s-18.768-20.32-36.253-49.65c-15.425-25.87-29.851-58.74-29.516-90.843.223-21.452 2.433-36.35 5.366-46.697 8.5-14.153 16.316-23.467 16.316-23.467s-9.891.787-16.316 23.467m-12.971 55.796c-1.172 10.124-.281 20.284 4.059 29.694 1.126 2.45 2.3 4.87 3.517 7.25-3.963-12.05-6.725-24.51-7.576-36.944" style="fill:#030000"/><path d="M1175.349 1082.757s-24.32 34.6-16.84 65.93 3.74 110.82 6.08 108.02c33.2-64.06 35.54-67.8 29.93-101s-19.17-72.95-19.17-72.95"/><path d="M1157.31 1121.72s-24.32 34.6-16.84 65.93 3.74 110.82 6.08 108.02c33.2-64.06 35.54-67.8 29.93-101s-19.17-72.95-19.17-72.95m-2.06 19.54c4.34 14.38 10.24 35.65 13.46 54.72 4.43 26.24 3.22 33.04-15.36 69.4-.2-25.44-.76-60.93-5.21-79.56-3.82-15.98 1.63-32.87 7.11-44.56" style="fill:#030000" transform="matrix(1 0 0 1 18.042 -38.96)"/><path d="M794.59 1295.74s-89.189-1.21-88.255-47.61-42.804 113.47 79.85 191.45c-33.311-53.23-72.379-118.16 8.405-143.84" style="fill:#fff"/><path d="M794.59 1295.74s-89.189-1.21-88.255-47.61-42.804 113.47 79.85 191.45c-33.311-53.23-72.379-118.16 8.405-143.84m-87.213-21.82c6.483 7.96 15.967 13.96 26.65 18.31 10.117 4.12 21.226 6.75 31.131 8.43-10.608 7.02-17.453 15.25-21.485 24.17-6.387 14.13-5.817 30.38-.756 47.5 3.22 10.88 8.273 22.17 14.208 33.44-41.328-43.17-50.123-97.75-49.748-131.85" style="fill:#030000"/><path d="M1030.12 483.969s66.93 139.309 30.35 183.67 82.49-50.587 87.16-71.6-10.11 4.67-36.57 6.226-25.69-102.731-80.94-118.296" style="fill:#fff"/><path d="M1030.12 483.969s66.93 139.309 30.35 183.67 82.49-50.587 87.16-71.6-10.11 4.67-36.57 6.226-25.69-102.731-80.94-118.296m16.93 18.925c6.95 6.799 12.37 15.669 16.98 25.133 9.09 18.654 14.89 39.82 20.99 55.218 3.66 9.223 7.6 16.559 11.98 20.926 4.3 4.282 9.13 6.277 14.52 5.96 8.33-.49 15.63-3.089 21.67-6.022-5.45 6.44-13.16 14.152-21.69 22.045-11.81 10.931-25.19 22.189-36.51 30.888 4.68-13.751 5.23-31.062 2.87-49.631-4.71-37.083-20.36-79.341-30.81-104.517" style="fill:#030000"/></svg>