<svg xmlns="http://www.w3.org/2000/svg" xml:space="preserve" width="293.9" height="301.88"><g transform="translate(-481.5 -318.92)"><ellipse cx="638.4" cy="609.7" fill-rule="evenodd" clip-rule="evenodd" rx="137" ry="8.2"/><path fill-rule="evenodd" d="m525.3 605.7 117.3 3.5 31.8-18.3-3-62.2-177.3-3.3 1.7 59.9z" clip-rule="evenodd"/><path fill-rule="evenodd" d="m494.1 525.4 1.7 59.8 29.4 20.5 117.3 3.5 31.8-18.3-3-62.2zm20.4 20.1 138.1 2.5 1.4 31.7-16.5 9.5c-19.8-.6-85.7-2.6-105.9-3.2l-16.5-11.5z" clip-rule="evenodd"/><path fill-rule="evenodd" d="M663.9 503.9h23v60.6c0 11.9-4.7 23.2-13.1 31.7-4.6 4.6-10 8.1-15.9 10.2 1.6.9 2.3 1.9 2.3 2.8 0 6.4-34 11.6-76 11.6s-76-5.2-76-11.6c0-1 .8-1.9 2.3-2.8-5.9-2.2-11.3-5.7-15.9-10.2-8.4-8.4-13.1-19.8-13.1-31.7v-60.6h25.1V548h157.3z" clip-rule="evenodd"/><path fill-rule="evenodd" d="M663.9 503.9h23v60.6c0 11.9-4.7 23.2-13.1 31.7-4.6 4.6-10 8.1-15.9 10.2 1.6.9 2.3 1.9 2.3 2.8 0 6.4-34 11.6-76 11.6s-76-5.2-76-11.6c0-1 .8-1.9 2.3-2.8-5.9-2.2-11.3-5.7-15.9-10.2-8.4-8.4-13.1-19.8-13.1-31.7v-60.6h25.1V548h157.3zm1.6 1.6h19.9v59c0 11.4-4.6 22.4-12.7 30.6-4.3 4.4-9.6 7.7-15.3 9.9-.6.2-1 .7-1.1 1.4 0 .6.2 1.2.7 1.6.5.3.8.5 1.2.9.2.2.4.4.4.6s-.1.4-.4.5c-.2.3-.6.5-1.1.8-1.3.8-3.4 1.6-5.9 2.4-12.5 3.8-37.9 6.2-67.1 6.2s-54.4-2.6-67.1-6.2c-2.5-.7-4.6-1.6-5.9-2.4-.5-.3-.8-.5-1.1-.8-.2-.2-.4-.4-.4-.5 0-.2.1-.4.4-.6.2-.3.7-.5 1.2-.9.5-.3.8-.9.7-1.6 0-.6-.5-1.1-1.1-1.4-5.7-2.1-11-5.5-15.3-9.9-8.1-8.1-12.7-19-12.7-30.6v-59h21.6V548c0 .9.7 1.6 1.6 1.6h157.3c.8 0 1.6-.7 1.6-1.6v-42.5z" clip-rule="evenodd"/><path fill="#fff" d="m484.3 509.2 1.2 60.1v.4c1.2 9.3 5.1 17.4 9.7 23.3q3.45 4.5 7.2 7.2c1.2.9 2.5 1.6 3.8 2.2 1.3.5 2.7.9 4.1.9.7 0 1.5-.1 2.3-.3s1.5-.6 2.2-1.1c1.7-1.3 2-3.7.7-5.4s-3.7-2-5.4-.7l.4.6-.2-.7-.2.1.4.6-.2-.7.1.3v-.3l.1.3v-.3h-.1c-.1 0-.6-.1-1.2-.3-1.1-.4-2.7-1.5-4.3-3-2.5-2.3-5.1-5.7-7.3-9.7-2.2-4.1-3.8-8.8-4.5-13.8l-3.8.5 3.8-.1-1.2-60.1c0-2.1-1.8-3.8-3.9-3.7-2-.1-3.7 1.6-3.7 3.7"/><ellipse cx="584.4" cy="536.6" fill="#fff" fill-rule="evenodd" clip-rule="evenodd" rx="78" ry="11.1"/><path fill="#fff" fill-rule="evenodd" d="M584.4 525.6c43.1 0 78 5 78 11.1s-34.9 11.1-78 11.1-78-5-78-11.1c-.1-6.1 34.9-11.1 78-11.1m0 .9c30 0 56.2 2.4 69 6 3.3.9 5.5 1.8 6.9 2.8.6.5 1 .9 1 1.5 0 .5-.4 1-1 1.5-1.4 1-3.7 1.9-6.9 2.8-12.9 3.5-39 6-69 6s-56.2-2.4-69-6c-3.3-.9-5.5-1.8-6.9-2.8-.6-.5-1-.9-1-1.5 0-.5.4-1 1-1.5 1.4-1 3.7-1.9 6.9-2.8 12.8-3.6 38.9-6 69-6" clip-rule="evenodd"/><path fill-rule="evenodd" d="M481.8 504.2h20.3v5.3h-20.3zM611.9 530.6c34.3-.3 95.8 13.9-40.6 13.9-110.3-2.1 130.6.1 40.6-13.9" clip-rule="evenodd"/><path fill-rule="evenodd" d="M606.4 532.1s-119.8-1.7-59.7 7.8c-52 1.8-25.7-16.1 59.7-7.8" clip-rule="evenodd"/><path fill="#fff" d="M683 560c0 .2.1 1 .1 2.4 0 4-.5 12.2-3.9 19.6-1.7 3.7-4.2 7.2-7.6 9.9-3.5 2.7-8 4.6-13.9 5.2h-.1c-.5.1-.9.1-1.3.1-.6 0-1.1.5-1.1 1.1s.5 1.1 1.1 1.1 1.1-.1 1.6-.1l-.2-1.1.1 1.1c6.3-.6 11.3-2.7 15.1-5.6 5.7-4.4 8.8-10.8 10.5-16.7s2-11.5 2-14.6c0-1.6-.1-2.5-.1-2.5 0-.6-.6-1.1-1.2-1-.7-.1-1.1.4-1.1 1.1M514.2 608s36.6 6.5 76.9 6.5c21.7 0 44.4-1.9 63.3-7.6l-.6-1.9c-18.6 5.7-41.2 7.6-62.7 7.5-20.1 0-39.2-1.6-53.4-3.2-7.1-.8-12.9-1.6-16.9-2.2-2-.3-3.6-.6-4.7-.7-1.1-.2-1.6-.3-1.6-.3z"/><ellipse cx="575.7" cy="537.1" fill-rule="evenodd" clip-rule="evenodd" rx="22.9" ry="2"/><path fill="#fffcfc" d="m497.3 510.7.6 58.5v.1s.5 4.2 2.6 9.2c2.1 5.1 5.7 11.1 11.9 14.7.4.2 1 .1 1.2-.3s.1-1-.3-1.2c-5.8-3.4-9.2-9-11.2-13.9-1-2.4-1.6-4.6-2-6.2-.2-.8-.3-1.4-.4-1.9 0-.2-.1-.4-.1-.5v-.1l-.9.1h.9l-.6-58.5c0-.5-.4-.9-.9-.9-.4 0-.8.4-.8.9M685.3 559.9v-52.3c0-.6-.5-1.1-1.1-1.1s-1.1.5-1.1 1.1v52.3c0 .6.5 1.1 1.1 1.1s1.1-.5 1.1-1.1"/><path fill-rule="evenodd" d="m525.742 503.263 81.694-121.37 37.497 25.239-81.693 121.37z" clip-rule="evenodd"/><path fill-rule="evenodd" d="m525.8 503.3 37.5 25.2L645 407.2 607.5 382Zm4.9-1 77.7-115.5 31.6 21.3s-65.5 97.3-77.7 115.5z" clip-rule="evenodd"/><path fill-rule="evenodd" d="M651 413.4s-8.5-2.7-15.5 7.7c-10.4-4.3-5.7-8.6-5.7-8.6l12.3-7.3zM599.4 378.7s5.7 6.8-1.3 17.2c7.9 8 10.1 2 10.1 2l2.1-14.1z" clip-rule="evenodd"/><ellipse cx="544.5" cy="515.9" fill-rule="evenodd" clip-rule="evenodd" rx="9.5" ry="22.6" transform="rotate(-56.055 544.501 515.885)"/><path fill-rule="evenodd" d="M539.2 523.8c-10.3-7-16.4-16.1-13.4-20.5 2.9-4.3 13.7-2.2 24 4.7 10.3 7 16.4 16.1 13.4 20.5-2.9 4.4-13.6 2.2-24-4.7m2-2.9c-5.6-3.8-9.9-8.2-11.8-12-.4-.8-.7-1.6-.8-2.3-.1-.5-.2-.9.1-1.3.2-.3.7-.4 1.2-.6.7-.2 1.5-.2 2.4-.1 4.3.3 10 2.6 15.6 6.4s9.9 8.2 11.8 12c.4.8.7 1.6.8 2.3.1.5.2.9-.1 1.3-.2.3-.7.4-1.2.6-.7.2-1.5.2-2.4.1-4.3-.4-10-2.7-15.6-6.4" clip-rule="evenodd"/><path fill-rule="evenodd" d="M529.2 522.5c-1.1 1.6-1.4 3.5-1.1 5.3.4 1.8 1.4 3.5 3 4.5 1 .7 2.1 1.4 3.2 2.1 1.6 1.1 3.5 1.4 5.3 1.1 1.8-.4 3.5-1.4 4.5-3l4-6-15-10.1z" clip-rule="evenodd"/><path fill-rule="evenodd" d="M529.2 522.5c-1.1 1.6-1.4 3.5-1.1 5.3.4 1.8 1.4 3.5 3 4.5 1 .7 2.1 1.4 3.2 2.1 1.6 1.1 3.5 1.4 5.3 1.1 1.8-.4 3.5-1.4 4.5-3l4-6-15-10.1zm2.9 2 2.1-3.1 9.1 6.1-2.1 3.1c-.5.8-1.3 1.3-2.3 1.5-.9.2-1.9 0-2.7-.5-1-.7-2.1-1.4-3.2-2.1-.8-.5-1.3-1.3-1.5-2.3q-.15-1.5.6-2.7" clip-rule="evenodd"/><path fill-rule="evenodd" d="m527.445 534.243 2.736-4.066 6.471 4.356-2.736 4.065z" clip-rule="evenodd"/><path fill-rule="evenodd" d="m527.445 534.243 2.736-4.066 6.471 4.356-2.736 4.065zM643.144 350.817l12.843-19.081 13.108 8.822-12.843 19.081z" clip-rule="evenodd"/><path fill-rule="evenodd" d="m622 382.1 14.8 10 32.3-51.5-13.1-8.8zm26-32.3 8.9-13.2 7.3 4.9-8.9 13.2zM644.176 323.815l3.295-4.895 36.668 24.681-3.294 4.895z" clip-rule="evenodd"/><path fill-rule="evenodd" d="m644.176 323.815 3.295-4.895 36.668 24.681-3.294 4.895z" clip-rule="evenodd"/><path fill-rule="evenodd" d="M664.2 333.7c-10.1-6.8-17.8-13.1-17.1-14.1s9.4 3.7 19.5 10.5 17.8 13.1 17.1 14.1-9.4-3.7-19.5-10.5M590.462 372.985l5.584-8.296 69.188 46.57-5.584 8.296z" clip-rule="evenodd"/><path fill-rule="evenodd" d="m590.4 372.9 69.2 46.6 5.6-8.3-69.2-46.6zm4.9-.9 1.7-2.5 63.4 42.7-1.7 2.5z" clip-rule="evenodd"/><path fill="#fff" fill-rule="evenodd" d="m612.7 383.3 28.3 19.4-82.5 122.6-28.4-19.1z" clip-rule="evenodd"/><path fill-rule="evenodd" d="m562.4 460.4 26.3 17.7-31.1 46.2-26.3-17.7z" clip-rule="evenodd"/><path fill="#fffcfc" fill-rule="evenodd" d="m555.057 472.556 2.177-3.236 11.615 7.818-2.178 3.235z" clip-rule="evenodd"/><path fill-rule="evenodd" d="m568.14 453.21 2.177-3.236 11.614 7.818-2.177 3.236zM581.682 433l2.178-3.236 11.614 7.818-2.177 3.235z" clip-rule="evenodd"/><path fill-rule="evenodd" d="m581.682 433 2.178-3.236 11.614 7.818-2.177 3.235z" clip-rule="evenodd"/><path fill="#fffcfc" fill-rule="evenodd" d="m558.732 467.053 1.116-1.659 8.213 5.528-1.116 1.66z" clip-rule="evenodd"/><path fill-rule="evenodd" d="m571.868 447.624 1.117-1.659 8.213 5.528-1.117 1.66zM585.415 427.419l1.116-1.66 8.213 5.529-1.116 1.659z" clip-rule="evenodd"/><path fill-rule="evenodd" d="m585.415 427.419 1.116-1.66 8.213 5.529-1.116 1.659z" clip-rule="evenodd"/><path fill="#fffcfc" fill-rule="evenodd" d="m561.057 463.693 1.117-1.66 8.213 5.529-1.117 1.659z" clip-rule="evenodd"/><path fill-rule="evenodd" d="m574.113 444.21 1.116-1.66 8.213 5.529-1.116 1.659zM587.74 424.056l1.118-1.66 8.213 5.529-1.117 1.659z" clip-rule="evenodd"/><path fill-rule="evenodd" d="m587.74 424.056 1.118-1.66 8.213 5.529-1.117 1.659zM563.271 460.415l1.117-1.66 8.213 5.529-1.117 1.659zM576.324 440.927l1.116-1.659 8.213 5.528-1.116 1.66zM589.952 420.775l1.117-1.659 8.213 5.528-1.117 1.66z" clip-rule="evenodd"/><path fill-rule="evenodd" d="m589.952 420.775 1.117-1.659 8.213 5.528-1.117 1.66zM565.548 456.954l1.116-1.66 8.213 5.529-1.116 1.659zM578.686 437.525l1.117-1.66 8.213 5.529-1.117 1.66zM592.233 417.32l1.117-1.66 8.213 5.528-1.117 1.66z" clip-rule="evenodd"/><path fill-rule="evenodd" d="m592.233 417.32 1.117-1.66 8.213 5.528-1.117 1.66z" clip-rule="evenodd"/><path fill="#fffcfc" fill-rule="evenodd" d="m591.9 372.8 4.5-6.5 16.1 11.3c-.1 0-13.4-6.6-20.6-4.8M665 329.8s-12.9-3.8-8.7 1.5c-3.3-3.2-10.9-7.5-10.9-7.5l2.4-4.1z" clip-rule="evenodd"/><path fill="#fff" fill-rule="evenodd" d="m657 332.6 9 6.9s-36.3 41.8-39.1 46.3c-2.3-1.7-3.9-2.9-3.9-2.9zM602 379.9s2.6 11.3-1.8 15.6c-4.4 4.2 12.5-12.1 12.5-12.1s-6.9-2.2-10.7-3.5" clip-rule="evenodd"/><path fill="#fff" d="M604.5 387.5 527.2 503c-.2.4-.1.9.2 1.1.4.2.9.1 1.1-.2l77.3-115.5c.2-.4.1-.9-.2-1.1s-.8-.1-1.1.2M644.5 399.4l17.4 12.2-3.5 5.5c-.2.4-.1.9.3 1.1s.9.1 1.1-.3l3.9-6.1c.2-.4.1-.8-.2-1.1l-18-12.7c-.4-.3-.9-.2-1.1.2-.4.5-.3 1 .1 1.2"/><path fill="#fff" d="M527.3 503c-.1.1-.9 1.1-.9 3.1 0 1.2.3 2.8 1.3 4.8 1 1.9 2.7 4.2 5.4 6.9.3.3.8.3 1.1 0s.3-.8 0-1.1c-2.6-2.6-4.2-4.7-5.1-6.5s-1.2-3.1-1.2-4c0-.7.2-1.3.3-1.6.1-.2.1-.3.2-.4v-.1l-.3-.3.3.3-.3-.3.3.3c.3-.3.3-.8-.1-1.1-.2-.4-.7-.3-1 0"/><path fill="#fffcfc" fill-rule="evenodd" d="m533.7 517.2-4 7.8s-.8 4 .4 4.9c1.1.9 2.1.7 2.1.7l6.8-11.2z" clip-rule="evenodd"/></g></svg>