<?xml version="1.0" encoding="UTF-8" standalone="no"?>
<!-- Generator: Adobe Illustrator 26.1.0, SVG Export Plug-In . SVG Version: 6.00 Build 0)  -->

<svg
   version="1.1"
   id="Layer_1"
   x="0px"
   y="0px"
   viewBox="0 0 399.39701 600.60368"
   enable-background="new 0 0 1190.6 841.9"
   xml:space="preserve"
   sodipodi:docname="place-in-syringe-with-hand-1.svg"
   width="399.397"
   height="600.6037"
   inkscape:version="1.2.2 (732a01da63, 2022-12-09, custom)"
   xmlns:inkscape="http://www.inkscape.org/namespaces/inkscape"
   xmlns:sodipodi="http://sodipodi.sourceforge.net/DTD/sodipodi-0.dtd"
   xmlns="http://www.w3.org/2000/svg"
   xmlns:svg="http://www.w3.org/2000/svg"><defs
   id="defs928" /><sodipodi:namedview
   id="namedview926"
   pagecolor="#505050"
   bordercolor="#eeeeee"
   borderopacity="1"
   inkscape:showpageshadow="0"
   inkscape:pageopacity="0"
   inkscape:pagecheckerboard="0"
   inkscape:deskcolor="#505050"
   showgrid="false"
   inkscape:zoom="0.28031832"
   inkscape:cx="224.7445"
   inkscape:cy="369.2231"
   inkscape:window-width="1850"
   inkscape:window-height="1016"
   inkscape:window-x="0"
   inkscape:window-y="0"
   inkscape:window-maximized="1"
   inkscape:current-layer="Layer_1" />

<g
   id="Artboard1"
   transform="translate(1338.2898,-279.00132)">
	
	<g
   id="g734">
		<g
   transform="translate(-16.9388,26.5503)"
   display="none"
   id="g562">
			<path
   display="inline"
   fill-rule="evenodd"
   clip-rule="evenodd"
   fill="#ffffff"
   d="m -1203.8,787.5 c 73.7,0 154.3,15.3 154.3,25.8 0,10.5 -80.6,12.2 -154.3,12.2 -73.7,0 -112.7,-1.7 -112.7,-12.2 0,-10.5 39,-25.8 112.7,-25.8 z"
   id="path552" />
			<path
   display="inline"
   fill-rule="evenodd"
   clip-rule="evenodd"
   fill="#ffffff"
   d="m -1203.8,787.6 c 73.8,0 154.3,15.3 154.3,25.8 0,10.4 -80.6,12.2 -154.3,12.2 -73.8,0 -112.7,-1.8 -112.7,-12.2 -0.2,-10.4 38.9,-25.8 112.7,-25.8 z m 0,1.6 c 51.4,0 117,10.9 138.9,17 5.6,1.5 9.4,3.1 11.8,4.8 1,0.9 1.7,1.5 1.7,2.6 0,0.9 -0.7,1.7 -1.7,2.6 -2.4,1.7 -6.3,3.3 -11.8,4.8 -22.1,6 -87.6,3.5 -138.9,3.5 -51.3,0 -75.4,2.7 -97.3,-3.5 -5.6,-1.5 -9.4,-3.1 -11.8,-4.8 -1,-0.9 -1.7,-1.5 -1.7,-2.6 0,-0.9 0.7,-1.7 1.7,-2.6 2.4,-1.7 6.3,-3.3 11.8,-4.8 21.9,-6.1 45.8,-17 97.3,-17 z"
   id="path554" />
			<path
   display="inline"
   fill-rule="evenodd"
   clip-rule="evenodd"
   d="m -1156.7,796.2 c 58.7,-0.5 164,23.8 -69.5,23.8 -188.8,-3.6 223.6,0.2 69.5,-23.8 z"
   id="path556" />
			<path
   display="inline"
   fill-rule="evenodd"
   clip-rule="evenodd"
   d="m -1166.1,798.8 c 0,0 -205.1,-2.9 -102.2,13.4 -89.1,3 -44,-27.6 102.2,-13.4 z"
   id="path558" />
			<ellipse
   display="inline"
   fill-rule="evenodd"
   clip-rule="evenodd"
   cx="-1218.7"
   cy="807.29999"
   rx="39.200001"
   ry="3.4000001"
   id="ellipse560" />
		</g>
		<g
   transform="rotate(-12.064404,658.54126,440.10651)"
   id="g584">
			<g
   transform="matrix(0.5584,-0.8296,0.8296,0.5584,2.9752,696.964)"
   id="g566">
				
					<rect
   x="-172.8"
   y="-1225.7"
   transform="rotate(179.99985,-155.57511,-1213.8238)"
   fill-rule="evenodd"
   clip-rule="evenodd"
   width="34.5"
   height="23.700001"
   id="rect564" />
			</g>
			<path
   fill-rule="evenodd"
   clip-rule="evenodd"
   d="m -1142,202.8 22.2,15 48.4,-77.1 -19.6,-13.2 z m 38.9,-48.4 13.3,-19.8 10.9,7.3 -13.3,19.8 z"
   id="path568" />
			<g
   transform="matrix(0.5584,-0.8296,0.8296,0.5584,16.463,698.342)"
   id="g572">
				
					<rect
   x="-144.8"
   y="-1259"
   transform="rotate(179.99985,-140.33449,-1225.8444)"
   fill-rule="evenodd"
   clip-rule="evenodd"
   width="8.8000002"
   height="66.199997"
   id="rect570" />
			</g>
			<path
   fill-rule="evenodd"
   clip-rule="evenodd"
   d="m -1078.8,130.3 c -15.1,-10.2 -26.7,-19.6 -25.6,-21.1 1,-1.5 14.1,5.5 29.2,15.7 15.1,10.2 26.7,19.6 25.6,21.1 -1,1.5 -14.1,-5.6 -29.2,-15.7 z"
   id="path574" />
			<path
   fill-rule="evenodd"
   clip-rule="evenodd"
   fill="#fffcfc"
   d="m -1077.6,124.4 c 0,0 -19.3,-5.7 -13,2.2 -4.9,-4.8 -16.3,-11.2 -16.3,-11.2 l 3.6,-6.1 z"
   id="path576" />
			<path
   fill-rule="evenodd"
   clip-rule="evenodd"
   fill="#ffffff"
   d="m -1089.6,128.6 13.5,10.3 c 0,0 -54.4,62.6 -58.6,69.4 -3.4,-2.5 -5.8,-4.3 -5.8,-4.3 z"
   id="path578" />
			<g
   transform="translate(12.8758,-23.6499)"
   id="g582">
				
					<path
   fill="none"
   stroke="#ffffff"
   stroke-width="1.498"
   stroke-linecap="round"
   stroke-linejoin="round"
   stroke-miterlimit="2.247"
   d="m -1088.8,146.9 27,20.9 -4.9,7 -21.6,-10.9"
   id="path580" />
			</g>
		</g>
		<g
   transform="rotate(-12.064404,574.7179,411.22091)"
   id="g732">
			<g
   id="g626">
				<g
   transform="matrix(0.5584,-0.8296,0.8296,0.5584,-118.669,686.746)"
   id="g588">
					
						<rect
   x="-391.60001"
   y="-1138.2"
   transform="rotate(179.99985,-281.9977,-1104.3233)"
   fill-rule="evenodd"
   clip-rule="evenodd"
   width="219.2"
   height="67.699997"
   id="rect586" />
				</g>
				<g
   transform="translate(0.46115,0.140544)"
   id="g592">
					<path
   fill-rule="evenodd"
   clip-rule="evenodd"
   d="m -1282,376 56.2,37.8 122.4,-181.7 -56.2,-37.8 z m 7.4,-1.5 116.4,-173 47.3,31.9 c 0,0 -98.1,145.8 -116.4,173 z"
   id="path590" />
				</g>
				<g
   transform="translate(0.46115,0.140544)"
   id="g596">
					<path
   fill-rule="evenodd"
   clip-rule="evenodd"
   d="m -1094.4,241.3 c 0,0 -12.7,-4 -23.2,11.5 -15.6,-6.4 -8.5,-12.9 -8.5,-12.9 l 18.4,-10.9 z"
   id="path594" />
				</g>
				<g
   transform="translate(0.46115,0.140544)"
   id="g600">
					<path
   fill-rule="evenodd"
   clip-rule="evenodd"
   d="m -1171.7,189.3 c 0,0 8.5,10.2 -1.9,25.8 11.8,12 15.1,3 15.1,3 l 3.1,-21.1 z"
   id="path598" />
				</g>
				<g
   transform="matrix(0.5584,-0.8296,0.8296,0.5584,-187.051,679.684)"
   id="g604">
					
						<ellipse
   transform="rotate(179.99985,-359.29032,-1043.6085)"
   fill-rule="evenodd"
   clip-rule="evenodd"
   cx="-359.29999"
   cy="-1043.6"
   rx="14.2"
   ry="33.900002"
   id="ellipse602" />
				</g>
				<g
   transform="translate(0.46115,0.140544)"
   id="g608">
					<path
   fill-rule="evenodd"
   clip-rule="evenodd"
   d="m -1261.9,406.7 c -15.4,-10.5 -24.6,-24.1 -20.1,-30.7 4.3,-6.4 20.5,-3.3 36,7 15.4,10.5 24.6,24.1 20.1,30.7 -4.4,6.6 -20.4,3.3 -36,-7 z m 3,-4.4 c -8.4,-5.7 -14.8,-12.3 -17.7,-18 -0.6,-1.2 -1,-2.4 -1.2,-3.4 -0.1,-0.7 -0.3,-1.3 0.1,-1.9 0.3,-0.4 1,-0.6 1.8,-0.9 1,-0.3 2.2,-0.3 3.6,-0.1 6.4,0.4 15,3.9 23.4,9.6 8.4,5.7 14.8,12.3 17.7,18 0.6,1.2 1,2.4 1.2,3.4 0.1,0.7 0.3,1.3 -0.1,1.9 -0.3,0.4 -1,0.6 -1.8,0.9 -1,0.3 -2.2,0.3 -3.6,0.1 -6.5,-0.6 -15,-4 -23.4,-9.6 z"
   id="path606" />
				</g>
				<g
   transform="translate(0.46115,0.140544)"
   id="g612">
					<path
   fill-rule="evenodd"
   clip-rule="evenodd"
   d="m -1276.9,404.7 c -1.6,2.4 -2.1,5.2 -1.6,7.9 0.6,2.7 2.1,5.2 4.5,6.7 1.5,1 3.1,2.1 4.8,3.1 2.4,1.6 5.2,2.1 7.9,1.6 2.7,-0.6 5.2,-2.1 6.7,-4.5 3,-4.5 6,-9 6,-9 l -22.5,-15.1 z"
   id="path610" />
				</g>
				<g
   transform="translate(0.46115,0.140544)"
   id="g616">
					<path
   fill-rule="evenodd"
   clip-rule="evenodd"
   d="m -1276.9,404.7 c -1.6,2.4 -2.1,5.2 -1.6,7.9 0.6,2.7 2.1,5.2 4.5,6.7 1.5,1 3.1,2.1 4.8,3.1 2.4,1.6 5.2,2.1 7.9,1.6 2.7,-0.6 5.2,-2.1 6.7,-4.5 3,-4.5 6,-9 6,-9 l -22.5,-15.1 z m 4.4,3 3.1,-4.6 13.6,9.1 -3.1,4.6 c -0.7,1.2 -1.9,1.9 -3.4,2.2 -1.3,0.3 -2.8,0 -4,-0.7 -1.5,-1 -3.1,-2.1 -4.8,-3.1 -1.2,-0.7 -1.9,-1.9 -2.2,-3.4 -0.3,-1.5 0,-2.9 0.8,-4.1 z"
   id="path614" />
				</g>
				<g
   transform="matrix(0.5584,-0.8296,0.8296,0.5584,-207.897,677.51)"
   id="g620">
					
						<rect
   x="-386.5"
   y="-1031"
   transform="rotate(179.99985,-382.8395,-1025.1119)"
   fill-rule="evenodd"
   clip-rule="evenodd"
   width="7.3000002"
   height="11.7"
   id="rect618" />
				</g>
				<g
   transform="matrix(0.5584,-0.8296,0.8296,0.5584,-207.897,677.51)"
   id="g624">
					
						<rect
   x="-386.5"
   y="-1031"
   transform="rotate(179.99985,-382.8395,-1025.1119)"
   fill-rule="evenodd"
   clip-rule="evenodd"
   width="7.3000002"
   height="11.7"
   id="rect622" />
				</g>
			</g>
			<g
   transform="translate(0.46115,0.140544)"
   id="g730">
				<g
   transform="matrix(0.5584,-0.8296,0.8296,0.5584,-48.0309,694.017)"
   id="g630">
					
						<rect
   x="-209.2"
   y="-1229.9"
   transform="rotate(179.99985,-201.69707,-1167.4136)"
   fill-rule="evenodd"
   clip-rule="evenodd"
   width="15"
   height="124.9"
   id="rect628" />
				</g>
				<path
   fill-rule="evenodd"
   clip-rule="evenodd"
   d="m -1185.2,180.6 103.7,69.8 8.4,-12.4 -103.7,-69.8 z m 7.3,-1.3 2.5,-3.7 95,64 -2.5,3.7 z"
   id="path632" />
				<path
   fill-rule="evenodd"
   clip-rule="evenodd"
   fill="#ffffff"
   d="m -1233,408.9 -42.5,-28.6 123.7,-184.1 42.4,29.1 z"
   id="path634" />
				<path
   fill-rule="evenodd"
   clip-rule="evenodd"
   d="m -1234.3,407.4 -39.4,-26.5 46.6,-69.2 39.4,26.5 z"
   id="path636" />
				<g
   transform="matrix(0.5584,-0.8296,0.8296,0.5584,-145.758,675.884)"
   id="g640">
					
						<rect
   x="-322.89999"
   y="-1099.4"
   transform="rotate(179.99985,-320.02677,-1088.9446)"
   fill-rule="evenodd"
   clip-rule="evenodd"
   fill="#fffcfc"
   width="5.8000002"
   height="21"
   id="rect638" />
				</g>
				<g
   transform="matrix(0.5584,-0.8296,0.8296,0.5584,-123.932,678.193)"
   id="g644">
					
						<rect
   x="-298.20001"
   y="-1118.7"
   transform="rotate(179.99985,-295.28714,-1108.1972)"
   fill-rule="evenodd"
   clip-rule="evenodd"
   width="5.8000002"
   height="21"
   id="rect642" />
				</g>
				<g
   transform="matrix(0.5584,-0.8296,0.8296,0.5584,-101.185,680.503)"
   id="g648">
					
						<rect
   x="-272.60001"
   y="-1138.9"
   transform="rotate(179.99985,-269.69262,-1128.4171)"
   fill-rule="evenodd"
   clip-rule="evenodd"
   width="5.8000002"
   height="21"
   id="rect646" />
				</g>
				<g
   transform="matrix(0.5584,-0.8296,0.8296,0.5584,-101.185,680.503)"
   id="g652">
					
						<rect
   x="-272.60001"
   y="-1138.9"
   transform="rotate(179.99985,-269.69262,-1128.4171)"
   fill-rule="evenodd"
   clip-rule="evenodd"
   width="5.8000002"
   height="21"
   id="rect650" />
				</g>
				<g
   transform="matrix(0.5584,-0.8296,0.8296,0.5584,-140.26,674.494)"
   id="g656">
					
						<rect
   x="-317.20001"
   y="-1103.2"
   transform="rotate(179.99985,-315.75146,-1095.8231)"
   fill-rule="evenodd"
   clip-rule="evenodd"
   fill="#fffcfc"
   width="3"
   height="14.8"
   id="rect654" />
				</g>
				<g
   transform="matrix(0.5584,-0.8296,0.8296,0.5584,-118.341,676.812)"
   id="g660">
					
						<rect
   x="-292.5"
   y="-1122.6"
   transform="rotate(179.99985,-290.98968,-1115.1845)"
   fill-rule="evenodd"
   clip-rule="evenodd"
   width="3"
   height="14.8"
   id="rect658" />
				</g>
				<g
   transform="matrix(0.5584,-0.8296,0.8296,0.5584,-95.5963,679.126)"
   id="g664">
					
						<rect
   x="-266.70001"
   y="-1142.8"
   transform="rotate(179.99985,-265.24766,-1135.4044)"
   fill-rule="evenodd"
   clip-rule="evenodd"
   width="3"
   height="14.8"
   id="rect662" />
				</g>
				<g
   transform="matrix(0.5584,-0.8296,0.8296,0.5584,-95.5963,679.126)"
   id="g668">
					
						<rect
   x="-266.70001"
   y="-1142.8"
   transform="rotate(179.99985,-265.24766,-1135.4044)"
   fill-rule="evenodd"
   clip-rule="evenodd"
   width="3"
   height="14.8"
   id="rect666" />
				</g>
				<g
   transform="matrix(0.5584,-0.8296,0.8296,0.5584,-136.445,674.939)"
   id="g672">
					
						<rect
   x="-312.89999"
   y="-1106.5"
   transform="rotate(179.99985,-311.42895,-1099.0667)"
   fill-rule="evenodd"
   clip-rule="evenodd"
   fill="#fffcfc"
   width="3"
   height="14.8"
   id="rect670" />
				</g>
				<g
   transform="matrix(0.5584,-0.8296,0.8296,0.5584,-114.517,677.166)"
   id="g676">
					
						<rect
   x="-288.10001"
   y="-1126"
   transform="rotate(179.99985,-286.62713,-1118.5995)"
   fill-rule="evenodd"
   clip-rule="evenodd"
   width="3"
   height="14.8"
   id="rect674" />
				</g>
				<g
   transform="matrix(0.5584,-0.8296,0.8296,0.5584,-91.7791,679.571)"
   id="g680">
					
						<rect
   x="-262.39999"
   y="-1146.2"
   transform="rotate(179.99985,-260.9245,-1138.7968)"
   fill-rule="evenodd"
   clip-rule="evenodd"
   width="3"
   height="14.8"
   id="rect678" />
				</g>
				<g
   transform="matrix(0.5584,-0.8296,0.8296,0.5584,-91.7791,679.571)"
   id="g684">
					
						<rect
   x="-262.39999"
   y="-1146.2"
   transform="rotate(179.99985,-260.9245,-1138.7968)"
   fill-rule="evenodd"
   clip-rule="evenodd"
   width="3"
   height="14.8"
   id="rect682" />
				</g>
				<g
   transform="matrix(0.5584,-0.8296,0.8296,0.5584,-132.748,675.328)"
   id="g688">
					
						<rect
   x="-308.79999"
   y="-1109.8"
   transform="rotate(179.99985,-307.2659,-1102.3746)"
   fill-rule="evenodd"
   clip-rule="evenodd"
   width="3"
   height="14.8"
   id="rect686" />
				</g>
				<g
   transform="matrix(0.5584,-0.8296,0.8296,0.5584,-110.818,677.55)"
   id="g692">
					
						<rect
   x="-284"
   y="-1129.3"
   transform="rotate(179.99985,-282.46142,-1121.908)"
   fill-rule="evenodd"
   clip-rule="evenodd"
   width="3"
   height="14.8"
   id="rect690" />
				</g>
				<g
   transform="matrix(0.5584,-0.8296,0.8296,0.5584,-88.081,679.957)"
   id="g696">
					
						<rect
   x="-258.29999"
   y="-1149.4"
   transform="rotate(179.99985,-256.76,-1141.9553)"
   fill-rule="evenodd"
   clip-rule="evenodd"
   width="3"
   height="14.8"
   id="rect694" />
				</g>
				<g
   transform="matrix(0.5584,-0.8296,0.8296,0.5584,-88.081,679.957)"
   id="g700">
					
						<rect
   x="-258.29999"
   y="-1149.4"
   transform="rotate(179.99985,-256.76,-1141.9553)"
   fill-rule="evenodd"
   clip-rule="evenodd"
   width="3"
   height="14.8"
   id="rect698" />
				</g>
				<g
   transform="matrix(0.5584,-0.8296,0.8296,0.5584,-128.871,675.688)"
   id="g704">
					
						<rect
   x="-304.39999"
   y="-1113.3"
   transform="rotate(179.99985,-302.89109,-1105.9158)"
   fill-rule="evenodd"
   clip-rule="evenodd"
   width="3"
   height="14.8"
   id="rect702" />
				</g>
				<g
   transform="matrix(0.5584,-0.8296,0.8296,0.5584,-106.952,678.008)"
   id="g708">
					
						<rect
   x="-279.5"
   y="-1132.7"
   transform="rotate(179.99985,-277.98027,-1125.2767)"
   fill-rule="evenodd"
   clip-rule="evenodd"
   width="3"
   height="14.8"
   id="rect706" />
				</g>
				<g
   transform="matrix(0.5584,-0.8296,0.8296,0.5584,-84.207,680.323)"
   id="g712">
					
						<rect
   x="-253.89999"
   y="-1152.9"
   transform="rotate(179.99985,-252.38839,-1145.4962)"
   fill-rule="evenodd"
   clip-rule="evenodd"
   width="3"
   height="14.8"
   id="rect710" />
				</g>
				<g
   transform="matrix(0.5584,-0.8296,0.8296,0.5584,-84.207,680.323)"
   id="g716">
					
						<rect
   x="-253.89999"
   y="-1152.9"
   transform="rotate(179.99985,-252.38839,-1145.4962)"
   fill-rule="evenodd"
   clip-rule="evenodd"
   width="3"
   height="14.8"
   id="rect714" />
				</g>
				<path
   fill-rule="evenodd"
   clip-rule="evenodd"
   fill="#fffcfc"
   d="m -1183,180.5 6.7,-9.7 24.1,16.9 c 0,0 -20,-9.9 -30.8,-7.2 z"
   id="path718" />
				<path
   fill-rule="evenodd"
   clip-rule="evenodd"
   fill="#ffffff"
   d="m -1167.8,191.1 c 0,0 3.9,16.9 -2.7,23.4 -6.6,6.3 18.7,-18.1 18.7,-18.1 0,0 -10.3,-3.3 -16,-5.3 z"
   id="path720" />
				<path
   fill="#ffffff"
   d="m -1164.1,202.5 -115.8,173 c -0.3,0.6 -0.1,1.3 0.3,1.6 0.6,0.3 1.3,0.1 1.6,-0.3 l 115.8,-173 c 0.3,-0.6 0.1,-1.3 -0.3,-1.6 -0.4,-0.3 -1.1,-0.1 -1.6,0.3"
   id="path722" />
				<path
   fill="#ffffff"
   d="m -1104.2,220.3 26.1,18.3 -5.2,8.2 c -0.3,0.6 -0.1,1.3 0.4,1.6 0.6,0.3 1.3,0.1 1.6,-0.4 l 5.8,-9.1 c 0.3,-0.6 0.1,-1.2 -0.3,-1.6 l -27,-19 c -0.6,-0.4 -1.3,-0.3 -1.6,0.3 -0.5,0.7 -0.4,1.4 0.2,1.7 z"
   id="path724" />
				<path
   fill="#ffffff"
   d="m -1279.7,375.5 c -0.1,0.1 -1.3,1.6 -1.3,4.6 0,1.8 0.4,4.2 1.9,7.2 1.5,2.8 4,6.3 8.1,10.3 0.4,0.4 1.2,0.4 1.6,0 0.4,-0.4 0.4,-1.2 0,-1.6 -3.9,-3.9 -6.3,-7 -7.6,-9.7 -1.3,-2.7 -1.8,-4.6 -1.8,-6 0,-1 0.3,-1.9 0.4,-2.4 0.1,-0.3 0.1,-0.4 0.3,-0.6 v -0.1 l -0.4,-0.4 0.4,0.4 -0.4,-0.4 0.4,0.4 c 0.4,-0.4 0.4,-1.2 -0.1,-1.6 -0.3,-0.7 -1.1,-0.5 -1.5,-0.1 z"
   id="path726" />
				<path
   fill-rule="evenodd"
   clip-rule="evenodd"
   fill="#fffcfc"
   d="m -1270.1,396.8 -6,11.7 c 0,0 -1.2,6 0.6,7.3 1.6,1.3 3.1,1 3.1,1 l 10.2,-16.8 z"
   id="path728" />
			</g>
		</g>
	</g>
</g>
<g
   transform="translate(689.70981,-124.16912)"
   id="g739">
	
		<path
   fill="none"
   stroke="#ffffff"
   stroke-width="1.0486"
   stroke-linecap="round"
   stroke-linejoin="round"
   stroke-miterlimit="2.247"
   d="m -481.6,501 c 0,0 -4.2,8.5 -3.7,10.7"
   id="path737" />
</g>
<g
   transform="translate(689.70981,-124.16912)"
   id="g743">
	
		<path
   fill="none"
   stroke="#ffffff"
   stroke-width="1.0486"
   stroke-linecap="round"
   stroke-linejoin="round"
   stroke-miterlimit="2.247"
   d="m -480,501 c 0,0 0.3,6.6 -0.2,9.1"
   id="path741" />
</g>
<g
   transform="translate(689.76981,-123.87172)"
   display="none"
   id="g747">
	
		<path
   display="inline"
   fill="none"
   stroke="#ffffff"
   stroke-width="1.0486"
   stroke-linecap="round"
   stroke-linejoin="round"
   stroke-miterlimit="2.247"
   d="m -514,671.5 c 0,0 -1.9,3.8 -2,6.8"
   id="path745" />
</g>
<g
   transform="translate(689.76981,-123.87172)"
   id="g751">
	
		<path
   fill="none"
   stroke="#ffffff"
   stroke-width="1.0486"
   stroke-linecap="round"
   stroke-linejoin="round"
   stroke-miterlimit="2.247"
   d="m -489.7,524.2 c 0,0 2.6,4.2 1.2,7.8"
   id="path749" />
</g>
<g
   transform="translate(689.93981,-125.16052)"
   id="g755">
	
		<path
   fill="none"
   stroke="#ffffff"
   stroke-width="1.0486"
   stroke-linecap="round"
   stroke-linejoin="round"
   stroke-miterlimit="2.247"
   d="m -571,537.9 c 0,0 -3,5.2 -4.6,5.7"
   id="path753" />
</g>
<g
   transform="translate(690.93981,-125.75962)"
   id="g759">
	
		<path
   fill="none"
   stroke="#ffffff"
   stroke-width="1.0486"
   stroke-linecap="round"
   stroke-linejoin="round"
   stroke-miterlimit="2.247"
   d="m -502.5,551.1 c 0,0 2,7.4 1.3,9.6"
   id="path757" />
</g>
<g
   transform="translate(690.93981,-125.75962)"
   display="none"
   id="g763">
	
		<path
   display="inline"
   fill="none"
   stroke="#ffffff"
   stroke-width="1.0486"
   stroke-linecap="round"
   stroke-linejoin="round"
   stroke-miterlimit="2.247"
   d="m -528.2,705.1 -0.3,2.8"
   id="path761" />
</g>
<g
   transform="rotate(-19.19468,-55.766719,1296.1612)"
   id="g821">
	<g
   transform="matrix(1.30113,0,0,1.30113,-3347.88,-171.922)"
   id="g767">
		
			<path
   fill-rule="evenodd"
   clip-rule="evenodd"
   stroke="#ffffff"
   stroke-width="0.8966"
   stroke-linecap="round"
   stroke-linejoin="round"
   stroke-miterlimit="2.9237"
   d="m 2943.5,540.8 c 2,0.6 15.5,3.5 21.8,7 0.6,5.8 -17,13.1 -34,19.6 -3.1,2.1 -14.2,1.1 -28,15.7 -19.4,21.2 3.8,22.3 11,19 7.1,-2 36.6,-17 47.6,-14.1 41.3,-2.7 78.8,10.2 139.6,-38.1 -2.6,-38.9 -20,-54.3 -20,-54.3 0,0 -42.3,14.3 -86.7,5.4 -5.1,-1 -9.2,-1 -13.5,-3.9 -0.6,-0.4 -19.3,23 -19.3,23 2.4,0.6 7.4,2.6 10.5,6.4 -2.3,-1.3 -9.6,-4.8 -13.4,-3.4 -12.8,12.6 -15.6,17.7 -15.6,17.7 z"
   id="path765" />
	</g>
	<g
   transform="matrix(1.30113,0,0,1.30113,-3350.1,-174.351)"
   id="g771">
		
			<path
   fill="none"
   stroke="#ffffff"
   stroke-width="0.8966"
   stroke-linecap="round"
   stroke-linejoin="round"
   stroke-miterlimit="2.9237"
   d="m 3017.8,539.6 c -16.7,-1.8 -47.7,11.2 -47.7,11.2 0,0 29,-12.8 61.7,-4.3"
   id="path769" />
	</g>
	<g
   transform="matrix(1.30113,0,0,1.30113,-3347.88,-171.922)"
   id="g775">
		
			<path
   fill-rule="evenodd"
   clip-rule="evenodd"
   stroke="#ffffff"
   stroke-width="0.8966"
   stroke-linecap="round"
   stroke-linejoin="round"
   stroke-miterlimit="2.9237"
   d="m 2942.8,542.3 c -4.9,5.2 -7.6,8.5 -19.6,20.6 12,0.4 20.5,-1.9 26.5,-4.2 7.1,-2.7 12.2,-4.9 14.1,-10.5 -4.9,-2.8 -21,-5.9 -21,-5.9 z"
   id="path773" />
	</g>
	<g
   transform="matrix(1.01394,0.815403,-0.815403,1.01394,-2294.08,-2348.46)"
   id="g779">
		
			<path
   fill-rule="evenodd"
   clip-rule="evenodd"
   stroke="#ffffff"
   stroke-width="0.8966"
   stroke-linecap="round"
   stroke-linejoin="round"
   stroke-miterlimit="2.9237"
   d="m 2995.5,402.1 c 0,0 -34.6,-16.8 -34.3,-5.2 0.9,9.2 33.3,28.7 33.3,28.7 z"
   id="path777" />
	</g>
	<g
   transform="matrix(1.06903,0.146133,-0.134357,0.982878,-2648.54,-479.879)"
   id="g783">
		
			<path
   fill-rule="evenodd"
   clip-rule="evenodd"
   stroke="#ffffff"
   stroke-width="0.58"
   stroke-linecap="round"
   stroke-linejoin="round"
   stroke-miterlimit="1.5"
   d="M 2945.1,548.2 2913.8,512 c 0,0 -7.1,-19 10.9,-15.7 3.5,1.7 35.9,26.2 35.9,26.2 z"
   id="path781" />
	</g>
	<g
   transform="matrix(1.21705,0.460163,-0.460163,1.21705,-2968.92,-1413.19)"
   id="g787">
		
			<path
   fill-rule="evenodd"
   clip-rule="evenodd"
   stroke="#ffffff"
   stroke-width="0.8966"
   stroke-linecap="round"
   stroke-linejoin="round"
   stroke-miterlimit="2.9237"
   d="m 2947.2,399.1 27,0.9 -6.3,18 -28.3,-7.2 c 0.1,-0.1 -3.7,-12 7.6,-11.7 z"
   id="path785" />
	</g>
	<g
   transform="rotate(19.19468,2105.9795,-9280.452)"
   id="g791">
		<path
   fill-rule="evenodd"
   clip-rule="evenodd"
   fill="#ffffff"
   d="m 3799.2,594.1 -15.6,14.4 -13.7,2.8 c 0,0 20.5,-18.2 29.3,-17.2 z"
   id="path789" />
	</g>
	<g
   transform="rotate(41.088065,2011.2655,-3997.7674)"
   id="g795">
		
			<path
   fill="none"
   stroke="#ffffff"
   stroke-width="0.8988"
   stroke-linecap="round"
   stroke-linejoin="round"
   stroke-miterlimit="2.247"
   d="m 3855.8,440.8 c 0,0 3.9,-1.1 8.9,1.8"
   id="path793" />
	</g>
	<g
   transform="translate(-2507.22,-74.1569)"
   display="none"
   id="g799">
		
			<path
   display="inline"
   fill="none"
   stroke="#ffffff"
   stroke-width="0.8988"
   stroke-linecap="round"
   stroke-linejoin="round"
   stroke-miterlimit="2.247"
   d="m 2991.9,527.4 c 0,0 -6.8,17.4 -12.6,21.2"
   id="path797" />
	</g>
	<g
   transform="translate(-2507.22,-74.1569)"
   display="none"
   id="g803">
		
			<path
   display="inline"
   fill="none"
   stroke="#ffffff"
   stroke-width="0.8988"
   stroke-linecap="round"
   stroke-linejoin="round"
   stroke-miterlimit="2.247"
   d="m 2999.3,529.9 c 0,0 -14.9,15.2 -12.1,21.9"
   id="path801" />
	</g>
	<g
   transform="translate(-2507.22,-74.1569)"
   display="none"
   id="g807">
		
			<path
   display="inline"
   fill="none"
   stroke="#ffffff"
   stroke-width="0.8988"
   stroke-linecap="round"
   stroke-linejoin="round"
   stroke-miterlimit="2.247"
   d="m 2967.4,563.7 c 0,0 1.5,10.4 -9.6,24"
   id="path805" />
	</g>
	<g
   transform="translate(-2507.22,-74.1569)"
   display="none"
   id="g811">
		
			<path
   display="inline"
   fill="none"
   stroke="#ffffff"
   stroke-width="0.8988"
   stroke-linecap="round"
   stroke-linejoin="round"
   stroke-miterlimit="2.247"
   d="m 2976.8,567 c 0,0 -11.9,10.4 -11.9,24"
   id="path809" />
	</g>
	<g
   transform="translate(-2507.22,-74.1569)"
   display="none"
   id="g815">
		
			<path
   display="inline"
   fill="none"
   stroke="#ffffff"
   stroke-width="0.8988"
   stroke-linecap="round"
   stroke-linejoin="round"
   stroke-miterlimit="2.247"
   d="m 2957.7,604.4 c 0,0 -10.5,12.8 -11.4,18.1"
   id="path813" />
	</g>
	<g
   transform="translate(-2507.22,-74.1569)"
   display="none"
   id="g819">
		
			<path
   display="inline"
   fill="none"
   stroke="#ffffff"
   stroke-width="0.8988"
   stroke-linecap="round"
   stroke-linejoin="round"
   stroke-miterlimit="2.247"
   d="m 2950.5,599.9 c 0,0 -3.1,16.4 -5.7,19.5"
   id="path817" />
	</g>
</g>
<g
   id="g895"
   transform="translate(-369.74019,-52.396322)">
	<g
   transform="translate(291.616,-79.3997)"
   id="g825">
		
			<path
   fill-rule="evenodd"
   clip-rule="evenodd"
   stroke="#ffffff"
   stroke-width="1.498"
   stroke-linecap="round"
   stroke-linejoin="round"
   stroke-miterlimit="2.247"
   d="m 437.4,234.9 c 10.9,-30.6 25.8,-50.2 31.3,-59.5 -14.3,-38.4 -47.5,-48.7 -65,-39.9 0,0 -100.9,39.4 -115.1,82.3 -3,9.1 -13.5,47.9 -16,61.6 -0.1,5.4 -13.1,8.7 -17.3,22.2 -4.8,20.6 14.4,68.2 14.6,100.5 27,17.7 20.9,-31.9 20.9,-31.9 0,0 -7,-35.3 -5.8,-44.2 23.2,-25.5 40,-22.1 54,-23.5 20.7,5.1 20.4,21.9 20.4,21.9 0,0 8.5,10.9 -9.9,25.5 -9.1,1.1 -39,9.3 -48.6,41.1 -1,27.3 26.8,10.5 28,8.5 1.3,-1.9 7.7,-14.7 46.8,-24.5 26.3,-10.2 43.7,-92.1 61.7,-140.1 z"
   id="path823" />
	</g>
	<g
   transform="matrix(0.91895,0.394373,-0.267112,0.622411,546.31,-782.912)"
   id="g829">
		<path
   fill-rule="evenodd"
   clip-rule="evenodd"
   fill="#ffffff"
   d="m 481.9,1453.6 7.3,-17.7 c 0,0 11.8,6.2 12.3,11.8 0.5,5.6 -11.5,20.8 -11.5,20.8 0,0 -8.2,0.6 -8.1,-14.9 z"
   id="path827" />
	</g>
	<g
   transform="rotate(10.474797,2609.1796,1787.3799)"
   id="g833">
		<path
   fill-rule="evenodd"
   clip-rule="evenodd"
   fill="#ffffff"
   d="m 324.7,695.4 5.9,4.8 c 0,0 4.2,14.2 3.2,17.3 -1,3.1 -9.4,-15.4 -9.1,-22.1 z"
   id="path831" />
	</g>
	<g
   transform="rotate(-22.011094,2029.7043,-573.74577)"
   id="g837">
		
			<path
   fill-rule="evenodd"
   clip-rule="evenodd"
   fill="#ffffff"
   stroke="#ffffff"
   stroke-width="0.8988"
   stroke-linecap="round"
   stroke-linejoin="round"
   stroke-miterlimit="2.247"
   d="m 426.2,-310.8 c 0,0 -2.3,5.9 -1.5,8.3"
   id="path835" />
	</g>
	<g
   transform="translate(307.078,-74.2732)"
   id="g841">
		
			<path
   fill="none"
   stroke="#ffffff"
   stroke-width="0.8988"
   stroke-linecap="round"
   stroke-linejoin="round"
   stroke-miterlimit="2.247"
   d="m 336.1,345.5 c 0,0 1.2,-1 4.2,1.9"
   id="path839" />
	</g>
	<g
   transform="translate(291.616,-79.3997)"
   id="g845">
		
			<path
   fill="none"
   stroke="#ffffff"
   stroke-width="0.8988"
   stroke-linecap="round"
   stroke-linejoin="round"
   stroke-miterlimit="2.247"
   d="m 363.1,325.7 c 0,0 8.7,-20.3 6.5,-32.8"
   id="path843" />
	</g>
	<g
   transform="translate(291.616,-79.3997)"
   id="g849">
		
			<path
   fill="none"
   stroke="#ffffff"
   stroke-width="0.8988"
   stroke-linecap="round"
   stroke-linejoin="round"
   stroke-miterlimit="2.247"
   d="m 361,333.9 c 3,-11.5 0.6,-25.9 2.5,-39.7"
   id="path847" />
	</g>
	<g
   transform="translate(297.117,-82.2222)"
   id="g853">
		
			<path
   fill="none"
   stroke="#ffffff"
   stroke-width="0.8988"
   stroke-linecap="round"
   stroke-linejoin="round"
   stroke-miterlimit="2.247"
   d="m 265.9,321.9 c 0,0 12.1,4.2 12.2,5.7 0.1,1.5 -6.2,-8.9 -6,-10"
   id="path851" />
	</g>
	<g
   transform="translate(291.616,-79.3997)"
   id="g857">
		
			<path
   fill="none"
   stroke="#ffffff"
   stroke-width="0.8988"
   stroke-linecap="round"
   stroke-linejoin="round"
   stroke-miterlimit="2.247"
   d="m 415.7,309.9 13,2 0.2,6.7"
   id="path855" />
	</g>
	<g
   transform="translate(291.616,-79.3997)"
   id="g861">
		
			<path
   fill="none"
   stroke="#ffffff"
   stroke-width="0.8988"
   stroke-linecap="round"
   stroke-linejoin="round"
   stroke-miterlimit="2.247"
   d="M 273,283.5 317.8,257 c 0,0 -39.6,24.6 -43.2,19.4"
   id="path859" />
	</g>
	<g
   transform="translate(291.616,-79.3997)"
   id="g865">
		
			<path
   fill="none"
   stroke="#ffffff"
   stroke-width="0.8988"
   stroke-linecap="round"
   stroke-linejoin="round"
   stroke-miterlimit="2.247"
   d="m 281.1,250.6 c 4.1,-8 23.6,-23.5 26.3,-26.3 -6.6,3.7 -19.3,11.7 -25,16.7"
   id="path863" />
	</g>
	<g
   transform="translate(291.616,-79.3997)"
   id="g869">
		
			<path
   fill="none"
   stroke="#ffffff"
   stroke-width="0.8988"
   stroke-linecap="round"
   stroke-linejoin="round"
   stroke-miterlimit="2.247"
   d="m 296.7,213.4 9.5,-5.6 5.3,-14.8"
   id="path867" />
	</g>
	<g
   transform="translate(287.816,-76.1464)"
   id="g873">
		
			<path
   fill="none"
   stroke="#ffffff"
   stroke-width="0.8988"
   stroke-linecap="round"
   stroke-linejoin="round"
   stroke-miterlimit="2.247"
   d="m 283.7,370.1 c 0,0 9,0.7 10.2,-2.4"
   id="path871" />
	</g>
	<g
   transform="rotate(-28.797342,2054.1646,-366.79395)"
   id="g877">
		
			<path
   fill="none"
   stroke="#ffffff"
   stroke-width="0.8988"
   stroke-linecap="round"
   stroke-linejoin="round"
   stroke-miterlimit="2.247"
   d="m 437.4,-495.6 c 0,0 7.9,0.2 8.6,-1.3"
   id="path875" />
	</g>
	<g
   transform="matrix(0.979426,0.201805,-0.251206,1.21919,-3124.47,-814.16)"
   id="g881">
		
			<path
   fill-rule="evenodd"
   clip-rule="evenodd"
   stroke="#ffffff"
   stroke-width="0.53"
   stroke-linecap="round"
   stroke-linejoin="round"
   stroke-miterlimit="1.5"
   d="m 3842.2,242.3 46.5,4.3 c 6.1,-2 9.8,-10 -5,-16.1 -6.1,-2.5 -22.6,-5 -33.1,-4.3 -5.2,0.6 -16.4,9.1 -8.4,16.1 z"
   id="path879" />
	</g>
	<g
   transform="matrix(1.39603,0,0,1.68058,-4647.89,-166.669)"
   id="g885">
		
			<path
   fill-rule="evenodd"
   clip-rule="evenodd"
   stroke="#ffffff"
   stroke-width="0.39"
   stroke-linecap="round"
   stroke-linejoin="round"
   stroke-miterlimit="1.5"
   d="m 3753,240 c 2.5,-3.2 5.7,-6 15.2,-7 0,0 26.9,1.7 19.9,11.7 -15.6,-0.5 -35.1,-4.7 -35.1,-4.7 z"
   id="path883" />
	</g>
	<g
   transform="translate(-3224.88,-70.0165)"
   id="g889">
		
			<path
   fill="none"
   stroke="#ffffff"
   stroke-width="0.8988"
   stroke-linecap="round"
   stroke-linejoin="round"
   stroke-miterlimit="2.247"
   d="m 3828.6,312.8 c 0,0 -7.2,3.7 -6.9,7.6"
   id="path887" />
	</g>
	<g
   transform="translate(-3227.81,-70.3525)"
   id="g893">
		
			<path
   fill="none"
   stroke="#ffffff"
   stroke-width="0.8988"
   stroke-linecap="round"
   stroke-linejoin="round"
   stroke-miterlimit="2.247"
   d="m 3831,312.4 c 0,0 -9,1.6 -8.8,4.2"
   id="path891" />
	</g>
</g>
<g
   transform="rotate(14.256486,2272.5618,-14049.404)"
   id="g899">
	
		<path
   fill="none"
   stroke="#ffffff"
   stroke-width="0.8988"
   stroke-linecap="round"
   stroke-linejoin="round"
   stroke-miterlimit="2.247"
   d="m 3835.2,487.8 c 0,0 3.8,0.8 3.8,8.3"
   id="path897" />
</g>
<g
   id="g923"
   transform="translate(-369.74019,-52.396322)">
	<path
   d="m 476,648.5 c -7.7,-0.4 -15.2,-0.6 -22.7,-1.1 -5.2,-0.4 -10.4,-1 -15.6,-1.9 -5.1,-0.9 -10.2,-2.1 -15.2,-3.4 -2.8,-0.8 -5.6,-2 -8.3,-3.2 -1.1,-0.5 -2.4,-1 -2.4,-2.5 0,-1.3 1.3,-1.9 2.2,-2.6 1.9,-1.5 4.1,-1.7 6.4,-1.2 3,0.6 6,0.9 9,1.4 4.2,0.7 8.5,1.5 12.7,2.1 3.3,0.5 6.7,0.8 10.1,1.2 3.8,0.4 7.6,0.8 11.5,1 5.6,0.2 11.2,0.4 16.8,0.3 5.1,-0.1 10.2,-0.4 15.3,-0.9 5.9,-0.6 11.8,-1.4 17.7,-2.4 4.2,-0.7 8.4,-1.9 12.5,-3.1 3,-0.8 6,-1.8 8.9,-2.9 5.5,-2.2 10.7,-5 14.9,-9.2 2.5,-2.5 4.3,-5.3 4.8,-8.9 0.2,-1.3 0.5,-2.5 0.9,-3.8 0.4,-1.5 1.6,-2.1 3,-1.6 1.9,0.6 3.8,1.2 5.6,1.9 3,1.1 5.6,2.9 7.3,5.7 1,1.7 1.3,3.6 0.8,5.7 -0.8,3 -2.6,5.3 -4.7,7.5 -2.9,3 -6.3,5.4 -10.1,7.2 -3.5,1.8 -7.2,3.4 -11,4.5 -4.8,1.4 -9.5,2.9 -14.3,4.1 -4,1 -8,1.7 -12.1,2.5 -3.2,0.6 -6.5,1 -9.8,1.3 -4.7,0.5 -9.4,1 -14.1,1.3 -6.8,0.4 -13.6,0.7 -20.1,1 z"
   id="path901" />
	<path
   d="m 443.2,627.2 c 1.4,-0.9 2.5,-1.7 3.6,-2.4 2.2,-1.5 4.1,-3.5 5.5,-5.8 1.7,-2.8 4.1,-3 6.9,-2.6 6,1 11.9,1.9 18,1.6 4.3,-0.3 8.6,-0.8 13,-1.3 3,-0.4 5.9,-1.3 8.5,-2.8 2.5,-1.4 4.6,-3.2 5.9,-5.8 0.8,-1.6 1.6,-1.7 3.2,-0.9 2.5,1.3 5.1,2.7 7.7,3.9 1.3,0.6 2.7,0.8 4,1.2 1.7,0.5 3.6,0.8 4.8,2.3 1.4,1.7 1.5,3.7 0.4,5.6 -1.6,2.8 -4.2,4.4 -7,5.7 -2,1 -4,1.9 -6.1,2.5 -2.7,0.8 -5.4,1.5 -8.1,2 -7.4,1.6 -14.8,2.4 -22.3,2.4 -5.6,0 -11.3,0.1 -16.9,-0.3 -4.4,-0.3 -8.7,-1.3 -13,-2.2 -2.1,-0.4 -4.2,-1.2 -6.3,-1.9 -0.6,-0.2 -1,-0.7 -1.8,-1.2 z"
   id="path903" />
	<path
   d="m 472.8,587.6 c 6.2,0.2 10.8,0.3 15.5,0.6 3.8,0.3 7.6,0.8 11.3,1.4 3.3,0.5 6.6,1.1 9.8,1.9 2,0.5 3.9,1.4 5.7,2.4 1.8,1 1.7,2.4 0.2,3.7 -1.4,1.1 -3,1.6 -4.8,1.6 -5.3,0 -10.5,-0.3 -15.7,-1 -3.3,-0.4 -6.6,-0.7 -9.8,-1 -3.2,-0.3 -6.4,-0.7 -9.6,-0.6 -5.1,0.2 -10.2,0.8 -15.3,1.4 -2.9,0.3 -5.7,0.6 -8.5,1.2 -3.2,0.6 -6.4,1.4 -9.6,2.2 -2.2,0.6 -4.4,1.2 -6.6,2 -3.3,1.3 -6.5,2.7 -9.3,4.8 -1.9,1.4 -3.7,2.9 -5,4.9 -0.5,0.7 -0.9,1.4 -1.2,2.1 -0.9,2.1 -1.3,2.4 -3.4,1.9 -2.8,-0.7 -5.5,-1.8 -7.7,-3.8 -2.5,-2.4 -2.5,-5.1 -0.6,-7.9 1.9,-2.7 4.5,-4.6 7.3,-6.2 3.4,-2 7,-3.3 10.7,-4.6 4.8,-1.7 9.7,-3 14.7,-3.9 5.2,-1 10.4,-1.6 15.7,-2 5.8,-0.6 11.7,-0.8 16.2,-1.1 z"
   id="path905" />
	<path
   d="m 548.2,597.2 c -0.4,-0.1 -0.8,-0.1 -1.2,-0.2 -2.1,-0.7 -4.2,-1.5 -6.3,-2.1 -3.1,-0.9 -6.2,-1.8 -9.4,-2.6 -3.8,-1 -7.7,-1.9 -11.5,-2.6 -4.7,-0.9 -9.4,-1.8 -14.2,-2.4 -4,-0.6 -8,-0.7 -12,-1.2 -6.9,-0.8 -13.9,-0.9 -20.8,-0.8 -5.1,0.1 -10.2,0.1 -15.3,0.5 -4.7,0.3 -9.5,0.8 -14.1,1.5 -4.7,0.8 -9.3,1.8 -14,3 -3.3,0.8 -6.5,1.8 -9.6,2.9 -4.5,1.6 -8.7,3.7 -12.6,6.5 -2.7,1.9 -5.1,4.2 -6.9,7 -2,3.1 -2.8,6.5 -2.4,10.2 0.3,2.7 1.2,5.1 2.5,7.5 0.9,1.7 0.3,2.9 -1.6,2.7 -2.3,-0.2 -4.6,-0.6 -6.7,-1.4 -2.2,-0.8 -4.4,-2 -6.4,-3.3 -2.9,-1.9 -4.9,-4.5 -5.2,-8.1 -0.2,-2.3 0.3,-4.5 1.5,-6.5 2.3,-3.9 5.9,-6.5 9.7,-8.6 2.5,-1.4 5.1,-2.8 7.7,-4 2.4,-1.1 5,-2 7.5,-2.9 2.3,-0.8 4.7,-1.6 7,-2.3 1.5,-0.5 3,-0.8 4.5,-1.2 3.5,-0.8 7,-1.7 10.6,-2.4 4.7,-0.8 9.3,-1.5 14,-2.1 4.4,-0.6 8.8,-1 13.2,-1.4 1.5,-0.2 3.1,-0.2 4.6,-0.3 6.1,-0.2 12.2,-0.6 18.2,-0.4 6.5,0.1 13,0.7 19.5,1.2 4,0.3 7.9,0.7 11.9,1.3 4.2,0.6 8.3,1.4 12.5,2.3 3.7,0.8 7.4,1.7 11,2.8 3.8,1.2 7.5,2.7 11,4.8 1.2,0.7 2.3,1.4 3.5,2.1 -0.1,0.2 -0.2,0.4 -0.2,0.5 z"
   id="path907" />
	<path
   d="m 480.7,653 c -8.1,-0.2 -14.1,-0.2 -20,-0.6 -5.5,-0.3 -11,-0.9 -16.5,-1.4 -5.1,-0.5 -10.1,-1.2 -15.1,-2 -3.5,-0.6 -7,-1.4 -10.4,-2.2 -3.2,-0.8 -6.3,-1.8 -9.5,-2.8 -0.2,-0.1 -0.4,-0.4 -0.5,-0.5 0.2,-0.1 0.5,-0.3 0.7,-0.3 1.5,0.1 3,0.2 4.5,0.4 3.6,0.5 7.2,1.1 10.8,1.7 4.1,0.7 8.1,1.6 12.2,2.2 5.6,0.8 11.2,1.5 16.8,2.1 9.1,1 18.3,1 27.5,0.8 5.1,-0.1 10.2,-0.3 15.3,-0.6 5.6,-0.4 11.1,-1.1 16.7,-1.7 3.4,-0.4 6.8,-0.9 10.2,-1.5 3.2,-0.6 6.4,-1.3 9.6,-2 2.9,-0.7 5.8,-1.3 8.6,-2.1 3.3,-1 6.5,-2.1 9.7,-3.2 2.2,-0.8 4.5,-1.6 6.6,-2.7 3.2,-1.6 6.3,-3.3 9.4,-5.1 3.2,-1.9 5.9,-4.4 8.2,-7.3 2,-2.4 3.3,-5.1 3.6,-8.3 0.2,-2.1 0.2,-4.2 0.3,-6.3 0,-0.6 0.2,-1.5 0.6,-1.7 0.5,-0.2 1.4,-0.1 1.9,0.2 2.1,1.4 3.5,3.4 4.6,5.6 1.1,2 1.3,4.2 0.8,6.4 -0.4,2 -1.5,3.6 -2.8,5.1 -2.4,2.8 -5.3,4.9 -8.4,7 -3.9,2.6 -7.9,4.7 -12.2,6.5 -4.2,1.7 -8.5,3.3 -12.9,4.7 -3.5,1.2 -7,2.1 -10.5,3 -3.5,0.9 -7.1,1.6 -10.6,2.2 -5,0.9 -10,1.7 -15,2.3 -4.8,0.6 -9.6,0.9 -14.4,1.2 -7.3,0.3 -14.7,0.6 -19.8,0.9 z"
   id="path909" />
	<path
   d="m 421.8,625.3 c 0.5,0 1,-0.1 1.5,0 3.3,0.8 6.7,1.6 10,2.4 2.9,0.7 5.7,1.5 8.6,2.2 3.1,0.7 6.2,1.4 9.3,2.1 2.6,0.6 5.3,1.2 7.9,1.5 3.4,0.5 6.9,0.9 10.3,1 5.4,0.1 10.9,0.1 16.3,-0.2 3.5,-0.2 7,-0.8 10.5,-1.3 2.6,-0.4 5.1,-0.7 7.6,-1.3 2.7,-0.6 5.4,-1.3 8,-2.1 2.7,-0.9 5.5,-1.8 8.1,-3 3.7,-1.7 7.1,-4 9.2,-7.6 1.3,-2.2 1.4,-4.7 0.7,-7.2 -0.4,-1.5 -0.8,-2.9 -1,-4.4 -0.3,-2 1.3,-3.5 3,-3.9 3.7,-1.1 7.2,-0.4 10.5,1.5 1.8,1.1 3.4,2.3 4.5,4.2 1.9,3.2 1.3,5.8 -0.6,8.5 -2.7,3.9 -6.5,6.4 -10.7,8.3 -3.2,1.5 -6.5,2.9 -9.8,3.9 -4.1,1.3 -8.3,2.1 -12.5,3.1 -2.2,0.5 -4.5,1 -6.8,1.3 -3.9,0.5 -7.8,0.8 -11.7,1.3 -6.5,0.9 -13.1,0.8 -19.6,0.8 -6.2,0 -12.3,-0.3 -18.4,-1.1 -4.5,-0.6 -9.1,-1.2 -13.6,-2 -3.4,-0.6 -6.7,-1.4 -10,-2.4 -3.5,-1 -7,-2.2 -10.2,-4.1 -0.5,-0.3 -0.8,-0.7 -1.2,-1.1 0.1,-0.1 0.1,-0.2 0.1,-0.4 z"
   id="path911" />
	<path
   d="m 514.8,581.5 c -1.6,0 -3.3,0.1 -4.9,0 -2.5,-0.1 -5.1,-0.4 -7.6,-0.6 -3.5,-0.3 -7,-0.6 -10.5,-0.8 -2.8,-0.2 -5.5,-0.5 -8.3,-0.5 -6.6,0 -13.2,0.2 -19.8,0.3 -2.5,0 -5,0.1 -7.5,0.3 -4.6,0.4 -9.3,0.9 -13.9,1.4 -3.1,0.3 -6.1,0.7 -9.2,1.2 -2.3,0.4 -4.7,0.8 -7,1.3 -3.4,0.7 -6.7,1.3 -10.1,2.2 -3.6,0.9 -7.2,2 -10.7,3.1 -2.8,0.9 -5.6,1.8 -8.3,2.9 -2.9,1.2 -5.7,2.5 -8.4,3.9 -2,1 -3.9,2.2 -5.8,3.4 -3.7,2.4 -6.8,5.4 -9.8,8.6 -0.6,0.6 -1.1,1.2 -1.7,1.8 -0.5,0.5 -1.4,0.4 -1.5,-0.3 -0.1,-0.8 -0.1,-1.7 0.2,-2.4 0.9,-2.7 3,-4.6 5.2,-6.3 4.4,-3.4 9.3,-6.1 14.4,-8.4 3.2,-1.5 6.5,-2.7 9.9,-3.9 3,-1.1 6,-2.1 9.1,-3 2.8,-0.8 5.7,-1.5 8.6,-2.2 3.3,-0.8 6.6,-1.5 9.9,-2.1 2.8,-0.5 5.6,-0.9 8.4,-1.3 3.6,-0.5 7.2,-1 10.8,-1.4 2.4,-0.3 4.9,-0.5 7.3,-0.6 7.4,-0.2 14.7,-0.6 22.1,-0.5 5.9,0 11.8,0.5 17.7,0.9 3.9,0.3 7.8,0.6 11.7,1.1 3.2,0.4 6.4,1 9.5,1.6 0.2,0 0.3,0.1 0.5,0.2 -0.3,0 -0.3,0 -0.3,0.1 z"
   id="path913" />
	<path
   d="m 500,601.7 c -2.4,-0.5 -4.9,-1.1 -7.3,-1.6 -0.9,-0.2 -1.9,-0.1 -2.8,-0.3 -5,-1.2 -10,-1 -15,-0.9 -3.6,0 -7.2,-0.1 -10.7,0.9 -1.9,0.6 -3.9,0.6 -5.8,1.2 -3,0.8 -5.8,1.9 -8.1,4.1 -1.6,1.5 -2.1,3.5 -2.4,5.6 -0.2,1.7 -0.3,3.5 -0.7,5.2 -0.7,3.2 -2.4,5 -5.7,5.6 -2.8,0.6 -5.6,0.6 -8.5,0 -2.7,-0.5 -4.9,-1.7 -6.1,-4.2 -0.7,-1.3 -0.6,-2.7 0,-4 0.8,-2.1 2.4,-3.5 4.3,-4.7 4.2,-2.8 8.9,-4.4 13.7,-5.8 3,-0.9 6.1,-1.4 9.2,-2.1 1.8,-0.4 3.6,-1 5.4,-1.4 2,-0.4 3.9,-0.8 5.9,-1 3.5,-0.3 7,-0.4 10.4,-0.5 1.3,0 2.7,0.2 4,0.2 1.8,0.1 3.6,0.1 5.4,0.2 1.3,0.1 2.7,-0.1 3.9,0.7 0.4,0.2 1,0.1 1.5,0.2 1.2,0.2 2.4,0.5 3.7,0.7 0.4,0.1 0.8,0.1 1.2,0.2 1.4,0.4 2.9,0.7 4.3,1.1 0,0.2 0.1,0.5 0.2,0.6 z"
   id="path915" />
	<path
   d="m 475.8,600.8 c 3,-0.2 6.2,0.2 9.4,1.1 0.2,0.1 0.5,0.1 0.7,0.2 1.5,0.7 1.6,1.2 0.6,2.5 -1.9,2.3 -4.1,4.6 -5.7,7.1 -1.6,2.4 -4,2.8 -6.4,2.9 -3.6,0.2 -6.8,-0.9 -9.9,-2.7 -1.7,-1 -3.7,-1.6 -5.5,-2.4 -1.3,-0.6 -2.7,-1.2 -3.9,-1.9 -0.9,-0.5 -1,-1.5 -0.2,-2 1.6,-1.1 3.3,-2.2 5.2,-2.8 4.9,-1.6 10.1,-2.2 15.7,-2 z"
   id="path917" />
	<path
   d="m 460.5,613.5 c 0.9,-0.8 2.4,-0.8 3.6,-0.2 1.6,0.9 3.3,1.2 5,1.6 3,0.6 5.9,0.5 8.9,0.6 2.4,0 4,-1.3 5.4,-3.2 1.9,-2.7 4.6,-4.5 7.8,-5.6 1.8,-0.6 3.6,-0.9 5.5,-0.6 0.8,0.1 1.6,0.4 2.3,0.9 1.3,0.9 1.3,2.5 -0.2,3.9 -1.2,1.1 -2.6,2.2 -4.1,2.8 -4.9,2 -10.1,2.6 -15.4,2.9 -3.4,0.2 -6.8,0.1 -10.1,-0.4 -2.5,-0.4 -4.9,-1.2 -7.4,-1.9 -0.5,0 -0.8,-0.4 -1.3,-0.8 z"
   id="path919" />
	<path
   d="m 500,601.8 c 3.1,0.1 5.8,1.2 8.6,2.3 1.3,0.5 2.5,1.3 3.7,2 0.2,0.1 0.2,0.4 0.4,0.7 -0.2,0.1 -0.5,0.3 -0.7,0.3 -1,-0.3 -2.1,-0.7 -3.1,-1.1 -2.2,-1 -4.4,-2.1 -6.6,-3.2 -0.4,-0.2 -0.9,-0.2 -1.3,-0.4 -0.4,-0.2 -0.7,-0.4 -1,-0.6 z"
   id="path921" />
</g>
</svg>
