<?xml version="1.0" encoding="UTF-8" standalone="no"?>
<!-- Generator: Adobe Illustrator 26.1.0, SVG Export Plug-In . SVG Version: 6.00 Build 0)  -->

<svg
   version="1.1"
   x="0px"
   y="0px"
   viewBox="0 0 293.90003 301.87981"
   enable-background="new 0 0 1190.6 841.9"
   xml:space="preserve"
   id="svg2664"
   sodipodi:docname="place-in-syringe.svg"
   width="293.90002"
   height="301.87982"
   inkscape:version="1.2.2 (732a01da63, 2022-12-09, custom)"
   xmlns:inkscape="http://www.inkscape.org/namespaces/inkscape"
   xmlns:sodipodi="http://sodipodi.sourceforge.net/DTD/sodipodi-0.dtd"
   xmlns="http://www.w3.org/2000/svg"
   xmlns:svg="http://www.w3.org/2000/svg"><defs
   id="defs2668" /><sodipodi:namedview
   id="namedview2666"
   pagecolor="#505050"
   bordercolor="#eeeeee"
   borderopacity="1"
   inkscape:showpageshadow="0"
   inkscape:pageopacity="0"
   inkscape:pagecheckerboard="0"
   inkscape:deskcolor="#505050"
   showgrid="false"
   inkscape:zoom="0.28031832"
   inkscape:cx="114.15594"
   inkscape:cy="105.2375"
   inkscape:window-width="1850"
   inkscape:window-height="1016"
   inkscape:window-x="0"
   inkscape:window-y="0"
   inkscape:window-maximized="1"
   inkscape:current-layer="svg2664" />
<g
   id="Layer_1"
   transform="translate(-481.5,-318.92017)">
	<g
   transform="matrix(0.926903,0,0,1.91373,0,-35.0109)"
   display="none"
   id="g2532">
		
			<ellipse
   transform="matrix(0.8574,-0.5147,0.5147,0.8574,-19.4137,379.511)"
   display="inline"
   fill-rule="evenodd"
   clip-rule="evenodd"
   cx="675"
   cy="224.8"
   rx="4.0999999"
   ry="6.4000001"
   id="ellipse2528" />
		
			<ellipse
   transform="matrix(0.8574,-0.5147,0.5147,0.8574,-19.4137,379.511)"
   display="inline"
   fill-rule="evenodd"
   clip-rule="evenodd"
   cx="675"
   cy="224.8"
   rx="4.0999999"
   ry="6.4000001"
   id="ellipse2530" />
	</g>
</g>
<g
   id="Layer_4"
   transform="translate(-481.5,-318.92017)">
	<g
   id="g2661">
		<ellipse
   fill-rule="evenodd"
   clip-rule="evenodd"
   cx="638.40002"
   cy="609.70001"
   rx="137"
   ry="8.1999998"
   id="ellipse2535" />
		<polygon
   fill-rule="evenodd"
   clip-rule="evenodd"
   points="525.3,605.7 642.6,609.2 674.4,590.9 671.4,528.7 494.1,525.4 495.8,585.3 "
   id="polygon2537" />
		<path
   fill-rule="evenodd"
   clip-rule="evenodd"
   d="m 494.1,525.4 1.7,59.8 29.4,20.5 117.3,3.5 31.8,-18.3 -3,-62.2 z m 20.4,20.1 138.1,2.5 1.4,31.7 -16.5,9.5 c -19.8,-0.6 -85.7,-2.6 -105.9,-3.2 l -16.5,-11.5 z"
   id="path2539" />
		<path
   fill-rule="evenodd"
   clip-rule="evenodd"
   d="m 663.9,503.9 h 23 v 60.6 c 0,11.9 -4.7,23.2 -13.1,31.7 -4.6,4.6 -10,8.1 -15.9,10.2 1.6,0.9 2.3,1.9 2.3,2.8 0,6.4 -34,11.6 -76,11.6 -42,0 -76,-5.2 -76,-11.6 0,-1 0.8,-1.9 2.3,-2.8 -5.9,-2.2 -11.3,-5.7 -15.9,-10.2 -8.4,-8.4 -13.1,-19.8 -13.1,-31.7 v -60.6 h 25.1 V 548 h 157.3 z"
   id="path2541" />
		<path
   fill-rule="evenodd"
   clip-rule="evenodd"
   d="m 663.9,503.9 h 23 v 60.6 c 0,11.9 -4.7,23.2 -13.1,31.7 -4.6,4.6 -10,8.1 -15.9,10.2 1.6,0.9 2.3,1.9 2.3,2.8 0,6.4 -34,11.6 -76,11.6 -42,0 -76,-5.2 -76,-11.6 0,-1 0.8,-1.9 2.3,-2.8 -5.9,-2.2 -11.3,-5.7 -15.9,-10.2 -8.4,-8.4 -13.1,-19.8 -13.1,-31.7 v -60.6 h 25.1 V 548 h 157.3 z m 1.6,1.6 h 19.9 v 59 c 0,11.4 -4.6,22.4 -12.7,30.6 -4.3,4.4 -9.6,7.7 -15.3,9.9 -0.6,0.2 -1,0.7 -1.1,1.4 0,0.6 0.2,1.2 0.7,1.6 0.5,0.3 0.8,0.5 1.2,0.9 0.2,0.2 0.4,0.4 0.4,0.6 0,0.2 -0.1,0.4 -0.4,0.5 -0.2,0.3 -0.6,0.5 -1.1,0.8 -1.3,0.8 -3.4,1.6 -5.9,2.4 -12.5,3.8 -37.9,6.2 -67.1,6.2 -29.2,0 -54.4,-2.6 -67.1,-6.2 -2.5,-0.7 -4.6,-1.6 -5.9,-2.4 -0.5,-0.3 -0.8,-0.5 -1.1,-0.8 -0.2,-0.2 -0.4,-0.4 -0.4,-0.5 0,-0.2 0.1,-0.4 0.4,-0.6 0.2,-0.3 0.7,-0.5 1.2,-0.9 0.5,-0.3 0.8,-0.9 0.7,-1.6 0,-0.6 -0.5,-1.1 -1.1,-1.4 -5.7,-2.1 -11,-5.5 -15.3,-9.9 -8.1,-8.1 -12.7,-19 -12.7,-30.6 v -59 h 21.6 V 548 c 0,0.9 0.7,1.6 1.6,1.6 h 157.3 c 0.8,0 1.6,-0.7 1.6,-1.6 v -42.5 z"
   id="path2543" />
		<path
   fill="#ffffff"
   d="m 484.3,509.2 1.2,60.1 c 0,0.2 0,0.2 0,0.4 1.2,9.3 5.1,17.4 9.7,23.3 2.3,3 4.7,5.4 7.2,7.2 1.2,0.9 2.5,1.6 3.8,2.2 1.3,0.5 2.7,0.9 4.1,0.9 0.7,0 1.5,-0.1 2.3,-0.3 0.8,-0.2 1.5,-0.6 2.2,-1.1 1.7,-1.3 2,-3.7 0.7,-5.4 -1.3,-1.7 -3.7,-2 -5.4,-0.7 l 0.4,0.6 -0.2,-0.7 -0.2,0.1 0.4,0.6 -0.2,-0.7 0.1,0.3 v -0.3 0 l 0.1,0.3 v -0.3 h -0.1 c -0.1,0 -0.6,-0.1 -1.2,-0.3 -1.1,-0.4 -2.7,-1.5 -4.3,-3 -2.5,-2.3 -5.1,-5.7 -7.3,-9.7 -2.2,-4.1 -3.8,-8.8 -4.5,-13.8 l -3.8,0.5 3.8,-0.1 -1.2,-60.1 c 0,-2.1 -1.8,-3.8 -3.9,-3.7 -2,-0.1 -3.7,1.6 -3.7,3.7 z"
   id="path2545" />
		<ellipse
   fill-rule="evenodd"
   clip-rule="evenodd"
   fill="#ffffff"
   cx="584.40002"
   cy="536.59998"
   rx="78"
   ry="11.1"
   id="ellipse2547" />
		<path
   fill-rule="evenodd"
   clip-rule="evenodd"
   fill="#ffffff"
   d="m 584.4,525.6 c 43.1,0 78,5 78,11.1 0,6.1 -34.9,11.1 -78,11.1 -43.1,0 -78,-5 -78,-11.1 -0.1,-6.1 34.9,-11.1 78,-11.1 z m 0,0.9 c 30,0 56.2,2.4 69,6 3.3,0.9 5.5,1.8 6.9,2.8 0.6,0.5 1,0.9 1,1.5 0,0.5 -0.4,1 -1,1.5 -1.4,1 -3.7,1.9 -6.9,2.8 -12.9,3.5 -39,6 -69,6 -30,0 -56.2,-2.4 -69,-6 -3.3,-0.9 -5.5,-1.8 -6.9,-2.8 -0.6,-0.5 -1,-0.9 -1,-1.5 0,-0.5 0.4,-1 1,-1.5 1.4,-1 3.7,-1.9 6.9,-2.8 12.8,-3.6 38.9,-6 69,-6 z"
   id="path2549" />
		<rect
   x="481.79999"
   y="504.20001"
   fill-rule="evenodd"
   clip-rule="evenodd"
   width="20.299999"
   height="5.3000002"
   id="rect2551" />
		<path
   fill-rule="evenodd"
   clip-rule="evenodd"
   d="m 611.9,530.6 c 34.3,-0.3 95.8,13.9 -40.6,13.9 -110.3,-2.1 130.6,0.1 40.6,-13.9 z"
   id="path2553" />
		<path
   fill-rule="evenodd"
   clip-rule="evenodd"
   d="m 606.4,532.1 c 0,0 -119.8,-1.7 -59.7,7.8 -52,1.8 -25.7,-16.1 59.7,-7.8 z"
   id="path2555" />
		<path
   fill="#ffffff"
   d="m 683,560 v 0 c 0,0.2 0.1,1 0.1,2.4 0,4 -0.5,12.2 -3.9,19.6 -1.7,3.7 -4.2,7.2 -7.6,9.9 -3.5,2.7 -8,4.6 -13.9,5.2 h -0.1 c -0.5,0.1 -0.9,0.1 -1.3,0.1 -0.6,0 -1.1,0.5 -1.1,1.1 0,0.6 0.5,1.1 1.1,1.1 0.6,0 1.1,-0.1 1.6,-0.1 l -0.2,-1.1 0.1,1.1 c 6.3,-0.6 11.3,-2.7 15.1,-5.6 5.7,-4.4 8.8,-10.8 10.5,-16.7 1.7,-5.9 2,-11.5 2,-14.6 0,-1.6 -0.1,-2.5 -0.1,-2.5 0,-0.6 -0.6,-1.1 -1.2,-1 -0.7,-0.1 -1.1,0.4 -1.1,1.1 z"
   id="path2557" />
		<path
   fill="#ffffff"
   d="m 514.2,608 c 0,0 36.6,6.5 76.9,6.5 21.7,0 44.4,-1.9 63.3,-7.6 l -0.6,-1.9 c -18.6,5.7 -41.2,7.6 -62.7,7.5 -20.1,0 -39.2,-1.6 -53.4,-3.2 -7.1,-0.8 -12.9,-1.6 -16.9,-2.2 -2,-0.3 -3.6,-0.6 -4.7,-0.7 -1.1,-0.2 -1.6,-0.3 -1.6,-0.3 z"
   id="path2559" />
		<ellipse
   fill-rule="evenodd"
   clip-rule="evenodd"
   cx="575.70001"
   cy="537.09998"
   rx="22.9"
   ry="2"
   id="ellipse2561" />
		<path
   fill="#fffcfc"
   d="m 497.3,510.7 0.6,58.5 v 0.1 c 0,0 0.5,4.2 2.6,9.2 2.1,5.1 5.7,11.1 11.9,14.7 0.4,0.2 1,0.1 1.2,-0.3 0.2,-0.4 0.1,-1 -0.3,-1.2 -5.8,-3.4 -9.2,-9 -11.2,-13.9 -1,-2.4 -1.6,-4.6 -2,-6.2 -0.2,-0.8 -0.3,-1.4 -0.4,-1.9 0,-0.2 -0.1,-0.4 -0.1,-0.5 v -0.1 0 l -0.9,0.1 h 0.9 L 499,510.7 c 0,-0.5 -0.4,-0.9 -0.9,-0.9 -0.4,0 -0.8,0.4 -0.8,0.9 z"
   id="path2563" />
		<path
   fill="#fffcfc"
   d="m 685.3,559.9 v -52.3 c 0,-0.6 -0.5,-1.1 -1.1,-1.1 -0.6,0 -1.1,0.5 -1.1,1.1 v 52.3 c 0,0.6 0.5,1.1 1.1,1.1 0.6,0 1.1,-0.5 1.1,-1.1"
   id="path2565" />
		
			<rect
   x="512.20001"
   y="432.60001"
   transform="matrix(0.5584,-0.8296,0.8296,0.5584,-119.1558,686.6199)"
   fill-rule="evenodd"
   clip-rule="evenodd"
   width="146.3"
   height="45.200001"
   id="rect2567" />
		<path
   fill-rule="evenodd"
   clip-rule="evenodd"
   d="M 525.8,503.3 563.3,528.5 645,407.2 607.5,382 Z m 4.9,-1 77.7,-115.5 31.6,21.3 c 0,0 -65.5,97.3 -77.7,115.5 z"
   id="path2569" />
		<path
   fill-rule="evenodd"
   clip-rule="evenodd"
   d="m 651,413.4 c 0,0 -8.5,-2.7 -15.5,7.7 -10.4,-4.3 -5.7,-8.6 -5.7,-8.6 l 12.3,-7.3 z"
   id="path2571" />
		<path
   fill-rule="evenodd"
   clip-rule="evenodd"
   d="m 599.4,378.7 c 0,0 5.7,6.8 -1.3,17.2 7.9,8 10.1,2 10.1,2 l 2.1,-14.1 z"
   id="path2573" />
		
			<ellipse
   transform="matrix(0.5584,-0.8296,0.8296,0.5584,-187.5261,679.533)"
   fill-rule="evenodd"
   clip-rule="evenodd"
   cx="544.5"
   cy="515.90002"
   rx="9.5"
   ry="22.6"
   id="ellipse2575" />
		<path
   fill-rule="evenodd"
   clip-rule="evenodd"
   d="m 539.2,523.8 c -10.3,-7 -16.4,-16.1 -13.4,-20.5 2.9,-4.3 13.7,-2.2 24,4.7 10.3,7 16.4,16.1 13.4,20.5 -2.9,4.4 -13.6,2.2 -24,-4.7 z m 2,-2.9 c -5.6,-3.8 -9.9,-8.2 -11.8,-12 -0.4,-0.8 -0.7,-1.6 -0.8,-2.3 -0.1,-0.5 -0.2,-0.9 0.1,-1.3 0.2,-0.3 0.7,-0.4 1.2,-0.6 0.7,-0.2 1.5,-0.2 2.4,-0.1 4.3,0.3 10,2.6 15.6,6.4 5.6,3.8 9.9,8.2 11.8,12 0.4,0.8 0.7,1.6 0.8,2.3 0.1,0.5 0.2,0.9 -0.1,1.3 -0.2,0.3 -0.7,0.4 -1.2,0.6 -0.7,0.2 -1.5,0.2 -2.4,0.1 -4.3,-0.4 -10,-2.7 -15.6,-6.4 z"
   id="path2577" />
		<path
   fill-rule="evenodd"
   clip-rule="evenodd"
   d="m 529.2,522.5 c -1.1,1.6 -1.4,3.5 -1.1,5.3 0.4,1.8 1.4,3.5 3,4.5 1,0.7 2.1,1.4 3.2,2.1 1.6,1.1 3.5,1.4 5.3,1.1 1.8,-0.4 3.5,-1.4 4.5,-3 2,-3 4,-6 4,-6 l -15,-10.1 z"
   id="path2579" />
		<path
   fill-rule="evenodd"
   clip-rule="evenodd"
   d="m 529.2,522.5 c -1.1,1.6 -1.4,3.5 -1.1,5.3 0.4,1.8 1.4,3.5 3,4.5 1,0.7 2.1,1.4 3.2,2.1 1.6,1.1 3.5,1.4 5.3,1.1 1.8,-0.4 3.5,-1.4 4.5,-3 2,-3 4,-6 4,-6 l -15,-10.1 z m 2.9,2 2.1,-3.1 9.1,6.1 -2.1,3.1 c -0.5,0.8 -1.3,1.3 -2.3,1.5 -0.9,0.2 -1.9,0 -2.7,-0.5 -1,-0.7 -2.1,-1.4 -3.2,-2.1 -0.8,-0.5 -1.3,-1.3 -1.5,-2.3 -0.1,-1 0.1,-1.9 0.6,-2.7 z"
   id="path2581" />
		
			<rect
   x="529.59998"
   y="530.5"
   transform="matrix(0.5584,-0.8296,0.8296,0.5584,-208.3864,677.3675)"
   fill-rule="evenodd"
   clip-rule="evenodd"
   width="4.9000001"
   height="7.8000002"
   id="rect2583" />
		
			<rect
   x="529.59998"
   y="530.5"
   transform="matrix(0.5584,-0.8296,0.8296,0.5584,-208.3864,677.3675)"
   fill-rule="evenodd"
   clip-rule="evenodd"
   width="4.9000001"
   height="7.8000002"
   id="rect2585" />
		
			<rect
   x="644.59998"
   y="337.79999"
   transform="matrix(0.5584,-0.8296,0.8296,0.5584,2.9604,696.9492)"
   fill-rule="evenodd"
   clip-rule="evenodd"
   width="23"
   height="15.8"
   id="rect2587" />
		<path
   fill-rule="evenodd"
   clip-rule="evenodd"
   d="m 622,382.1 14.8,10 32.3,-51.5 -13.1,-8.8 z m 26,-32.3 8.9,-13.2 7.3,4.9 -8.9,13.2 z"
   id="path2589" />
		
			<rect
   x="661.20001"
   y="311.60001"
   transform="matrix(0.5584,-0.8296,0.8296,0.5584,16.459,698.3489)"
   fill-rule="evenodd"
   clip-rule="evenodd"
   width="5.9000001"
   height="44.200001"
   id="rect2591" />
		
			<rect
   x="661.20001"
   y="311.60001"
   transform="matrix(0.5584,-0.8296,0.8296,0.5584,16.459,698.3489)"
   fill-rule="evenodd"
   clip-rule="evenodd"
   width="5.9000001"
   height="44.200001"
   id="rect2593" />
		<path
   fill-rule="evenodd"
   clip-rule="evenodd"
   d="m 664.2,333.7 c -10.1,-6.8 -17.8,-13.1 -17.1,-14.1 0.7,-1 9.4,3.7 19.5,10.5 10.1,6.8 17.8,13.1 17.1,14.1 -0.7,1 -9.4,-3.7 -19.5,-10.5 z"
   id="path2595" />
		
			<rect
   x="622.79999"
   y="350.39999"
   transform="matrix(0.5584,-0.8296,0.8296,0.5584,-48.0017,693.9961)"
   fill-rule="evenodd"
   clip-rule="evenodd"
   width="10"
   height="83.400002"
   id="rect2597" />
		<path
   fill-rule="evenodd"
   clip-rule="evenodd"
   d="m 590.4,372.9 69.2,46.6 5.6,-8.3 -69.2,-46.6 z m 4.9,-0.9 1.7,-2.5 63.4,42.7 -1.7,2.5 z"
   id="path2599" />
		<polygon
   fill-rule="evenodd"
   clip-rule="evenodd"
   fill="#ffffff"
   points="612.7,383.3 641,402.7 558.5,525.3 530.1,506.2 "
   id="polygon2601" />
		<polygon
   fill-rule="evenodd"
   clip-rule="evenodd"
   points="562.4,460.4 588.7,478.1 557.6,524.3 531.3,506.6 "
   id="polygon2603" />
		
			<rect
   x="560"
   y="467.89999"
   transform="matrix(0.5584,-0.8296,0.8296,0.5584,-145.8172,675.8563)"
   fill-rule="evenodd"
   clip-rule="evenodd"
   fill="#fffcfc"
   width="3.9000001"
   height="14"
   id="rect2605" />
		
			<rect
   x="573"
   y="448.5"
   transform="matrix(0.5584,-0.8296,0.8296,0.5584,-123.8996,678.1283)"
   fill-rule="evenodd"
   clip-rule="evenodd"
   width="3.9000001"
   height="14"
   id="rect2607" />
		
			<rect
   x="586.59998"
   y="428.29999"
   transform="matrix(0.5584,-0.8296,0.8296,0.5584,-101.1928,680.4805)"
   fill-rule="evenodd"
   clip-rule="evenodd"
   width="3.9000001"
   height="14"
   id="rect2609" />
		
			<rect
   x="586.59998"
   y="428.29999"
   transform="matrix(0.5584,-0.8296,0.8296,0.5584,-101.1928,680.4805)"
   fill-rule="evenodd"
   clip-rule="evenodd"
   width="3.9000001"
   height="14"
   id="rect2611" />
		
			<rect
   x="562.40002"
   y="464"
   transform="matrix(0.5584,-0.8296,0.8296,0.5584,-140.2469,674.5228)"
   fill-rule="evenodd"
   clip-rule="evenodd"
   fill="#fffcfc"
   width="2"
   height="9.8999996"
   id="rect2613" />
		
			<rect
   x="575.5"
   y="444.60001"
   transform="matrix(0.5584,-0.8296,0.8296,0.5584,-118.3314,676.7946)"
   fill-rule="evenodd"
   clip-rule="evenodd"
   width="2"
   height="9.8999996"
   id="rect2615" />
		
			<rect
   x="589.09998"
   y="424.39999"
   transform="matrix(0.5584,-0.8296,0.8296,0.5584,-95.6211,679.1511)"
   fill-rule="evenodd"
   clip-rule="evenodd"
   width="2"
   height="9.8999996"
   id="rect2617" />
		
			<rect
   x="589.09998"
   y="424.39999"
   transform="matrix(0.5584,-0.8296,0.8296,0.5584,-95.6211,679.1511)"
   fill-rule="evenodd"
   clip-rule="evenodd"
   width="2"
   height="9.8999996"
   id="rect2619" />
		
			<rect
   x="564.70001"
   y="460.70001"
   transform="matrix(0.5584,-0.8296,0.8296,0.5584,-136.4685,674.9128)"
   fill-rule="evenodd"
   clip-rule="evenodd"
   fill="#fffcfc"
   width="2"
   height="9.8999996"
   id="rect2621" />
		
			<rect
   x="577.79999"
   y="441.20001"
   transform="matrix(0.5584,-0.8296,0.8296,0.5584,-114.5504,677.1865)"
   fill-rule="evenodd"
   clip-rule="evenodd"
   width="2"
   height="9.8999996"
   id="rect2623" />
		
			<rect
   x="591.40002"
   y="421.10001"
   transform="matrix(0.5584,-0.8296,0.8296,0.5584,-91.8415,679.5389)"
   fill-rule="evenodd"
   clip-rule="evenodd"
   width="2"
   height="9.8999996"
   id="rect2625" />
		
			<rect
   x="591.40002"
   y="421.10001"
   transform="matrix(0.5584,-0.8296,0.8296,0.5584,-91.8415,679.5389)"
   fill-rule="evenodd"
   clip-rule="evenodd"
   width="2"
   height="9.8999996"
   id="rect2627" />
		
			<rect
   x="566.90002"
   y="457.39999"
   transform="matrix(0.5584,-0.8296,0.8296,0.5584,-132.7449,675.3028)"
   fill-rule="evenodd"
   clip-rule="evenodd"
   width="2"
   height="9.8999996"
   id="rect2629" />
		
			<rect
   x="580"
   y="437.89999"
   transform="matrix(0.5584,-0.8296,0.8296,0.5584,-110.8302,677.5721)"
   fill-rule="evenodd"
   clip-rule="evenodd"
   width="2"
   height="9.8999996"
   id="rect2631" />
		
			<rect
   x="593.59998"
   y="417.79999"
   transform="matrix(0.5584,-0.8296,0.8296,0.5584,-88.1207,679.9263)"
   fill-rule="evenodd"
   clip-rule="evenodd"
   width="2"
   height="9.8999996"
   id="rect2633" />
		
			<rect
   x="593.59998"
   y="417.79999"
   transform="matrix(0.5584,-0.8296,0.8296,0.5584,-88.1207,679.9263)"
   fill-rule="evenodd"
   clip-rule="evenodd"
   width="2"
   height="9.8999996"
   id="rect2635" />
		
			<rect
   x="569.20001"
   y="453.89999"
   transform="matrix(0.5584,-0.8296,0.8296,0.5584,-128.8491,675.7043)"
   fill-rule="evenodd"
   clip-rule="evenodd"
   width="2"
   height="9.8999996"
   id="rect2637" />
		
			<rect
   x="582.29999"
   y="434.5"
   transform="matrix(0.5584,-0.8296,0.8296,0.5584,-106.9315,677.9763)"
   fill-rule="evenodd"
   clip-rule="evenodd"
   width="2"
   height="9.8999996"
   id="rect2639" />
		
			<rect
   x="595.90002"
   y="414.29999"
   transform="matrix(0.5584,-0.8296,0.8296,0.5584,-84.2211,680.3328)"
   fill-rule="evenodd"
   clip-rule="evenodd"
   width="2"
   height="9.8999996"
   id="rect2641" />
		
			<rect
   x="595.90002"
   y="414.29999"
   transform="matrix(0.5584,-0.8296,0.8296,0.5584,-84.2211,680.3328)"
   fill-rule="evenodd"
   clip-rule="evenodd"
   width="2"
   height="9.8999996"
   id="rect2643" />
		<path
   fill-rule="evenodd"
   clip-rule="evenodd"
   fill="#fffcfc"
   d="m 591.9,372.8 4.5,-6.5 16.1,11.3 c -0.1,0 -13.4,-6.6 -20.6,-4.8 z"
   id="path2645" />
		<path
   fill-rule="evenodd"
   clip-rule="evenodd"
   fill="#fffcfc"
   d="m 665,329.8 c 0,0 -12.9,-3.8 -8.7,1.5 -3.3,-3.2 -10.9,-7.5 -10.9,-7.5 l 2.4,-4.1 z"
   id="path2647" />
		<path
   fill-rule="evenodd"
   clip-rule="evenodd"
   fill="#ffffff"
   d="m 657,332.6 9,6.9 c 0,0 -36.3,41.8 -39.1,46.3 -2.3,-1.7 -3.9,-2.9 -3.9,-2.9 z"
   id="path2649" />
		<path
   fill-rule="evenodd"
   clip-rule="evenodd"
   fill="#ffffff"
   d="m 602,379.9 c 0,0 2.6,11.3 -1.8,15.6 -4.4,4.2 12.5,-12.1 12.5,-12.1 0,0 -6.9,-2.2 -10.7,-3.5 z"
   id="path2651" />
		<path
   fill="#ffffff"
   d="M 604.5,387.5 527.2,503 c -0.2,0.4 -0.1,0.9 0.2,1.1 0.4,0.2 0.9,0.1 1.1,-0.2 l 77.3,-115.5 c 0.2,-0.4 0.1,-0.9 -0.2,-1.1 -0.3,-0.2 -0.8,-0.1 -1.1,0.2"
   id="path2653" />
		<path
   fill="#ffffff"
   d="m 644.5,399.4 17.4,12.2 -3.5,5.5 c -0.2,0.4 -0.1,0.9 0.3,1.1 0.4,0.2 0.9,0.1 1.1,-0.3 l 3.9,-6.1 c 0.2,-0.4 0.1,-0.8 -0.2,-1.1 l -18,-12.7 c -0.4,-0.3 -0.9,-0.2 -1.1,0.2 -0.4,0.5 -0.3,1 0.1,1.2 z"
   id="path2655" />
		<path
   fill="#ffffff"
   d="m 527.3,503 c -0.1,0.1 -0.9,1.1 -0.9,3.1 0,1.2 0.3,2.8 1.3,4.8 1,1.9 2.7,4.2 5.4,6.9 0.3,0.3 0.8,0.3 1.1,0 0.3,-0.3 0.3,-0.8 0,-1.1 -2.6,-2.6 -4.2,-4.7 -5.1,-6.5 -0.9,-1.8 -1.2,-3.1 -1.2,-4 0,-0.7 0.2,-1.3 0.3,-1.6 0.1,-0.2 0.1,-0.3 0.2,-0.4 v -0.1 0 l -0.3,-0.3 0.3,0.3 v 0 l -0.3,-0.3 0.3,0.3 c 0.3,-0.3 0.3,-0.8 -0.1,-1.1 -0.2,-0.4 -0.7,-0.3 -1,0 z"
   id="path2657" />
		<path
   fill-rule="evenodd"
   clip-rule="evenodd"
   fill="#fffcfc"
   d="m 533.7,517.2 -4,7.8 c 0,0 -0.8,4 0.4,4.9 1.1,0.9 2.1,0.7 2.1,0.7 l 6.8,-11.2 z"
   id="path2659" />
	</g>
</g>
</svg>
