<svg xmlns="http://www.w3.org/2000/svg" xml:space="preserve" width="399.397" height="600.604"><path fill-rule="evenodd" d="m242.477 229.766-12.857 32.016-21.993-8.832 12.857-32.016z" clip-rule="evenodd"/><path fill-rule="evenodd" d="m186.458 305.373 24.845 10.029 31.216-85.514-21.926-8.811zm27.925-55.461 8.868-22.143 12.185 4.86-8.868 22.143zM265.472 229.443l-3.28 8.166-61.432-24.67 3.28-8.167z" clip-rule="evenodd"/><path fill-rule="evenodd" d="M233.109 221.265c-16.898-6.819-30.207-13.587-29.445-15.283.665-1.676 14.938 2.431 31.837 9.25 16.898 6.818 30.207 13.586 29.445 15.283-.665 1.676-14.96-2.53-31.837-9.25" clip-rule="evenodd"/><path fill="#fffcfc" fill-rule="evenodd" d="M233.05 215.244s-20.066-1.54-12.254 4.869c-5.795-3.67-18.28-7.546-18.28-7.546l2.245-6.718z" clip-rule="evenodd"/><path fill="#fff" fill-rule="evenodd" d="m222.192 221.86 15.355 7.25s-40.115 72.588-42.8 80.116c-3.848-1.734-6.571-2.993-6.571-2.993z" clip-rule="evenodd"/><path fill="none" stroke="#fff" stroke-linecap="round" stroke-linejoin="round" stroke-miterlimit="2.247" stroke-width="1.498" d="m234.448 213.77 30.772 14.795-3.329 7.87-23.401-6.145"/><path fill-rule="evenodd" d="m234.914 307.64-81.69 203.416-62.824-25.23 81.689-203.415z" clip-rule="evenodd"/><path fill-rule="evenodd" d="m90.417 485.892 62.86 25.219 81.719-203.27-62.86-25.219zm6.923-3.013 77.67-193.508 52.923 21.309s-65.46 163.084-77.67 193.508z" clip-rule="evenodd"/><path fill-rule="evenodd" d="M245.72 314.957s-13.255-1.257-20.284 16.095c-16.593-2.998-11.008-10.839-11.008-10.839l15.715-14.505zM159.259 280.262s10.444 8.198 3.534 25.627c14.048 9.269 15.394-.222 15.394-.222l-1.379-21.282z" clip-rule="evenodd"/><ellipse cx="-359.3" cy="-1043.6" fill-rule="evenodd" clip-rule="evenodd" rx="14.2" ry="33.9" transform="rotate(111.88 -639.988 -109.96)"/><path fill-rule="evenodd" d="M116.49 511.713c-17.254-7.05-29.094-18.426-26.073-25.82 2.868-7.158 19.358-7.513 36.668-.68 17.255 7.05 29.094 18.426 26.073 25.821-2.923 7.374-19.26 7.491-36.668.679m2.014-4.93c-9.406-3.818-17.044-8.935-21.071-13.903-.838-1.048-1.48-2.138-1.884-3.074-.244-.663-.565-1.208-.3-1.879.21-.454.853-.796 1.573-1.256.915-.503 2.088-.753 3.5-.85 6.341-.947 15.483.678 24.889 4.497s17.044 8.935 21.071 13.903c.838 1.048 1.48 2.138 1.884 3.074.244.663.565 1.208.3 1.879-.21.454-.853.795-1.573 1.256-.915.502-2.088.753-3.5.85-6.481.772-15.504-.776-24.889-4.497" clip-rule="evenodd"/><path fill-rule="evenodd" d="M101.403 512.892c-1.063 2.682-.966 5.524.087 8.06 1.151 2.515 3.14 4.647 5.8 5.612 1.677.664 3.471 1.405 5.343 2.028 2.681 1.063 5.524.967 8.06-.086 2.515-1.152 4.646-3.14 5.611-5.801l3.987-10.056-25.16-10.063z" clip-rule="evenodd"/><path fill-rule="evenodd" d="M101.403 512.892c-1.063 2.682-.966 5.524.087 8.06 1.151 2.515 3.14 4.647 5.8 5.612 1.677.664 3.471 1.405 5.343 2.028 2.681 1.063 5.524.967 8.06-.086 2.515-1.152 4.646-3.14 5.611-5.801l3.987-10.056-25.16-10.063zm4.93 2.014 2.07-5.146 15.202 6.057-2.07 5.146c-.434 1.32-1.461 2.255-2.865 2.862-1.209.565-2.738.585-4.058.151-1.676-.664-3.47-1.405-5.342-2.028-1.32-.434-2.255-1.46-2.862-2.865-.607-1.404-.606-2.836-.075-4.177" clip-rule="evenodd"/><path fill-rule="evenodd" d="m116.198 528.24-2.72 6.775-10.858-4.36 2.72-6.774z" clip-rule="evenodd"/><path fill-rule="evenodd" d="m116.198 528.24-2.72 6.775-10.858-4.36 2.72-6.774zM265.87 307.407l-5.59 13.92-115.905-46.546 5.59-13.92z" clip-rule="evenodd"/><path fill-rule="evenodd" d="m144.239 274.576 115.998 46.584 5.623-13.882-115.999-46.584zm6.867-2.797 1.671-4.141 106.279 42.73-1.672 4.141z" clip-rule="evenodd"/><path fill="#fff" fill-rule="evenodd" d="m145.212 507.824-47.54-19.085 82.49-205.889 47.545 19.595z" clip-rule="evenodd"/><path fill-rule="evenodd" d="m143.627 506.629-44.069-17.68 31.107-77.411 44.069 17.68z" clip-rule="evenodd"/><path fill="#fffcfc" fill-rule="evenodd" d="m145.223 434.059-2.162 5.382-19.487-7.826 2.161-5.382z" clip-rule="evenodd"/><path fill-rule="evenodd" d="m158.462 401.603-2.162 5.382-19.488-7.826 2.162-5.382zM171.943 367.818l-2.161 5.382-19.488-7.826 2.161-5.382z" clip-rule="evenodd"/><path fill-rule="evenodd" d="m171.943 367.818-2.161 5.382-19.488-7.826 2.161-5.382z" clip-rule="evenodd"/><path fill="#fffcfc" fill-rule="evenodd" d="m142.131 425.194-1.118 2.784-13.734-5.515 1.118-2.784z" clip-rule="evenodd"/><path fill-rule="evenodd" d="m155.37 392.643-1.118 2.784-13.734-5.516 1.118-2.784zM168.886 358.774l-1.118 2.784-13.734-5.515 1.118-2.784z" clip-rule="evenodd"/><path fill-rule="evenodd" d="m168.886 358.774-1.118 2.784-13.734-5.515 1.118-2.784z" clip-rule="evenodd"/><path fill="#fffcfc" fill-rule="evenodd" d="m144.617 419.612-1.118 2.784-13.735-5.515 1.118-2.784z" clip-rule="evenodd"/><path fill-rule="evenodd" d="m157.613 386.898-1.118 2.784-13.735-5.516 1.118-2.784zM171.19 353.117l-1.118 2.784-13.734-5.516 1.118-2.784z" clip-rule="evenodd"/><path fill-rule="evenodd" d="m171.19 353.117-1.118 2.784-13.734-5.516 1.118-2.784zM146.811 414.062l-1.118 2.784-13.734-5.515 1.118-2.784zM159.81 381.337l-1.119 2.784-13.734-5.515 1.118-2.784zM173.57 347.635l-1.117 2.784-13.734-5.515 1.118-2.784z" clip-rule="evenodd"/><path fill-rule="evenodd" d="m173.57 347.635-1.117 2.784-13.734-5.515 1.118-2.784zM148.974 408.233l-1.118 2.783-13.734-5.515 1.118-2.784zM162.251 375.592l-1.118 2.784-13.734-5.515 1.118-2.784zM175.73 341.818l-1.117 2.784-13.735-5.515 1.118-2.784z" clip-rule="evenodd"/><path fill-rule="evenodd" d="m175.73 341.818-1.117 2.784-13.735-5.515 1.118-2.784z" clip-rule="evenodd"/><path fill="#fffcfc" fill-rule="evenodd" d="m146.37 274.018 4.524-10.886 27.1 11.49s-21.628-5.502-31.625-.604" clip-rule="evenodd"/><path fill="#fff" fill-rule="evenodd" d="M163.449 281.207s7.346 15.712 2.25 23.447c-5.137 7.54 14.504-21.608 14.504-21.608s-10.762-1.075-16.754-1.839" clip-rule="evenodd"/><path fill="#fff" d="M169.45 291.582 92.367 484.964c-.168.65.173 1.293.627 1.502.65.168 1.292-.174 1.502-.627l77.084-193.383c.168-.65-.174-1.292-.628-1.502s-1.097.132-1.502.628M231.747 296.469l29.349 12.44-3.371 9.106c-.168.65.173 1.293.725 1.481.65.168 1.292-.174 1.481-.725l3.77-10.111c.168-.65-.153-1.195-.628-1.502l-30.375-12.937c-.67-.266-1.334-.022-1.502.627-.342.79-.098 1.453.551 1.621"/><path fill="#fff" d="M92.562 484.923c-.077.118-.937 1.836-.31 4.77.376 1.76 1.27 4.023 3.363 6.644 2.052 2.424 5.229 5.324 10.074 8.379.475.308 1.257.14 1.565-.334.307-.475.14-1.257-.335-1.565-4.629-2.999-7.624-5.529-9.46-7.897-1.835-2.369-2.72-4.123-3.014-5.492-.209-.978-.103-1.92-.11-2.43.035-.314.014-.412.168-.65l-.02-.097-.476-.308.475.308-.475-.308.475.308c.308-.475.14-1.258-.432-1.544-.44-.622-1.18-.26-1.488.216"/><path fill="#fffcfc" fill-rule="evenodd" d="m106.402 503.746-3.422 12.695s.08 6.119 2.112 7.014c1.837.936 3.241.33 3.241.33l6.463-18.561z" clip-rule="evenodd"/><path fill="none" stroke="#fff" stroke-linecap="round" stroke-linejoin="round" stroke-miterlimit="2.247" stroke-width="1.049" d="M208.11 376.83s-4.2 8.5-3.7 10.7M209.71 376.83s.3 6.6-.2 9.1M200.07 400.328s2.6 4.2 1.2 7.8M118.94 412.74s-3 5.2-4.6 5.7M188.44 425.34s2 7.4 1.3 9.6"/><path fill-rule="evenodd" stroke="#fff" stroke-linecap="round" stroke-linejoin="round" stroke-miterlimit="2.924" stroke-width="1.16711361" d="M200.771 397.421c2.714-.118 20.544-2.33 29.782-.724 3.219 6.87-15.285 23.37-33.394 38.63-2.911 3.906-16.979 7.425-27.69 31.27-14.77 34.349 14.209 25.776 21.644 18.64 7.87-5.494 37.702-36.546 52.46-37.688 49.594-20.985 101.192-21.176 155.24-106.536-19.835-46.688-47.804-58.168-47.804-58.168s-45.86 35.667-104.227 43.725c-6.694.953-11.732 2.707-18.257.983-.908-.235-13.876 36.518-13.876 36.518 3.205-.29 10.205.03 15.64 3.373-3.383-.614-13.85-1.792-17.92 1.554-10.339 20.958-11.598 28.423-11.598 28.423" clip-rule="evenodd"/><path fill="none" stroke="#fff" stroke-linecap="round" stroke-linejoin="round" stroke-miterlimit="2.924" stroke-width="1.16711361" d="M288.662 362.598c-21.29 4.932-53.822 34.168-53.822 34.168s30.16-28.134 73.977-31.678"/><path fill-rule="evenodd" stroke="#fff" stroke-linecap="round" stroke-linejoin="round" stroke-miterlimit="2.924" stroke-width="1.16711361" d="M200.553 399.564c-3.797 8.486-5.703 13.696-15.272 33.698 14.916-4.642 24.377-11.105 30.766-16.498 7.57-6.355 12.895-11.24 12.834-18.934-7.219-1.344-28.328 1.734-28.328 1.734" clip-rule="evenodd"/><path fill-rule="evenodd" stroke="#fff" stroke-linecap="round" stroke-linejoin="round" stroke-miterlimit="2.924" stroke-width="1.16712258" d="M127.941 391.069s-35.07-35.701-39.769-21.353c-2.915 11.67 28.28 49.719 28.28 49.719z" clip-rule="evenodd"/><path fill-rule="evenodd" stroke="#fff" stroke-linecap="round" stroke-linejoin="round" stroke-miterlimit="1.5" stroke-width=".58" d="m2945.1 548.2-31.3-36.2s-7.1-19 10.9-15.7c3.5 1.7 35.9 26.2 35.9 26.2z" clip-rule="evenodd" transform="matrix(1.05764 -.21347 .19626 .97241 -3088.324 471.306)"/><path fill-rule="evenodd" stroke="#fff" stroke-linecap="round" stroke-linejoin="round" stroke-miterlimit="2.924" stroke-width="1.16712258" d="m121.88 315.82 35.087 2.101-8.815 23.195-36.56-10.34c.133-.126-4.4-15.735 10.287-14.955" clip-rule="evenodd"/><path fill="#fff" fill-rule="evenodd" d="m201.654 471.35-15.6 14.4-13.7 2.8s20.5-18.2 29.3-17.2" clip-rule="evenodd"/><path fill="none" stroke="#fff" stroke-linecap="round" stroke-linejoin="round" stroke-miterlimit="2.247" stroke-width=".899" d="M212.27 423.188s4.029.433 7.587 4.989"/><path fill-rule="evenodd" stroke="#fff" stroke-linecap="round" stroke-linejoin="round" stroke-miterlimit="2.247" stroke-width="1.498" d="M359.276 103.104c10.9-30.6 25.8-50.2 31.3-59.5-14.3-38.4-47.5-48.7-65-39.9 0 0-100.9 39.4-115.1 82.3-3 9.1-13.5 47.9-16 61.6-.1 5.4-13.1 8.7-17.3 22.2-4.8 20.6 14.4 68.2 14.6 100.5 27 17.7 20.9-31.9 20.9-31.9s-7-35.3-5.8-44.2c23.2-25.5 40-22.1 54-23.5 20.7 5.1 20.4 21.9 20.4 21.9s8.5 10.9-9.9 25.5c-9.1 1.1-39 9.3-48.6 41.1-1 27.3 26.8 10.5 28 8.5 1.3-1.9 7.7-14.7 46.8-24.5 26.3-10.2 43.7-92.1 61.7-140.1" clip-rule="evenodd"/><path fill="#fff" fill-rule="evenodd" d="m231.138 259.477 11.436-8.138s9.188 8.512 8.151 12.195c-1.036 3.683-16.124 8.411-16.124 8.411s-7.695-2.86-3.463-12.468M191.556 245.876l4.929 5.793s1.548 14.727.001 17.593c-1.546 2.867-6.443-16.852-4.93-23.386" clip-rule="evenodd"/><path fill="#fff" fill-rule="evenodd" stroke="#fff" stroke-linecap="round" stroke-linejoin="round" stroke-miterlimit="2.247" stroke-width=".899" d="M271.886 218.609s.078 6.332 1.72 8.257" clip-rule="evenodd"/><path fill="none" stroke="#fff" stroke-linecap="round" stroke-linejoin="round" stroke-miterlimit="2.247" stroke-width=".899" d="M273.438 218.83s1.2-1 4.2 1.9M284.976 193.904s8.7-20.3 6.5-32.8M282.876 202.104c3-11.5.6-25.9 2.5-39.7M193.277 187.281s12.1 4.2 12.2 5.7-6.2-8.9-6-10M337.576 178.104l13 2 .2 6.7M194.876 151.704l44.8-26.5s-39.6 24.6-43.2 19.4M202.976 118.804c4.1-8 23.6-23.5 26.3-26.3-6.6 3.7-19.3 11.7-25 16.7M218.576 81.604l9.5-5.6 5.3-14.8M201.776 241.557s9 .7 10.2-2.4M205.56 246.75s7.018-3.63 6.91-5.282"/><path fill-rule="evenodd" stroke="#fff" stroke-linecap="round" stroke-linejoin="round" stroke-miterlimit="1.5" stroke-width=".53" d="m3842.2 242.3 46.5 4.3c6.1-2 9.8-10-5-16.1-6.1-2.5-22.6-5-33.1-4.3-5.2.6-16.4 9.1-8.4 16.1" clip-rule="evenodd" transform="matrix(.97943 .2018 -.2512 1.21919 -3494.21 -866.556)"/><path fill-rule="evenodd" stroke="#fff" stroke-linecap="round" stroke-linejoin="round" stroke-miterlimit="1.5" stroke-width=".39" d="M3753 240c2.5-3.2 5.7-6 15.2-7 0 0 26.9 1.7 19.9 11.7-15.6-.5-35.1-4.7-35.1-4.7" clip-rule="evenodd" transform="matrix(1.39603 0 0 1.68058 -5017.63 -219.065)"/><path fill="none" stroke="#fff" stroke-linecap="round" stroke-linejoin="round" stroke-miterlimit="2.247" stroke-width=".899" d="M233.98 190.387s-7.2 3.7-6.9 7.6M233.45 189.651s-9 1.6-8.8 4.2M207.1 424.918s3.486 1.711 1.639 8.98"/><path d="M106.26 596.104c-7.7-.4-15.2-.6-22.7-1.1-5.2-.4-10.4-1-15.6-1.9-5.1-.9-10.2-2.1-15.2-3.4-2.8-.8-5.6-2-8.3-3.2-1.1-.5-2.4-1-2.4-2.5 0-1.3 1.3-1.9 2.2-2.6 1.9-1.5 4.1-1.7 6.4-1.2 3 .6 6 .9 9 1.4 4.2.7 8.5 1.5 12.7 2.1 3.3.5 6.7.8 10.1 1.2 3.8.4 7.6.8 11.5 1 5.6.2 11.2.4 16.8.3q7.65-.15 15.3-.9 8.85-.9 17.7-2.4c4.2-.7 8.4-1.9 12.5-3.1 3-.8 6-1.8 8.9-2.9 5.5-2.2 10.7-5 14.9-9.2 2.5-2.5 4.3-5.3 4.8-8.9.2-1.3.5-2.5.9-3.8.4-1.5 1.6-2.1 3-1.6 1.9.6 3.8 1.2 5.6 1.9 3 1.1 5.6 2.9 7.3 5.7 1 1.7 1.3 3.6.8 5.7-.8 3-2.6 5.3-4.7 7.5-2.9 3-6.3 5.4-10.1 7.2-3.5 1.8-7.2 3.4-11 4.5-4.8 1.4-9.5 2.9-14.3 4.1-4 1-8 1.7-12.1 2.5-3.2.6-6.5 1-9.8 1.3-4.7.5-9.4 1-14.1 1.3-6.8.4-13.6.7-20.1 1"/><path d="M73.46 574.804c1.4-.9 2.5-1.7 3.6-2.4 2.2-1.5 4.1-3.5 5.5-5.8 1.7-2.8 4.1-3 6.9-2.6 6 1 11.9 1.9 18 1.6 4.3-.3 8.6-.8 13-1.3 3-.4 5.9-1.3 8.5-2.8 2.5-1.4 4.6-3.2 5.9-5.8.8-1.6 1.6-1.7 3.2-.9 2.5 1.3 5.1 2.7 7.7 3.9 1.3.6 2.7.8 4 1.2 1.7.5 3.6.8 4.8 2.3 1.4 1.7 1.5 3.7.4 5.6-1.6 2.8-4.2 4.4-7 5.7-2 1-4 1.9-6.1 2.5-2.7.8-5.4 1.5-8.1 2-7.4 1.6-14.8 2.4-22.3 2.4-5.6 0-11.3.1-16.9-.3-4.4-.3-8.7-1.3-13-2.2-2.1-.4-4.2-1.2-6.3-1.9-.6-.2-1-.7-1.8-1.2M103.06 535.204c6.2.2 10.8.3 15.5.6 3.8.3 7.6.8 11.3 1.4 3.3.5 6.6 1.1 9.8 1.9 2 .5 3.9 1.4 5.7 2.4s1.7 2.4.2 3.7c-1.4 1.1-3 1.6-4.8 1.6-5.3 0-10.5-.3-15.7-1-3.3-.4-6.6-.7-9.8-1s-6.4-.7-9.6-.6c-5.1.2-10.2.8-15.3 1.4-2.9.3-5.7.6-8.5 1.2-3.2.6-6.4 1.4-9.6 2.2-2.2.6-4.4 1.2-6.6 2-3.3 1.3-6.5 2.7-9.3 4.8-1.9 1.4-3.7 2.9-5 4.9q-.75 1.05-1.2 2.1c-.9 2.1-1.3 2.4-3.4 1.9-2.8-.7-5.5-1.8-7.7-3.8-2.5-2.4-2.5-5.1-.6-7.9 1.9-2.7 4.5-4.6 7.3-6.2 3.4-2 7-3.3 10.7-4.6q7.2-2.55 14.7-3.9c5.2-1 10.4-1.6 15.7-2 5.8-.6 11.7-.8 16.2-1.1"/><path d="M178.46 544.804c-.4-.1-.8-.1-1.2-.2-2.1-.7-4.2-1.5-6.3-2.1-3.1-.9-6.2-1.8-9.4-2.6-3.8-1-7.7-1.9-11.5-2.6-4.7-.9-9.4-1.8-14.2-2.4-4-.6-8-.7-12-1.2-6.9-.8-13.9-.9-20.8-.8-5.1.1-10.2.1-15.3.5-4.7.3-9.5.8-14.1 1.5-4.7.8-9.3 1.8-14 3-3.3.8-6.5 1.8-9.6 2.9-4.5 1.6-8.7 3.7-12.6 6.5-2.7 1.9-5.1 4.2-6.9 7q-3 4.65-2.4 10.2c.3 2.7 1.2 5.1 2.5 7.5.9 1.7.3 2.9-1.6 2.7-2.3-.2-4.6-.6-6.7-1.4-2.2-.8-4.4-2-6.4-3.3-2.9-1.9-4.9-4.5-5.2-8.1-.2-2.3.3-4.5 1.5-6.5 2.3-3.9 5.9-6.5 9.7-8.6 2.5-1.4 5.1-2.8 7.7-4 2.4-1.1 5-2 7.5-2.9 2.3-.8 4.7-1.6 7-2.3 1.5-.5 3-.8 4.5-1.2 3.5-.8 7-1.7 10.6-2.4 4.7-.8 9.3-1.5 14-2.1 4.4-.6 8.8-1 13.2-1.4 1.5-.2 3.1-.2 4.6-.3 6.1-.2 12.2-.6 18.2-.4 6.5.1 13 .7 19.5 1.2 4 .3 7.9.7 11.9 1.3 4.2.6 8.3 1.4 12.5 2.3 3.7.8 7.4 1.7 11 2.8 3.8 1.2 7.5 2.7 11 4.8 1.2.7 2.3 1.4 3.5 2.1-.1.2-.2.4-.2.5M110.96 600.604c-8.1-.2-14.1-.2-20-.6-5.5-.3-11-.9-16.5-1.4-5.1-.5-10.1-1.2-15.1-2-3.5-.6-7-1.4-10.4-2.2-3.2-.8-6.3-1.8-9.5-2.8-.2-.1-.4-.4-.5-.5.2-.1.5-.3.7-.3 1.5.1 3 .2 4.5.4 3.6.5 7.2 1.1 10.8 1.7 4.1.7 8.1 1.6 12.2 2.2q8.4 1.2 16.8 2.1c9.1 1 18.3 1 27.5.8q7.65-.15 15.3-.6c5.6-.4 11.1-1.1 16.7-1.7q5.1-.6 10.2-1.5c3.2-.6 6.4-1.3 9.6-2 2.9-.7 5.8-1.3 8.6-2.1 3.3-1 6.5-2.1 9.7-3.2 2.2-.8 4.5-1.6 6.6-2.7 3.2-1.6 6.3-3.3 9.4-5.1 3.2-1.9 5.9-4.4 8.2-7.3 2-2.4 3.3-5.1 3.6-8.3.2-2.1.2-4.2.3-6.3 0-.6.2-1.5.6-1.7.5-.2 1.4-.1 1.9.2 2.1 1.4 3.5 3.4 4.6 5.6 1.1 2 1.3 4.2.8 6.4-.4 2-1.5 3.6-2.8 5.1-2.4 2.8-5.3 4.9-8.4 7-3.9 2.6-7.9 4.7-12.2 6.5-4.2 1.7-8.5 3.3-12.9 4.7-3.5 1.2-7 2.1-10.5 3s-7.1 1.6-10.6 2.2c-5 .9-10 1.7-15 2.3-4.8.6-9.6.9-14.4 1.2-7.3.3-14.7.6-19.8.9"/><path d="M52.06 572.904c.5 0 1-.1 1.5 0 3.3.8 6.7 1.6 10 2.4 2.9.7 5.7 1.5 8.6 2.2l9.3 2.1c2.6.6 5.3 1.2 7.9 1.5 3.4.5 6.9.9 10.3 1 5.4.1 10.9.1 16.3-.2 3.5-.2 7-.8 10.5-1.3 2.6-.4 5.1-.7 7.6-1.3 2.7-.6 5.4-1.3 8-2.1 2.7-.9 5.5-1.8 8.1-3 3.7-1.7 7.1-4 9.2-7.6 1.3-2.2 1.4-4.7.7-7.2-.4-1.5-.8-2.9-1-4.4-.3-2 1.3-3.5 3-3.9 3.7-1.1 7.2-.4 10.5 1.5 1.8 1.1 3.4 2.3 4.5 4.2 1.9 3.2 1.3 5.8-.6 8.5-2.7 3.9-6.5 6.4-10.7 8.3-3.2 1.5-6.5 2.9-9.8 3.9-4.1 1.3-8.3 2.1-12.5 3.1-2.2.5-4.5 1-6.8 1.3-3.9.5-7.8.8-11.7 1.3-6.5.9-13.1.8-19.6.8-6.2 0-12.3-.3-18.4-1.1-4.5-.6-9.1-1.2-13.6-2-3.4-.6-6.7-1.4-10-2.4-3.5-1-7-2.2-10.2-4.1-.5-.3-.8-.7-1.2-1.1.1-.1.1-.2.1-.4M145.06 529.104c-1.6 0-3.3.1-4.9 0-2.5-.1-5.1-.4-7.6-.6-3.5-.3-7-.6-10.5-.8-2.8-.2-5.5-.5-8.3-.5-6.6 0-13.2.2-19.8.3q-3.75 0-7.5.3c-4.6.4-9.3.9-13.9 1.4-3.1.3-6.1.7-9.2 1.2-2.3.4-4.7.8-7 1.3-3.4.7-6.7 1.3-10.1 2.2-3.6.9-7.2 2-10.7 3.1-2.8.9-5.6 1.8-8.3 2.9q-4.35 1.8-8.4 3.9c-2 1-3.9 2.2-5.8 3.4-3.7 2.4-6.8 5.4-9.8 8.6-.6.6-1.1 1.2-1.7 1.8-.5.5-1.4.4-1.5-.3-.1-.8-.1-1.7.2-2.4.9-2.7 3-4.6 5.2-6.3 4.4-3.4 9.3-6.1 14.4-8.4 3.2-1.5 6.5-2.7 9.9-3.9 3-1.1 6-2.1 9.1-3 2.8-.8 5.7-1.5 8.6-2.2q4.95-1.2 9.9-2.1c2.8-.5 5.6-.9 8.4-1.3 3.6-.5 7.2-1 10.8-1.4 2.4-.3 4.9-.5 7.3-.6 7.4-.2 14.7-.6 22.1-.5 5.9 0 11.8.5 17.7.9 3.9.3 7.8.6 11.7 1.1 3.2.4 6.4 1 9.5 1.6.2 0 .3.1.5.2-.3 0-.3 0-.3.1"/><path d="M130.26 549.304c-2.4-.5-4.9-1.1-7.3-1.6-.9-.2-1.9-.1-2.8-.3-5-1.2-10-1-15-.9-3.6 0-7.2-.1-10.7.9-1.9.6-3.9.6-5.8 1.2-3 .8-5.8 1.9-8.1 4.1-1.6 1.5-2.1 3.5-2.4 5.6-.2 1.7-.3 3.5-.7 5.2-.7 3.2-2.4 5-5.7 5.6-2.8.6-5.6.6-8.5 0-2.7-.5-4.9-1.7-6.1-4.2-.7-1.3-.6-2.7 0-4 .8-2.1 2.4-3.5 4.3-4.7 4.2-2.8 8.9-4.4 13.7-5.8 3-.9 6.1-1.4 9.2-2.1 1.8-.4 3.6-1 5.4-1.4 2-.4 3.9-.8 5.9-1 3.5-.3 7-.4 10.4-.5 1.3 0 2.7.2 4 .2 1.8.1 3.6.1 5.4.2 1.3.1 2.7-.1 3.9.7.4.2 1 .1 1.5.2 1.2.2 2.4.5 3.7.7.4.1.8.1 1.2.2 1.4.4 2.9.7 4.3 1.1 0 .2.1.5.2.6"/><path d="M106.06 548.404c3-.2 6.2.2 9.4 1.1.2.1.5.1.7.2 1.5.7 1.6 1.2.6 2.5-1.9 2.3-4.1 4.6-5.7 7.1-1.6 2.4-4 2.8-6.4 2.9-3.6.2-6.8-.9-9.9-2.7-1.7-1-3.7-1.6-5.5-2.4-1.3-.6-2.7-1.2-3.9-1.9-.9-.5-1-1.5-.2-2 1.6-1.1 3.3-2.2 5.2-2.8 4.9-1.6 10.1-2.2 15.7-2"/><path d="M90.76 561.104c.9-.8 2.4-.8 3.6-.2 1.6.9 3.3 1.2 5 1.6 3 .6 5.9.5 8.9.6 2.4 0 4-1.3 5.4-3.2 1.9-2.7 4.6-4.5 7.8-5.6 1.8-.6 3.6-.9 5.5-.6.8.1 1.6.4 2.3.9 1.3.9 1.3 2.5-.2 3.9-1.2 1.1-2.6 2.2-4.1 2.8-4.9 2-10.1 2.6-15.4 2.9-3.4.2-6.8.1-10.1-.4-2.5-.4-4.9-1.2-7.4-1.9-.5 0-.8-.4-1.3-.8M130.26 549.404c3.1.1 5.8 1.2 8.6 2.3 1.3.5 2.5 1.3 3.7 2 .2.1.2.4.4.7-.2.1-.5.3-.7.3-1-.3-2.1-.7-3.1-1.1-2.2-1-4.4-2.1-6.6-3.2-.4-.2-.9-.2-1.3-.4s-.7-.4-1-.6"/></svg>