<?xml version="1.0" encoding="UTF-8" standalone="no"?>
<!-- Generator: Adobe Illustrator 26.1.0, SVG Export Plug-In . SVG Version: 6.00 Build 0)  -->

<svg
   version="1.1"
   id="Layer_1"
   x="0px"
   y="0px"
   viewBox="0 0 386.49289 326.02249"
   xml:space="preserve"
   sodipodi:docname="looking-CC-muhammad-be.svg"
   width="386.49289"
   height="326.02249"
   inkscape:version="1.2.2 (732a01da63, 2022-12-09, custom)"
   xmlns:inkscape="http://www.inkscape.org/namespaces/inkscape"
   xmlns:sodipodi="http://sodipodi.sourceforge.net/DTD/sodipodi-0.dtd"
   xmlns="http://www.w3.org/2000/svg"
   xmlns:svg="http://www.w3.org/2000/svg"><defs
   id="defs234" /><sodipodi:namedview
   id="namedview232"
   pagecolor="#505050"
   bordercolor="#eeeeee"
   borderopacity="1"
   inkscape:showpageshadow="0"
   inkscape:pageopacity="0"
   inkscape:pagecheckerboard="0"
   inkscape:deskcolor="#505050"
   showgrid="false"
   inkscape:zoom="0.33714286"
   inkscape:cx="192.79661"
   inkscape:cy="235.80508"
   inkscape:window-width="1850"
   inkscape:window-height="1016"
   inkscape:window-x="0"
   inkscape:window-y="0"
   inkscape:window-maximized="1"
   inkscape:current-layer="Layer_1" />
<path
   d="m 241.7929,286.2 c -9.1,8.4 -18.7,16.2 -29.8,21.9 -3,1.6 -6,3.9 -9.8,2.8 0.9,-19.3 1.4,-18.6 15.3,-29.2 17.4,-13.3 33.9,-27.9 51.8,-42.7 -23.3,-1.8 -43.3,-9.3 -62.9,-18.5 -22.4,-10.5 -43.3,-23.8 -65.3,-35.1 -12.6,-6.5 -25.3,-11.1 -38.5,-1.4 -0.6,0.4 -1.8,-0.1 -2.699998,-0.2 l 0.199998,-0.5 c -0.1,0 -0.299998,0 -0.399998,0 0.1,0.1 0.1,0.2 0.2,0.3 -3.9,4.2 -8.9,2.4 -13.6,2.7 1.2,2.1 4.3,5 -1.8,4.5 -4.9,5 -12.2,3.2 -18.8,5.2 3.4,2.1 0.3,8 6.6,7.3 2.6,-0.3 7.9,2.3 8,3.8 0.7,9.4 4.6,4.8 8.2,2.4 4.8,-3.1 7.4,-9 13.099998,-11.2 2.2,6.2 4.6,11.6 6.1,17.3 1.6,5.7 2.2,11.7 3.6,17.4 2.4,9.9 6.5,19 13,26.9 7,8.4 15.6,14.2 26.6,15.4 11.7,1.3 21.8,-2.1 28.4,-12.5 7.8,-12.4 5.9,-30.1 -4.2,-42.6 0.1,0 0.1,0 0.1,0.1 3,-5.3 6.3,-1.3 9.1,0.1 20.9,10.5 41.8,20.8 65.9,22 0.5,0 0.8,1.3 1.6,2.7 -8,5.1 -16.1,10.2 -24,15.5 -10.7,7.2 -21.9,13.4 -33.9,18 -13.5,5.1 -27.5,8.6 -41.4,2.6 -10.8,-4.6 -19.8,-1.9 -28.2,4.1 -7.6,5.4 -14.2,12 -21.2,18.1 5.3,-2.1 9.7,-5.1 14.9,-6.6 2.3,-0.7 5.3,-1.8 6.2,0.4 2.7,6.5 5.8,3.9 9.4,1.3 1.8,-1.4 4.6,-3.8 6,-2.4 5.5,5.4 14.1,3.1 19.2,7.7 5,4.4 -5.3,8 -2.4,13.3 1,1.7 -1.6,4.4 1.3,6 3.1,-4.3 7.1,-3.4 10.8,-1.5 15.4,7.7 30.5,4.2 45.1,-1.8 19.8,-8.1 36.6,-20.7 50.8,-36.7 12.2,-13.7 24.1,-27.6 36.3,-41.3 3.4,-3.9 7.1,-7.5 10.6,-11.2 -11.5,2.9 -19.9,9.9 -27.9,17.3 -14.1,12.7 -27.7,25.6 -41.6,38.3 z m -66.4,-55.6 c 1.2,5.9 1.6,11.8 -0.3,17.6 -3.7,11.4 -13.2,16.4 -24.8,13.2 -9.2,-2.6 -16.2,-8.4 -22,-15.7 -11.4,-14.1 -15.4,-30.9 -17.5,-48.4 -0.3,-2.1 0.1,-4.8 1.2,-6.5 2,-3 5.4,-3 8.7,-2.3 3.5,0.7 3.8,3.3 3.8,6.2 -0.2,9.2 -0.2,18.3 2.2,27.3 1.3,5 3.1,9.6 6.5,13.5 6,6.8 15.1,8.9 22.4,5.4 6.6,-3.2 10.7,-11.5 9.5,-19.7 -0.5,-3.5 -1.7,-7 -2.7,-10.6 8.3,-1.7 7.4,7.5 12.2,9.6 -2.1,3.6 0.1,6.9 0.8,10.4 z m -11,69.4 c -0.3,-1 -0.9,-2 -0.7,-2.5 0.7,-1.6 1.4,-3.4 3.4,-3.5 1.6,-0.1 2.2,1.1 1.2,2.3 -1.2,1.3 -2.5,2.4 -3.9,3.7 z m 3.1,14.7 c 4.5,-7.5 7.8,-13.6 16.2,-14 -3.9,14.8 -3.9,14.8 -16.2,14 z m 30.2,-3.6 c -0.8,4.2 -5.2,2.4 -7.2,3.7 -2.6,0.5 -4.5,-0.6 -4.3,-2.5 0.5,-4 4.3,-4.8 7.3,-5.3 1.8,-0.4 4.6,1.5 4.2,4.1 z"
   id="path193" />
<path
   d="m 369.2929,113.1 c -3.2,-2.1 -7.3,-5.5 -5,-8.6 5.5,-7.5 -0.4,-9.2 -4.6,-12.5 -5.8,-4.5 -12.3,-7.6 -19.2,-10.1 -11.3,-4 -22.2,-9.2 -31,-17.2 -4.9,-4.5 -10.1,-7.5 -16,-10 -16.3,-7.1 -32.6,-14.2 -51,-18 3.7,-3.1 7.6,-0.5 10.1,-4 -21.1,-5.7 -41.8,-3.8 -62.6,0.1 -2.3,0.6 -4.7,1.2 -7,1.8 -10.3,6.6 -21.8,11.3 -30.7,20 -6,5.8 -12.4,11.3 -16.7,20.3 6.3,-1.7 8.3,-7 13.3,-7.4 1.2,-3.7 4.3,-5 8.1,-6.8 -1.6,4.1 -3.6,6.8 -7.5,7.5 0.6,2.9 -4.2,5.4 -0.4,9 6.1,-4.8 12,-9.8 18.2,-14.4 2.9,-2.1 6.9,-5.7 9.4,-5 10.2,2.9 18.4,-4.2 27.8,-4.5 3.6,-0.1 7.2,-1.6 10.8,-1.6 3.6,0.1 7.5,-1.5 11.5,1.5 -8.5,0.6 -16.8,-0.1 -23.6,5.1 21.5,0 42.4,3.7 62.8,10.8 -10.7,-1.4 -21.4,-2.3 -32.1,0.2 18,0.6 35.3,4.5 52.2,10.5 15.6,5.6 30.1,13.4 44.7,20.9 4.8,2.5 9.4,6.2 15.2,5.5 5.8,-0.7 9.6,2.1 13.3,5.6 7.9,7.2 17.8,10.3 27.2,14.5 -4.6,-5.8 -11.2,-9.1 -17.2,-13.2 z m -78.5,-40.6 c 5.5,-2.9 7.4,0.5 10.9,2.1 -5.2,2.7 -6.8,-1.5 -10.9,-2.1 z"
   id="path195" />
<path
   d="m 99.592902,183.3 c -4.7,-8.7 -3.4,-17.5 2.299998,-24.8 4.8,-6.2 11.6,-10.9 17.8,-15.8 1.3,-1 3,0.8 4.4,2.1 0.6,4.3 -3.7,4.6 -5.7,6.7 -4.3,4.8 -8,9.6 -7.9,17.6 1.9,-1.5 3.1,-2 3.8,-3 10.3,-14.7 21.9,-13.8 34.6,-6.9 4,2.2 8.1,4.4 11.7,7.1 11.1,8.1 22,16.4 33,24.6 18.9,14.1 39.5,24.6 62.7,29.8 18,4 33.1,3.7 47.6,-1.7 -9,-1 -16.3,-1.4 -23.4,-2.6 -16,-2.8 -32.3,-4.5 -46.3,-13.8 0,-0.1 -0.1,-0.1 -0.1,-0.2 -0.1,0 -0.2,0 -0.3,-0.1 0,0 0,0 0,0 l 0.5,0.4 c -16.1,-4.7 -29.1,-14.3 -40.9,-25.7 -7.8,-0.2 -9.2,-5.1 -8.6,-11.6 3.5,2.8 5.9,6.9 10.4,8.5 -2.3,-4.8 -0.3,-10.7 -4.1,-15.1 0,0 0.3,0.2 0.3,0.2 0,-0.1 0,-0.2 -0.1,-0.3 0,0 -0.1,0 -0.1,0 -6,-6.5 -6.5,-15.3 -9.4,-23.1 -1.2,-3.3 -1.9,-7.1 -7.6,-5.9 v 18.7 c -10,-6.5 -6.6,-19.3 -13.7,-28.9 -1.6,14.9 4.9,26.9 8.2,40.6 -4.8,-2.5 -8.5,-4.8 -12.5,-6.5 -5.6,-2.4 -6.5,-6.7 -5.9,-11.9 -4.6,-9.1 -14.1,-14.3 -19,-23.4 -2,-3.7 -8.2,-3.4 -8.6,0.4 -0.7,7 -7.8,7.5 -9.6,7.4 -8.9,-0.1 -5,4.5 -4.1,8.3 -0.7,-2.8 -2.5,-4.9 -5.3,-4.1 -1.3,0.4 -0.5,3.1 0.7,4.5 -2.9,-1 -5.099998,-3.6 -8.599998,-3.3 2.9,16.1 2.5,16.6 -12.7,13.4 2.5,5.5 8.5,6.3 12.8,9.8 -6.4,2 -11.1,-4.4 -15.9,-3.2 -3.5,5.1 7.5,8.2 -0.2,14.8 -3.4,2.9 -5.2,8.6 -11.1,10.7 6.4,2.6 9.2,10.6 17.2,8.6 l -0.4,0.3 c 0.2,0 0.4,0 0.5,0 -0.1,-0.1 -0.1,-0.2 -0.1,-0.3 4.2,-2.7 8.9,-2.5 13.7,-2.3 z M 127.7929,139.7 c 4.3,2.9 11.4,-1.3 14.9,7.4 -6.7,-2.6 -12.5,-1.3 -18.3,-2.4 0.9,-2.1 2.6,-5.6 3.4,-5 z"
   id="path197" />
<path
   d="m 31.192902,112.6 c -7.2,-3.6 -6.7,-10.4 -8.1,-16.3 -1.9,-8.1 -0.6,-16.4 -0.6,-24.6 0,-5.5 0.1,-11 0,-16.4 -0.1,-2.8 -0.8,-5.6 -4.5,-5.6 -3.6,0.1 -4.5,2.9 -4.7,5.7 -0.2,4.5 -0.2,9.1 0.2,13.7 0.9,10.4 2.1,20.7 3.2,31.1 -6.5,-13.8 -7.2000003,-28.6 -9.9000003,-43.1 -0.4,6.8 -0.9,13.6 -1.3,21 -3.6,-5.2 -0.4,-11.3 -4.49999998,-16.6 -2.30000002,14.2 -0.4,27.2 3.59999998,39.9 1.8,5.8 2.1,12.6 8.2000003,16.3 0,0 0,0.1 0,0.1 7.3,20 14.8,32.7 22.2,37.8 -2.6,-7.8 -9.7,-14 -9.2,-24 7.6,3.9 6.6,14.1 15.4,16.5 0.7,-9.1 -4.2,-16.3 -5.5,-24.3 -0.6,-4.1 -0.8,-9.3 -4.5,-11.2 z m -18.2,4.7 c -1.8,-5.6 -3.6000003,-11.2 -5.4000003,-16.9 -0.3,-3.5 -0.5,-6.9 -0.8,-10.8 3.2,3.7 0.8,7.3 0.8,10.8 6.0000003,4.4 8.2000003,9.9 5.4000003,16.9 z"
   id="path199" />
<path
   d="m 46.992902,34.5 c -1.8,3.7 -3.2,6.5 -4.5,9.3 -1.4,3 0.3,7.6 -4.2,8.9 0.7,-4.9 1.5,-9.7 2.2,-14.5 -6.8,7.4 -18.2,10.5 -16,23 1.6,9.3 1.3,18.9 1.8,29.3 4.7,-9 3.1,-18 5.8,-28.1 3,22.9 4.4,44 12,65.5 5.7,-5.7 4.8,-10 2.8,-14.9 -5.7,-14.4 -6.1,-29.3 -2.6,-44.4 1.6,-6.9 4,-13.6 4.6,-21 1.7,2.8 3.1,5.5 2.5,8.7 0,0 0,0 0,0 v 0 c 0,0 0,0 0,0 0,0 0,0 0,0 1.7,-7.5 2.1,-14.8 -4.4,-21.8 z m -8.8,43.9 c -1.2,-8.3 -2.9,-16.6 -0.1,-25 2.7,8.3 -0.1,16.7 0.1,25 z"
   id="path201" />
<path
   d="m 239.1929,196.7 c 3.1,0.3 4.4,5.7 8.4,4.6 2.1,-3.5 0.6,-6.5 -0.7,-8.4 -2.9,-4.2 -2.6,-14.5 -12.6,-7.7 -1.8,1.2 -2.8,-1.4 -3.7,-2.9 -3.8,-6.7 -9.2,-12.4 -11.7,-20 -1.7,-5.2 -5.4,-11.6 -10.2,-11.5 -6.1,0.1 -4.7,-7 -9.9,-7 2.5,8.6 5.6,16.7 7,25.2 1.8,10.4 7.3,17.3 16.6,21.5 5.6,2.5 9.5,6.4 11.8,12 5.1,1.1 1.7,-6.2 5,-5.8 z"
   id="path203" />
<path
   d="m 189.2929,21.2 c -13.1,4 -22.9,10.3 -32.3,17.3 -6.9,5.1 -13.8,10 -21.7,13.4 6,-9.1 16.8,-13.4 22.2,-23.1 7.9,-0.3 7.9,-0.3 14,-7 -3.8,0.4 -6.8,2.2 -9.8,4 1.9,-4.9 0.9,-6.7 -4.3,-4.2 -1.6,0.8 -3,1.7 -4.5,2.6 1.7,-5.2 6.9,-7.8 11,-13.5 -9.1,2.7 -14.2,9.7 -22,9.7 -2.4,-3 0.8,-6.4 -2.1,-9.4 -4,3.4 -7.7,6.7 -11.6,9.8 -3.8,3 -6.1,8.3 -12,8.2 -4.8,2.4 -11.4,-2.9 -15.1,4.4 2.9,-9.6 8.5,-16.1 16.2,-21.2 3.4,-2.2 8,-3.2 9.9,-7.4 1.4,0.8 4.2,-0.6 4.1,2.7 2.7,-1.8 6.6,-2.5 6.3,-7.5 -3.7,1.3 -7.7,1 -10.3,4.3 -12,3.9 -22.3,10.1 -31.099998,19.6 -4.6,5 -7.7,11.5 -13.7,15.1 1.7,-4.7 -1.2,-7.5 -3.9,-10.6 -5.7,3.6 -5.7,10.7 -11.3,14.2 0.2,-9.1 5.8,-16.4 7.1,-27.7 -6.2,7.5 -6.5,15.3 -10.8,19.7 -4.4,4.4 -7.9,8.2 -8.6,14.5 -0.3,2.5 -2.3,4.8 -3.6,7.2 2.5,14.3 -0.5,29.4 5.8,43.2 0.5,1.1 0.5,3 -0.1,4 -7.6,13.8 2.9,23.4 7,35.1 6.9,-6.9 12.8,-14 17.7,-20.9 10.2,-14.3 21.199998,-28.4 28.799998,-44.5 8.3,-5.8 16.6,-11.5 25,-17.3 0.8,7.1 -8,10.7 -7.1,19.1 9.5,-12 19.2,-22.3 30.7,-30.8 7.1,-5.2 14.6,-9.5 23.7,-9.7 2.3,-0.6 4.7,-1.2 7,-1.8 -0.5,-3.5 -3,-6.8 -0.6,-11.5 z M 56.892902,78.5 c -2.3,-11.8 2.3,-20.7 3,-30.1 1.8,9.6 -1.2,18.9 -3,30.1 z m 26.6,-25.3 c -4.4,13.2 -10.2,25.7 -16,38.1 -4.7,-0.3 -3.3,-3.8 -3.5,-6 -0.5,-6.4 0.7,-12.7 2.5,-18.8 0.6,-1.9 0.6,-1.9 7.4,-7 0.9,-0.7 1.4,-2.2 1.9,-3.4 2.2,-5.4 4.3,-10.9 6.3,-16.3 3.7,4.1 3.1,8.3 1.4,13.4 z"
   id="path205" />
<path
   d="m 159.0929,147.4 c -3.6,-17.2 -7.7,-27.6 -14.2,-34.6 0.5,10.6 3,19.7 5.5,28.9 2.1,3 5,4.6 8.7,5.7 z"
   id="path207" />
<path
   d="m 150.4929,141.7 c 0,0 -0.1,-0.1 -0.1,-0.1 0,0.1 0,0.2 0,0.2 0.1,0.2 0.2,0.4 0.3,0.6 -0.1,-0.2 -0.1,-0.4 -0.2,-0.7 z"
   id="path209" />
<path
   d="m 194.3929,152.2 c -0.2,-0.4 -1.6,-0.8 -2,-0.5 -1.7,1.1 -1.5,2.9 -1.5,4.7 0,0.8 0.3,1.5 0.4,2.3 0.7,-0.2 1.5,-0.4 2.1,-0.8 2.1,-1.6 2.2,-3.6 1,-5.7 z"
   id="path211" />
<path
   d="m 130.0929,8.9 c -3.9,3.6 -7.4,7.7 -10,12.4 6.1,-1.8 8.8,-6.4 10,-12.4 z"
   id="path213" />
<path
   d="m 264.3929,199.1 c 3.7,-1.6 2.2,-4.2 1.7,-6.6 -1,2.1 -3.1,4 -1.7,6.6 z"
   id="path215" />
<path
   d="m 266.3929,189.8 -0.2,0.2 c -0.4,0.8 -0.4,1.7 -0.2,2.6 0.5,-0.9 0.7,-1.8 0.4,-2.8 z"
   id="path217" />
<path
   d="m 75.292902,190.9 c 3,0.6 5.9,0.9 8.7,-0.2 -2.9,-0.6 -5.8,-2.9 -8.7,0.2 z"
   id="path219" />
<path
   d="m 83.992902,190.7 c 0.1,0 0.1,0 0.2,0 0,0 0,0 0.1,0 0,0 0,0 0,0 0.1,-0.1 0.2,-0.1 0.2,-0.2 -0.1,0.1 -0.3,0.2 -0.5,0.2 z"
   id="path221" />
<path
   d="m 261.9929,187.6 c -0.9,0.6 -1.9,2.7 -1.5,3.2 2,3.1 3.2,0.5 4.7,-0.6 -1.5,-0.3 -0.6,-4.4 -3.2,-2.6 z"
   id="path223" />
<path
   d="m 266.0929,190 c 0.1,-0.1 0.2,-0.3 0.2,-0.3 -0.4,0 -0.8,0.2 -1.2,0.5 0.3,0.1 0.6,0 1,-0.2 z"
   id="path225" />
<path
   d="m 234.0929,174.7 c 0.9,-0.9 1.4,-2.2 1.9,-3.1 -0.2,-1.4 -0.9,-1.8 -1.9,-1.3 -1.4,0.7 -1.8,2 -1.6,3.4 0.1,1.1 0.9,1.7 1.6,1 z"
   id="path227" />
<path
   d="m 190.4929,145.4 c 2,-1.3 1.4,-2.9 0.6,-4.5 -0.4,-0.7 -1.3,-1.8 -1.7,-1.7 -2.2,0.7 -1.1,2.6 -1,4.1 0,1.2 0.3,2.6 2.1,2.1 z"
   id="path229" />
</svg>
