<svg xmlns="http://www.w3.org/2000/svg" xml:space="preserve" width="386.493" height="326.022"><path d="M241.793 286.2c-9.1 8.4-18.7 16.2-29.8 21.9-3 1.6-6 3.9-9.8 2.8.9-19.3 1.4-18.6 15.3-29.2 17.4-13.3 33.9-27.9 51.8-42.7-23.3-1.8-43.3-9.3-62.9-18.5-22.4-10.5-43.3-23.8-65.3-35.1-12.6-6.5-25.3-11.1-38.5-1.4-.6.4-1.8-.1-2.7-.2l.2-.5h-.4c.1.1.1.2.2.3-3.9 4.2-8.9 2.4-13.6 2.7 1.2 2.1 4.3 5-1.8 4.5-4.9 5-12.2 3.2-18.8 5.2 3.4 2.1.3 8 6.6 7.3 2.6-.3 7.9 2.3 8 3.8.7 9.4 4.6 4.8 8.2 2.4 4.8-3.1 7.4-9 13.1-11.2 2.2 6.2 4.6 11.6 6.1 17.3 1.6 5.7 2.2 11.7 3.6 17.4 2.4 9.9 6.5 19 13 26.9 7 8.4 15.6 14.2 26.6 15.4 11.7 1.3 21.8-2.1 28.4-12.5 7.8-12.4 5.9-30.1-4.2-42.6.1 0 .1 0 .1.1 3-5.3 6.3-1.3 9.1.1 20.9 10.5 41.8 20.8 65.9 22 .5 0 .8 1.3 1.6 2.7-8 5.1-16.1 10.2-24 15.5-10.7 7.2-21.9 13.4-33.9 18-13.5 5.1-27.5 8.6-41.4 2.6-10.8-4.6-19.8-1.9-28.2 4.1-7.6 5.4-14.2 12-21.2 18.1 5.3-2.1 9.7-5.1 14.9-6.6 2.3-.7 5.3-1.8 6.2.4 2.7 6.5 5.8 3.9 9.4 1.3 1.8-1.4 4.6-3.8 6-2.4 5.5 5.4 14.1 3.1 19.2 7.7 5 4.4-5.3 8-2.4 13.3 1 1.7-1.6 4.4 1.3 6 3.1-4.3 7.1-3.4 10.8-1.5 15.4 7.7 30.5 4.2 45.1-1.8 19.8-8.1 36.6-20.7 50.8-36.7 12.2-13.7 24.1-27.6 36.3-41.3 3.4-3.9 7.1-7.5 10.6-11.2-11.5 2.9-19.9 9.9-27.9 17.3-14.1 12.7-27.7 25.6-41.6 38.3m-66.4-55.6c1.2 5.9 1.6 11.8-.3 17.6-3.7 11.4-13.2 16.4-24.8 13.2-9.2-2.6-16.2-8.4-22-15.7-11.4-14.1-15.4-30.9-17.5-48.4-.3-2.1.1-4.8 1.2-6.5 2-3 5.4-3 8.7-2.3 3.5.7 3.8 3.3 3.8 6.2-.2 9.2-.2 18.3 2.2 27.3 1.3 5 3.1 9.6 6.5 13.5 6 6.8 15.1 8.9 22.4 5.4 6.6-3.2 10.7-11.5 9.5-19.7-.5-3.5-1.7-7-2.7-10.6 8.3-1.7 7.4 7.5 12.2 9.6-2.1 3.6.1 6.9.8 10.4m-11 69.4c-.3-1-.9-2-.7-2.5.7-1.6 1.4-3.4 3.4-3.5 1.6-.1 2.2 1.1 1.2 2.3-1.2 1.3-2.5 2.4-3.9 3.7m3.1 14.7c4.5-7.5 7.8-13.6 16.2-14-3.9 14.8-3.9 14.8-16.2 14m30.2-3.6c-.8 4.2-5.2 2.4-7.2 3.7-2.6.5-4.5-.6-4.3-2.5.5-4 4.3-4.8 7.3-5.3 1.8-.4 4.6 1.5 4.2 4.1M369.293 113.1c-3.2-2.1-7.3-5.5-5-8.6 5.5-7.5-.4-9.2-4.6-12.5-5.8-4.5-12.3-7.6-19.2-10.1-11.3-4-22.2-9.2-31-17.2-4.9-4.5-10.1-7.5-16-10-16.3-7.1-32.6-14.2-51-18 3.7-3.1 7.6-.5 10.1-4-21.1-5.7-41.8-3.8-62.6.1-2.3.6-4.7 1.2-7 1.8-10.3 6.6-21.8 11.3-30.7 20-6 5.8-12.4 11.3-16.7 20.3 6.3-1.7 8.3-7 13.3-7.4 1.2-3.7 4.3-5 8.1-6.8-1.6 4.1-3.6 6.8-7.5 7.5.6 2.9-4.2 5.4-.4 9 6.1-4.8 12-9.8 18.2-14.4 2.9-2.1 6.9-5.7 9.4-5 10.2 2.9 18.4-4.2 27.8-4.5 3.6-.1 7.2-1.6 10.8-1.6 3.6.1 7.5-1.5 11.5 1.5-8.5.6-16.8-.1-23.6 5.1 21.5 0 42.4 3.7 62.8 10.8-10.7-1.4-21.4-2.3-32.1.2 18 .6 35.3 4.5 52.2 10.5 15.6 5.6 30.1 13.4 44.7 20.9 4.8 2.5 9.4 6.2 15.2 5.5s9.6 2.1 13.3 5.6c7.9 7.2 17.8 10.3 27.2 14.5-4.6-5.8-11.2-9.1-17.2-13.2m-78.5-40.6c5.5-2.9 7.4.5 10.9 2.1-5.2 2.7-6.8-1.5-10.9-2.1"/><path d="M99.593 183.3c-4.7-8.7-3.4-17.5 2.3-24.8 4.8-6.2 11.6-10.9 17.8-15.8 1.3-1 3 .8 4.4 2.1.6 4.3-3.7 4.6-5.7 6.7-4.3 4.8-8 9.6-7.9 17.6 1.9-1.5 3.1-2 3.8-3 10.3-14.7 21.9-13.8 34.6-6.9 4 2.2 8.1 4.4 11.7 7.1 11.1 8.1 22 16.4 33 24.6 18.9 14.1 39.5 24.6 62.7 29.8 18 4 33.1 3.7 47.6-1.7-9-1-16.3-1.4-23.4-2.6-16-2.8-32.3-4.5-46.3-13.8 0-.1-.1-.1-.1-.2-.1 0-.2 0-.3-.1l.5.4c-16.1-4.7-29.1-14.3-40.9-25.7-7.8-.2-9.2-5.1-8.6-11.6 3.5 2.8 5.9 6.9 10.4 8.5-2.3-4.8-.3-10.7-4.1-15.1l.3.2c0-.1 0-.2-.1-.3h-.1c-6-6.5-6.5-15.3-9.4-23.1-1.2-3.3-1.9-7.1-7.6-5.9v18.7c-10-6.5-6.6-19.3-13.7-28.9-1.6 14.9 4.9 26.9 8.2 40.6-4.8-2.5-8.5-4.8-12.5-6.5-5.6-2.4-6.5-6.7-5.9-11.9-4.6-9.1-14.1-14.3-19-23.4-2-3.7-8.2-3.4-8.6.4-.7 7-7.8 7.5-9.6 7.4-8.9-.1-5 4.5-4.1 8.3-.7-2.8-2.5-4.9-5.3-4.1-1.3.4-.5 3.1.7 4.5-2.9-1-5.1-3.6-8.6-3.3 2.9 16.1 2.5 16.6-12.7 13.4 2.5 5.5 8.5 6.3 12.8 9.8-6.4 2-11.1-4.4-15.9-3.2-3.5 5.1 7.5 8.2-.2 14.8-3.4 2.9-5.2 8.6-11.1 10.7 6.4 2.6 9.2 10.6 17.2 8.6l-.4.3h.5c-.1-.1-.1-.2-.1-.3 4.2-2.7 8.9-2.5 13.7-2.3m28.2-43.6c4.3 2.9 11.4-1.3 14.9 7.4-6.7-2.6-12.5-1.3-18.3-2.4.9-2.1 2.6-5.6 3.4-5M31.193 112.6c-7.2-3.6-6.7-10.4-8.1-16.3-1.9-8.1-.6-16.4-.6-24.6 0-5.5.1-11 0-16.4-.1-2.8-.8-5.6-4.5-5.6-3.6.1-4.5 2.9-4.7 5.7-.2 4.5-.2 9.1.2 13.7.9 10.4 2.1 20.7 3.2 31.1-6.5-13.8-7.2-28.6-9.9-43.1-.4 6.8-.9 13.6-1.3 21-3.6-5.2-.4-11.3-4.5-16.6-2.3 14.2-.4 27.2 3.6 39.9 1.8 5.8 2.1 12.6 8.2 16.3v.1c7.3 20 14.8 32.7 22.2 37.8-2.6-7.8-9.7-14-9.2-24 7.6 3.9 6.6 14.1 15.4 16.5.7-9.1-4.2-16.3-5.5-24.3-.6-4.1-.8-9.3-4.5-11.2m-18.2 4.7c-1.8-5.6-3.6-11.2-5.4-16.9-.3-3.5-.5-6.9-.8-10.8 3.2 3.7.8 7.3.8 10.8 6 4.4 8.2 9.9 5.4 16.9"/><path d="M46.993 34.5c-1.8 3.7-3.2 6.5-4.5 9.3-1.4 3 .3 7.6-4.2 8.9.7-4.9 1.5-9.7 2.2-14.5-6.8 7.4-18.2 10.5-16 23 1.6 9.3 1.3 18.9 1.8 29.3 4.7-9 3.1-18 5.8-28.1 3 22.9 4.4 44 12 65.5 5.7-5.7 4.8-10 2.8-14.9-5.7-14.4-6.1-29.3-2.6-44.4 1.6-6.9 4-13.6 4.6-21 1.7 2.8 3.1 5.5 2.5 8.7 1.7-7.5 2.1-14.8-4.4-21.8m-8.8 43.9c-1.2-8.3-2.9-16.6-.1-25 2.7 8.3-.1 16.7.1 25M239.193 196.7c3.1.3 4.4 5.7 8.4 4.6 2.1-3.5.6-6.5-.7-8.4-2.9-4.2-2.6-14.5-12.6-7.7-1.8 1.2-2.8-1.4-3.7-2.9-3.8-6.7-9.2-12.4-11.7-20-1.7-5.2-5.4-11.6-10.2-11.5-6.1.1-4.7-7-9.9-7 2.5 8.6 5.6 16.7 7 25.2 1.8 10.4 7.3 17.3 16.6 21.5 5.6 2.5 9.5 6.4 11.8 12 5.1 1.1 1.7-6.2 5-5.8"/><path d="M189.293 21.2c-13.1 4-22.9 10.3-32.3 17.3-6.9 5.1-13.8 10-21.7 13.4 6-9.1 16.8-13.4 22.2-23.1 7.9-.3 7.9-.3 14-7-3.8.4-6.8 2.2-9.8 4 1.9-4.9.9-6.7-4.3-4.2-1.6.8-3 1.7-4.5 2.6 1.7-5.2 6.9-7.8 11-13.5-9.1 2.7-14.2 9.7-22 9.7-2.4-3 .8-6.4-2.1-9.4-4 3.4-7.7 6.7-11.6 9.8-3.8 3-6.1 8.3-12 8.2-4.8 2.4-11.4-2.9-15.1 4.4 2.9-9.6 8.5-16.1 16.2-21.2 3.4-2.2 8-3.2 9.9-7.4 1.4.8 4.2-.6 4.1 2.7 2.7-1.8 6.6-2.5 6.3-7.5-3.7 1.3-7.7 1-10.3 4.3-12 3.9-22.3 10.1-31.1 19.6-4.6 5-7.7 11.5-13.7 15.1 1.7-4.7-1.2-7.5-3.9-10.6-5.7 3.6-5.7 10.7-11.3 14.2.2-9.1 5.8-16.4 7.1-27.7-6.2 7.5-6.5 15.3-10.8 19.7-4.4 4.4-7.9 8.2-8.6 14.5-.3 2.5-2.3 4.8-3.6 7.2 2.5 14.3-.5 29.4 5.8 43.2.5 1.1.5 3-.1 4-7.6 13.8 2.9 23.4 7 35.1 6.9-6.9 12.8-14 17.7-20.9 10.2-14.3 21.2-28.4 28.8-44.5 8.3-5.8 16.6-11.5 25-17.3.8 7.1-8 10.7-7.1 19.1 9.5-12 19.2-22.3 30.7-30.8 7.1-5.2 14.6-9.5 23.7-9.7 2.3-.6 4.7-1.2 7-1.8-.5-3.5-3-6.8-.6-11.5m-132.4 57.3c-2.3-11.8 2.3-20.7 3-30.1 1.8 9.6-1.2 18.9-3 30.1m26.6-25.3c-4.4 13.2-10.2 25.7-16 38.1-4.7-.3-3.3-3.8-3.5-6-.5-6.4.7-12.7 2.5-18.8.6-1.9.6-1.9 7.4-7 .9-.7 1.4-2.2 1.9-3.4 2.2-5.4 4.3-10.9 6.3-16.3 3.7 4.1 3.1 8.3 1.4 13.4M159.093 147.4c-3.6-17.2-7.7-27.6-14.2-34.6.5 10.6 3 19.7 5.5 28.9 2.1 3 5 4.6 8.7 5.7"/><path d="m150.493 141.7-.1-.1v.2l.3.6c-.1-.2-.1-.4-.2-.7M194.393 152.2c-.2-.4-1.6-.8-2-.5-1.7 1.1-1.5 2.9-1.5 4.7 0 .8.3 1.5.4 2.3.7-.2 1.5-.4 2.1-.8 2.1-1.6 2.2-3.6 1-5.7M130.093 8.9c-3.9 3.6-7.4 7.7-10 12.4 6.1-1.8 8.8-6.4 10-12.4M264.393 199.1c3.7-1.6 2.2-4.2 1.7-6.6-1 2.1-3.1 4-1.7 6.6M266.393 189.8l-.2.2c-.4.8-.4 1.7-.2 2.6.5-.9.7-1.8.4-2.8M75.293 190.9c3 .6 5.9.9 8.7-.2-2.9-.6-5.8-2.9-8.7.2M83.993 190.7h.30000000000000004c.1-.1.2-.1.2-.2-.1.1-.3.2-.5.2M261.993 187.6c-.9.6-1.9 2.7-1.5 3.2 2 3.1 3.2.5 4.7-.6-1.5-.3-.6-4.4-3.2-2.6"/><path d="M266.093 190c.1-.1.2-.3.2-.3-.4 0-.8.2-1.2.5.3.1.6 0 1-.2M234.093 174.7c.9-.9 1.4-2.2 1.9-3.1-.2-1.4-.9-1.8-1.9-1.3-1.4.7-1.8 2-1.6 3.4.1 1.1.9 1.7 1.6 1M190.493 145.4c2-1.3 1.4-2.9.6-4.5-.4-.7-1.3-1.8-1.7-1.7-2.2.7-1.1 2.6-1 4.1 0 1.2.3 2.6 2.1 2.1"/></svg>