<svg xmlns="http://www.w3.org/2000/svg" xml:space="preserve" width="484.742" height="746.77" style="clip-rule:evenodd;fill-rule:evenodd;stroke-linecap:round;stroke-linejoin:round;stroke-miterlimit:1.5"><path d="M421.779 142.86a121.7 121.7 0 0 1 26.948 20.342 122.98 122.98 0 0 1 36.015 86.954v354.371c0 44.643-27.646 82.834-66.763 98.35 2.49 2.406 3.8 4.907 3.8 7.475 0 20.1-80.385 36.418-179.404 36.418-99.02 0-179.412-16.318-179.412-36.418 0-2.568 1.309-5.069 3.808-7.475C27.648 687.361 0 649.17 0 604.527V250.156c0-32.614 12.956-63.89 36.017-86.954a121.7 121.7 0 0 1 26.946-20.343V72.981H421.78zm-46.86 541.97c-25.251 5.099-81.853 15.237-132.544 15.237-50.7 0-107.301-10.138-132.552-15.237a46.63 46.63 0 0 0-25.838-25.36C62.138 650.803 46.7 629.468 46.7 604.527V250.156a76.27 76.27 0 0 1 22.34-53.928 74.8 74.8 0 0 1 16.588-12.536 46.7 46.7 0 0 0 24.036-40.833v-23.174h265.421v23.174c0 16.966 9.194 32.6 24.03 40.833a74.8 74.8 0 0 1 16.587 12.536 76.27 76.27 0 0 1 22.34 53.928v354.371c0 24.94-15.43 46.276-37.286 54.943a46.63 46.63 0 0 0-25.837 25.36"/><g transform="matrix(1.11984 0 0 1 -845.1 -749.236)"><ellipse cx="971.094" cy="1434.61" rx="111.507" ry="11.436" style="fill:#fff"/><ellipse cx="971.094" cy="1434.61" rx="111.507" ry="11.436"/></g><path d="m717.138 867.042 23.954-.845 1.907 16.939s1.914 1.901-2.26 10.804c-21.133 11.573-70.759 58.86-70.759 127.79 0 68.94-16.626 107.4-22.655 109.92l-.048-130.7s-9.572-54.002 69.03-107.841z" style="fill:#fff" transform="matrix(1 0 0 1 -642.818 -749.083)"/><path d="m717.138 867.042 23.954-.845 1.907 16.939s1.914 1.901-2.26 10.804c-21.133 11.573-70.759 58.86-70.759 127.79 0 68.94-16.626 107.4-22.655 109.92l-.048-130.7s-9.572-54.002 69.03-107.841zm1.617 1.611 20.854-.736 1.734 15.405 1.656 1.48-1.347-.698s.193.84.035 1.953c-.208 1.47-.825 3.609-2.232 6.689-21.642 12.154-71.142 59.773-71.142 128.984 0 47.94-8.062 81.05-14.972 97.45-1.552 3.69-3.035 6.51-4.351 8.43l-.046-126.66c0-.1-.009-.19-.026-.29 0 0-9.179-53.086 68.331-106.176.438-.3.707-.791.724-1.322z" style="fill:#fff" transform="matrix(1 0 0 1 -642.818 -749.083)"/><path d="M1059.42 835.349v60.593s57.95 39.844 60.97 102.017c3.03 62.171.34 365.221.34 365.221s5.71 43.03-65.42 81.67c-.39 5.06-.56 7.3-.56 7.3M1088.29 994.081v368.349M654.195 1362.43s-4.66 51.28 54.196 80.45c12.397-6.07 13.99 3.05 13.99 3.05l-1.827 9.84s176.336 65.67 334.196-3.62" style="fill:none;stroke:#fff;stroke-width:4.17px" transform="matrix(1 0 0 1 -642.818 -749.083)"/><path d="m681.734 1097.4 2.227 265.03s0 37.27 31.738 49.01" style="fill:none;stroke:#fff;stroke-width:4.17px" transform="matrix(1 0 0 1 -642.818 -749.083)"/><path d="M38.356 13.733h418.388v54.116H38.356zM62.936 0H432.17v13.73H62.936z"/><path d="m689.382 768.882-.272 40.678 16.642-1.085s6.952-30.372 114.612-34.711c107.661-4.339-130.982-4.882-130.982-4.882" style="fill:#fff" transform="matrix(1 0 0 1 -642.818 -749.083)"/><path d="M43.535 89.576h408.027v17.457H43.535zM43.535 65.754h408.027v12.078H43.535z"/><path d="M691.991 814.841h326.884v12.078H691.991z" style="fill:#fff" transform="matrix(1.18933 0 0 .57685 -769.415 -402.201)"/><path d="M691.991 814.841h326.884v12.078H691.991z" style="fill:#fff" transform="matrix(1.18933 0 0 .84001 -769.415 -590.142)"/><path d="M711.494 755.947h321.778v9.773H711.494z" style="fill:#fff" transform="matrix(.98356 0 0 1 -631.122 -749.083)"/><path d="M1042.68 755.947h26.976v9.773h-26.976z" style="fill:#fff" transform="matrix(1 0 0 1 -642.818 -749.083)"/><path d="M1090.19 768.882s-9.56 4.556-7.29 10.433c2.28 5.877-3.84 27.578-29.38 30.245s40.43 1.961 40.43 1.961z" style="fill:#fff;stroke:#000;stroke-width:1px" transform="matrix(1 0 0 1 -642.818 -749.083)"/><path d="M829.25 1461.08c-691.045-274.65 30.337-558.082-11.74-1015.329 283.86 164.421 154.427 366.862 154.427 366.862s94.813-102.698 127.133-77.09c-90.66 231.647 317.7 531.807-201.04 729.107 364.57-232.37-80.902-335-15.623-549.81-114.8 24.67-154.977 317.45-114.156 358.28-23.047 4.43-59.476-41.97-59.931-73.04-36.758 100.22-13.784 177.96 120.93 261.02" style="stroke:#000;stroke-width:7.09px" transform="matrix(.43517 0 0 .43517 -126.479 3.098)"/><path d="M756.144 1449.45s-229.551-78.84-218.318-302.27c32.662 171.1 157.941 274.15 218.318 302.27M957.013 1478.48s205.527-79.26 150.837-272.7c-34.34-121.43-13.07-135.77 10.74-232.183.58-2.387 4.14-2.507 6.24-3.557-23.22 212.46 221.75 286.62-167.817 508.44" style="fill:#fff;stroke:#000;stroke-width:2.53px" transform="matrix(.39569 0 0 .39569 -97.757 48.576)"/><path d="M618.346 1292.24s35.118 104.64 162.711 168.56c-61.65-46.5-89.086-107.39-94.563-158.81-4.453 47.35-3.375 60.57-68.148-9.75" style="fill:#fff;stroke:#000;stroke-width:2.53px" transform="matrix(.39569 0 0 .39569 -97.757 48.576)"/><path d="M1128.08 696.722s-68.1 66.822-45.54 116.194c22.55 49.372 35.75 135.347 38.73 135.773s1.27-88.955-6.39-116.62-17.45-94.062 13.2-135.347" style="fill:#fff;stroke:#000;stroke-width:2.53px" transform="matrix(.39569 0 0 .39569 -96.073 49.252)"/><path d="M1132.33 698.425s-63.97 41.135-79.9 149.428c-7.03-56.801-5.34-66.436-5.34-66.436s5.4-67.47 85.24-82.992M834.394 387.694s11.581 27.348 15.711 34.551c184.005 320.869 98.249 355.727 79.753 425.608 14.57-27.296 88.832-97.903 77.022-195.376-12.91-106.589-60.059-202.854-123.728-230.987a82 82 0 0 1-1.948-.891c-25.575-2.604-19.459-13.679-46.81-32.905" style="fill:#fff;stroke:#000;stroke-width:2.53px" transform="matrix(.39569 0 0 .39569 -97.757 48.576)"/><path d="M834.394 387.694s81.705 107.877 91.039 122.742c-4.161-26.274-46.325-97.835-46.325-97.835z" style="stroke:#000;stroke-width:2.53px" transform="matrix(.39569 0 0 .39569 -97.757 48.576)"/><path d="M191.154 341.947s49.587-64.078 61.588-46.417 7.992-46.417-7.02-62.493c-15.01-16.076-10.868-6.771-10.868-6.771-10.59 67.888-27.888 86.302-43.7 115.68"/><path d="M191.154 341.947s49.587-64.078 61.588-46.417 7.992-46.417-7.02-62.493c-15.01-16.076-10.868-6.771-10.868-6.771-10.59 67.888-27.888 86.302-43.7 115.68m49.503-102.723c2.62 3.253 4.64 8.403 6.353 14.142 3.119 10.453 4.822 22.874 4.883 31.914-2.418-.807-5.13-.941-8.1-.443-4.09.687-8.968 2.922-14.094 6.426-1.434.98-2.9 2.066-4.387 3.236 5.716-13.965 10.978-31.288 15.345-55.275"/><path d="M712.41 1123.9s5.477 109.53 38.336 142.39c-11.949-77.67-4.978-141.27 31.864-287.271-41.821 126.331-53.77 228.021-70.2 144.881" style="fill:#fff" transform="matrix(.39569 0 0 .39569 -97.757 48.576)"/><path d="M712.41 1123.9s5.477 109.53 38.336 142.39c-11.949-77.67-4.978-141.27 31.864-287.271-41.821 126.331-53.77 228.021-70.2 144.881M1005.77 1183.28c107.96 158.32 8.9 234.93-93.84 304.99 131-136.61 133.47-206.79 93.84-304.99" style="fill:#fff" transform="matrix(.39569 0 0 .39569 -97.757 48.576)"/><path d="M300.214 516.786c21.36 31.323 22.238 54.562 12.698 73.436s-29.502 33.385-49.829 47.246c51.835-54.055 52.813-81.825 37.131-120.682"/><path d="M243.75 639.023s-40.588-18.68-25.198-46.747c6.367 17.66 11.015 15.693 17.503 18.407 11.317-9.053 11.382-18.62-4.31-48.93-7.243-1.508 44.527 23.583 32.717 37.463-11.809 13.881 3.194 15.867 12.333 5.433-1.897 19.915-12.674 31.37-33.044 34.374"/><path d="M232.362 562.96c-1.413-.994-1.795-1.453-.618-1.207zc7.286 5.144 41.991 24.632 32.1 36.257-11.809 13.881 3.194 15.867 12.333 5.433-1.897 19.915-12.674 31.37-33.044 34.374 0 0-40.59-18.68-25.199-46.747 6.367 17.66 11.015 15.693 17.503 18.407 11.166-8.93 11.378-18.367-3.693-47.724m17.962 22.182c.377 1.33.68 2.595.918 3.794 1.253 6.34.827 11.353-.776 15.662-1.713 4.602-4.83 8.511-9.489 12.238a7.88 7.88 0 0 1-7.964 1.116c-2.246-.942-4.277-1.488-6.23-2.26 1.228 1.777 2.663 3.412 4.153 4.896 5.087 5.056 11.01 8.59 14.06 10.232h.002c7.022-1.357 12.553-3.953 16.507-8.088a22.5 22.5 0 0 0 2.8-3.597c-3.734-.04-6.71-1.396-8.722-3.347-3.35-3.253-6.117-10.937 2.677-21.435a6 6 0 0 0-.224-.613c-.4-.855-.988-1.713-1.68-2.588-1.601-2.022-3.71-4.044-6.032-6.01"/><path d="M544.026 921.746s90.345-120.461 70.916-178.749 0-99.089 34.973-107.832-7.772 187.492-105.889 286.581" style="fill:#fff" transform="matrix(.39569 0 0 .39569 -91.223 67.687)"/><path d="M124.042 432.412s35.748-47.665 28.06-70.729c-7.687-23.063 0-39.208 13.839-42.668 13.838-3.46-3.075 74.189-41.9 113.397m38.654-103.223c-5.506 4.439-7.346 13.48-4.526 25.12 2.234-7.783 3.693-14.855 4.33-20.604.165-1.493.21-3.081.196-4.516"/><path d="M901.139 911.063s-54.3 64.702-32.385 112.257c25.854 56.11 76.472 98.4 76.472 98.4s-18.768-20.32-36.253-49.65c-15.425-25.87-29.851-58.74-29.516-90.843.713-68.495 21.682-70.164 21.682-70.164" style="fill:#fff" transform="matrix(.39569 0 0 .39569 -97.757 48.576)"/><path d="M884.821 934.539c-13.914 23.152-29.667 59.269-16.067 88.781 25.854 56.11 76.472 98.4 76.472 98.4s-18.768-20.32-36.253-49.65c-15.425-25.87-29.851-58.74-29.516-90.843.223-21.446 2.432-36.34 5.364-46.688 8.502-14.162 16.318-23.476 16.318-23.476s-9.894.788-16.318 23.476" style="fill:#030000" transform="matrix(.39569 0 0 .39569 -97.757 48.576)"/><path d="M367.316 477.012s-9.623 13.69-6.663 26.088c2.96 12.397 1.48 43.85 2.405 42.742 13.137-25.348 14.063-26.828 11.843-39.965s-7.585-28.865-7.585-28.865"/><path d="M1157.31 1121.72s-24.32 34.6-16.84 65.93 3.74 110.82 6.08 108.02c33.2-64.06 35.54-67.8 29.93-101s-19.17-72.95-19.17-72.95" style="fill:#030000" transform="matrix(.39569 0 0 .39569 -90.618 33.16)"/><path d="M794.59 1295.74s-89.189-1.21-88.255-47.61-42.804 113.47 79.85 191.45c-33.311-53.23-72.379-118.16 8.405-143.84" style="fill:#fff" transform="matrix(.39569 0 0 .39569 -97.757 48.576)"/><path d="M794.59 1295.74s-89.189-1.21-88.255-47.61-42.804 113.47 79.85 191.45c-33.311-53.23-72.379-118.16 8.405-143.84m-70.283 5.36c1.26 8.3 3.049 17.18 5.568 26.32a61 61 0 0 1 2.832-7.55 63.6 63.6 0 0 1 7.626-12.67 130 130 0 0 1-10.842-3.82q-2.644-1.08-5.184-2.28" style="fill:#030000" transform="matrix(.39569 0 0 .39569 -97.757 48.576)"/><path d="M1030.12 483.969s66.93 139.309 30.35 183.67 82.49-50.587 87.16-71.6-10.11 4.67-36.57 6.226-25.69-102.731-80.94-118.296" style="fill:#fff" transform="matrix(.39569 0 0 .39569 -97.757 48.576)"/><path d="M1030.12 483.969s66.93 139.309 30.35 183.67 82.49-50.587 87.16-71.6-10.11 4.67-36.57 6.226-25.69-102.731-80.94-118.296m60.58 130.743c.36 4.607.52 9.122.49 13.521 2.99-2.601 5.96-5.241 8.86-7.883-3.27-1.231-6.4-3.098-9.35-5.638" style="fill:#030000" transform="matrix(.39569 0 0 .39569 -97.757 48.576)"/></svg>