<svg xmlns="http://www.w3.org/2000/svg" xml:space="preserve" id="Layer_1" width="522.16" height="886.155" x="0" y="0" version="1.1"><style id="style1955" type="text/css">.st0,.st2{fill-rule:evenodd;clip-rule:evenodd}.st2{fill:#fff}.st6,.st9{fill:none;stroke:#fff;stroke-width:1.5663;stroke-linecap:round;stroke-linejoin:round;stroke-miterlimit:1.1295}.st9{fill-rule:evenodd;clip-rule:evenodd;fill:#fff}</style><g id="g1961" transform="matrix(.8292 0 0 1.09268 -327.545 -1356.673)"><g id="g1959" transform="matrix(1.42984 0 0 .91518 -157.881 1116.04)"><ellipse id="ellipse1957" cx="621.6" cy="997" class="st0" rx="205.5" ry="19.4"/></g></g><g id="g1973" transform="matrix(.8292 0 0 1.09268 -327.545 -1356.673)"><g id="g1967" transform="matrix(1.20599 0 0 .7391 3.554 -171.554)"><path id="path1963" d="m346.7 2731.2 3.1 174.2 52.4 59.6 208.7 10.3 56.6-53.5-5.3-181.1z" class="st0"/><path id="path1965" d="m346.7 2731.2 3.1 174.2 52.4 59.6 208.7 10.3 56.6-53.5-5.3-181.1zm36 44.6s171.8 5.2 245.6 7.4l3.4 117.6-32 30.3c-37.2-1.8-145.7-7.2-183.2-9.1l-31.9-36.3z" class="st0"/></g><g id="g1971" transform="matrix(.9567 0 0 .67331 -115.865 826.292)"><path id="path1969" d="M934.4 1203.1c9.3 5.6 17.9 12.6 25.6 20.8 21.9 23.6 34.2 55.6 34.2 89v362.7c0 45.7-26.2 84.8-63.4 100.7 2.4 2.5 3.6 5 3.6 7.7 0 20.6-76.3 37.3-170.3 37.3s-170.3-16.7-170.3-37.3c0-2.6 1.2-5.2 3.6-7.7-37.1-15.9-63.4-55-63.4-100.7v-362.7c0-33.4 12.3-65.4 34.2-89 7.7-8.3 16.3-15.2 25.6-20.8v-71.5h340.6zm-44.5 554.7c-24 5.2-77.7 15.6-125.8 15.6s-101.9-10.4-125.8-15.6c-4.5-11.7-13.3-21.2-24.5-26-20.7-8.9-35.4-30.7-35.4-56.2v-362.7c0-20.7 7.6-40.6 21.2-55.2 4.7-5.1 10-9.4 15.7-12.8 14.1-8.4 22.8-24.4 22.8-41.8v-23.7H890v23.7c0 17.4 8.7 33.4 22.8 41.8 5.7 3.4 11 7.7 15.7 12.8 13.6 14.6 21.2 34.5 21.2 55.2v362.7c0 25.5-14.6 47.4-35.4 56.2-11 4.9-19.8 14.3-24.4 26" class="st0"/></g></g><g id="g1979" transform="matrix(.8292 0 0 1.09268 -327.545 -1356.673)"><g id="g1977" transform="matrix(1.20599 0 0 .91518 0 1150.43)"><path id="path1975" d="m535.1 493.5-144.6 1.9 1.3 43.5s-46.5 21.6-47 64.9l2.2 286.3s13.7 34.9 20.9 38.9" style="fill:none;stroke:#fff;stroke-width:18.8257;stroke-linecap:round;stroke-linejoin:round;stroke-miterlimit:1.1295"/></g></g><g id="g1985" transform="matrix(.8292 0 0 1.09268 -327.545 -1356.673)"><g id="g1983" transform="matrix(1.20599 0 0 .91518 0 1150.43)"><path id="path1981" d="M660.1 820.2S701.3 957.5 528 944.9C389.2 934.8 342.6 922 429.3 926c65.6 4.6 194.7-3.8 230.8-105.8" class="st2"/></g></g><g id="g1991" transform="matrix(.8292 0 0 1.09268 -327.545 -1356.673)"><g id="g1989" transform="matrix(1.20599 0 0 .91518 -2.516 1160.47)"><path id="rect1987" d="M371.7 649.9h10.7v108.9h-10.7z" class="st0"/></g></g><g id="g1997" transform="matrix(.8292 0 0 1.09268 -327.545 -1356.673)"><g id="g1995" transform="matrix(.603 0 0 .91518 863.088 1084.74)"><path id="rect1993" d="M-138.8 670.4h10.7v108.9h-10.7z" class="st0"/></g></g><g id="g2003" transform="matrix(.8292 0 0 1.09268 -327.545 -1356.673)"><g id="g2001" transform="matrix(.77807 0 0 .52179 322.178 1635.17)"><path id="rect1999" d="M182.9 317.1h10.7V426h-10.7z" class="st0"/></g></g><g id="g2025" transform="matrix(.8292 0 0 1.09268 -327.545 -1356.673)"><g id="g2023" transform="matrix(.98516 -.403 .75386 1.06122 -1339.1 483.521)"><g id="g2009" transform="matrix(1.20599 0 0 .91518 -50.19 -753.399)"><path id="path2005" d="M1156.6 2162.6c2.5 6-30.8 76.8-30.8 76.8s-25.2 15.4-91.9 20.8c-93.5 40.3-85.3 41.2-85.3 41.2s-34.3 8.8-31.2-19.5c37.1-52.2 70.2-41.2 70.2-41.2s28.6-23-85.9-62.9c-82.8-4.1-144.7 41.3-144.7 41.3s-33 5.9-38.1 0c-23.6-13.2 119.9-76.5 119.9-76.5s47-24.5 104-19.8c64.2 10 101 15.7 142.8 22.2 23.9 5.8 68.5 11.6 71 17.6" class="st0"/><path id="path2007" d="M948 2301.5c-4.7 1-33.4 6.3-30.5-19.7 37.1-52.2 70.2-41.2 70.2-41.2s28.6-23-85.9-62.9c-82.8-4.1-144.7 41.3-144.7 41.3s-33 5.9-38.1 0c-23.6-13.2 119.9-76.5 119.9-76.5s47-24.5 104-19.8c64.2 10 101 15.7 142.8 22.2 23.9 6 68.6 11.8 71.1 17.8s-30.8 76.8-30.8 76.8-25.2 15.4-91.9 20.8c-64.9 28-80.8 37-84.4 39.9-.2-.1-.4-.2-.5-.2-.3-.1-.6 0-.8.1zm-.9-1.5c-2.4.5-8.2 1.5-14 .7-4.7-.6-9.5-2.4-12.1-6.8-1.6-2.8-2.4-6.5-1.9-11.6 36.1-50.6 67.9-40.3 67.9-40.3l.9.3.8-.6s3.1-2.4 3.7-7c.4-2.9-.2-6.8-3.3-11.5-7.2-10.9-28.9-26.9-86.8-47.1l-.2-.1h-.3c-79.9-3.9-140.5 37.8-145.5 41.4-2.5.4-16.6 2.8-26.8 2.5-2.8-.1-5.2-.3-7.1-.9-.9-.3-1.7-.6-2.2-1.1l-.2-.2-.3-.1c-.9-.5-1.5-1.1-1.7-1.9s0-1.8.6-2.8c.9-1.8 2.6-3.7 4.9-5.9 24.5-22.9 116-63.2 116-63.2h.1s46.5-24.3 102.9-19.6l142.7 22.1c16.7 4.2 43.6 8.3 59 12.4 3.8 1 7 2 9 3.1.9.5 1.6.9 1.8 1.3.1.3 0 .9-.1 1.8-.3 1.8-1.1 4.4-2.1 7.5-6.8 19.9-26.1 61.1-28.3 65.9-3.5 1.9-29.4 15.4-90.7 20.3h-.3l-.3.1c-52.5 22.6-73 32.9-80.9 37.5-3.6 2.1-4.8 3.3-5.2 3.8" class="st0"/></g><g id="g2015" transform="matrix(1.20599 0 0 .91518 -50.19 -753.399)"><path id="path2011" d="m863.6 2180.2-67.3 74.9s17 8.2 31.5-4.4 50.7-49.1 50.7-49.1 8.2.2 12 1.4c-8.5 7.9-45.3 48.6-45.3 48.6s16.7 6.9 29.3-4.1 41.9-29.6 41.9-29.6 62.9 4.7 68.8 11.3c2-17.6-75.8-55.3-121.6-49" class="st0"/><path id="path2013" d="m863.6 2180.2-67.3 74.9s17 8.2 31.5-4.4 50.7-49.1 50.7-49.1 8.2.2 12 1.4c-8.5 7.9-45.3 48.6-45.3 48.6s16.7 6.9 29.3-4.1 41.9-29.6 41.9-29.6 62.9 4.7 68.8 11.3c2-17.6-75.8-55.3-121.6-49m.9 1.5c31.7-4 78.4 12.9 102.9 29.3 6.2 4.2 11 8.3 13.7 12.1.8 1.1 1.4 2.1 1.7 3.1-3.3-1.3-8.7-2.6-15-3.7-20.6-3.7-51.5-6-51.5-6h-.6l-.5.3s-29.4 18.7-42.1 29.7c-9.1 8-20.5 5.9-25.2 4.5 7.1-7.8 36.2-39.9 43.6-46.8l-.7-2.6c-3.9-1.2-12.4-1.5-12.4-1.5h-.8l-.5.5s-36.1 36.4-50.6 49c-10.7 9.3-22.8 6.5-27.5 4.9.1-.1 65.5-72.8 65.5-72.8" class="st0"/></g><g id="g2021" transform="matrix(1.20599 0 0 .91518 -50.19 -753.399)"><path id="path2017" d="M849.3 2184.8c-11 4.4-100.8 46.6-101.7 57 10.9 9.4 28.2 8.1 38.7 3.5 18.5-8.8 74-64.9 63-60.5" class="st0"/><path id="path2019" d="M849.3 2184.8c-11 4.4-100.8 46.6-101.7 57 10.9 9.4 28.2 8.1 38.7 3.5 18.5-8.8 74-64.9 63-60.5m-1.7 2.5c-.1.1-.2.3-.3.4-9.1 12.3-47.1 49.2-61.8 56.2-9.7 4.2-25.6 5.6-36-2.6.2-.4.7-.9 1.2-1.5 1.6-1.7 4.3-3.8 7.8-6.2 22.1-15.1 75.1-40.2 89.1-46.3" class="st0"/></g></g></g><g id="g2031" transform="matrix(.8292 0 0 1.09268 -327.545 -1356.673)"><g id="g2029" transform="matrix(1.20599 0 0 .91518 0 1150.43)"><path id="path2027" d="M549.1 286.9s-1.5-4.6-3.3-4.6" style="fill:none;stroke:#fff;stroke-width:.753;stroke-linecap:round;stroke-linejoin:round;stroke-miterlimit:1.1295"/></g></g><g id="g2037" transform="matrix(.8292 0 0 1.09268 -327.545 -1356.673)"><g id="g2035" transform="matrix(.55263 .11566 -.32063 .88224 682.48 1094.73)"><path id="path2033" d="M-188.3 484.1s18.9-7.1 21.6-17.1-.2-6.7-.2-6.7-8.2-6.5-11.1-4" style="fill-rule:evenodd;clip-rule:evenodd;fill:#fff;stroke:#000;stroke-width:1.28;stroke-linecap:round;stroke-linejoin:round;stroke-miterlimit:1.5"/></g></g><g id="g2043" transform="matrix(.8292 0 0 1.09268 -327.545 -1356.673)"><g id="g2041" transform="matrix(1.18726 .16068 -.21173 .90096 165.726 1005.05)"><path id="path2039" d="m566.9 428.4 11.8-26s-17.8-8.2-27.4 6.2-5.3 16.5-8.4 20 7.1 12.4 24-.2" style="fill-rule:evenodd;clip-rule:evenodd;fill:#fff;stroke:#000;stroke-width:.753;stroke-linecap:round;stroke-linejoin:round;stroke-miterlimit:1.1295"/></g></g><g id="g2049" transform="matrix(.8292 0 0 1.09268 -327.545 -1356.673)"><g id="g2047" transform="matrix(1.20599 0 0 .91518 0 1150.43)"><path id="path2045" d="M618.2 282.2s6.6-7.4 20.9-4.7" class="st6"/></g></g><g id="g2055" transform="matrix(.8292 0 0 1.09268 -327.545 -1356.673)"><g id="g2053" transform="matrix(1.20599 0 0 .91518 0 1150.43)"><path id="path2051" d="M422.2 325.1s-3.2-10.7-7.6-14.1" class="st6"/></g></g><g id="g2061" transform="matrix(.8292 0 0 1.09268 -327.545 -1356.673)"><g id="g2059" transform="matrix(1.20599 0 0 .91518 0 1150.43)"><path id="path2057" d="M414.6 305.5s13.8 14.5 11.5 12.5" class="st6"/></g></g><g id="g2067" transform="matrix(.8292 0 0 1.09268 -327.545 -1356.673)"><g id="g2065" transform="matrix(1.20599 0 0 .91518 0 1150.43)"><path id="path2063" d="M492.3 243s12.3 2.8 15.5 6.9" class="st6"/></g></g><g id="g2073" transform="matrix(.8292 0 0 1.09268 -327.545 -1356.673)"><g id="g2071" transform="matrix(1.20599 0 0 .91518 0 1150.43)"><path id="path2069" d="M506 237.1s5.7 8.5 5.5 14.3" class="st6"/></g></g><g id="g2079" transform="matrix(.8292 0 0 1.09268 -327.545 -1356.673)"><g id="g2077" transform="matrix(1.20599 0 0 .91518 0 1150.43)"><path id="path2075" d="M620.1 251.4s43.3-28.9 83.5-32.6c-51.3 16.7-74.3 31.1-74.3 44.2" class="st6"/></g></g><g id="g2085" transform="matrix(.8292 0 0 1.09268 -327.545 -1356.673)"><g id="g2083" transform="matrix(1.20599 0 0 .91518 0 1150.43)"><path id="path2081" d="M478 349.1s9-.7 10.2-4.5" class="st6"/></g></g><g id="g2091" transform="matrix(.8292 0 0 1.09268 -327.545 -1356.673)"><g id="g2089" transform="matrix(1.12368 .33231 -.43791 .85271 388.969 860.872)"><path id="path2087" d="M511.6 501.6s-5.1 6-3.6 8.2-5.7-4.8 3.6-8.2" style="fill-rule:evenodd;clip-rule:evenodd;stroke:#fff;stroke-width:1.5663;stroke-linecap:round;stroke-linejoin:round;stroke-miterlimit:1.1295"/></g></g><g id="g2097" transform="matrix(.8292 0 0 1.09268 -327.545 -1356.673)"><g id="g2095" transform="matrix(1.02954 0 0 .6507 151.679 1315.53)"><path id="path2093" d="M429.7 138.7S441.6 150 442 153c.4 3.1-3.8-5.7-14.4-6.8" style="fill:none;stroke:#fff;stroke-width:2.65;stroke-linecap:round;stroke-linejoin:round;stroke-miterlimit:1.5"/></g></g><g id="g2103" transform="matrix(.8292 0 0 1.09268 -327.545 -1356.673)"><g id="g2101" transform="matrix(1.20599 0 0 .91518 0 1150.43)"><path id="path2099" d="M549.1 288s-10.6-2.3-11.3-1.1" class="st6"/></g></g><g id="g2109" transform="matrix(.8292 0 0 1.09268 -327.545 -1356.673)"><g id="g2107" transform="matrix(1.20599 0 0 .91518 0 1150.43)"><path id="path2105" d="M441.4 354.8s5.2 4.5 6.4 4.9" class="st6"/></g></g><g id="g2115" transform="matrix(.8292 0 0 1.09268 -327.545 -1356.673)"><g id="g2113" transform="matrix(1.20599 0 0 .91518 0 1150.43)"><path id="path2111" d="M440.5 357.2s5 6.5 6.1 5.4" class="st6"/></g></g><g id="g2121" transform="matrix(.8292 0 0 1.09268 -327.545 -1356.673)"><g id="g2119" transform="matrix(1.20599 0 0 .91518 0 1150.43)"><path id="path2117" d="M478 354s7.2-.3 8.7-3.7" class="st6"/></g></g><g id="g2127" transform="matrix(.8292 0 0 1.09268 -327.545 -1356.673)"><g id="g2125" transform="matrix(1.20599 0 0 .91518 0 1150.43)"><path id="path2123" d="m498.7 192.7 20.2 8.1 19.1-18" class="st6"/></g></g><g id="g2169" transform="translate(-327.545 -99.623)"><g id="g2133" transform="matrix(.8292 0 0 1.09268 0 -1257.05)"><g id="g2131" transform="matrix(1.20599 0 0 .91518 57.47 1150.43)"><path id="path2129" d="m550.1 634.8-25 66 .2 17.2z" class="st6"/></g></g><g id="g2141" transform="matrix(.8292 0 0 1.09268 0 -1257.05)"><g id="g2139" transform="matrix(.15326 -1.05154 1.38569 .1163 -3269.38 2535.19)"><path id="path2135" d="m1053.9 2677.2 33.9 90.2-98.5-18.7z" class="st0"/><path id="path2137" d="m1053.9 2677.2 33.9 90.2-98.5-18.7zm-.6 3.1 31.9 84.9-92.7-17.6z" class="st0"/></g></g><g id="g2149" transform="matrix(.8292 0 0 1.09268 0 -1257.05)"><g id="g2147" transform="matrix(1.20599 0 0 .91518 57.47 1150.43)"><path id="path2143" d="m549.6 637.2-24.6 64 .9 16.8z" class="st2"/><path id="path2145" d="m549.6 637.2-24.6 64 .9 16.8zm-12.2 36.3L527 708.9l-.4-7.3z" class="st2"/></g></g><g id="g2155" transform="matrix(.8292 0 0 1.09268 0 -1257.05)"><g id="g2153" transform="matrix(1.20599 0 0 .91518 57.47 1150.43)"><path id="path2151" d="m551.9 625.5-26 41.6-58.7-20.8z" class="st9"/></g></g><g id="g2161" transform="matrix(.8292 0 0 1.09268 0 -1257.05)"><g id="g2159" transform="matrix(1.20599 0 0 .91518 57.47 1150.43)"><path id="path2157" d="M524.4 674.6s-31.8 2.5-6.2 32.6c-8.7 2.3-53.9-56.5-53.9-56.5z" class="st9"/></g></g><g id="g2167" transform="matrix(.8292 0 0 1.09268 0 -1257.05)"><g id="g2165" transform="matrix(1.20599 0 0 .91518 57.47 1150.43)"><path id="path2163" d="M485.8 651.2s41.2 5.2 62.2-21.8-21.6 35.2-21.6 35.2z" class="st0"/></g></g></g><g id="g2207" transform="translate(-327.545 -99.623)"><g id="g2175" transform="matrix(.8292 0 0 1.09268 0 -1257.05)"><g id="g2173" transform="matrix(1.20599 0 0 .91518 57.47 1150.43)"><path id="path2171" d="M451.7 605.9c6.3-1.4 15.5-3.6 9.1-3.6-2.7 0-5.8 1.5-9.1 3.6-2.8.6-5.1 1-5.1 1l-2.6-6.2s-14.5 11.4-14.5 22.1c5.6-2.3 14.3-11.7 22.2-16.9m-5.9 2.4c-5.2 4.1-10.3 9.1-14.4 11.7.7-3 2.5-6 4.4-8.6 2.6-3.5 5.7-6.5 7.5-8.1l1.8 4.2c.2.4.5.6.7.8" class="st2"/></g></g><g id="g2183" transform="matrix(.8292 0 0 1.09268 0 -1257.05)"><g id="g2181" transform="matrix(.63467 -.30952 .40787 .48163 -757.348 744.296)"><path id="path2177" d="m607.1 2310.5 50.1 82.3H557Z" class="st0"/><path id="path2179" d="m607.1 2310.5 50.1 82.3H557Zm0 5.9 44.7 73.4h-89.4z" class="st0"/></g></g><g id="g2191" transform="matrix(.8292 0 0 1.09268 0 -1257.05)"><g id="g2189" transform="matrix(1.20599 0 0 .91518 57.47 1150.43)"><path id="path2185" d="M440.8 600.9 430.6 619s19.8-11.5 30.9-16.8c11.1-5.2-26.1 12-20.7-1.3" class="st2"/><path id="path2187" d="M440.8 600.9 430.6 619s19.8-11.5 30.9-16.8c11.1-5.2-26.1 12-20.7-1.3m-1.1 5.1q1.05 1.05 3 1.5c1.5.3 3.5.1 5.6-.2-5.1 2.7-10.1 5.6-13.6 7.6z" class="st2"/></g></g><g id="g2199" transform="matrix(.8292 0 0 1.09268 0 -1257.05)"><g id="g2197" transform="matrix(1.20599 0 0 .91518 57.47 1150.43)"><path id="path2193" d="M429.5 573.6s20.9 23.9 19.4 27.9 23.4-7.4 23.4-7.4z" class="st2"/><path id="path2195" d="M429.5 573.6s20.9 23.9 19.4 27.9 23.4-7.4 23.4-7.4zm21 27v-.3c-.2-1-.7-2.4-1.7-4-2.8-5.1-9-12.9-13.4-18.1l33.1 15.9c-4 1.8-11.1 4.8-15.7 6.1-.8.2-1.7.3-2.3.4" class="st2"/></g></g><g id="g2205" transform="matrix(.8292 0 0 1.09268 0 -1257.05)"><g id="g2203" transform="matrix(1.20599 0 0 .91518 57.47 1150.43)"><path id="path2201" d="m453.1 588.2 4.7 7.7 11.7-1.9z" class="st0"/></g></g></g><g id="g2239" transform="translate(-327.545 -99.623)"><g id="g2215" transform="matrix(.8292 0 0 1.09268 0 -1257.05)"><g id="g2213" transform="matrix(.86803 -.3532 .46544 .65871 -1026.41 107.67)"><path id="path2209" d="m610.2 2443.4 50.1 82.3H560.1Z" class="st0"/><path id="path2211" d="m610.2 2443.4 50.1 82.3H560.1Zm0 4.6 46 75.5h-91.9z" class="st0"/></g></g><g id="g2223" transform="matrix(.8292 0 0 1.09268 0 -1257.05)"><g id="g2221" transform="matrix(1.20599 0 0 .91518 0 1150.43)"><path id="path2217" d="M536.1 391.8s29 22.8 24 29c-5.1 6.2-12 18.7-9 20.1S533.3 454 533.3 454z" class="st2"/><path id="path2219" d="M536.1 391.8s29 22.8 24 29c-5.1 6.2-12 18.7-9 20.1S533.3 454 533.3 454zm13.3 49.7c-.4.4-1.1 1.1-1.8 1.6-3.4 2.7-9.3 6.2-12.6 8.1l2.5-56.3c4.3 3.5 13.4 11.3 18.4 17.8 1.3 1.7 2.4 3.4 2.9 4.8.3.9.5 1.7.1 2.3-3.7 4.5-8.3 12.2-9.6 16.8-.4 1.5-.5 2.7-.4 3.6.1.5.2 1 .5 1.3" class="st2"/></g></g><g id="g2229" transform="matrix(.8292 0 0 1.09268 0 -1257.05)"><g id="g2227" transform="matrix(1.20599 0 0 .91518 0 1150.43)"><path id="path2225" d="m540.2 407.1 4.4 4.4-7.5 38.2z" class="st0"/></g></g><g id="g2237" transform="matrix(.8292 0 0 1.09268 0 -1257.05)"><g id="g2235" transform="matrix(1.20599 0 0 .91518 0 1150.43)"><path id="path2231" d="m562.9 407.1 12 14.2 20.2 1.8z" class="st2"/><path id="path2233" d="m562.9 407.1 12 14.2 20.2 1.8zm6.1 4.8 17.9 8.9-11.3-1z" class="st2"/></g></g></g><g id="g2247" transform="matrix(.8292 0 0 1.09268 -327.545 -1356.673)"><g id="g2245" transform="matrix(2.04196 0 0 .91518 -910.108 1146.92)"><ellipse id="ellipse2241" cx="747" cy="791.4" class="st2" rx="67.7" ry="31.5" transform="scale(-1)rotate(-38.549 -2263.165 2135.967)"/><path id="path2243" d="M747 765.4c45.3 0 82 11.7 82 26 0 14.4-36.7 26-82 26s-82-11.7-82-26c-.1-14.3 36.7-26 82-26m0 1.6c31.5 0 58.9 5.7 72.5 14 3.4 2.1 5.9 4.2 7.3 6.6.8 1.3 1.3 2.6 1.3 3.9s-.5 2.6-1.3 3.9c-1.4 2.3-3.9 4.5-7.3 6.6-13.6 8.3-41 14-72.5 14s-58.9-5.7-72.5-14c-3.4-2.1-5.8-4.2-7.3-6.6-.8-1.3-1.3-2.6-1.3-3.9s.5-2.6 1.3-3.9c1.4-2.3 3.9-4.5 7.3-6.6 13.5-8.4 40.9-14 72.5-14" class="st2"/></g></g><g id="g2253" transform="matrix(.8292 0 0 1.09268 -327.545 -1356.673)"><g id="g2251" transform="matrix(1.20599 0 0 .91518 0 1150.43)"><path id="path2249" d="M559 773.5c61-.6 170.4 32.7-72.3 32.7-196.1-5.2 232.5 0 72.3-32.7" class="st0"/></g></g><g id="g2259" transform="matrix(.8292 0 0 1.09268 -327.545 -1356.673)"><g id="g2257" transform="matrix(1.20599 0 0 .91518 0 1150.43)"><path id="path2255" d="M549.2 777s-213.1-4.1-106.2 18.4c-92.3 4-45.5-38.1 106.2-18.4" class="st0"/></g></g><g id="g2265" transform="matrix(.8292 0 0 1.09268 -327.545 -1356.673)"><g id="g2263" transform="matrix(1.20599 0 0 .91518 0 1150.43)"><path id="path2261" d="m681.9 842.2-1 38.4s-1.7 36.3-42 58.9" style="fill:none;stroke:#fff;stroke-width:12.553;stroke-linecap:round;stroke-linejoin:round;stroke-miterlimit:1.1295"/></g></g><g id="g2271" transform="matrix(.8292 0 0 1.09268 -327.545 -1356.673)"><g id="g2269" transform="matrix(1.20599 0 0 .91518 0 1150.43)"><path id="path2267" d="M385.5 953.1s153.1 35.9 248.6-2.6" style="fill:none;stroke:#fff;stroke-width:4.7064;stroke-linecap:round;stroke-linejoin:round;stroke-miterlimit:1.1295"/></g></g><g id="g2277" transform="matrix(.8292 0 0 1.09268 -327.545 -1356.673)"><g id="g2275" transform="matrix(1.20599 0 0 2.34899 -21.99 -621.387)"><ellipse id="ellipse2273" cx="512.9" cy="1061.5" class="st0" rx="25.6" ry="2.8" transform="scale(-1)rotate(-53.453 -2108.104 1018.669)"/></g></g><g id="g2319" transform="translate(-327.545 -99.623)"><g id="g2283" transform="matrix(.8292 0 0 1.09268 0 -1257.05)"><g id="g2281" transform="matrix(1.20599 0 0 .91518 57.47 1150.43)"><path id="path2279" d="m525.2 543-17 43.2v11.3z" class="st6"/></g></g><g id="g2291" transform="matrix(.8292 0 0 1.09268 0 -1257.05)"><g id="g2289" transform="matrix(.15326 -1.05154 1.38569 .1163 -3269.38 2535.19)"><path id="path2285" d="m1136.6 2675.7 21.5 59.6-64.6-13.2z" class="st0"/><path id="path2287" d="m1136.6 2675.7 21.5 59.6-64.6-13.2zm-.4 2 20.2 56.1-60.8-12.4z" class="st0"/></g></g><g id="g2299" transform="matrix(.8292 0 0 1.09268 0 -1257.05)"><g id="g2297" transform="matrix(1.20599 0 0 .91518 57.47 1150.43)"><path id="path2293" d="M524.8 544.6 508 586.5l.5 11.1z" class="st2"/><path id="path2295" d="M524.8 544.6 508 586.5l.5 11.1zm-8.4 23.8-7.1 23.1-.2-4.8z" class="st2"/></g></g><g id="g2305" transform="matrix(.8292 0 0 1.09268 0 -1257.05)"><g id="g2303" transform="matrix(1.20599 0 0 .91518 57.47 1150.43)"><path id="path2301" d="m526.4 537-17.5 27.1-38.4-14.2z" class="st9"/></g></g><g id="g2311" transform="matrix(.8292 0 0 1.09268 0 -1257.05)"><g id="g2309" transform="matrix(1.20599 0 0 .91518 57.47 1150.43)"><path id="path2307" d="M507.9 569s-20.9 1.4-4.4 21.4c-5.8 1.4-34.9-37.6-34.9-37.6z" class="st9"/></g></g><g id="g2317" transform="matrix(.8292 0 0 1.09268 0 -1257.05)"><g id="g2315" transform="matrix(1.20599 0 0 .91518 57.47 1150.43)"><path id="path2313" d="M482.7 553.3s27 3.8 41.1-13.8-14.5 23-14.5 23z" class="st0"/></g></g></g></svg>