<svg xmlns="http://www.w3.org/2000/svg" xml:space="preserve" width="1031.784" height="1014.461" style="clip-rule:evenodd;fill-rule:evenodd;stroke-linecap:round;stroke-linejoin:round;stroke-miterlimit:1.5"><g transform="matrix(1 0 0 1 -276.883 -440.149)"><path d="M955.502 613.628c1.668-96.032 80.148-173.478 176.568-173.478s174.9 77.446 176.57 173.478h.03v827.132h-135.03V616.746c0-22.941-18.63-41.566-41.57-41.566s-41.57 18.625-41.57 41.566v151.445H955.475V613.628Z"/><clipPath id="a"><path d="M955.502 613.628c1.668-96.032 80.148-173.478 176.568-173.478s174.9 77.446 176.57 173.478h.03v827.132h-135.03V616.746c0-22.941-18.63-41.566-41.57-41.566s-41.57 18.625-41.57 41.566v151.445H955.475V613.628Z"/></clipPath><g clip-path="url(#a)"><path d="M1132.07 440.151c97.466 0 176.596 79.13 176.596 176.594s-79.13 176.594-176.595 176.594-176.596-79.13-176.596-176.594 79.13-176.594 176.596-176.594m0 135.027c22.941 0 41.567 18.627 41.567 41.567s-18.626 41.568-41.566 41.568-41.567-18.627-41.567-41.568 18.626-41.567 41.567-41.567"/><path d="M955.473 616.747h353.19V963.74h-353.19z"/><path d="M1176.62 440.15s22.29 45.857-21.32 72.996c-43.62 27.138-112.13 4.805-112.13 69.764v200.654l-150.539 29.608 49.431-322.319s194.818-101.405 234.558-50.703" style="fill:#fff;stroke:#000;stroke-width:1px"/><path d="M1191.16 449.176s-195.025-53.871-234.607 155.047l-1.078 162.864M955.475 767.087h136.255" style="fill:none;stroke:#000;stroke-width:24.22px"/><path d="M1132.07 574.969s51.19-10.579 87.89 44.594 18.85 821.197 18.85 821.197h-56.49s0-760.96-50.25-865.791" style="fill:#fff"/><path d="M1120.89 576.702s52.75-14.133 52.75 51.13v812.928h135.03" style="fill:none;stroke:#000;stroke-width:24.22px"/></g></g><path d="M746.926 323.888s41.89 630.51-265.407 493.687C174.232 680.753 90.295 722.135 0 798.534c124.96-7.763 286.59 14.548 374.571 136.998 268.078 214.811 482.435-15.293 372.355-611.644"/><path d="M419.657 482.63s-118.4 173.958 58.878 281.657c38.929 32.273 73.274 72.828 73.274 72.828s-166.823-88.543-253.058-98.428c-301.505-109.125-54.12-348.55 45.97-319.744-46.203 130.607-9.214 149.502-7.82 167.81s-29.2-53.483 82.756-104.123M155.037 703.346s-109.51-32.23-108.88 13.91 85.03-33.5 108.88-13.91M732.595 323.89s-16.716 89.72-74.297 117.159c30.715 42.417 80.256-36.595 74.297-117.159M762.845 330.267s-8.16 114.98 63.19 93.35c17.11-5.19 25.05-35.22-3.47-35.22-32.69 0-41.6-27.64-59.72-58.13"/><path d="M1046.17 820.021s7.52 48.622 24.72 61.943c38.3 25.199 63.28 3.072 39.52-8.807-23.66 1.485-41.19-2.666-64.24-53.136" style="fill:#fff" transform="matrix(1 0 0 1 -280.6 -482.906)"/><path d="M1068.96 487.592s34.44-1.694 25.12 12.139c-9.31 13.834-40.08 21.738-45.17 27.102l-21.45 22.646-24 1.633s38.96-58.721 65.5-63.52" style="fill:none;stroke:#000;stroke-width:6.06px" transform="matrix(1 0 0 1 -276.883 -440.149)"/><path d="M678.59 252.097h133.442v41.906H678.59z"/><path d="M1260.18 517.861s41.73 23 35 174.387c-6.73 151.386-4.04 730.242-4.04 730.242M1132.07 566.939s-46.75-3.447-47.44 41.354l-2.25 146.126-57.72.682" style="fill:none;stroke:#fff;stroke-width:6.06px" transform="matrix(1 0 0 1 -276.883 -440.149)"/><ellipse cx="1202.96" cy="778.236" rx="6.176" ry="7.94" transform="matrix(1 0 0 1 -279.97 -436.62)"/><path d="M919.902 353.189h6.175V976.29h-6.175zM933.408 794.084h6.175V993.86h-6.175z"/><path d="M1011.69 815.32c1.45 1.932-25.901 93.143-69.935 109.19 17.281 7.216 29.977-8.247 34.545-13.037 22.433-23.531 35.17-86.516 35.39-96.153" style="fill:#fff" transform="matrix(1 0 0 1 -280.6 -482.906)"/><path d="M959.81 934.89s40.51-8.493 50.62-93.041" style="fill:none;stroke:#fff;stroke-width:1.67px" transform="matrix(1 0 0 1 -280.6 -482.906)"/><path d="M1033.1 864.948s36.33 691.252-196.916 463.122c84.315 2.24 184.436 6.97 196.916-463.122M329.716 1200.16c-.992-7.95 5.416-33.83 81.037-17.4-52.174 8.14-62.905 9.26-81.037 17.4" style="fill:#fff" transform="matrix(1 0 0 1 -280.6 -482.906)"/><path d="M446.54 1109.74s14.666-89.73 127.834-65.4c-8.469-23.15-97.488-8.04 89.306-145.269-118.16 3.961-257.39 108.469-217.14 210.669" style="fill:#fff" transform="matrix(.76931 0 0 .96118 -177.746 -439.821)"/><path d="M619.197 907.249s-44.23 100.551-11.853 153.451" style="fill:none;stroke:#fff;stroke-width:5px" transform="matrix(1 0 0 1 -280.6 -482.906)"/><path d="M686.726 976.233s-79.725 80.517-35.007 164.077c-21.343-17.5-83.571-101.29 35.007-164.077" style="fill:#fff" transform="matrix(1 0 0 1 -280.6 -482.906)"/><path d="M695.051 970.535s-116.215 172.485 62.206 282.015c36.7 29.36 59.285 55.33 59.285 55.33" style="fill:none;stroke:#fff;stroke-width:2.5px" transform="matrix(1 0 0 1 -280.6 -482.906)"/><path d="M454.097 1115.85s25.762 69.86 141.397 101.18c102.379 23.19 157.325 61.8 205.506 82.39" style="fill:none;stroke:#fff;stroke-width:3.33px" transform="matrix(1 0 0 1 -280.6 -482.906)"/><path d="M1051 871.299s14.39 52.28 63.27 29.754" style="fill:none;stroke:#fff;stroke-width:1.67px" transform="matrix(1 0 0 1 -280.6 -482.906)"/><path d="M1035.15 871.299c12.61 92.056 86.91 828.061-372.02 549.871" style="fill:none;stroke:#fff;stroke-width:3.75px" transform="matrix(1 0 0 1 -280.6 -482.906)"/><path d="M663.13 1421.48S566.87 1256 301.204 1278.14" style="fill:none;stroke:#fff;stroke-width:3.33px" transform="matrix(1 0 0 1 -280.6 -482.906)"/><path d="M331.995 1205.88s-2.012 19.12 50.297-10.06" style="fill:none;stroke:#fff;stroke-width:1.67px" transform="matrix(1 0 0 1 -280.6 -482.906)"/><path d="M829.264 1325.46c-145.371-35.96-387.634-193.7-532.112-51.17 187.891-45.31 313.351 11.06 365.978 86.98-5.117-60.02-55.828-107.35 166.134-35.81" style="fill:#fff" transform="matrix(1 0 0 1 -280.6 -482.906)"/></svg>