<svg xmlns="http://www.w3.org/2000/svg" xml:space="preserve" width="484.742" height="1071.036" style="clip-rule:evenodd;fill-rule:evenodd;stroke-linecap:square;stroke-miterlimit:1.5"><path d="m307.687 572.65-128.078-5.941 10.717-231.04 128.078 5.941z"/><path d="m299.692 347.9-37.503-1.74 2.042-44.022 37.503 1.74zM243.525 345.294l-37.503-1.74 2.042-44.02 37.503 1.739z"/><path d="m307.628 304.151-106.574-4.943 3.671-79.139 106.573 4.943z"/><path d="m307.628 304.151-106.574-4.943 3.671-79.139 106.573 4.943zM169.753 778.304l-28.394-4.536 50.972-226.99 28.394 4.536z"/><path d="M1001.97 588.671c29.56-131.916-64.401-304.576-123.778-177.417-172.104 431.022 233.488 257.05-44.073-41.295-61.948-11.612-68.231 108.349-71.203 195.404 12.411 87.783 60.986 341.603 66.681 381.883" style="fill:none;stroke:#000;stroke-width:43.51px" transform="matrix(-.7238 -.03357 .02833 -.6108 860.65 1179.666)"/><path d="M778.81 1158.26c-1.428-4.78 2.902.79 5.444 6.43 0 0-41.149 122.5 11.856 189.68-69.892-77.1-22.95-160.83-17.3-196.11" style="fill:#fff" transform="matrix(1 0 0 1 -623.938 -429.111)"/><path d="M778.81 1158.26c-1.428-4.78 2.902.79 5.444 6.43 0 0-41.149 122.5 11.856 189.68-69.892-77.1-22.95-160.83-17.3-196.11m1.295 2.24a40 40 0 0 1 2.362 4.29c-1.801 5.58-14.719 47.21-15.095 93.78-.194 24.06 2.97 49.42 12.673 71.87-23.915-38.58-22.713-77.46-16.082-109.78 5.114-24.93 13.427-46 16.142-60.16" style="fill:#fff" transform="matrix(1 0 0 1 -623.938 -429.111)"/><path d="M864.812 1321.05s6.391 30.24-27.607 15.33c16.976.74 23.098-1.06 27.607-15.33" style="fill:#fff" transform="matrix(1 0 0 1 -642.818 -424.817)"/><path d="M864.812 1321.05s1.598 7.56-1.054 13.26-9.554 9.53-26.553 2.07c16.976.74 23.098-1.06 27.607-15.33m-1.299 7.56q-.024.24-.053.48c-.308 2.53-1.096 5.23-3.027 7.16-1.578 1.57-3.921 2.57-7.313 2.6-1.779.01-3.82-.24-6.162-.81 5.285-.37 9.126-1.49 12.125-3.92 1.701-1.37 3.15-3.17 4.429-5.51z" style="fill:#fff" transform="matrix(1 0 0 1 -642.818 -424.817)"/><path d="M986.14 1181.77s26.1 70.53 0 149.46" style="fill:none;stroke:#fff;stroke-width:1.67px;stroke-linecap:round;stroke-linejoin:round" transform="matrix(1 0 0 1 -685.122 -452.473)"/><path d="m986.14 1181.77-43.795-132.34" style="fill:none;stroke:#fff;stroke-width:1.67px;stroke-linecap:round;stroke-linejoin:round" transform="matrix(.98684 .16168 -.16168 .98684 -481.072 -596.372)"/><path d="m852.807 726.589 29.758.65s-18.243 7.657-16.099 13.822c2.145 6.165 1.477 18.597 4.065 18.863s-17.887.813-17.887.813z" style="fill:#fff" transform="matrix(.6351 0 0 1 -331.682 -424.817)"/><path d="m912.405 732.181-1.161 28.556" style="fill:none;stroke:#fff;stroke-width:10.63px;stroke-linejoin:round" transform="matrix(.99967 .00824 .00824 .7973 -643.902 -283.162)"/><path d="m946.919 795.174-10.183 187.328" style="fill:none;stroke:#fff;stroke-width:9.69px;stroke-linejoin:round" transform="matrix(1 0 0 1 -642.818 -424.817)"/><path d="M903.538 676.356s23.794-185.06-3.965-230.003" style="fill:none;stroke:#000;stroke-width:43.07px;stroke-linecap:round" transform="matrix(1 0 0 1 -642.818 -424.817)"/><path d="M885.012 446.75s28.161 5.27 8.734 195.938" style="fill:none;stroke:#fff;stroke-width:9.69px;stroke-linecap:round;stroke-linejoin:round" transform="matrix(1 0 0 1 -642.167 -425.21)"/><path d="m951.238 651.954-100.107-3.303 23.121 16.007zM851.131 651.827v61.615l36.587-4.828s-26.17-3.303-36.587-56.787M851.131 719.54l26.932-6.098 68.856 11.433zM843.869 771.062l110.244-.993s-110.244 19.354-110.244 124.56c-4.085 74.934 15.718 68.979 74.297 91.31-10.422.496-86.348-3.97-86.348-3.97z" style="fill:#fff" transform="matrix(1 0 0 1 -642.818 -424.817)"/><path d="m843.869 771.062 110.244-.993s-110.244 19.354-110.244 124.56c-4.085 74.934 15.718 68.979 74.297 91.31-10.422.496-86.348-3.97-86.348-3.97zm-1.82 201.79.88-15.394.249.412c4.237 6.739 9.833 11.78 17.071 16l-9.36-.517zm8.157-142.756 2.824-49.421 48.285-.435c-18.424 10.621-37.905 26.504-51.109 49.856" style="fill:#fff" transform="matrix(1 0 0 1 -642.818 -424.817)"/><path d="m824.345 993.013-21.534 100.127" style="fill:none;stroke:#fff;stroke-width:8.48px;stroke-linecap:round;stroke-linejoin:round" transform="matrix(1.03182 -.12049 -.12049 1.45615 -535.077 -773.075)"/><path d="M944.508 1008.19c14.088 103.91 38.435 202.58 37.624 223.64.476 19.03-5.621 113.45-44.815 132.88-18.84 9.33-40.372-7.53-43.543-16.64" style="fill:none;stroke:#fff;stroke-width:4.17px;stroke-linecap:round;stroke-linejoin:round" transform="matrix(1 0 0 1 -647.859 -432.684)"/><path d="M922.161 1165.45c1.983-2.47-37.234-45.35-73.417 10.81-39.246 68.9 36.451 151.41 36.451 151.41s-55.348-113.11-18.493-151.71c6.692-10.05 47.026-19.4 55.459-10.51" style="fill:#fff" transform="matrix(1 0 0 1 -649.018 -418.316)"/><path d="M922.161 1165.45c1.983-2.47-37.234-45.35-73.417 10.81-39.246 68.9 36.451 151.41 36.451 151.41s-55.348-113.11-18.493-151.71c6.692-10.05 47.026-19.4 55.459-10.51m-4.87-4.33q-.498-.135-1.022-.24c-4.218-.87-9.714-.84-15.549-.12-8.617 1.06-17.984 3.61-24.985 6.81-4.847 2.21-8.573 4.79-10.337 7.34-6.05 6.39-9.711 14.71-11.546 24.22-2.707 14.02-1.433 30.64 1.803 47.23 5.424 27.81 16.339 55.53 22.837 70.56-9.024-11.69-23.63-33.01-32.296-58.14-8.731-25.33-11.44-54.56 3.971-81.66 12.277-19.03 24.828-26.43 35.984-27.76 11.022-1.31 20.575 3.3 26.86 8.05a40 40 0 0 1 4.28 3.71" style="fill:#fff" transform="matrix(1 0 0 1 -649.018 -418.316)"/><path d="M421.779 467.126a121.7 121.7 0 0 1 26.948 20.342 122.98 122.98 0 0 1 36.015 86.954v354.371c0 44.644-27.646 82.834-66.763 98.35 2.49 2.406 3.8 4.908 3.8 7.475 0 20.1-80.385 36.418-179.404 36.418-99.02 0-179.412-16.318-179.412-36.418 0-2.567 1.309-5.069 3.808-7.474C27.648 1011.627 0 973.437 0 928.794V574.421c0-32.614 12.956-63.889 36.017-86.954a121.7 121.7 0 0 1 26.946-20.342v-69.878H421.78zm-46.86 541.97c-25.251 5.1-81.853 15.237-132.544 15.237-50.7 0-107.301-10.138-132.552-15.236a46.63 46.63 0 0 0-25.838-25.36C62.138 975.07 46.7 953.734 46.7 928.793v-354.37a76.27 76.27 0 0 1 22.34-53.928 74.8 74.8 0 0 1 16.588-12.537 46.7 46.7 0 0 0 24.036-40.832V443.95h265.421v23.175c0 16.965 9.194 32.6 24.03 40.832a74.8 74.8 0 0 1 16.587 12.537 76.27 76.27 0 0 1 22.34 53.927v354.371c0 24.941-15.43 46.277-37.286 54.944a46.63 46.63 0 0 0-25.837 25.36"/><g transform="matrix(1.11984 0 0 1 -845.1 -424.97)"><ellipse cx="971.094" cy="1434.61" rx="111.507" ry="11.436" style="fill:#fff"/><ellipse cx="971.094" cy="1434.61" rx="111.507" ry="11.436"/></g><path d="m1059.42 826.919-12.61 11.882-304.878 14.373 1.067 29.962s1.914 1.901-2.26 10.804c-21.133 11.573-70.759 58.86-70.759 127.79 0 68.94-16.626 107.4-22.655 109.92l-.048-130.7s-9.572-54.002 69.03-107.841c1.832-57.445-5.355-62.679-5.355-62.679z" style="fill:#fff" transform="matrix(1 0 0 1 -642.818 -424.817)"/><path d="m1059.42 826.919-12.61 11.882-304.878 14.373 1.067 29.962s1.914 1.901-2.26 10.804c-21.133 11.573-70.759 58.86-70.759 127.79 0 68.94-16.626 107.4-22.655 109.92l-.048-130.7s-9.572-54.002 69.03-107.841c1.832-57.445-5.355-62.679-5.355-62.679zm-4.25 1.71-9.05 8.536-304.266 14.344a1.666 1.666 0 0 0-1.587 1.724l1.066 29.962 1.666 1.607-1.347-.698s.193.84.035 1.953c-.208 1.47-.825 3.609-2.232 6.689-21.642 12.154-71.142 59.773-71.142 128.984 0 47.94-8.062 81.05-14.972 97.45-1.552 3.69-3.035 6.51-4.351 8.43l-.046-126.66c0-.1-.009-.19-.026-.29 0 0-9.179-53.086 68.331-106.176.438-.3.707-.791.724-1.322 1.109-34.762-1.089-50.565-2.999-57.647-.389-1.442-.781-2.569-1.149-3.447z" style="fill:#fff" transform="matrix(1 0 0 1 -642.818 -424.817)"/><path d="M1059.42 835.349v60.593s57.95 39.844 60.97 102.017c3.03 62.171.34 365.221.34 365.221s5.71 43.03-65.42 81.67c-.39 5.06-.56 7.3-.56 7.3M1088.29 994.081v368.349M654.195 1362.43s-4.66 51.28 54.196 80.45c12.397-6.07 13.99 3.05 13.99 3.05l-1.827 9.84s176.336 65.67 334.196-3.62" style="fill:none;stroke:#fff;stroke-width:4.17px;stroke-linecap:round;stroke-linejoin:round" transform="matrix(1 0 0 1 -642.818 -424.817)"/><path d="m681.734 1097.4 2.227 265.03s0 37.27 31.738 49.01" style="fill:none;stroke:#fff;stroke-width:4.17px;stroke-linecap:round;stroke-linejoin:round" transform="matrix(1 0 0 1 -642.818 -424.817)"/></svg>