<svg xmlns="http://www.w3.org/2000/svg" xml:space="preserve" id="Layer_1" width="264.728" height="446.406" x="0" y="0" version="1.1"><style id="style1442" type="text/css">.st1{fill:#fff;stroke:#000;stroke-width:4.103;stroke-linecap:round;stroke-linejoin:round;stroke-miterlimit:10}.st1,.st2,.st3{fill-rule:evenodd;clip-rule:evenodd}.st3{fill:#fff}.st5,.st9{fill:none;stroke:#fff;stroke-width:1.765;stroke-linecap:round;stroke-linejoin:round;stroke-miterlimit:10}.st9{stroke-width:.8804}</style><g id="g1462" transform="matrix(.82497 -.5524 .95924 .82497 -2486.376 457.786)"><g id="g1448" transform="matrix(.49445 0 0 .37522 912.102 -927.427)"><path id="path1446" d="m2268.1 5086.4-82.9 39-14.2 106.2 82.4 20.5 74.5-56.1 18.2-96.1z" class="st1"/></g><g id="g1452" transform="matrix(.49445 0 0 .37522 912.102 -927.427)"><path id="path1450" d="M2314.4 5129.1s-54 31.3-65.1 105.5c-49.3-6.1-63.7-14.1-63.7-14.1l11.7-82.7 43.5 21.6s50.9-16.3 73.6-30.3" class="st2"/></g><g id="g1456" transform="matrix(1.54725 0 0 1.17415 -412.176 740.131)"><path id="path1454" d="M1593.2 241.4s1.9-1.3 2.2-3.9 5.9-23.8 5.9-23.8.3.1.8-.1-5.2 26.3-5.2 26.3z" class="st2"/></g><g id="g1460" transform="matrix(1.09615 0 0 .83183 136.844 1290.98)"><path id="path1458" d="M1745.9-365.3s-18.2-6.4-30.9 3.3c18.8-2.8 19.3-4.9 30.9-3.3" class="st2"/></g></g><g id="g1482" transform="matrix(.85727 .48113 -.88133 .9043 1700.903 -731.588)"><g id="g1472" transform="matrix(.49445 0 0 .37522 932.124 -830.339)"><g id="g1468" transform="matrix(1.35052 0 0 .91518 -243.95 1150.29)"><ellipse id="ellipse1464" cx="-1707.5" cy="5377" class="st3" rx="55.1" ry="16.9" transform="scale(-1)rotate(12.463 49246.466 15637.385)"/><ellipse id="ellipse1466" cx="-1707.5" cy="5377" class="st2" rx="55.1" ry="16.9" transform="scale(-1)rotate(12.463 49246.466 15637.385)"/></g><path id="path1470" d="m-2782.3 5749.7-73.5 18.7 14.4 108.6 89.1 44.2 60.3-39-7.6-96.8z" style="fill-rule:evenodd;clip-rule:evenodd;fill:#fff;stroke:#000;stroke-width:4.1031;stroke-linecap:round;stroke-linejoin:round;stroke-miterlimit:1.5"/></g><g id="g1476" transform="matrix(1.54725 0 0 1.17415 -230.618 789.634)"><path id="path1474" d="m-116.7 479.6.8 12.8s-5.1 8.2-9.5 10 12.8-6.7 12.8-6.7z" class="st2"/></g><g id="g1480" transform="matrix(.49445 0 0 .37522 932.124 -830.339)"><path id="path1478" d="M-2715.7 5797.9s-64.6 25.6-55.7 101.1c-6.7-2-29.9-15.4-62.6-28.5 2.7-27.3.6-57.1-6.1-85.6 12.5 47.5 49.5 55 84.2 31.2 0 0 21-9.5 40.2-18.2" class="st2"/></g></g><g id="g1492" transform="matrix(1.08252 -.1491 .2589 1.08252 -1064.14 -250.23)"><g id="g1486" transform="matrix(.49445 0 0 .37522 774.885 -840.885)"><path id="path1484" d="m355.1 4050.8-71.6 35-5 117.8 75.3 31.8 62.7-55.1 9.4-106.1z" class="st1"/></g><g id="g1490" transform="matrix(.49445 0 0 .37522 774.885 -840.885)"><path id="path1488" d="M399.7 4103.8s-89.4 33.2-55.1 114.6c-44.7-12.2-53.8-25.6-53.8-25.6l4.5-91.6 32.1 24.4s39.4-5.4 72.3-21.8" class="st2"/></g></g><g id="g1522" transform="translate(-462.687 -186.78)"><g id="g1498" transform="matrix(.9567 0 0 .67331 -115.865 826.292)"><g id="g1496"><path id="path1494" d="M833.8-666.5c4.3 3.4 8.4 7.7 11.9 12.8 10.2 14.5 15.9 34.2 15.9 54.7v222.8c0 28.1-12.2 52.1-29.5 61.8 1.1 1.5 1.7 3.1 1.7 4.7 0 12.6-35.6 22.9-79.4 22.9S675-297.1 675-309.7c0-1.6.6-3.2 1.7-4.7-17.3-9.8-29.5-33.8-29.5-61.8V-599c0-20.5 5.7-40.2 15.9-54.7 3.6-5.1 7.6-9.4 11.9-12.8v-43.9h158.7v43.9zm-20.7 340.7c-11.2 3.2-36.2 9.6-58.6 9.6s-47.5-6.4-58.6-9.6c-2.1-7.2-6.2-13-11.4-15.9-9.7-5.4-16.5-18.9-16.5-34.5V-599c0-12.7 3.6-24.9 9.9-33.9 2.2-3.1 4.7-5.8 7.3-7.9 6.6-5.2 10.6-15 10.6-25.7v-14.6h117.4v14.6c0 10.7 4.1 20.5 10.6 25.7 2.7 2.1 5.1 4.8 7.3 7.9 6.3 9 9.9 21.2 9.9 33.9v222.8c0 15.7-6.8 29.1-16.5 34.5-5.2 2.9-9.3 8.7-11.4 15.9" class="st2"/></g></g><g id="g1504" transform="matrix(1.20599 0 0 .91518 0 1150.43)"><path id="path1500" d="m563.6-874.6-4.4 5.5-107 6.6.4 13.9s.7.9-.8 5c-7.4 5.4-24.8 27.2-24.8 59.1s-5.8 49.7-8 50.8v-60.4s-3.4-25 24.2-49.9c.6-26.6-1.9-29-1.9-29z" class="st3"/><path id="path1502" d="m563.6-874.6-4.4 5.5-107 6.6.4 13.9s.7.9-.8 5c-7.4 5.4-24.8 27.2-24.8 59.1s-5.8 49.7-8 50.8v-60.4s-3.4-25 24.2-49.9c.6-26.6-1.9-29-1.9-29zm-1.5.8-3.2 3.9-106.8 6.6c-.3 0-.6.4-.6.8l.4 13.9.6.7-.5-.3s.1.4 0 .9c-.1.7-.3 1.7-.8 3.1-7.6 5.6-25 27.6-25 59.7 0 22.2-2.8 37.5-5.3 45.1-.5 1.7-1.1 3-1.5 3.9v-58.7s-3.2-24.6 24-49.1c.2-.1.2-.4.3-.6.4-16.1-.4-23.4-1.1-26.7-.1-.7-.3-1.2-.4-1.6z" class="st3"/></g><g id="g1508" transform="matrix(1.20599 0 0 .91518 0 1150.43)"><path id="path1506" d="M563.6-870.7v28s20.3 18.4 21.4 47.2.1 168.9.1 168.9 2 19.9-23 37.8c-.1 2.3-.2 3.4-.2 3.4" class="st5"/></g><g id="g1512" transform="matrix(1.20599 0 0 .91518 0 1150.43)"><path id="path1510" d="M573.7-797.3v170.4" class="st5"/></g><g id="g1516" transform="matrix(1.20599 0 0 .91518 0 1150.43)"><path id="path1514" d="M421.4-626.9s-1.6 23.7 19 37.2c4.4-2.8 4.9 1.4 4.9 1.4l-.6 4.6s61.9 30.4 117.3-1.7" class="st5"/></g><g id="g1520" transform="matrix(1.20599 0 0 .91518 0 1150.43)"><path id="path1518" d="m431-749.5.8 122.6s0 17.2 11.1 22.7" class="st5"/></g></g><g id="g1612" transform="matrix(.9571 .21986 -.3818 .9571 128.658 -285.113)"><g id="g1542" transform="matrix(.98516 -.403 .75386 1.06122 -1339.1 483.521)"><g id="g1528" transform="matrix(1.20599 0 0 .91518 -50.19 -753.399)"><path id="path1524" d="M1181.5 1148.9c1 3.6-16.9 47.5-16.9 47.5s-12.4 10.1-44 15.1c-45.4 27-41.5 27.4-41.5 27.4s-16.5 6.3-14.1-11c19.1-32.8 34.4-27 34.4-27s14.2-14.7-38.6-36c-38.9-.3-69.6 29-69.6 29s-15.7 4.5-18 1c-10.7-7.4 58.9-49.8 58.9-49.8s22.9-16.2 49.7-14.8c30 4.3 47.2 6.8 66.7 9.7 11.2 3 32 5.4 33 8.9" class="st2"/><path id="path1526" d="M1078.9 1239c-1.8.6-16.1 5.1-13.9-11.1 19.1-32.8 34.4-27 34.4-27s14.2-14.7-38.6-36c-38.9-.3-69.6 29-69.6 29s-15.7 4.5-18 1c-10.7-7.4 58.9-49.8 58.9-49.8s22.9-16.2 49.7-14.8c30 4.3 47.2 6.8 66.7 9.7 11.1 3 32 5.3 33 8.9s-16.9 47.5-16.9 47.5-12.4 10.1-44 15.1c-31.5 18.8-39.3 24.7-41.1 26.5-.1-.1-.2-.1-.2-.1-.1 0-.2 0-.3.1zm-.5-.8c-1.1.4-3.9 1.1-6.6.8-2.2-.2-4.4-1.2-5.5-3.8-.7-1.6-.9-3.9-.5-7 18.6-31.7 33.3-26.3 33.3-26.3l.4.2.4-.4s1.5-1.5 2-4.4c.3-1.8.1-4.1-1.2-6.9-3.1-6.4-12.8-15.6-39.5-26.3h-.2c-37.6-.3-67.5 26.8-70 29.1-1.2.3-7.9 2.1-12.7 2.2-1.3 0-2.5-.1-3.3-.3-.4-.2-.8-.3-1-.6l-.1-.1-.1-.1c-.4-.3-.7-.7-.8-1.1-.1-.5.1-1.1.4-1.7.5-1.1 1.3-2.3 2.5-3.7 12.3-14.6 56.7-41.5 56.7-41.5h.1s22.7-16 49.2-14.7c30 4.3 47.1 6.8 66.6 9.6 7.8 2.1 20.3 3.9 27.5 6 1.8.5 3.2 1.1 4.1 1.6.4.3.7.5.8.8.1.2 0 .6-.1 1.1-.2 1.1-.6 2.7-1.2 4.6-3.8 12.3-14.2 37.9-15.4 40.8-1.7 1.3-14.4 10.1-43.4 14.8h-.1l-.1.1c-25.5 15.2-35.5 22-39.3 25-2.1 1.1-2.7 1.8-2.9 2.2" class="st2"/></g><g id="g1534" transform="matrix(1.20599 0 0 .91518 -50.19 -753.399)"><path id="path1530" d="m1042.7 1167.5-34.1 47.4s7.8 4.5 15-3.5 25.4-31.2 25.4-31.2 3.8-.1 5.6.5c-4.2 5-22.9 30.8-22.9 30.8s7.7 3.8 13.9-3.3c6.3-7 20.7-19.1 20.7-19.1s29.5 1.2 32.1 5c1.6-10.8-33.9-31.6-55.7-26.6" class="st2"/><path id="path1532" d="m1042.7 1167.5-34.1 47.4s7.8 4.5 15-3.5 25.4-31.2 25.4-31.2 3.8-.1 5.6.5c-4.2 5-22.9 30.8-22.9 30.8s7.7 3.8 13.9-3.3c6.3-7 20.7-19.1 20.7-19.1s29.5 1.2 32.1 5c1.6-10.8-33.9-31.6-55.7-26.6m.4.9c15.1-3.3 36.6 5.7 47.7 15.1 2.8 2.4 4.9 4.8 6.1 7 .3.6.6 1.2.7 1.8-1.5-.7-4-1.4-6.9-1.9-9.6-1.7-24.1-2.3-24.1-2.3h-.3l-.2.2s-14.5 12.1-20.8 19.2c-4.5 5.1-9.9 4.1-12 3.4 3.6-5 18.3-25.2 22.1-29.6l-.2-1.6c-1.8-.6-5.8-.6-5.8-.6h-.4l-.3.3s-18.2 23.1-25.4 31.2c-5.3 5.9-11 4.6-13.1 3.7-.2.1 32.9-45.9 32.9-45.9" class="st2"/></g><g id="g1540" transform="matrix(1.20599 0 0 .91518 -50.19 -753.399)"><path id="path1536" d="M1035.8 1170.7c-5.3 3-49 31.1-49.8 37.4 4.8 5.4 13.1 4.2 18.1 1.1 9.1-5.8 37-41.4 31.7-38.5" class="st2"/><path id="path1538" d="M1035.8 1170.7c-5.3 3-49 31.1-49.8 37.4 4.8 5.4 13.1 4.2 18.1 1.1 9.1-5.8 37-41.4 31.7-38.5m-.9 1.6c0 .1-.1.2-.1.3-4.7 7.7-23.8 31.2-30.9 35.9-4.7 2.8-12.3 4.1-16.9-.6q.15-.45.6-.9c.8-1.1 2.2-2.4 3.9-4 10.8-10 36.6-26.7 43.4-30.7" class="st2"/></g></g><g id="g1546" transform="matrix(1.20599 0 0 .91518 0 1150.43)"><path id="path1544" d="M108.4-884.7s-.9-2.8-1.8-2.9" style="fill:none;stroke:#fff;stroke-width:.4233;stroke-linecap:round;stroke-linejoin:round;stroke-miterlimit:10"/></g><g id="g1550" transform="matrix(.55263 .11566 -.32063 .88224 682.48 1094.73)"><path id="path1548" d="M-1545.5-601.1s8.6-3.5 8.6-9.1c-.1-5.6-1.1-3.8-1.1-3.8s-5.1-4-6.2-2.6" style="fill-rule:evenodd;clip-rule:evenodd;fill:#fff;stroke:#000;stroke-width:1.28;stroke-linecap:round;stroke-linejoin:round;stroke-miterlimit:1.5"/></g><g id="g1554" transform="matrix(1.18726 .16068 -.21173 .90096 165.726 1005.05)"><path id="path1552" d="m-110.9-668.4 4.3-14.5s-9.3-5.8-13.3 2c-3.9 7.8-1.6 9.3-3 11.2-1.2 1.8 4.4 7.6 12 1.3" style="fill-rule:evenodd;clip-rule:evenodd;fill:#fff;stroke:#000;stroke-width:.4233;stroke-linecap:round;stroke-linejoin:round;stroke-miterlimit:10"/></g><g id="g1558" transform="matrix(1.20599 0 0 .91518 0 1150.43)"><path id="path1556" d="M141.3-884.7s2.8-4.2 9.8-2" class="st9"/></g><g id="g1562" transform="matrix(1.20599 0 0 .91518 0 1150.43)"><path id="path1560" d="M49.3-866.9s-2-6.6-4.2-8.8" class="st9"/></g><g id="g1566" transform="matrix(1.20599 0 0 .91518 0 1150.43)"><path id="path1564" d="M44.8-879s7.2 9.3 6 8" class="st9"/></g><g id="g1570" transform="matrix(1.20599 0 0 .91518 0 1150.43)"><path id="path1568" d="M79.5-913.5s6 2.2 7.7 4.8" class="st9"/></g><g id="g1574" transform="matrix(1.20599 0 0 .91518 0 1150.43)"><path id="path1572" d="M85.8-916.4s3.1 5.3 3.2 8.9" class="st9"/></g><g id="g1578" transform="matrix(1.20599 0 0 .91518 0 1150.43)"><path id="path1576" d="M141-903.1s19.5-15.6 38.6-16.2c-23.8 7.9-34.3 15.7-33.7 23.5" class="st9"/></g><g id="g1582" transform="matrix(1.20599 0 0 .91518 0 1150.43)"><path id="path1580" d="M77-850.2s4.3-.1 4.7-2.3" class="st9"/></g><g id="g1586" transform="matrix(1.12368 .33231 -.43791 .85271 388.969 860.872)"><path id="path1584" d="M-361.7-433.8s-2.2 3-1.3 4.3-3.3-3.1 1.3-4.3" style="fill-rule:evenodd;clip-rule:evenodd;stroke:#fff;stroke-width:.8804;stroke-linecap:round;stroke-linejoin:round;stroke-miterlimit:10"/></g><g id="g1590" transform="matrix(1.02954 0 0 .6507 151.679 1315.53)"><path id="path1588" d="M-52.4-1508s6.1 7.4 6.4 9.2c.3 1.9-2-3.6-7.1-4.8" style="fill:none;stroke:#fff;stroke-width:2.65;stroke-linecap:round;stroke-linejoin:round;stroke-miterlimit:1.5"/></g><g id="g1594" transform="matrix(1.20599 0 0 .91518 0 1150.43)"><path id="path1592" d="M108.5-884s-5.2-1.8-5.4-1.1" class="st9"/></g><g id="g1598" transform="matrix(1.20599 0 0 .91518 0 1150.43)"><path id="path1596" d="M59.7-848.3s2.7 2.9 3.3 3.2" class="st9"/></g><g id="g1602" transform="matrix(1.20599 0 0 .91518 0 1150.43)"><path id="path1600" d="M59.4-846.8s2.6 4.1 3.2 3.5" class="st9"/></g><g id="g1606" transform="matrix(1.20599 0 0 .91518 0 1150.43)"><path id="path1604" d="M77.2-847.2s3.4.1 4-1.9" class="st9"/></g><g id="g1610" transform="matrix(1.20599 0 0 .91518 0 1150.43)"><path id="path1608" d="m80.4-943.4 10 5.7 8.4-10.1" class="st9"/></g></g></svg>