<svg xmlns="http://www.w3.org/2000/svg" xml:space="preserve" width="606.424" height="722.009" viewBox="0 0 606.425 722.009"><path d="M323.6 721.81c-3.2-1.3-6.5-2.6-9.7-3.9-13.5-5.8-24-15.3-33.1-26.5-9.1-11.3-18.5-22.4-26.9-34.2-4.5-6.3-7.5-13.8-11-20.9-2-4.2-3.4-8.7-5.6-12.7-11.4-20.7-18-42.9-21.4-66.2-2.2-15-2.5-30-1.9-45 .3-8.5 1.7-16.9 2.6-25.4.2-1.6.2-3.1.2-4.7-.6-20.1 2.1-39.9 5.5-59.7 3.3-19.4 6.3-38.8 8.7-58.3.9-7.4-.2-15.1-.6-22.7-.6-11.3-1-22.6-2.2-33.8-.8-7.6-2.6-15.1-4.4-22.5-.7-2.8-3.1-5.1-4.4-7.8-6.9-13.7-13.6-27.5-20.7-41.1-7.9-15-18.1-28.2-33-36.7-7-4-14.9-6.4-22.3-9.6-41.3-17.8-82-36.5-119.3-62.1-4.8-3.3-9.4-7-14-10.7-4.4-3.5-8-7.7-10.1-13v-6.5c6.5-16.3 20.4-24.9 34.5-32.9 25.4-14.4 53.1-22.9 81.1-30.5 30.4-8.3 61.3-14.4 92.4-19.3 18.8-2.9 37.7-5.4 56.7-7.4 22.6-2.4 45.2-4.6 67.8-5.7 27-1.4 54.1-2.1 81.1-2 25.2.1 50.4 1.7 75.4 5.6 18.1 2.9 36 6.8 52.3 15.8 10.7 5.9 19.4 13.7 22.8 26.1 2.9 10.5.4 20.5-3.4 30.2-10.1 25.7-36.1 48.5-62.3 55.2 5.4-3.9 11.6-7.8 17-12.4 14.1-12 25.7-25.9 30.6-44.3 4.9-18.8-1.6-33.7-18.5-43.6-12.6-7.4-26.5-11-40.7-13.4-28.9-4.8-58-6.2-87.2-5.7-21.1.4-42.3 1.6-63.4 2.5-11.8.5-23.6.9-35.3 1.8-15.2 1.1-30.4 2.6-45.6 3.9-6.1.5-12.1 1.3-18.2 2.5 5 0 10 .3 14.9-.1 10.5-.7 21-2 31.6-2.6 22.2-1.2 44.4-2.5 66.6-3 17.8-.4 35.6-.1 53.4.8 24.4 1.3 48.8 3.7 72.4 10.7 9.5 2.8 17.8 7.9 22.9 16.9 6 10.7 4.9 21.7.3 32.6-7.3 17.6-21 29.1-37.1 38.4-2.9 1.7-6 3-9 4.5-.5.3-1.1.5-2.4 1 5.4-3.9 10.3-7.1 14.7-10.9 11.1-9.3 20.7-19.8 24.6-34.2 3.3-12-.9-22.7-11.1-29.9-10.3-7.3-22.2-10.5-34.4-12.7-25.4-4.6-51-6.3-76.7-6.1-21 .1-42.1.9-63.1 1.5-12.5.4-25 .9-37.5 1.8-12.7.9-25.4 2-38 3.4-12.5 1.3-25.1 2.7-37.5 4.4-17 2.4-33.9 5-50.8 8.1-27.9 5-55.5 11.6-82.3 20.9-8.5 2.9-16.8 6.4-23.7 12.5-1.4 1.3-2.8 2.7-3.8 4.3-2.4 3.8-1.9 8.1 1.6 11.5 6.2 6.1 13.9 9.7 21.7 13.1 34.8 14.8 71.1 24.3 108.1 31.5 24.5 4.8 49.3 8.6 74.2 11.6 19.8 2.4 39.7 3.8 59.6 4.4 19 .6 38 .4 56.9-1 31.3-2.3 62-8 91-20.6 24.1-10.4 45.4-24.6 61.1-46 8.9-12.2 12.8-25.8 7.2-40.7-3.7-10-10.9-17.4-19.4-23.7 4.5.6 14.9 5.9 21.6 11 7.4 5.7 13.2 12.5 15.1 22 2.2 10.5-1.3 19.7-6.7 28.3-9.2 14.6-22.5 24.9-36.8 33.9-28.6 18.1-60 29.1-92.9 35.7-19.6 3.9-39.4 7-59.3 9.1-24.4 2.6-48.9 2.4-73.5.5-28.5-2.1-56.6-6.8-84.1-14.5-.6-.2-1.2-.1-1.7-.2-.2.3-.3.7-.5 1 4.6 2.6 8.9 5.6 13.7 7.7 15.1 6.6 31.1 10 47.4 12.5 35.4 5.4 71.1 5.5 106.8 5 6-.1 12-.6 18-1.2-16.1-1.3-32.2-1.7-47.9-5.9 9.7 0 19.5.4 29.2-.1 22.8-1 45.7-1.5 68.4-3.8 32.4-3.3 64-10.5 93.2-25.8 26.7-13.9 48.2-33.4 61.6-60.8 12-24.6 8-47.1-11.7-66.2-2.1-2.1-4.3-4-7.1-6.7 12.3 5.1 23.1 10.8 32 19.6 12.5 12.5 15.3 27.2 8.3 43.5-6.4 14.8-16.9 26.4-28.7 37-20.2 18.1-43 32.6-67.4 44.5-5.4 2.6-10.9 4.9-16.2 7.8 1.8-.3 3.6-.5 5.3-.9 34.7-8.4 64.9-24.8 90.1-50.3 12.8-12.9 22.4-27.8 26.9-46 6.6 5.8 9.9 13 10.2 21.4.3 9.8-2.2 19.2-4.9 28.6-3.6 12.8-7.3 25.5-10.1 38.5-4.1 19.2-15 33.1-31.7 42.9-17.4 10.1-36.1 17.2-55 23.6-22.7 7.7-46.1 12.7-69.9 15.7-25.2 3.2-50.6 3.8-75.9 2.2-41.9-2.6-81.9-13.2-120.6-28.8-13.6-5.5-27.3-11-41.2-15.9 1 .6 1.9 1.2 2.9 1.7 28.2 15.7 58.5 25.9 89.7 33.9q37.35 9.6 75.6 13.8c12.8 1.4 25.5 2.6 38.4 4-48.7 1.7-96.4-4.5-143.7-15.8 2.4 1 4.8 2.1 7.2 3.1s4.9 2 7.4 2.9c24 8.6 48.7 13.9 74.1 16.8 21.3 2.5 42.7 3.1 64.1 1.9 42.6-2.5 83.7-11.4 121.8-31.6 15.1-8 29-17.8 41.4-29.6.3-.3.7-.6 1.9-1.6-6.8 14.5-15.9 25.4-29.3 32.5-22.6 11.9-46.8 19.8-71.7 25-17.6 3.7-35.4 6.5-53.2 8.5-22.8 2.5-45.8 2.4-68.8.6-19.3-1.5-38.4-4-57.2-8.3-25.8-6-50.7-15.1-75.4-24.5-.5-.2-1-.4-1.9.1 4.1 2.5 8.1 5.1 12.3 7.4 24.6 13.5 51.1 21.4 78.6 26.7 33.1 6.3 66.5 8.1 100.1 6.4 41.6-2.1 82.4-9 121.1-25.1 7-2.9 13.7-6.4 20.5-9.6 1-.5 2.1-1 4-2-6 9.8-10.2 19.9-18.4 26.9-3.8 3.3-8.3 6.4-13 8-23.4 7.9-47.6 13.2-72.2 15.3-17.1 1.5-34.3 2.7-51.4 2.6-22.8 0-45.5-3-67.6-9-1-.3-2-.6-2.2-.7 66.6 7.3 132.7.8 197.8-16.9 0-.4-.1-.9-.1-1.3-5.4 1.1-10.7 2.3-16.1 3.1-17 2.7-34.1 5.5-51.2 7.8-26.8 3.6-53.8 4.9-80.9 4.7-33.8-.2-67.4-2.8-100.2-11.3-9-2.3-17.8-5.4-27-7.6 7 3.6 13.9 7.4 21.1 10.7 22.6 10.2 46.1 17.5 70.4 22 13.6 2.5 27.5 4.5 41.3 5.3 16.6 1 33.4 1.3 50.1.6 20.9-.8 41.5-4 61.9-8.7 9.9-2.3 19.7-5 29.8-7.6-4.8 6.6-11.3 9.9-18.7 11.2-13 2.3-26 4.1-39.1 5.9-22.4 3-45 4-67.6 3.6-36.9-.7-73.1-5.9-108.4-16.8-23.8-7.3-46.6-16.9-68.2-29.3-.7-.4-1.4-.5-2.5-.2 2.6 1.8 5.1 3.7 7.7 5.5 26.5 18.4 55 33.1 85.5 43.5 23.2 7.9 47 13.1 71.5 15 38.5 2.9 75.6-2.5 111.2-17.6 6.7-2.8 13.2-6.2 20.1-9.4-6.8 11.1-13.6 21.3-27.9 23.8-26.2 4.6-52.4 8-79 8.3-41.5.4-82.1-5.1-121.2-19.5-.4-.1-.9-.1-2-.3 60.8 42 126 51.1 196.2 31.5l-11.4 14.1c-17.2 21-34.4 41.9-51.5 63-11.8 14.6-27.2 22.3-45.5 25-28.8 4.1-55.9-1.2-81.4-14.5-18.5-9.6-33.5-23.6-46.8-39.4l-8.4-10.2c-.3.2-.6.4-.8.5 1.9 3 3.7 6.1 5.8 9 13.7 18.6 31.1 32.8 51.3 43.8 15.5 8.4 31.9 14.3 49.3 16.7 21.3 2.9 42.1.9 61.7-9.2.3-.2.6-.2 1.5-.5-8.9 12.3-20 20.3-34.4 23.5-28.6 6.4-54.7-.2-78.7-15.9-6.2-4.1-11.9-8.9-17.6-13.8 27.9 18.6 58.4 27.6 91.9 25.9-5.9-.8-11.9-1.4-17.8-2.4-22.5-3.7-43.6-11.8-63.7-22.3-12.5-6.5-24.4-13.9-34.2-24.2-7.7-8-13.7-17.2-19.3-27.1.2 1.5 0 3.2.6 4.5 8.1 18.2 18 35.3 32.7 49.1 17.8 16.8 38.9 26.8 63.2 30.1 18.5 2.5 36.9 2.1 55-2.9.2-.1.5.1 1.1.1-3.6 5.3-7.2 10.5-10.6 15.7-5.2 8-10 16.4-15.6 24.2-8 11-19.6 16.2-32.9 17.6-29.1 3.1-53.6-7.8-75.4-25.9-6.4-5.3-11.9-11.8-17.9-17.7-.4-.4-.8-.7-1.2-1.1-.2.2-.5.4-.7.5 3.5 5.3 6.9 10.7 10.7 15.9 10.9 15.1 24.6 27.3 41.1 35.9 13.8 7.2 28.4 11.9 44.3 9 5.3-1 10.5-3 16.2-3.9-3.4 1.7-6.6 4.1-10.2 5.1-11.8 3.2-23.7 2-35.3-.9-21.7-5.3-38.8-18.2-53.8-34.2-2-2.1-3.7-4.4-6.3-6.2 2.3 4.7 4.7 9.3 7 14-.3.2-.6.4-.9.5-4.4-7.1-8.7-14.3-13.7-22.5.4 3 .2 5.2 1 7 14.8 33.4 40.2 53.9 76 61.1 8.8 1.8 17.7.6 26.4-1.6.9-.2 1.9-.4 2.8-.6.2.3.4.7.6 1-2.4 1.3-4.7 3.2-7.3 4-9.9 2.9-19.8 1.3-29.5-1.2-21.8-5.5-38.9-18.5-53-35.4-8.2-9.9-14.9-21.1-22.3-31.7-.4-.6-.9-1.1-2.1-1.4.3 1.6.2 3.4.8 4.8 9.1 20 19.8 38.9 36.2 54.1 19.5 18.1 42.2 24.2 68.1 18.7 1.7-.4 3.4-.7 5.2-1.1.2.3.4.7.6 1-2.4 1.5-4.7 3.7-7.3 4.5-14 4.1-27.8 3.3-41.2-2.5-22.5-9.6-38.7-26.4-51.6-46.6-4.5-7-8.1-14.6-12.3-21.8 8.7 28 26.2 49.7 48.6 68-7.8-2.9-13.6-8.5-19.2-14.4-5.5-6-10.7-12.3-16.4-18.3.5 1 1 2.1 1.6 3.1 7.5 12.2 16.2 23.3 28.1 31.4 20.2 13.7 41.4 15.8 63.5 4.6-.4 7.3-3.6 10.9-10.7 12.3-23 4.5-42.9-2-60.3-17.1-10.4-9-19-19.7-26.4-31.2-.7-1-1.3-2-2.1-2.9-.1-.2-.4-.3-.9-.1 9.5 17.4 21.8 32.2 38.8 42.9 17.2 10.8 36.1 14 56.5 12.1-3.2 6.9-8.2 11.1-15.5 11.7-23.3 2.1-48.5-10-62.1-30.2 17.8 15.4 37 26.2 60.9 25.8-39.8-6.3-66.9-29-84.5-65.5-.1 7.9 1.7 14.3 4.8 20.2 14.4 28.1 36.5 46.6 68 52.5 7.9 1.5 16.1 2.5 23.9-1.6-2.4 16.6-4.6 19-23 22.5 6.1-.5 12.2-1 18.7-1.5-.8 4.7-1.1 9.6-2.6 14.2-.8 2.5-3.2 5.3-5.6 6.5-12 5.9-24.5 5.6-36.5.3-7.8-3.4-14.9-8.4-21.8-12.3 1.7 1.9 3.8 4.7 6.2 7.2 6.8 7 14.3 13.2 23.3 17.2 9.4 4.1 18.9 4.8 29 1-4.5 4.9-13.3 7-20.7 5.5-9.8-2.1-17.9-7.4-25.2-13.9-6.5-5.7-12.6-11.8-19.3-18.1 3.6 5.7 6.8 11.2 10.5 16.3 8.1 10.9 18.1 19.6 31.1 24.1 9.3 3.2 18.2 2.4 25.8-4.8.1-.1.4 0 .8 0-4.1 7.3-10.8 9.2-18.3 8.7-11.3-.7-20.8-6-29.6-12.8-1.1-.9-2.3-1.8-3.6-2.4 5.2 7.6 11.9 13.5 19.6 18.7-4.7-2.4-9.5-4.8-14-7.1 5.6 12.4 29.9 17.6 45.1 9.4-1.9 4.9-10.4 8.4-16.5 7.6-6.3-.8-12.6-2-18.8-3 .8 2.9 6.8 5.2 18 7 7.2 1.1 13.5-.5 19.3-4.9 2.8 4.6 1.2 9.5-3.8 12.5-4.2 2.5-8.7 3.2-13.5 2.9-1.3-.1-2.6 0-4 0 1.6 4.4 2.8 5.3 7.2 3.8 5.6-1.9 11.1-4.4 16.1-6.4 3 10 6.3 20.8 9.6 31.5-.7-.2-1.2-.2-1.7-.2m237.2-535.6c-.2-.3-.4-.7-.6-1-3.9 1.7-7.7 3.6-11.7 5-44.6 15.9-90.7 23.1-137.9 23.5-15.7.1-31.5-.7-47.2-2-16.1-1.4-32.2-3.3-48.1-6-23.9-4.2-47.7-9-71.4-14.2-37.4-8.2-74.3-18-110-32.3-2.1-.8-4.2-1.5-6.3-2.3.9 1.2 2.1 1.8 3.2 2.4 28.4 14.6 58 26 88.5 35.3 25.5 7.8 51.3 14.7 76.8 22.2 29.3 8.7 59.3 12.5 89.7 13.8 24.4 1 48.7-.2 72.9-4.1 27.7-4.4 54.5-12 79.1-25.7 8-4.3 15.4-9.7 23-14.6m22.7-37.5c-15.8 13.6-33.9 23.3-53.5 30.2-17.1 6.1-34.8 9.7-52.8 11.9-9.7 1.2-19.6 1.7-29.4 2.5 17.5-3.5 34.7-7.9 51.4-14.2 16.9-6.3 33-14.2 48.2-24 17.1-11.1 36.2-27 41-34.4-.9.6-1.5.9-2.1 1.3-20.3 16.6-42.9 29.4-67.1 39.2-22.6 9.2-46.1 15.3-69.9 20.2-22.5 4.6-45.2 7.7-68.1 8.5-19.1.7-38.2.6-57.3 0-12.6-.4-25.1-2.1-37.6-3.3-4.4-.4-8.8-.9-14.1-1.5 1.5.8 1.9 1.2 2.5 1.4 23.1 6.6 46.5 12 70.4 15.5 21.2 3.1 42.5 5 63.9 4.7 12.9-.2 25.9-1.4 38.8-2.7 18.1-1.9 36.2-3.8 54.2-6.6 17.9-2.8 35.2-8.1 50.9-17.6 12.8-7.8 23.1-18 30.6-31.1m-220.1 200.1c-35.1-3.2-68-13.9-99.5-29.2.5.7 1 1.1 1.6 1.5 13.9 8.7 28.4 16.4 43.8 22.1 31.7 11.8 64.2 18.5 98.2 16.1 19.2-1.3 37.6-5.7 54.9-14.1 1.5-.7 3-1.5 4.5-2.3 1.4-.8 2.8-1.7 4.9-2.9-84.3 12.9-160.3-9.6-233.1-47.7 37.1 28.7 79.5 45.6 124.7 56.5m80.4 11.4-5.4 3.6c-1.8 1.2-3.6 2.3-5.5 3.4-22.4 12.4-46.5 14.5-71.2 11.2-34.8-4.6-66.1-18.2-94.2-39-4.4-3.3-8.6-6.9-12.9-10.3 8.8 11.2 18.1 21.9 29.5 30.4 26.1 19.4 54.9 32.5 87.4 36.8 14.5 1.9 28.7 1.2 42.4-4.5 7-2.9 14.9-8.8 18.2-14.2-11.8 7.4-24.2 11.7-37.5 13-13.2 1.3-26.2-.3-38.7-5.1 33.1 4.8 63.6.2 87.9-25.3m-207.6-40.6h-.8c1.3 3.6 1.9 7.7 4.1 10.6 9 11.4 18.4 22.4 27.9 33.4 15.8 18.5 35.1 32.2 58 40.6 25.4 9.3 50.9 11.4 76.2-.2 5.4-2.5 10.3-6.1 15.5-9.1-.2-.3-.4-.7-.5-1-1.1.3-2.3.5-3.4.9-9 2.7-18 4.7-27.4 5-23.9.8-46.7-3.9-68.5-13.5-18.8-8.2-36.2-18.6-50.3-33.9-10.3-11-20.6-21.9-30.8-32.8m4.1 19.5c16.2 32.9 43 54.7 73.8 72.6-21.5-8.1-39.7-21.1-56.6-37 .1.8.1 1.1.2 1.2 12.5 15 27.2 27.3 44.6 36.5 18.4 9.6 37.8 15.3 58.5 15.4 20.1.1 38.6-5.7 54.2-18.8 5.3-4.5 9.8-9.9 14.7-14.9-.3-.2-.5-.5-.8-.7-4.5 2.8-9 5.8-13.7 8.3-30.4 16.5-62 16.5-94 5.8-27.6-9.2-49.6-26.2-66.9-49.5-4.7-6.2-9.4-12.6-14-18.9m-13 96.3c-1.2 8.4 2.5 15 7.4 21 14.5 17.9 32.3 31.7 53 41.7 12.5 6.1 25.6 9.4 39.7 7.8 1.4-.2 2.7-.5 4.6-.9-5.8-.4-10.9-.3-16-1.1-5-.8-10-2.2-14.8-3.9s-9.5-4-14-6.5c-4.3-2.4-8.4-5.2-12.6-7.9.1-.3.3-.5.4-.8 24.7 14.4 50.8 16.9 78.1 10.1-10.9-1.8-21.8-3.1-32.6-5-12.9-2.3-25.6-5.5-36.7-12.8-16.9-11.1-31.1-25.2-43.6-41.1-1.9-2.4-3.8-4.9-5.6-7.4-.2.2-.5.3-.7.5 1 1.9 1.9 3.8 2.9 5.6 9.4 16.6 21.7 30.9 35.4 44.2-6.3-4.2-12.5-8.6-18.4-13.4-10.3-8.6-19.8-18.1-26.5-30.1m13.3-38.9c.2.4.3.8.5 1.2 9.6 20.6 23.1 38.1 41.2 51.9 20.1 15.3 42.5 22.8 68 18.7 5.3-.9 10.5-2.6 15.7-3.9 0-.3-.1-.7-.1-1-51.8-3.4-93.8-25.1-125.3-66.9m95.9 85.7c-3.5-.6-7.1-.9-10.5-1.8-3.5-.8-7-1.8-10.2-3.3-3.1-1.4-6-3.3-8.9-5 14.1 4.4 21.6 5.8 26.9 4.3-20.7-4.2-39.5-12-56.4-24.4-16.8-12.4-29.5-28.3-39.7-46.4 3.5 9.2 7 18.4 11.6 27 10.7 19.9 25.6 35.5 47.1 44 12.9 5 26.3 6.8 40.1 5.6m191.6-329.3c-.1-.4-.3-.8-.4-1.2-56.7 22-116.1 28.5-176.1 32.3 4 .6 7.9 1.2 11.9 1.1 23.8-.2 47.5-1.7 71.1-4.8 22.9-3.1 45.3-7.7 66.9-16 9-3.4 17.8-7.6 26.6-11.4m-298.4 411.6c-.4.2-.9.4-1.3.6.6 3.2 1 6.6 2 9.7 2.8 8.6 7.7 16.2 13.7 23 9.2 10.3 19.9 18.3 33.7 21.3 4.6 1 9.3 1.2 14.3-1.6-22.1-2.7-28.1-5.2-32-13.1 10.2 5.3 17.2 7.4 23.1 6.4-24.1-9-43.8-22-53.5-46.3m169.2-193.3c-1.4-.3-1.6-.5-1.8-.4-16.3 2.4-32.3.4-48.1-3.5-25.2-6.1-48.4-17-71.2-29.1-.9-.5-1.9-1-2.9-1.5-.2.4-.4.8-.6 1.1 8.9 5.5 17.7 11.4 26.9 16.4 21.5 11.6 44.4 18.9 69 20.1 9.4.5 18.6-.6 28.7-3.1m-162.1 223.1c-.3.3-.6.6-1 .8 1.2 2.8 1.9 6 3.8 8.2 4.4 5.3 8.9 10.8 14.3 15.1 12.8 10.2 27.3 16.4 44.1 15.3 3.4-.2 6.7-1.7 10-2.6-7-.5-13.7-.1-20.3-.6-6.7-.5-13.3-2.1-19.3-7.6 9.1 3 17.5 4.5 26.3 3.3-23.2-3.6-43.6-12.1-57.9-31.9m65.9 6.5c-20.1-3.6-38.9-9.5-55.6-21.6 7.9 14.5 42.7 28.1 55.6 21.6m18.9-245.6c29.5 9.9 59.5 14.4 90.5 7.3-30.6 2.8-60.7-.2-90.5-7.3m-38 329.4c.9 2.5 3 4.1 6.5 4.5 6.2.7 14.7-.3 17.1-2.2-7.4-.7-15.7-1.6-23.6-2.3m26.7 15.6c-3.6.4-6.7.7-10.1 1 4 4.7 5.2 4.5 10.1-1"/><path d="M97.8 112.21c-.8-.8-1.3-1.2-1.8-1.7-7-6.6-6.4-15.6 1.5-21.1 7.7-5.3 16.5-7.8 25.4-9.4 20.7-3.7 41.5-7.3 62.4-10.2 27.2-3.7 54.5-5.7 81.9-5.8 21.5-.1 43 .1 64.5.9 13.1.5 26.3 2.3 38.7 7 2.8 1.1 5.4 2.6 7.7 4.4 1.5 1.2 2.3 3.3 3.1 5.2-11.8-8.6-25.5-11-39.2-11.8-19.3-1.2-38.7-1.7-58-1.4-15.6.2-31.2 1.9-46.7 3.2-14.2 1.3-28.5 2.5-42.5 4.6-23.3 3.6-46.6 7.7-69.7 11.9-6.6 1.2-13 3.8-19.5 5.9-1.3.4-2.5 1.4-3.6 2.3-2.4 2.1-2.7 4.7 0 6.4 4.9 3 10 6.1 15.4 8.1 18.5 6.6 37.8 10.4 57.1 13.8 17.1 3 34.3 5.7 51.5 7.8 11 1.3 22.1 1.5 33.1 2 22.3 1 44.5-.3 66.6-2.3 21.3-2 42.3-5.3 62.5-12.5 12.8-4.5 24.8-10.5 34.7-19.9 4-3.7 7.5-8.2 10.3-12.8 4.8-7.9 2.6-17-4.9-23.1-2.3-1.9-4.7-3.6-7-5.6 9 2.8 18 5.8 24.1 13.6 3.8 4.8 3.7 10.7.2 16.5-3.9 6.4-9.6 11-15.9 14.9-19.9 12.3-41.5 20.3-64.3 24.8-16.2 3.2-32.6 5.9-49 7.7-27.2 3-54.5 3.4-81.8 1.8-12-.7-24-1.2-35.9-2.4-13.5-1.3-27-2.9-40.3-5-17.1-2.7-34.3-5.5-51.2-9.4-16.1-3.8-32-8.9-47.8-13.8-4.2-1.3-8.1-3.7-11.7-6.2-5.4-3.7-5.6-8.5.2-11.6 7.6-4.1 15.6-7.8 23.9-10.5 24.1-7.9 49-12.2 74.1-15.3 22.6-2.8 45.3-5.5 68-7.1 26.5-1.9 53-3 79.6-3.6 20.4-.5 40.9-.3 61.3.9 17.2 1 34.3 3.9 51.3 6.3 3.8.5 7.5 2.4 10.9 4.2 10.3 5.7 12.7 15.2 5.9 24.9-9.2 13-22.2 20.5-37.3 24.7-.3.1-.7.1-1.1.1-.3 0-.7-.1-.2 0 6.3-3.8 13.4-7.5 19.9-12.1 3.9-2.8 7.4-6.6 10.2-10.5 5.3-7.4 3.7-14.6-4-19.7-7.6-5-16.2-6.9-25-8.3-26.1-4.1-52.4-4.8-78.7-4.4-23.6.4-47.2.7-70.7 1.7-18.5.8-37 2.1-55.3 4.2-25.5 2.9-50.9 6.2-76.2 10.3-11.4 1.8-22.4 5.8-33.4 9.2-3.3 1-6.5 3.2-9.2 5.4-4 3.2-3.9 7.2.3 10.1 3.4 2.4 7.1 4.6 11.1 5.9 7.4 2.6 15.1 4.5 22.7 6.7.4.3.9.1 1.8.1"/><path d="M473.6 75.71c-1.1-7.1-5.9-10.5-11.1-13.3-10.6-5.8-22.3-8.6-34.1-10.9-24-4.7-48.2-6.9-72.6-7.3-22.2-.3-44.5-.5-66.7.2-23 .8-46.1 2.2-69 4.3-25.4 2.3-50.8 5.4-76.1 8.6-12 1.5-23.8 4-35.8 5.7 7.7-2.1 15.3-4.4 23-6.4 25.4-6.3 51-11.1 77-13.8 21.6-2.2 43.2-4.6 64.9-5.6 24.4-1.2 48.8-1.7 73.2-1.4 30 .3 59.9 2.7 89.3 9.4 11.8 2.7 23.5 5.9 33.3 13.7 5.5 4.6 7.2 10.1 4.7 16.8M351.1 83.21c2.5 1.1 5.1 2 7.4 3.3 4.6 2.8 5.5 7.3 1.2 10.6-4.7 3.7-10.1 6.9-15.7 9.1-11.8 4.6-24.3 6.1-36.8 7.5-21.6 2.4-43.2 2.6-64.8 2-27.9-.9-55.8-2.9-83-10.1-4-1-8-2.6-11.6-4.6-3.4-1.8-3.3-3.9.2-5.3 7.2-2.8 14.5-5.8 22.1-7 18.8-3 37.7-5.7 56.7-7.3 19.7-1.7 39.6-2.4 59.4-2.6 17-.2 34.1.4 50.9 3.9 3.8.8 7.6 2.1 11.2 3.8 4.1 2 4.5 5.4 1.3 8.7-3.9 4.1-9.1 5.4-14.3 6.7 2.8-1.7 5.8-3.3 8.5-5.3 4.5-3.3 4.1-7.3-1.2-8.9-5.9-1.8-12.1-3.2-18.2-3.6-11.6-.8-23.3-.9-35-1.2-.7 0-1.3.1-2 .6 3.2.9 6.5 1.7 9.7 2.8 1.9.7 3.6 1.7 5.4 2.8 2.4 1.4 2.7 3.4 1.2 5.8-15.4-9.5-32.4-8.8-49.2-7.6-15.7 1.2-31.4 3.9-47 6-2.8.4-5.6 1.2-8.3 2.3-4.3 1.8-4.7 3.3-2.6 7.8-2.8-.1-4.7-1.5-5.4-3.9-.8-2.6.2-4.9 2.7-6 4.9-2.1 9.9-3.9 15-6.1-5 .5-10 .9-14.9 1.6-8.5 1.3-17 2.8-25.5 4.3-1.8.3-3.7 1.1-5.4 1.9-3.2 1.6-3.4 3.7-.2 5 4.8 2 9.9 3.8 15 4.6 36.1 5.7 72.4 7.9 108.8 6.5 19-.7 38-2.6 56.2-9.3 3.6-1.3 7.1-2.9 10.2-5.1 5.5-3.8 5.3-8.2-.2-12-.7-.5-1.3-.9-1.9-1.4-.1.1 0-.1.1-.3M226.7 144.71c7.6.4 15.1 1.1 22.7 1.1 14.7.2 29.3.3 44-.1 11.6-.3 23.3-1 34.9-2.5 18.8-2.5 37.5-5.1 56.1-8.8 21.5-4.3 42.4-11 61.9-21.3 13.1-6.9 25-15.1 33.4-27.7.3.2.6.5.9.7-3.6 4.9-6.9 10.1-11 14.5-10.5 11.4-23.5 19.3-37.3 25.9-25.5 12-52.6 18.2-80.4 21.5-25.7 3-51.5 3.6-77.4 1.7-15.9-1.2-31.8-2.7-47.7-4-.1-.3-.1-.6-.1-1"/><path d="M397 83.31c-4.2 7.6-11 12.4-18.3 16.7-17.7 10.4-37.1 15.9-56.9 20-22.8 4.7-45.8 6.6-69.1 6.4-41.7-.4-82.2-7.4-121.7-20.8-.6-.2-1.1-.5-2-1 9.6 2 18.6 4.4 27.9 5.9 15.9 2.6 31.9 5.5 48 6.8 21.4 1.7 42.9 3 64.4 2.8 30.9-.4 61.5-3.7 90.9-14.2 15.7-5.6 25.8-11.9 36.8-22.6"/><path d="M334.7 91.01c-6.3 6.6-14.3 10-22.7 11.6-11.1 2.1-22.4 4-33.7 4.4-18.3.7-36.7.4-55.1 0-5.4-.1-10.7-2-16-3.4-1.2-.3-2.1-2.1-2.8-3.6 17.4 4.7 35 4.1 52.4 3.5 22.5-.7 45-2.2 66.8-8.5 3.8-1.1 7.3-2.6 11.1-4M421.2 325.61c27.9-.6 54.9-5.7 80.9-17.4-4.7 8-10.9 12.9-19.6 14.9-20.3 4.8-40.7 5.6-61.3 2.5M285.3 524.11c24.9 5.3 24.5 8.3 60.8 4.2-1.8 8.5-3.6 10.1-12.2 11.5-10.8 1.8-21.5 1.8-31.9-2.3-3.3-1.3-6.4-3.2-9.4-5.2 15.3 5.1 30.5 7.6 46.2 2.3-18.2.2-36.1-1-53.5-10.5M301.3 514.71c21.6 5.5 37.5 2.7 53.1-9.1-7.3 16.4-31 22.3-53.1 9.1M313.5 637.21c-3.4 5.9-12.3 9.4-18.3 7.4 5.7-2.3 12.3-5 18.3-7.4"/></svg>