<?xml version="1.0" encoding="UTF-8" standalone="no"?>
<!-- Generator: Adobe Illustrator 26.1.0, SVG Export Plug-In . SVG Version: 6.00 Build 0)  -->

<svg
   version="1.1"
   id="Layer_1"
   x="0px"
   y="0px"
   viewBox="0 0 620.55366 385.55449"
   xml:space="preserve"
   sodipodi:docname="syringe-dispense.svg"
   width="620.55365"
   height="385.5545"
   inkscape:version="1.2.2 (732a01da63, 2022-12-09, custom)"
   xmlns:inkscape="http://www.inkscape.org/namespaces/inkscape"
   xmlns:sodipodi="http://sodipodi.sourceforge.net/DTD/sodipodi-0.dtd"
   xmlns="http://www.w3.org/2000/svg"
   xmlns:svg="http://www.w3.org/2000/svg"><defs
   id="defs912" /><sodipodi:namedview
   id="namedview910"
   pagecolor="#505050"
   bordercolor="#eeeeee"
   borderopacity="1"
   inkscape:showpageshadow="0"
   inkscape:pageopacity="0"
   inkscape:pagecheckerboard="0"
   inkscape:deskcolor="#505050"
   showgrid="false"
   inkscape:zoom="0.28031832"
   inkscape:cx="-21.404238"
   inkscape:cy="-262.20191"
   inkscape:window-width="1850"
   inkscape:window-height="1016"
   inkscape:window-x="0"
   inkscape:window-y="0"
   inkscape:window-maximized="1"
   inkscape:current-layer="Layer_1" />
<style
   type="text/css"
   id="style651">
	.st0{fill:none;}
	.st1{fill-rule:evenodd;clip-rule:evenodd;}
	.st2{fill-rule:evenodd;clip-rule:evenodd;fill:#FFFFFF;}
	.st3{fill:none;stroke:#FFFFFF;stroke-width:22.3;stroke-linecap:round;stroke-linejoin:round;stroke-miterlimit:1.5;}
	.st4{fill:none;stroke:#000000;stroke-width:22.3;stroke-linecap:round;stroke-linejoin:round;stroke-miterlimit:1.5;}
	.st5{fill:none;stroke:#FFFFFF;stroke-width:5.02;stroke-linecap:round;stroke-linejoin:round;stroke-miterlimit:10;}
	.st6{fill:none;stroke:#FFFFFF;stroke-width:2.513;stroke-linecap:round;stroke-linejoin:round;stroke-miterlimit:10;}
</style>

<g
   transform="matrix(0.926903,0,0,0.964159,-309.75685,1022.3583)"
   id="g659">
	
		<rect
   x="618.79999"
   y="-1113.9"
   transform="matrix(0.427,-0.9043,0.9043,0.427,1213.3704,99.2617)"
   class="st1"
   width="132.5"
   height="412.29999"
   id="rect655" />
	<path
   class="st1"
   d="m 519.4,-1053.3 -56.6,115.2 387.8,176 56.6,-115.2 z m 2.6,6.9 378,171.6 -52,105.7 -378,-171.5 z"
   id="path657" />
</g>
<g
   transform="matrix(0.65001,0,0,0.692082,-158.73585,1386.7583)"
   id="g663">
	<path
   class="st1"
   d="m 958.7,-1561.1 c 0,0 5.7,-34.5 -41.6,-55.5 11,-42.9 31.9,-27.2 31.9,-27.2 l 37.7,43.4 z"
   id="path661" />
</g>
<g
   transform="matrix(-0.65001,0,0,0.692082,738.31315,1386.7583)"
   id="g667">
	<path
   class="st1"
   d="m 310.3,-1782 c 0,0 24.7,26.1 72.1,5.1 28.3,35.3 2.1,40.4 2.1,40.4 l -59.6,-0.2 z"
   id="path665" />
</g>
<g
   transform="matrix(1.07886,0,0,1.19008,-423.51485,880.94835)"
   id="g673">
	
		<ellipse
   transform="matrix(0.427,-0.9043,0.9043,0.427,924.246,82.7005)"
   class="st1"
   cx="527.40002"
   cy="-687.90002"
   rx="56.900002"
   ry="21.700001"
   id="ellipse669" />
	<path
   class="st1"
   d="m 505.8,-697.1 c 13.4,-25.7 34,-42.5 45.9,-37.4 11.9,5.1 10.7,30.2 -2.7,55.9 -13.4,25.7 -34,42.5 -45.9,37.4 -11.9,-5.1 -10.7,-30.2 2.7,-55.9 z m 4.2,1.8 c 7.6,-14.7 17.6,-26.3 26.9,-32.2 4.8,-3.1 9.3,-4.7 12.8,-3.2 3.5,1.5 4.9,5.6 5.4,11 0.9,10.2 -2.7,24.6 -10.3,39.3 -7.6,14.7 -17.6,26.3 -26.9,32.2 -4.8,3.1 -9.3,4.7 -12.8,3.2 -3.5,-1.5 -4.9,-5.6 -5.4,-11 -0.9,-10.3 2.6,-24.7 10.3,-39.3 z"
   id="path671" />
</g>
<g
   transform="matrix(0.926903,0,0,0.986897,-315.74033,996.50835)"
   id="g679">
	<path
   class="st1"
   d="m 462.7,-989.5 c -5.4,-2.4 -11.9,-0.2 -14.5,4.9 -3.9,7.7 -9.4,18.7 -13.3,26.4 -2.6,5.1 -0.2,11.2 5.2,13.6 11.3,5 28.2,12.5 28.2,12.5 l 22.6,-44.9 z"
   id="path675" />
	<path
   class="st1"
   d="m 462.7,-989.5 c -5.4,-2.4 -11.9,-0.2 -14.5,4.9 -3.9,7.7 -9.4,18.7 -13.3,26.4 -2.6,5.1 -0.2,11.2 5.2,13.6 11.3,5 28.2,12.5 28.2,12.5 l 22.6,-44.9 z m -2.3,4.6 23.3,10.3 -18,35.7 -23.3,-10.3 c -2.7,-1.2 -3.9,-4.3 -2.6,-6.9 l 13.3,-26.4 c 1.3,-2.6 4.5,-3.7 7.3,-2.4 z"
   id="path677" />
</g>
<g
   transform="matrix(0.926903,0,0,0.986897,-318.04314,1026.1683)"
   id="g685">
	
		<rect
   x="429.39999"
   y="-1009.6"
   transform="matrix(0.427,-0.9043,0.9043,0.427,1159.535,-176.0226)"
   class="st1"
   width="22.9"
   height="13.5"
   id="rect681" />
	<path
   class="st1"
   d="m 439.3,-1015.5 -9.8,19.5 13,5.8 9.8,-19.5 z m 2.6,6.8 3.2,1.4 -5.2,10.3 -3.2,-1.4 z"
   id="path683" />
</g>
<g
   transform="matrix(0.926903,0,0,0.906565,-314.35062,1093.8483)"
   id="g691">
	
		<rect
   x="911.20001"
   y="-960.09998"
   transform="matrix(0.427,-0.9043,0.9043,0.427,1372.505,314.5318)"
   class="st1"
   width="46.5"
   height="68.800003"
   id="rect687" />
	<path
   class="st1"
   d="m 913.9,-961.8 -19.8,43 60.9,29.4 19.8,-43 z m 2.6,7.4 51.1,24.6 -15.2,32.9 -51.1,-24.6 z"
   id="path689" />
</g>
<g
   transform="matrix(0.872808,0,0,0.986897,-262.48035,1008.0183)"
   id="g697">
	
		<rect
   x="904.79999"
   y="-754.5"
   transform="matrix(0.427,-0.9043,0.9043,0.427,1232.8046,452.6659)"
   class="st1"
   width="137.5"
   height="16.299999"
   id="rect693" />
	<path
   class="st1"
   d="m 994.6,-804.8 -58.7,109.9 16.7,7 58.7,-109.9 z m 2.7,6.8 6.3,2.6 -53.8,100.7 -6.3,-2.6 z"
   id="path695" />
</g>
<g
   transform="matrix(1.45687,0,0,0.690828,-692.70885,1389.3783)"
   id="g701">
	
		<ellipse
   transform="matrix(0.427,-0.9043,0.9043,0.427,1965.6124,-127.4968)"
   class="st1"
   cx="882.20001"
   cy="-1614.6"
   rx="41.200001"
   ry="8.5"
   id="ellipse699" />
</g>
<g
   transform="matrix(0.864577,0,0,0.986897,-260.82695,1009.1383)"
   id="g707">
	
		<rect
   x="763"
   y="-797.70001"
   transform="matrix(0.427,-0.9043,0.9043,0.427,1221.2657,359.311)"
   class="st1"
   width="262.29999"
   height="27.6"
   id="rect703" />
	<path
   class="st1"
   d="m 935.9,-893.7 -112,207.8 28.5,11.8 112,-207.8 z m 2.7,6.8 18,7.4 c 0,0 -90.8,168.4 -107,198.6 l -18,-7.4 z"
   id="path705" />
</g>
<g
   transform="matrix(0.703211,0,0,0.979255,-163.95885,1012.8383)"
   id="g711">
	
		<rect
   x="633.79999"
   y="-1089.5"
   transform="matrix(0.427,-0.9043,0.9043,0.427,1199.9194,126.8161)"
   class="st2"
   width="132.5"
   height="412.29999"
   id="rect709" />
</g>
<g
   id="g745"
   transform="translate(-309.75685,-142.41165)">
	<g
   transform="matrix(0.8668,0,0,0.83943,38.9428,1174.96)"
   id="g715">
		
			<rect
   x="467.29999"
   y="-1164.8"
   transform="matrix(0.427,-0.9043,0.9043,0.427,1326.1914,-184.4743)"
   class="st1"
   width="100.5"
   height="52.400002"
   id="rect713" />
	</g>
	<g
   transform="matrix(0.8668,0,0,0.290039,38.9428,1664.72)"
   id="g719">
		
			<rect
   x="505.89999"
   y="-4955.7002"
   transform="matrix(0.427,-0.9043,0.9043,0.427,4776.2798,-2321.8516)"
   class="st1"
   width="100.5"
   height="52.400002"
   id="rect717" />
	</g>
	<g
   transform="matrix(0.8668,0,0,1.1667,38.9428,913.521)"
   id="g725">
		
			<ellipse
   transform="matrix(0.427,-0.9043,0.9043,0.427,829.3146,103.513)"
   class="st1"
   cx="496.29999"
   cy="-602.59998"
   rx="50.299999"
   ry="11.9"
   id="ellipse721" />
		<path
   class="st1"
   d="m 481.9,-607.7 c 11.8,-18.6 27.9,-31.5 35.9,-28.7 8,2.8 4.9,20.2 -7,38.8 -11.8,18.6 -27.9,31.5 -35.9,28.7 -8,-2.7 -4.9,-20.1 7,-38.8 z m 5.2,1.9 c 6.7,-10.5 14.8,-19.2 21.8,-23.8 1.6,-1 3.1,-1.8 4.5,-2.4 0.5,-0.2 0.9,-0.3 1.3,-0.4 0.2,0 0.4,-0.2 0.6,-0.1 0.2,0.1 0.2,0.3 0.3,0.4 0.2,0.3 0.3,0.6 0.4,1 0.4,1.1 0.5,2.5 0.4,4.1 -0.3,7 -4.1,17.1 -10.8,27.6 -6.7,10.5 -14.8,19.2 -21.8,23.8 -1.6,1 -3.1,1.8 -4.5,2.4 -0.5,0.2 -0.9,0.3 -1.3,0.4 -0.2,0 -0.4,0.2 -0.6,0.1 -0.2,-0.1 -0.2,-0.3 -0.3,-0.4 -0.2,-0.3 -0.3,-0.6 -0.4,-1 -0.4,-1.1 -0.5,-2.5 -0.4,-4.1 0.3,-7 4.1,-17.1 10.8,-27.6 z"
   id="path723" />
	</g>
	<g
   transform="matrix(0.8668,0,0,1.02291,38.9428,1103.95)"
   id="g731">
		
			<ellipse
   transform="matrix(0.427,-0.9043,0.9043,0.427,1085.222,7.1511)"
   class="st1"
   cx="548.29999"
   cy="-852.70001"
   rx="50.299999"
   ry="11.9"
   id="ellipse727" />
		<path
   class="st1"
   d="m 535.6,-857.7 c 11.8,-21.3 27.1,-36.2 34.1,-33.4 7,2.8 3.1,22.3 -8.8,43.6 -11.8,21.3 -27.1,36.2 -34.1,33.4 -7,-2.9 -3.1,-22.4 8.8,-43.6 z m 31.4,-28.6 c 0.1,0.2 0.1,0.4 0.2,0.6 0.2,1.3 0.3,2.8 0.1,4.6 -0.7,7.8 -4.8,19.3 -11.6,31.4 -6.7,12.1 -14.6,22.1 -21.3,27.6 -1.5,1.2 -2.9,2.2 -4.2,2.8 -0.2,0.1 -0.5,0.2 -0.7,0.3 -0.1,-0.2 -0.1,-0.4 -0.2,-0.6 -0.2,-1.3 -0.3,-2.8 -0.1,-4.6 0.7,-7.8 4.8,-19.3 11.6,-31.4 6.7,-12.1 14.6,-22.1 21.3,-27.6 1.5,-1.2 2.9,-2.2 4.2,-2.8 0.2,-0.1 0.5,-0.2 0.7,-0.3 z"
   id="path729" />
	</g>
	<g
   transform="matrix(0.8668,0,0,1.02291,38.9428,1090.86)"
   id="g737">
		
			<ellipse
   transform="matrix(0.427,-0.9043,0.9043,0.427,1071.8887,5.0318)"
   class="st1"
   cx="539.90002"
   cy="-843.20001"
   rx="50.299999"
   ry="11.9"
   id="ellipse733" />
		<path
   class="st1"
   d="m 527.2,-848.3 c 11.8,-21.3 27.1,-36.2 34.1,-33.4 7,2.8 3.1,22.3 -8.8,43.6 -11.8,21.3 -27.1,36.2 -34.1,33.4 -6.9,-2.8 -3,-22.3 8.8,-43.6 z m 31.5,-28.6 c 0.1,0.2 0.1,0.4 0.2,0.6 0.2,1.3 0.3,2.8 0.1,4.6 -0.7,7.8 -4.8,19.3 -11.6,31.4 -6.7,12.1 -14.6,22.1 -21.3,27.6 -1.5,1.2 -2.9,2.2 -4.2,2.8 -0.2,0.1 -0.5,0.2 -0.7,0.3 -0.1,-0.2 -0.1,-0.4 -0.2,-0.6 -0.2,-1.3 -0.3,-2.8 -0.1,-4.6 0.7,-7.8 4.8,-19.3 11.6,-31.4 6.7,-12.1 14.6,-22.1 21.3,-27.6 1.5,-1.2 2.9,-2.2 4.2,-2.8 0.2,-0.1 0.4,-0.2 0.7,-0.3 z"
   id="path735" />
	</g>
	<g
   transform="matrix(0.8668,0,0,1.02291,38.9428,1128.85)"
   id="g743">
		
			<ellipse
   transform="matrix(0.427,-0.9043,0.9043,0.427,1110.5851,11.1825)"
   class="st1"
   cx="564.09998"
   cy="-870.70001"
   rx="50.299999"
   ry="11.9"
   id="ellipse739" />
		<path
   class="st1"
   d="m 551.4,-875.7 c 11.8,-21.3 27.1,-36.2 34.1,-33.4 7,2.8 3.1,22.3 -8.8,43.6 -11.8,21.3 -27.1,36.2 -34.1,33.4 -6.9,-2.9 -3,-22.4 8.8,-43.6 z m 31.5,-28.6 c 0.1,0.2 0.1,0.4 0.2,0.6 0.2,1.3 0.3,2.8 0.1,4.6 -0.7,7.8 -4.8,19.3 -11.6,31.4 -6.7,12.1 -14.6,22.1 -21.3,27.6 -1.5,1.2 -2.9,2.2 -4.2,2.8 -0.2,0.1 -0.5,0.2 -0.7,0.3 -0.1,-0.2 -0.1,-0.4 -0.2,-0.6 -0.2,-1.3 -0.3,-2.8 -0.1,-4.6 0.7,-7.8 4.8,-19.3 11.6,-31.4 6.7,-12.1 14.6,-22.1 21.3,-27.6 1.5,-1.2 2.9,-2.2 4.2,-2.8 0.2,-0.1 0.4,-0.2 0.7,-0.3 z"
   id="path741" />
	</g>
</g>
<g
   transform="matrix(0.926903,0,0,0.986897,-309.75685,1008.0183)"
   id="g751">
	
		<rect
   x="597.20001"
   y="-933.29999"
   transform="matrix(0.427,-0.9043,0.9043,0.427,1193.0493,26.7906)"
   class="st1"
   width="40.900002"
   height="10.8"
   id="rect747" />
	<path
   class="st1"
   d="m 621.2,-947.6 -17.5,34.8 10.4,4.6 17.5,-34.8 z m 2.6,6.8 0.6,0.3 -12.9,25.5 -0.6,-0.3 z"
   id="path749" />
</g>
<g
   transform="matrix(0.926903,0,0,0.986897,-309.75685,1112.3583)"
   id="g757">
	
		<rect
   x="659.40002"
   y="-1011.5"
   transform="matrix(0.427,-0.9043,0.9043,0.427,1299.348,38.2093)"
   class="st1"
   width="40.900002"
   height="10.8"
   id="rect753" />
	<path
   class="st1"
   d="m 683.4,-1025.8 -17.5,34.8 10.4,4.6 17.5,-34.8 z m 2.6,6.8 0.6,0.3 -12.9,25.6 -0.6,-0.3 z"
   id="path755" />
</g>
<g
   transform="matrix(0.926903,0,0,0.986897,-309.75685,1220.4583)"
   id="g763">
	
		<rect
   x="723.79999"
   y="-1092.5"
   transform="matrix(0.427,-0.9043,0.9043,0.427,1409.4772,50.0395)"
   class="st1"
   width="40.900002"
   height="10.8"
   id="rect759" />
	<path
   class="st1"
   d="m 747.8,-1106.8 -17.5,34.8 10.4,4.6 17.5,-34.8 z m 2.6,6.8 0.6,0.3 -12.9,25.6 -0.6,-0.3 z"
   id="path761" />
</g>
<g
   transform="matrix(0.658479,0,0,0.509366,-117.46485,1428.8383)"
   id="g769">
	
		<rect
   x="582"
   y="-2626.1001"
   transform="matrix(0.427,-0.9043,0.9043,0.427,2715.04,-956.9988)"
   class="st1"
   width="40.900002"
   height="10.8"
   id="rect765" />
	
		<rect
   x="582"
   y="-2626.1001"
   transform="matrix(0.427,-0.9043,0.9043,0.427,2715.04,-956.9988)"
   class="st1"
   width="40.900002"
   height="10.8"
   id="rect767" />
</g>
<g
   transform="matrix(0.658479,0,0,0.509366,-117.46485,1533.1683)"
   id="g775">
	
		<rect
   x="669.5"
   y="-2777.5"
   transform="matrix(0.427,-0.9043,0.9043,0.427,2902.1023,-964.6569)"
   class="st1"
   width="40.900002"
   height="10.8"
   id="rect771" />
	
		<rect
   x="669.5"
   y="-2777.5"
   transform="matrix(0.427,-0.9043,0.9043,0.427,2902.1023,-964.6569)"
   class="st1"
   width="40.900002"
   height="10.8"
   id="rect773" />
</g>
<g
   transform="matrix(0.658479,0,0,0.509366,-117.46485,1641.2783)"
   id="g781">
	
		<rect
   x="760.09998"
   y="-2934.3999"
   transform="matrix(0.427,-0.9043,0.9043,0.427,3095.9421,-972.5924)"
   class="st1"
   width="40.900002"
   height="10.8"
   id="rect777" />
	
		<rect
   x="760.09998"
   y="-2934.3999"
   transform="matrix(0.427,-0.9043,0.9043,0.427,3095.9421,-972.5924)"
   class="st1"
   width="40.900002"
   height="10.8"
   id="rect779" />
</g>
<g
   transform="matrix(0.658479,0,0,0.509366,-117.46485,1446.8283)"
   id="g787">
	
		<rect
   x="597.09998"
   y="-2652.2"
   transform="matrix(0.427,-0.9043,0.9043,0.427,2747.2959,-958.3193)"
   class="st1"
   width="40.900002"
   height="10.8"
   id="rect783" />
	
		<rect
   x="597.09998"
   y="-2652.2"
   transform="matrix(0.427,-0.9043,0.9043,0.427,2747.2959,-958.3193)"
   class="st1"
   width="40.900002"
   height="10.8"
   id="rect785" />
</g>
<g
   transform="matrix(0.658479,0,0,0.509366,-117.46485,1551.1683)"
   id="g793">
	
		<rect
   x="684.59998"
   y="-2803.6001"
   transform="matrix(0.427,-0.9043,0.9043,0.427,2934.3762,-965.9781)"
   class="st1"
   width="40.900002"
   height="10.8"
   id="rect789" />
	
		<rect
   x="684.59998"
   y="-2803.6001"
   transform="matrix(0.427,-0.9043,0.9043,0.427,2934.3762,-965.9781)"
   class="st1"
   width="40.900002"
   height="10.8"
   id="rect791" />
</g>
<g
   transform="matrix(0.658479,0,0,0.509366,-117.46485,1659.2783)"
   id="g799">
	
		<rect
   x="775.20001"
   y="-2960.5"
   transform="matrix(0.427,-0.9043,0.9043,0.427,3128.2161,-973.9136)"
   class="st1"
   width="40.900002"
   height="10.8"
   id="rect795" />
	
		<rect
   x="775.20001"
   y="-2960.5"
   transform="matrix(0.427,-0.9043,0.9043,0.427,3128.2161,-973.9136)"
   class="st1"
   width="40.900002"
   height="10.8"
   id="rect797" />
</g>
<g
   transform="matrix(0.658479,0,0,0.509366,-117.46485,1464.5483)"
   id="g805">
	
		<rect
   x="611.90002"
   y="-2677.8999"
   transform="matrix(0.427,-0.9043,0.9043,0.427,2779.0676,-959.62)"
   class="st1"
   width="40.900002"
   height="10.8"
   id="rect801" />
	
		<rect
   x="611.90002"
   y="-2677.8999"
   transform="matrix(0.427,-0.9043,0.9043,0.427,2779.0676,-959.62)"
   class="st1"
   width="40.900002"
   height="10.8"
   id="rect803" />
</g>
<g
   transform="matrix(0.658479,0,0,0.509366,-117.46485,1568.8783)"
   id="g811">
	
		<rect
   x="699.40002"
   y="-2829.3"
   transform="matrix(0.427,-0.9043,0.9043,0.427,2966.1301,-967.2781)"
   class="st1"
   width="40.900002"
   height="10.8"
   id="rect807" />
	
		<rect
   x="699.40002"
   y="-2829.3"
   transform="matrix(0.427,-0.9043,0.9043,0.427,2966.1301,-967.2781)"
   class="st1"
   width="40.900002"
   height="10.8"
   id="rect809" />
</g>
<g
   transform="matrix(0.658479,0,0,0.509366,-117.46485,1676.9883)"
   id="g817">
	
		<rect
   x="790.09998"
   y="-2986.2"
   transform="matrix(0.427,-0.9043,0.9043,0.427,3159.97,-975.2136)"
   class="st1"
   width="40.900002"
   height="10.8"
   id="rect813" />
	
		<rect
   x="790.09998"
   y="-2986.2"
   transform="matrix(0.427,-0.9043,0.9043,0.427,3159.97,-975.2136)"
   class="st1"
   width="40.900002"
   height="10.8"
   id="rect815" />
</g>
<g
   transform="matrix(0.658479,0,0,0.509366,-117.46485,1483.0983)"
   id="g823">
	
		<rect
   x="627.5"
   y="-2704.8"
   transform="matrix(0.427,-0.9043,0.9043,0.427,2812.3276,-960.9816)"
   class="st1"
   width="40.900002"
   height="10.8"
   id="rect819" />
	
		<rect
   x="627.5"
   y="-2704.8"
   transform="matrix(0.427,-0.9043,0.9043,0.427,2812.3276,-960.9816)"
   class="st1"
   width="40.900002"
   height="10.8"
   id="rect821" />
</g>
<g
   transform="matrix(0.658479,0,0,0.509366,-117.46485,1587.4383)"
   id="g829">
	
		<rect
   x="715"
   y="-2856.3"
   transform="matrix(0.427,-0.9043,0.9043,0.427,2999.4077,-968.6404)"
   class="st1"
   width="40.900002"
   height="10.8"
   id="rect825" />
	
		<rect
   x="715"
   y="-2856.3"
   transform="matrix(0.427,-0.9043,0.9043,0.427,2999.4077,-968.6404)"
   class="st1"
   width="40.900002"
   height="10.8"
   id="rect827" />
</g>
<g
   transform="matrix(0.658479,0,0,0.509366,-117.46485,1695.5483)"
   id="g835">
	
		<rect
   x="805.59998"
   y="-3013.2"
   transform="matrix(0.427,-0.9043,0.9043,0.427,3193.2476,-976.5759)"
   class="st1"
   width="40.900002"
   height="10.8"
   id="rect831" />
	
		<rect
   x="805.59998"
   y="-3013.2"
   transform="matrix(0.427,-0.9043,0.9043,0.427,3193.2476,-976.5759)"
   class="st1"
   width="40.900002"
   height="10.8"
   id="rect833" />
</g>
<g
   transform="matrix(0.926903,0,0,1.91373,-309.75685,-177.42255)"
   id="g841">
	<ellipse
   transform="matrix(0.427,-0.9043,0.9043,0.427,310.268,916.2879)"
   class="st1"
   cx="878.09998"
   cy="213.3"
   rx="50.299999"
   ry="3.9000001"
   id="ellipse837" />
	<path
   class="st1"
   d="m 870.9,211.7 c 11.8,-12.1 24.7,-21.3 28.7,-20.4 4,0.9 -2.4,11.5 -14.2,23.7 -11.8,12.1 -24.7,21.3 -28.7,20.4 -4,-1 2.3,-11.6 14.2,-23.7 z m 22.7,-14.3 c -2.4,4.2 -7.1,10.1 -13.2,16.5 -6.2,6.3 -12.6,11.8 -17.9,15.4 2.4,-4.2 7.1,-10.1 13.2,-16.5 6.3,-6.3 12.7,-11.8 17.9,-15.4 z"
   id="path839" />
</g>
<g
   transform="matrix(1.53863,0,0,1.30285,-471.18385,906.16835)"
   id="g847">
	<path
   class="st1"
   d="m 452.9,-579.7 c 0,0 140.6,73.3 169.4,8.5 21,15.9 31.1,23.6 31.1,23.6 0,0 -18.2,52.5 -27.2,64.3 -8.9,11.7 -173.3,-96.4 -173.3,-96.4 z"
   id="path843" />
	<path
   class="st1"
   d="m 452.9,-579.7 c 0,0 140.6,73.3 169.4,8.5 21,15.9 31.1,23.6 31.1,23.6 0,0 -18.2,52.5 -27.2,64.3 -8.9,11.7 -173.3,-96.4 -173.3,-96.4 z m 171.3,93.3 c -0.4,0 -1.5,0 -2.4,-0.1 -3.7,-0.7 -9.1,-2.8 -15.8,-5.9 -28.1,-13 -77.5,-43.4 -112.2,-65.3 v 0 c 23.8,8.9 53.7,17.5 79.3,17.2 21.9,-0.3 40.6,-7.3 50.4,-25.2 0,0 26,19.7 26,19.7 -4,10.8 -17.7,49 -25.3,59.6 z"
   id="path845" />
</g>
<g
   transform="matrix(1.67427,-0.0539053,0.0567775,1.26442,-1339.4468,-315.25865)"
   id="g875">
	<g
   transform="matrix(1.41632,0,0,1.55702,-1447.82,-457.075)"
   id="g851">
		<path
   class="st1"
   d="m 1608.5,527.4 c 0,0 -33.9,73.4 -34,104.8 -0.1,22.2 14.8,40.2 33.2,40 18.5,-0.1 33.5,-18.3 33.7,-40.5 0.1,-31.4 -32.9,-104.3 -32.9,-104.3 z"
   id="path849" />
	</g>
	<g
   transform="matrix(0.514491,-0.155425,0.170239,0.46972,-3552.99,-1402.94)"
   id="g855">
		
			<ellipse
   transform="matrix(-0.9768,0.214,-0.214,-0.9768,14210.814,10589.013)"
   class="st2"
   cx="6532.2002"
   cy="6063.7002"
   rx="11.6"
   ry="30.4"
   id="ellipse853" />
	</g>
	<g
   transform="matrix(0.613676,0,0,0.558827,-2702.39,-3035.14)"
   id="g859">
		<path
   class="st2"
   d="m 5785.5,6264 c 0,0 48.1,207.6 -68.8,152.1 29.3,50.1 159.3,53.5 68.8,-152.1 z"
   id="path857" />
	</g>
	<g
   transform="matrix(0.683599,0,0,0.624111,-3119.15,-3594.35)"
   id="g863">
		<path
   class="st3"
   d="m 5748.5,6512.2 c 0,0 -29.9,87.1 -22.6,114.4"
   id="path861" />
	</g>
	<g
   transform="matrix(0.58972,0.315656,-0.345742,0.538402,453.451,-4638.81)"
   id="g869">
		<path
   class="st2"
   d="m 4737.6,6887 c 0,0 -39.8,81.5 -92,39.7 -33.5,-1 56.2,62.2 92,-39.7 z"
   id="path865" />
		<path
   class="st2"
   d="m 4737.6,6887 c 0,0 -10,20.4 -26.4,35.5 -16.5,15.1 -39.5,25.1 -65.5,4.2 -33.6,-1 56.1,62.2 91.9,-39.7 z"
   id="path867" />
	</g>
	<g
   transform="matrix(0.683599,0,0,0.624111,-3111.16,-3618.66)"
   id="g873">
		<path
   class="st4"
   d="m 5821.4,6602 c 0,0 1.7,51.6 -21.6,77.5"
   id="path871" />
	</g>
</g>
<g
   transform="matrix(1.53863,0,0,1.30285,-471.18385,906.16835)"
   id="g879">
	<path
   class="st2"
   d="m 675.5,-589 -11.5,-5.4 -41.5,109.3 c 0,-0.1 28.8,-84.7 53,-103.9 z"
   id="path877" />
</g>
<g
   transform="matrix(0.7197,0.609413,-0.544932,0.461426,187.89415,940.41835)"
   id="g883">
	
		<rect
   x="-817.29999"
   y="-901.20001"
   transform="matrix(0.2622,0.965,-0.965,0.2622,-1463.3208,122.713)"
   class="st2"
   width="10.8"
   height="11.1"
   id="rect881" />
</g>
<g
   transform="matrix(1.53863,0,0,1.30285,-471.18385,906.16835)"
   id="g887">
	<path
   class="st2"
   d="m 368.7,-665 3.7,-9.2 c 0,0 1.9,-5.1 6.3,-2.7 4.4,2.4 14.5,7.4 14.5,7.4 l -4.6,14.6 c 0.1,-0.1 -15.7,-13 -19.9,-10.1"
   id="path885" />
</g>
<g
   transform="matrix(1.53863,0,0,1.30285,-471.18385,906.16835)"
   id="g891">
	<path
   class="st2"
   d="m 387.7,-645.4 7.1,-26.1 c 0,0 11,-18.5 20.2,-17.1 0.2,2.2 -19.7,44 -27.3,43.2 z"
   id="path889" />
</g>
<g
   transform="matrix(1.53863,0,0,1.30285,-471.18385,906.16835)"
   id="g895">
	<path
   class="st5"
   d="M 415.6,-686.5 622,-571.7 c 0,0 20.8,13.1 32.5,-0.1"
   id="path893" />
</g>
<g
   transform="matrix(1.53863,0,0,1.30285,-471.18385,906.16835)"
   id="g899">
	<path
   class="st6"
   d="m 564.5,-510.1 23.4,12.7 c 0,0 22.3,8.9 22,28.4 5.3,-13.6 12,-30.7 12,-30.7"
   id="path897" />
</g>
<g
   transform="matrix(1.53863,0,0,1.30285,-471.18385,906.16835)"
   id="g903">
	<path
   class="st6"
   d="m 564.5,-510.1 -180.1,-99.3 c 0,0 -3.1,0.1 -3.1,-28.2"
   id="path901" />
</g>
<path
   class="st2"
   d="m 589.04315,252.78835 17.5,-36.8 11.7,6.1 -22.3,55.7 c -0.1,0 8,-35.7 -6.9,-25 z"
   id="path905" />
<path
   class="st2"
   d="m 553.14315,232.48835 32.6,17.2 c 0,0 0.5,-0.1 -4.8,11.2 0.7,-7 -16.9,-18.3 -27.8,-28.4 z"
   id="path907" />
</svg>
