<svg xmlns="http://www.w3.org/2000/svg" xml:space="preserve" id="Layer_1" width="620.554" height="385.555" x="0" y="0" version="1.1" viewBox="0 0 620.554 385.554"><style id="style651" type="text/css">.st1,.st2{fill-rule:evenodd;clip-rule:evenodd}.st2{fill:#fff}.st6{fill:none;stroke:#fff;stroke-width:2.513;stroke-linecap:round;stroke-linejoin:round;stroke-miterlimit:10}</style><g id="g659" transform="matrix(.9269 0 0 .96416 -309.757 1022.358)"><path id="rect655" d="M618.8-1113.9h132.5v412.3H618.8z" class="st1" transform="rotate(-64.724 684.976 -907.718)"/><path id="path657" d="m519.4-1053.3-56.6 115.2 387.8 176 56.6-115.2zm2.6 6.9 378 171.6-52 105.7-378-171.5z" class="st1"/></g><g id="g663" transform="matrix(.65001 0 0 .69208 -158.736 1386.758)"><path id="path661" d="M958.7-1561.1s5.7-34.5-41.6-55.5c11-42.9 31.9-27.2 31.9-27.2l37.7 43.4z" class="st1"/></g><g id="g667" transform="matrix(-.65001 0 0 .69208 738.313 1386.758)"><path id="path665" d="M310.3-1782s24.7 26.1 72.1 5.1c28.3 35.3 2.1 40.4 2.1 40.4l-59.6-.2z" class="st1"/></g><g id="g673" transform="matrix(1.07886 0 0 1.19008 -423.515 880.948)"><ellipse id="ellipse669" cx="527.4" cy="-687.9" class="st1" rx="56.9" ry="21.7" transform="rotate(-64.724 527.353 -687.88)"/><path id="path671" d="M505.8-697.1c13.4-25.7 34-42.5 45.9-37.4s10.7 30.2-2.7 55.9-34 42.5-45.9 37.4-10.7-30.2 2.7-55.9m4.2 1.8c7.6-14.7 17.6-26.3 26.9-32.2 4.8-3.1 9.3-4.7 12.8-3.2s4.9 5.6 5.4 11c.9 10.2-2.7 24.6-10.3 39.3s-17.6 26.3-26.9 32.2c-4.8 3.1-9.3 4.7-12.8 3.2s-4.9-5.6-5.4-11c-.9-10.3 2.6-24.7 10.3-39.3" class="st1"/></g><g id="g679" transform="matrix(.9269 0 0 .9869 -315.74 996.508)"><path id="path675" d="M462.7-989.5c-5.4-2.4-11.9-.2-14.5 4.9-3.9 7.7-9.4 18.7-13.3 26.4-2.6 5.1-.2 11.2 5.2 13.6 11.3 5 28.2 12.5 28.2 12.5l22.6-44.9z" class="st1"/><path id="path677" d="M462.7-989.5c-5.4-2.4-11.9-.2-14.5 4.9-3.9 7.7-9.4 18.7-13.3 26.4-2.6 5.1-.2 11.2 5.2 13.6 11.3 5 28.2 12.5 28.2 12.5l22.6-44.9zm-2.3 4.6 23.3 10.3-18 35.7-23.3-10.3c-2.7-1.2-3.9-4.3-2.6-6.9l13.3-26.4c1.3-2.6 4.5-3.7 7.3-2.4" class="st1"/></g><g id="g685" transform="matrix(.9269 0 0 .9869 -318.043 1026.168)"><path id="rect681" d="M429.4-1009.6h22.9v13.5h-22.9z" class="st1" transform="rotate(-64.724 440.86 -1002.878)"/><path id="path683" d="m439.3-1015.5-9.8 19.5 13 5.8 9.8-19.5zm2.6 6.8 3.2 1.4-5.2 10.3-3.2-1.4z" class="st1"/></g><g id="g691" transform="matrix(.9269 0 0 .90656 -314.35 1093.848)"><path id="rect687" d="M911.2-960.1h46.5v68.8h-46.5z" class="st1" transform="rotate(-64.724 934.387 -925.644)"/><path id="path689" d="m913.9-961.8-19.8 43 60.9 29.4 19.8-43zm2.6 7.4 51.1 24.6-15.2 32.9-51.1-24.6z" class="st1"/></g><g id="g697" transform="matrix(.8728 0 0 .9869 -262.48 1008.018)"><path id="rect693" d="M904.8-754.5h137.5v16.3H904.8z" class="st1" transform="rotate(-64.724 973.528 -746.357)"/><path id="path695" d="m994.6-804.8-58.7 109.9 16.7 7 58.7-109.9zm2.7 6.8 6.3 2.6-53.8 100.7-6.3-2.6z" class="st1"/></g><g id="g701" transform="matrix(1.45687 0 0 .69083 -692.709 1389.378)"><ellipse id="ellipse699" cx="882.2" cy="-1614.6" class="st1" rx="41.2" ry="8.5" transform="rotate(-64.724 882.169 -1614.61)"/></g><g id="g707" transform="matrix(.86458 0 0 .9869 -260.827 1009.138)"><path id="rect703" d="M763-797.7h262.3v27.6H763z" class="st1" transform="rotate(-64.724 894.102 -783.928)"/><path id="path705" d="m935.9-893.7-112 207.8 28.5 11.8 112-207.8zm2.7 6.8 18 7.4s-90.8 168.4-107 198.6l-18-7.4z" class="st1"/></g><g id="g711" transform="matrix(.70321 0 0 .97925 -163.959 1012.838)"><path id="rect709" d="M633.8-1089.5h132.5v412.3H633.8z" class="st2" transform="rotate(-64.724 699.991 -883.328)"/></g><g id="g745" transform="translate(-309.757 -142.412)"><g id="g715" transform="matrix(.8668 0 0 .83943 38.943 1174.96)"><path id="rect713" d="M467.3-1164.8h100.5v52.4H467.3z" class="st1" transform="rotate(-64.724 517.517 -1138.595)"/></g><g id="g719" transform="matrix(.8668 0 0 .29004 38.943 1664.72)"><path id="rect717" d="M505.9-4955.7h100.5v52.4H505.9z" class="st1" transform="rotate(-64.724 556.1 -4929.349)"/></g><g id="g725" transform="matrix(.8668 0 0 1.1667 38.943 913.521)"><ellipse id="ellipse721" cx="496.3" cy="-602.6" class="st1" rx="50.3" ry="11.9" transform="rotate(-64.724 496.31 -602.573)"/><path id="path723" d="M481.9-607.7c11.8-18.6 27.9-31.5 35.9-28.7s4.9 20.2-7 38.8c-11.8 18.6-27.9 31.5-35.9 28.7-8-2.7-4.9-20.1 7-38.8m5.2 1.9c6.7-10.5 14.8-19.2 21.8-23.8q2.4-1.5 4.5-2.4c.5-.2.9-.3 1.3-.4.2 0 .4-.2.6-.1s.2.3.3.4c.2.3.3.6.4 1 .4 1.1.5 2.5.4 4.1-.3 7-4.1 17.1-10.8 27.6s-14.8 19.2-21.8 23.8q-2.4 1.5-4.5 2.4c-.5.2-.9.3-1.3.4-.2 0-.4.2-.6.1s-.2-.3-.3-.4c-.2-.3-.3-.6-.4-1-.4-1.1-.5-2.5-.4-4.1.3-7 4.1-17.1 10.8-27.6" class="st1"/></g><g id="g731" transform="matrix(.8668 0 0 1.02291 38.943 1103.95)"><ellipse id="ellipse727" cx="548.3" cy="-852.7" class="st1" rx="50.3" ry="11.9" transform="rotate(-64.724 548.23 -852.662)"/><path id="path729" d="M535.6-857.7c11.8-21.3 27.1-36.2 34.1-33.4s3.1 22.3-8.8 43.6c-11.8 21.3-27.1 36.2-34.1 33.4-7-2.9-3.1-22.4 8.8-43.6m31.4-28.6c.1.2.1.4.2.6.2 1.3.3 2.8.1 4.6-.7 7.8-4.8 19.3-11.6 31.4-6.7 12.1-14.6 22.1-21.3 27.6-1.5 1.2-2.9 2.2-4.2 2.8-.2.1-.5.2-.7.3-.1-.2-.1-.4-.2-.6-.2-1.3-.3-2.8-.1-4.6.7-7.8 4.8-19.3 11.6-31.4 6.7-12.1 14.6-22.1 21.3-27.6 1.5-1.2 2.9-2.2 4.2-2.8.2-.1.5-.2.7-.3" class="st1"/></g><g id="g737" transform="matrix(.8668 0 0 1.02291 38.943 1090.86)"><ellipse id="ellipse733" cx="539.9" cy="-843.2" class="st1" rx="50.3" ry="11.9" transform="rotate(-64.724 539.891 -843.202)"/><path id="path735" d="M527.2-848.3c11.8-21.3 27.1-36.2 34.1-33.4s3.1 22.3-8.8 43.6c-11.8 21.3-27.1 36.2-34.1 33.4-6.9-2.8-3-22.3 8.8-43.6m31.5-28.6c.1.2.1.4.2.6.2 1.3.3 2.8.1 4.6-.7 7.8-4.8 19.3-11.6 31.4-6.7 12.1-14.6 22.1-21.3 27.6-1.5 1.2-2.9 2.2-4.2 2.8-.2.1-.5.2-.7.3-.1-.2-.1-.4-.2-.6-.2-1.3-.3-2.8-.1-4.6.7-7.8 4.8-19.3 11.6-31.4 6.7-12.1 14.6-22.1 21.3-27.6 1.5-1.2 2.9-2.2 4.2-2.8.2-.1.4-.2.7-.3" class="st1"/></g><g id="g743" transform="matrix(.8668 0 0 1.02291 38.943 1128.85)"><ellipse id="ellipse739" cx="564.1" cy="-870.7" class="st1" rx="50.3" ry="11.9" transform="rotate(-64.724 564.091 -870.658)"/><path id="path741" d="M551.4-875.7c11.8-21.3 27.1-36.2 34.1-33.4s3.1 22.3-8.8 43.6c-11.8 21.3-27.1 36.2-34.1 33.4-6.9-2.9-3-22.4 8.8-43.6m31.5-28.6c.1.2.1.4.2.6.2 1.3.3 2.8.1 4.6-.7 7.8-4.8 19.3-11.6 31.4-6.7 12.1-14.6 22.1-21.3 27.6-1.5 1.2-2.9 2.2-4.2 2.8-.2.1-.5.2-.7.3-.1-.2-.1-.4-.2-.6-.2-1.3-.3-2.8-.1-4.6.7-7.8 4.8-19.3 11.6-31.4 6.7-12.1 14.6-22.1 21.3-27.6 1.5-1.2 2.9-2.2 4.2-2.8.2-.1.4-.2.7-.3" class="st1"/></g></g><g id="g751" transform="matrix(.9269 0 0 .9869 -309.757 1008.018)"><path id="rect747" d="M597.2-933.3h40.9v10.8h-40.9z" class="st1" transform="rotate(-64.724 617.636 -927.918)"/><path id="path749" d="m621.2-947.6-17.5 34.8 10.4 4.6 17.5-34.8zm2.6 6.8.6.3-12.9 25.5-.6-.3z" class="st1"/></g><g id="g757" transform="matrix(.9269 0 0 .9869 -309.757 1112.358)"><path id="rect753" d="M659.4-1011.5h40.9v10.8h-40.9z" class="st1" transform="rotate(-64.724 679.793 -1006.079)"/><path id="path755" d="M683.4-1025.8 665.9-991l10.4 4.6 17.5-34.8zm2.6 6.8.6.3-12.9 25.6-.6-.3z" class="st1"/></g><g id="g763" transform="matrix(.9269 0 0 .9869 -309.757 1220.458)"><path id="rect759" d="M723.8-1092.5h40.9v10.8h-40.9z" class="st1" transform="rotate(-64.724 744.189 -1087.056)"/><path id="path761" d="m747.8-1106.8-17.5 34.8 10.4 4.6 17.5-34.8zm2.6 6.8.6.3-12.9 25.6-.6-.3z" class="st1"/></g><g id="g769" transform="matrix(.65848 0 0 .50937 -117.465 1428.838)"><path id="rect765" d="M582-2626.1h40.9v10.8H582z" class="st1" transform="rotate(-64.724 602.39 -2620.639)"/><path id="rect767" d="M582-2626.1h40.9v10.8H582z" class="st1" transform="rotate(-64.724 602.39 -2620.639)"/></g><g id="g775" transform="matrix(.65848 0 0 .50937 -117.465 1533.168)"><path id="rect771" d="M669.5-2777.5h40.9v10.8h-40.9z" class="st1" transform="rotate(-64.724 689.876 -2772.06)"/><path id="rect773" d="M669.5-2777.5h40.9v10.8h-40.9z" class="st1" transform="rotate(-64.724 689.876 -2772.06)"/></g><g id="g781" transform="matrix(.65848 0 0 .50937 -117.465 1641.278)"><path id="rect777" d="M760.1-2934.4H801v10.8h-40.9z" class="st1" transform="rotate(-64.724 780.53 -2928.966)"/><path id="rect779" d="M760.1-2934.4H801v10.8h-40.9z" class="st1" transform="rotate(-64.724 780.53 -2928.966)"/></g><g id="g787" transform="matrix(.65848 0 0 .50937 -117.465 1446.828)"><path id="rect783" d="M597.1-2652.2H638v10.8h-40.9z" class="st1" transform="rotate(-64.724 617.476 -2646.749)"/><path id="rect785" d="M597.1-2652.2H638v10.8h-40.9z" class="st1" transform="rotate(-64.724 617.476 -2646.749)"/></g><g id="g793" transform="matrix(.65848 0 0 .50937 -117.465 1551.168)"><path id="rect789" d="M684.6-2803.6h40.9v10.8h-40.9z" class="st1" transform="rotate(-64.724 704.97 -2798.184)"/><path id="rect791" d="M684.6-2803.6h40.9v10.8h-40.9z" class="st1" transform="rotate(-64.724 704.97 -2798.184)"/></g><g id="g799" transform="matrix(.65848 0 0 .50937 -117.465 1659.278)"><path id="rect795" d="M775.2-2960.5h40.9v10.8h-40.9z" class="st1" transform="rotate(-64.724 795.624 -2955.09)"/><path id="rect797" d="M775.2-2960.5h40.9v10.8h-40.9z" class="st1" transform="rotate(-64.724 795.624 -2955.09)"/></g><g id="g805" transform="matrix(.65848 0 0 .50937 -117.465 1464.548)"><path id="rect801" d="M611.9-2677.9h40.9v10.8h-40.9z" class="st1" transform="rotate(-64.724 632.335 -2672.467)"/><path id="rect803" d="M611.9-2677.9h40.9v10.8h-40.9z" class="st1" transform="rotate(-64.724 632.335 -2672.467)"/></g><g id="g811" transform="matrix(.65848 0 0 .50937 -117.465 1568.878)"><path id="rect807" d="M699.4-2829.3h40.9v10.8h-40.9z" class="st1" transform="rotate(-64.724 719.82 -2823.888)"/><path id="rect809" d="M699.4-2829.3h40.9v10.8h-40.9z" class="st1" transform="rotate(-64.724 719.82 -2823.888)"/></g><g id="g817" transform="matrix(.65848 0 0 .50937 -117.465 1676.988)"><path id="rect813" d="M790.1-2986.2H831v10.8h-40.9z" class="st1" transform="rotate(-64.724 810.475 -2980.795)"/><path id="rect815" d="M790.1-2986.2H831v10.8h-40.9z" class="st1" transform="rotate(-64.724 810.475 -2980.795)"/></g><g id="g823" transform="matrix(.65848 0 0 .50937 -117.465 1483.098)"><path id="rect819" d="M627.5-2704.8h40.9v10.8h-40.9z" class="st1" transform="rotate(-64.724 647.89 -2699.39)"/><path id="rect821" d="M627.5-2704.8h40.9v10.8h-40.9z" class="st1" transform="rotate(-64.724 647.89 -2699.39)"/></g><g id="g829" transform="matrix(.65848 0 0 .50937 -117.465 1587.438)"><path id="rect825" d="M715-2856.3h40.9v10.8H715z" class="st1" transform="rotate(-64.724 735.383 -2850.825)"/><path id="rect827" d="M715-2856.3h40.9v10.8H715z" class="st1" transform="rotate(-64.724 735.383 -2850.825)"/></g><g id="g835" transform="matrix(.65848 0 0 .50937 -117.465 1695.548)"><path id="rect831" d="M805.6-3013.2h40.9v10.8h-40.9z" class="st1" transform="rotate(-64.724 826.038 -3007.732)"/><path id="rect833" d="M805.6-3013.2h40.9v10.8h-40.9z" class="st1" transform="rotate(-64.724 826.038 -3007.732)"/></g><g id="g841" transform="matrix(.9269 0 0 1.91373 -309.757 -177.423)"><ellipse id="ellipse837" cx="878.1" cy="213.3" class="st1" rx="50.3" ry="3.9" transform="rotate(-64.724 878.076 213.323)"/><path id="path839" d="M870.9 211.7c11.8-12.1 24.7-21.3 28.7-20.4s-2.4 11.5-14.2 23.7c-11.8 12.1-24.7 21.3-28.7 20.4-4-1 2.3-11.6 14.2-23.7m22.7-14.3c-2.4 4.2-7.1 10.1-13.2 16.5-6.2 6.3-12.6 11.8-17.9 15.4 2.4-4.2 7.1-10.1 13.2-16.5 6.3-6.3 12.7-11.8 17.9-15.4" class="st1"/></g><g id="g847" transform="matrix(1.53863 0 0 1.30285 -471.184 906.168)"><path id="path843" d="M452.9-579.7s140.6 73.3 169.4 8.5c21 15.9 31.1 23.6 31.1 23.6s-18.2 52.5-27.2 64.3c-8.9 11.7-173.3-96.4-173.3-96.4" class="st1"/><path id="path845" d="M452.9-579.7s140.6 73.3 169.4 8.5c21 15.9 31.1 23.6 31.1 23.6s-18.2 52.5-27.2 64.3c-8.9 11.7-173.3-96.4-173.3-96.4m171.3 93.3c-.4 0-1.5 0-2.4-.1-3.7-.7-9.1-2.8-15.8-5.9-28.1-13-77.5-43.4-112.2-65.3 23.8 8.9 53.7 17.5 79.3 17.2 21.9-.3 40.6-7.3 50.4-25.2l26 19.7c-4 10.8-17.7 49-25.3 59.6" class="st1"/></g><g id="g875" transform="matrix(1.67427 -.0539 .05678 1.26442 -1339.447 -315.259)"><g id="g851" transform="matrix(1.41632 0 0 1.55702 -1447.82 -457.075)"><path id="path849" d="M1608.5 527.4s-33.9 73.4-34 104.8c-.1 22.2 14.8 40.2 33.2 40 18.5-.1 33.5-18.3 33.7-40.5.1-31.4-32.9-104.3-32.9-104.3" class="st1"/></g><g id="g855" transform="matrix(.5145 -.15543 .17024 .46972 -3552.99 -1402.94)"><ellipse id="ellipse853" cx="6532.2" cy="6063.7" class="st2" rx="11.6" ry="30.4" transform="scale(-1)rotate(-12.357 -56013.82 60341.753)"/></g><g id="g859" transform="matrix(.61368 0 0 .55883 -2702.39 -3035.14)"><path id="path857" d="M5785.5 6264s48.1 207.6-68.8 152.1c29.3 50.1 159.3 53.5 68.8-152.1" class="st2"/></g><g id="g863" transform="matrix(.6836 0 0 .62411 -3119.15 -3594.35)"><path id="path861" d="M5748.5 6512.2s-29.9 87.1-22.6 114.4" style="fill:none;stroke:#fff;stroke-width:22.3;stroke-linecap:round;stroke-linejoin:round;stroke-miterlimit:1.5"/></g><g id="g869" transform="matrix(.58972 .31566 -.34574 .5384 453.451 -4638.81)"><path id="path865" d="M4737.6 6887s-39.8 81.5-92 39.7c-33.5-1 56.2 62.2 92-39.7" class="st2"/><path id="path867" d="M4737.6 6887s-10 20.4-26.4 35.5c-16.5 15.1-39.5 25.1-65.5 4.2-33.6-1 56.1 62.2 91.9-39.7" class="st2"/></g><g id="g873" transform="matrix(.6836 0 0 .62411 -3111.16 -3618.66)"><path id="path871" d="M5821.4 6602s1.7 51.6-21.6 77.5" style="fill:none;stroke:#000;stroke-width:22.3;stroke-linecap:round;stroke-linejoin:round;stroke-miterlimit:1.5"/></g></g><g id="g879" transform="matrix(1.53863 0 0 1.30285 -471.184 906.168)"><path id="path877" d="m675.5-589-11.5-5.4-41.5 109.3c0-.1 28.8-84.7 53-103.9" class="st2"/></g><g id="g883" transform="matrix(.7197 .60941 -.54493 .46143 187.894 940.418)"><path id="rect881" d="M-817.3-901.2h10.8v11.1h-10.8z" class="st2" transform="rotate(74.799 -811.926 -895.63)"/></g><g id="g887" transform="matrix(1.53863 0 0 1.30285 -471.184 906.168)"><path id="path885" d="m368.7-665 3.7-9.2s1.9-5.1 6.3-2.7 14.5 7.4 14.5 7.4l-4.6 14.6c.1-.1-15.7-13-19.9-10.1" class="st2"/></g><g id="g891" transform="matrix(1.53863 0 0 1.30285 -471.184 906.168)"><path id="path889" d="m387.7-645.4 7.1-26.1s11-18.5 20.2-17.1c.2 2.2-19.7 44-27.3 43.2" class="st2"/></g><g id="g895" transform="matrix(1.53863 0 0 1.30285 -471.184 906.168)"><path id="path893" d="M415.6-686.5 622-571.7s20.8 13.1 32.5-.1" style="fill:none;stroke:#fff;stroke-width:5.02;stroke-linecap:round;stroke-linejoin:round;stroke-miterlimit:10"/></g><g id="g899" transform="matrix(1.53863 0 0 1.30285 -471.184 906.168)"><path id="path897" d="m564.5-510.1 23.4 12.7s22.3 8.9 22 28.4c5.3-13.6 12-30.7 12-30.7" class="st6"/></g><g id="g903" transform="matrix(1.53863 0 0 1.30285 -471.184 906.168)"><path id="path901" d="m564.5-510.1-180.1-99.3s-3.1.1-3.1-28.2" class="st6"/></g><path id="path905" d="m589.043 252.788 17.5-36.8 11.7 6.1-22.3 55.7c-.1 0 8-35.7-6.9-25" class="st2"/><path id="path907" d="m553.143 232.488 32.6 17.2s.5-.1-4.8 11.2c.7-7-16.9-18.3-27.8-28.4" class="st2"/></svg>