<svg xmlns="http://www.w3.org/2000/svg" xml:space="preserve" width="886.212" height="1262.918" style="clip-rule:evenodd;fill-rule:evenodd;stroke-miterlimit:1.5"><path d="M937.157 1264.71s-96.428-206.96-366.305-355.796C293.098 755.733 543.016 284.156 767.07 500.603" style="fill:none;stroke:#000;stroke-width:83.33px" transform="matrix(1 0 0 1 -406.406 -392.911)"/><path d="m434.319 211.555-211.557-30.369L403.948 0Z"/><path d="m434.319 211.555-211.557-30.369L403.948 0Z"/><path d="M865.58 113.135c-2.917-9.853-111.578-68.999-111.578-68.999s-44.688 3.447-128.265 57.471c-149.25 34.233-140.572 25.574-140.572 25.574s-48.92 20.116-17.42 53.066c94.86 32.222 122.845-11.814 122.845-11.814s56.16 2.955-39.069 157.87c-93.148 80.59-210.4 79.684-210.4 79.684s-44.493 22.557-44.748 34.735C281.641 478.942 512.2 428.25 512.2 428.25s79.254-11.828 141.483-69.7c65.625-71.147 103.21-111.906 145.886-158.173 22.21-29.357 68.918-77.381 66.01-87.242"/><path d="M487.493 128.136c-.321.936-1.204 1.332-1.794 1.485l-.537.111-.46-2.344c-4.91 2.162-46.64 21.811-16.958 52.859 94.86 32.222 122.846-11.814 122.846-11.814s56.16 2.955-39.069 157.87c-93.148 80.59-210.4 79.684-210.4 79.684s-44.493 22.557-44.748 34.735C281.641 478.942 512.2 428.25 512.2 428.25s79.254-11.828 141.483-69.7c65.625-71.147 103.21-111.906 145.886-158.173 22.21-29.357 68.918-77.381 66.01-87.242-2.916-9.853-111.577-68.999-111.577-68.999s-44.688 3.447-128.265 57.471c-103.621 23.768-131.117 26.858-138.244 26.529m-2.867 2.073c1.021.367 3.614.75 9.934.15 13.82-1.343 47.962-7.059 131.756-26.271l.43-.104.375-.246c76.73-49.595 120.345-56.268 126.354-56.995 7.305 3.99 70.403 38.57 97.935 57.52 4.269 2.944 7.666 5.496 9.82 7.486 1.005.93 1.747 1.575 1.906 2.108.234.795-.226 1.9-.858 3.367-1.373 3.141-4.035 7.268-7.53 12.056-14.099 19.308-41.577 48.94-57.126 69.465 0 0-142.216 154.194-145.74 158.013-61.631 57.256-140.06 68.977-140.06 68.977l-.165.037s-146.914 32.373-198.171 25.81c-4.804-.62-8.711-1.555-11.493-2.967-1.641-.833-2.853-1.784-3.418-3.009-.527-1.133-.419-2.437.166-3.975l.16-.414.008-.449c.028-1.044.592-2.17 1.415-3.403 1.62-2.386 4.273-4.95 7.435-7.557 11.788-9.67 30.587-19.53 33.973-21.288 9.42-.063 121.576-2.526 211.455-80.29l.295-.26.194-.334c48.151-78.308 57.78-118.305 55.616-138.633-.934-8.814-4.04-14.202-7.335-17.535-5.276-5.337-11.234-5.565-11.234-5.565l-1.483-.085-.794 1.258s-27.247 42.013-119.296 10.966c-5.56-5.94-8.364-11.395-9.183-16.375-1.3-7.935 2.56-14.517 7.505-19.607 6.095-6.258 13.906-10.322 17.154-11.85"/><path d="m504.273 357.88-152.5-33.403s11.914-25.837 41.267-23.104c29.347 2.722 107.658 15.909 107.658 15.909s9.37-7.732 12.657-12.68c-17.688-2.233-100.928-20.2-100.928-20.2s12.788-23.953 38.376-21.487c25.59 2.449 78.168-.744 78.168-.744s69.176-63.25 69.705-77.061c19.879 20.48-34.469 138.9-94.403 172.77"/><path d="m504.273 357.88-152.5-33.403s11.914-25.837 41.267-23.104c29.347 2.722 107.658 15.909 107.658 15.909s9.37-7.732 12.657-12.68c-17.688-2.233-100.928-20.2-100.928-20.2s12.788-23.953 38.376-21.487c25.59 2.449 78.168-.744 78.168-.744s69.176-63.25 69.705-77.061c19.879 20.48-34.469 138.9-94.403 172.77m-.42-2.695-148.19-32.46c3.944-6.298 15.493-20.833 37.143-18.82 29.295 2.717 107.473 15.884 107.473 15.884l1.152.19.889-.736s9.731-8.088 13.15-13.23l-1.793-3.934c-15.473-1.954-81.115-15.955-97.157-19.39 4.191-6 15.525-19.026 34.035-17.247 25.72 2.47 78.578-.726 78.578-.726l.894-.053.663-.606s34.008-31.114 54.605-54.534c6.316-7.177 11.369-13.663 13.916-18.357.01-.024.02-.047.022-.063.518 1.597.825 3.435.982 5.48.53 7.219-1.05 16.809-4.266 27.76-12.708 43.166-50.943 107.017-92.096 130.842M482.853 365.06c-17.255 4.466-164.063 32.85-175.365 20.577 3.577-21.778 25.151-35.945 41.943-39.684 30.449-5.673 150.676 14.642 133.422 19.108"/><path d="M482.853 365.06c-17.255 4.466-164.063 32.85-175.365 20.577 3.577-21.778 25.151-35.945 41.943-39.684 30.449-5.673 150.676 14.642 133.422 19.108m-4.361-1.575c-22.407 5.062-109.253 21.561-150.148 22.614-6.358.158-11.565-.043-15.186-.757-1.178-.23-2.164-.472-2.882-.8 4.122-19.82 24.077-32.609 39.642-36.098 24.203-4.472 105.153 7.566 127.835 14.79q.375.123.739.251"/><path d="M937.038 634.766s-1.942-6.061-4.411-6.164" style="fill:none;stroke:#fff;stroke-width:1px;stroke-linecap:round;stroke-linejoin:round" transform="matrix(.40438 -.91459 -.91459 -.40438 730.61 1375.87)"/><path d="m1037.18 723.061 15.69-34.51s-23.65-10.86-36.44 8.205-7 21.921-11.1 26.546c-4.1 4.624 9.41 16.41 31.85-.241" style="fill:#fff;stroke:#000;stroke-width:1px;stroke-linecap:round;stroke-linejoin:round" transform="matrix(.23753 -.97138 -.97138 -.23753 931.465 1314.426)"/><path d="M1028.74 628.534s8.75-9.885 27.76-6.26M768.425 685.471s-4.267-14.208-10.041-18.727M758.384 659.464s18.326 19.229 15.313 16.644M861.616 576.402s16.356 3.673 20.572 9.181M879.748 568.598s7.574 11.247 7.345 19.051M1031.33 587.649s57.54-38.39 110.94-43.279c-68.07 22.187-98.66 41.366-98.66 58.664M842.592 717.361s11.898-.984 13.574-5.939" style="fill:none;stroke:#fff;stroke-width:2.08px;stroke-linecap:round;stroke-linejoin:round" transform="matrix(.40438 -.91459 -.91459 -.40438 730.61 1375.87)"/><path d="M1026.04 692.029s-6.72 7.993-4.75 10.856c1.98 2.864-7.59-6.438 4.75-10.856" style="stroke:#fff;stroke-width:2.08px;stroke-linecap:round;stroke-linejoin:round" transform="matrix(.04468 -.999 -.999 -.04468 1150.407 1208.834)"/><path d="M862.35 624.244s15.762 14.947 16.305 19.023c.544 4.077-4.981-7.609-19.068-8.968" style="fill:none;stroke:#fff;stroke-width:2.65px;stroke-linecap:round;stroke-linejoin:round" transform="matrix(.34521 -.78077 -.65028 -.28752 616.475 1187.891)"/><path d="M937.038 636.216s-14.125-3.105-14.978-1.45M793.968 724.9s6.952 5.993 8.511 6.473M792.769 728.136s6.593 8.631 8.151 7.193M842.592 723.897s9.552-.431 11.563-4.968M870.051 509.663l26.848 10.739 25.383-23.919" style="fill:none;stroke:#fff;stroke-width:2.08px;stroke-linecap:round;stroke-linejoin:round" transform="matrix(.40438 -.91459 -.91459 -.40438 730.61 1375.87)"/><path d="m703.609 511.987 99.535-101.019 24.024 145.533s-142.709 4.279-179.918 2.815c164.761 6.486 144.841-141.206 56.359-47.329" style="fill:#fff" transform="matrix(1 0 0 1 -406.406 -392.911)"/><path d="M827.168 595.932 647.25 568.65" style="fill:none;stroke:#fff;stroke-width:3.45px;stroke-linecap:round;stroke-linejoin:round" transform="matrix(1 0 0 1 -406.406 -392.911)"/><path d="M702.114 490.471s-89.605-72.312-180.841 60.148c-91.235 132.459-33.56 271.002 37.17 321.688 143.381 68.426 263.23 170.813 400.252 369.163" style="fill:none;stroke:#fff;stroke-width:8.33px;stroke-linecap:round;stroke-linejoin:round" transform="matrix(1 0 0 1 -406.406 -392.911)"/><path d="M901.51 1271.95s33.283-12.46 10.586-69.21c-22.697-56.74 35.088 45.33 35.088 45.33z" style="fill:#fff" transform="matrix(1 0 0 1 -406.406 -392.911)"/><path d="m1213.66 1280.89-553.339 23.58v21.24L846.4 1557.12l65.696 56.94 43.343 6.06 29.078-1.21 25.443 14.54 144.17-102.98 89.66-88.4 15.75-36.87 1.21-67.37-6.06-39.19z" style="stroke:#000;stroke-width:1px;stroke-linecap:round;stroke-linejoin:round" transform="matrix(1 0 0 1 -406.41 -392.908)"/><path d="M467.047 534.138a122 122 0 0 1 40.28-4.229 122.96 122.96 0 0 1 84.573 41.3l267.78 302.964c30.665 34.694 34.451 83.872 12.904 122.042 2.327.48 4.165 1.457 5.482 2.947 14.452 16.35-39.818 87.963-121.122 159.825s-159.046 116.93-173.498 100.58c-1.318-1.49-2.061-3.435-2.252-5.803-40.524 16.693-88.867 6.897-119.533-27.798l-267.78-302.963a122.97 122.97 0 0 1-30.598-89.005 122.1 122.1 0 0 1 9.143-39.455l-47.26-53.47 294.62-260.404zm160.471 713.872c.043.324.092.654.122.99.042.337.072.672.102 1.008zm200.408-238.197c-15.453 20.769-57.209 74.668-101.912 114.18-44.71 39.517-103.33 74.337-125.84 87.121a46.6 46.6 0 0 0-36.768-.527c-22.634 9.323-49.625 3.831-66.754-15.548l-267.78-302.963a76.25 76.25 0 0 1-18.977-55.207 75.4 75.4 0 0 1 5.64-24.375 46.69 46.69 0 0 0-8.117-48.88l-16.33-18.475 224.637-198.548 16.33 18.475a46.69 46.69 0 0 0 47.512 14.059 75.6 75.6 0 0 1 24.89-2.608 76.26 76.26 0 0 1 52.451 25.62L824.688 905.1c17.128 19.38 19.263 46.84 7.23 68.158a46.6 46.6 0 0 0-3.992 36.555"/><path d="m1044.98 841.891-318.551 2.846 1.784 57.789s-61.699 28.742-62.465 86.225" style="fill:none;stroke:#fff;stroke-width:22.92px;stroke-linecap:round;stroke-linejoin:round" transform="matrix(.8211 -.72573 .71901 .81349 -1045.417 584.542)"/><path d="m293.671 943.446 11.638-10.286 104 117.666-11.637 10.286zM535.81 609.526l5.818-5.143L645.63 722.049l-5.818 5.143zM357.894 982.07l7.508-6.635 59.296 67.087-7.508 6.636z"/><path d="m1113.41 1305.2-1.33 50.93s-2.25 48.19-55.81 78.27" style="fill:none;stroke:#fff;stroke-width:15.28px;stroke-linecap:round;stroke-linejoin:round" transform="matrix(.8211 -.72573 .71901 .81349 -1045.417 584.542)"/><path d="m1113.41 1305.2-1.33 50.93s-2.25 48.19-55.81 78.27" style="fill:none;stroke:#fff;stroke-width:15.28px;stroke-linecap:round;stroke-linejoin:round" transform="matrix(-.77488 .77488 .7677 .7677 300.42 -680.939)"/><path d="M1277.35 1394.93s-176.34 97.11-281.627 250.92" style="fill:none;stroke:#fff;stroke-width:3.45px;stroke-linecap:round;stroke-linejoin:round" transform="matrix(1 0 0 1 -406.406 -392.911)"/><path d="M1018 1645.85c231.12-142.61 232.66-217.89 242.75-227.12 6.8-4.57 16.6-10.48 16.6-10.48-16.6 39.22-80.09 139.95-259.35 237.6" style="fill:#fff" transform="matrix(1 0 0 1 -406.406 -392.911)"/><path d="m731.923 1394.93 171.712 172.79s40.729 34.12 92.088 8.91c51.357-25.2 153.127-169.18 236.487-187.91-133.76 36.52-144.42 120.84-263.636 98.55s-236.651-92.34-236.651-92.34" style="fill:#fff;stroke:#fff;stroke-width:3.45px;stroke-linecap:round;stroke-linejoin:round" transform="matrix(1 0 0 1 -406.406 -392.911)"/><path d="M700.075 1304.47s381.095-41.18 513.585 0c132.49 41.17-458.176 38.79-513.585 0" style="fill:#fff;stroke:#fff;stroke-width:3.45px;stroke-linecap:round;stroke-linejoin:round" transform="matrix(1 0 0 1 -407.17 -377.155)"/><ellipse cx="1032.13" cy="1329.11" rx="66.368" ry="6.732" transform="matrix(1 0 0 1 -465.957 -402.68)"/><path d="M607.23 916.946s-315.368 8.35-276.413 16.21c69.474 14.01 87.485 8.85 126.864 8.83-94.003-1.83-114.459-25.04 149.55-25.04"/><path d="M663.97 916.946s204.46 9.43 122.08 20.35c-82.38 10.91-347.872-1-355.316 1.49-7.444 2.48 251.597-5.63 283.356-5.63 103.72 0-2.48-3.31-50.12-16.21"/><path d="M497.528 507.371s82.037-109.717 187.832-82.683" style="fill:none;stroke:#fff;stroke-width:8.33px;stroke-linecap:round;stroke-linejoin:round" transform="matrix(1 0 0 1 -418.402 -401.216)"/><path d="M594.322 444.725s16.63-15.647 45.958-10.809" style="fill:none;stroke:#fff;stroke-width:8.33px;stroke-linecap:round;stroke-linejoin:round" transform="matrix(1 0 0 1 -406.406 -392.911)"/><path d="M474.277 521.646s-74.274 103.523-47.109 228.537" style="fill:none;stroke:#fff;stroke-width:3.33px;stroke-linecap:round;stroke-linejoin:round" transform="matrix(1 0 0 1 -406.406 -392.911)"/></svg>